<svg width="30" height="36" viewBox="0 0 30 36" fill="none" xmlns="http://www.w3.org/2000/svg">
<g id="check-shield">
<path id="Shape" fill-rule="evenodd" clip-rule="evenodd" d="M2.23667 0H27.4907C28.728 0.00742433 29.7272 1.01261 29.7272 2.25V11.6445C29.7621 21.7983 24.1774 31.1383 15.2162 35.913C15.1076 35.9704 14.9865 36.0003 14.8637 36C14.7412 36 14.6206 35.9696 14.5127 35.9115C5.55016 31.1388 -0.0356174 21.7985 0.000170951 11.6445V2.25C0.000148678 1.01261 0.999306 0.00742433 2.23667 0ZM13.0637 21.9675L23.7137 11.9175C24.1033 11.5491 24.2667 11.0008 24.1424 10.4792C24.0182 9.95754 23.6251 9.54185 23.1112 9.38866C22.5973 9.23547 22.0408 9.36807 21.6512 9.7365L14.6692 16.3167C13.2173 17.685 10.9389 17.6452 9.53567 16.227C9.16089 15.8357 8.60419 15.6769 8.07935 15.8116C7.55452 15.9463 7.14314 16.3537 7.00322 16.8771C6.86329 17.4006 7.01656 17.9589 7.40417 18.3375L10.9637 21.9315C11.5371 22.5133 12.4707 22.5293 13.0637 21.9675Z" fill="#5694E3"/>
</g>
</svg>
