<svg width="20" height="20" viewBox="0 0 20 20" fill="none" xmlns="http://www.w3.org/2000/svg">
<g id="Vector">
<mask id="path-1-inside-1_283_2433" fill="white">
<path d="M11.8223 1.45156C11.7226 1.02109 11.474 0.63968 11.1204 0.374648C10.7668 0.109616 10.331 -0.0220058 9.88978 0.0030078C9.4486 0.0280214 9.03044 0.208063 8.70908 0.511362C8.38772 0.814662 8.18382 1.22172 8.13335 1.66072C8.08289 2.09971 8.18911 2.54242 8.43327 2.91073C8.67743 3.27903 9.04384 3.54926 9.46783 3.67372C9.89183 3.79819 10.3462 3.76889 10.7507 3.591C11.1552 3.41311 11.4838 3.09806 11.6786 2.70144C12.8647 2.97153 13.9673 3.52607 14.8912 4.31726C15.8152 5.10844 16.5328 6.11251 16.9822 7.24287L18.1258 6.79318C17.5965 5.45245 16.744 4.26329 15.6443 3.3314C14.5446 2.39951 13.2317 1.75377 11.8223 1.45156ZM10.0042 2.50687C9.92049 2.50956 9.83708 2.49539 9.75895 2.46522C9.68082 2.43504 9.60956 2.38946 9.54939 2.33119C9.48922 2.27292 9.44138 2.20316 9.40871 2.12604C9.37603 2.04892 9.3592 1.96601 9.3592 1.88226C9.3592 1.7985 9.37603 1.7156 9.40871 1.63848C9.44138 1.56135 9.48922 1.49159 9.54939 1.43332C9.60956 1.37505 9.68082 1.32948 9.75895 1.2993C9.83708 1.26912 9.92049 1.25495 10.0042 1.25764C10.1699 1.25764 10.3289 1.32348 10.4461 1.44068C10.5633 1.55788 10.6291 1.71683 10.6291 1.88258C10.6291 2.04832 10.5633 2.20728 10.4461 2.32448C10.3289 2.44167 10.1699 2.50687 10.0042 2.50687ZM7.25511 3.02615L6.79318 1.88322C5.45245 2.41259 4.26329 3.26501 3.3314 4.36471C2.39951 5.46441 1.75377 6.77731 1.45156 8.18672C1.02109 8.28648 0.63968 8.53509 0.374648 8.88867C0.109616 9.24225 -0.0220058 9.67809 0.0030078 10.1193C0.0280214 10.5604 0.208063 10.9786 0.511363 11.3C0.814662 11.6213 1.22172 11.8252 1.66072 11.8757C2.09971 11.9261 2.54242 11.8199 2.91073 11.5758C3.27903 11.3316 3.54926 10.9652 3.67373 10.5412C3.79819 10.1172 3.76889 9.66288 3.591 9.25838C3.41311 8.85389 3.09806 8.52523 2.70144 8.33039C2.97264 7.14293 3.52899 6.03939 4.3224 5.11521C5.11581 4.19102 6.1224 3.474 7.25511 3.02615ZM1.88193 10.6298C1.79987 10.6298 1.7186 10.6136 1.64278 10.5822C1.56696 10.5508 1.49807 10.5048 1.44004 10.4467C1.38201 10.3887 1.33597 10.3198 1.30457 10.244C1.27316 10.1682 1.257 10.0869 1.257 10.0048C1.257 9.92277 1.27316 9.84151 1.30457 9.76569C1.33597 9.68987 1.38201 9.62097 1.44004 9.56294C1.49807 9.50491 1.56696 9.45888 1.64278 9.42747C1.7186 9.39607 1.79987 9.3799 1.88193 9.3799C2.04768 9.3799 2.20663 9.44574 2.32383 9.56294C2.44103 9.68014 2.50687 9.8391 2.50687 10.0048C2.50687 10.1706 2.44103 10.3295 2.32383 10.4467C2.20663 10.5639 2.04768 10.6298 1.88193 10.6298ZM10.0042 16.2523C9.65567 16.2534 9.31435 16.3517 9.01857 16.5361C8.72279 16.7204 8.48425 16.9836 8.32975 17.296C7.1435 17.0259 6.04077 16.4713 5.11668 15.68C4.19259 14.8887 3.4749 13.8845 3.02551 12.7539L1.88258 13.2159C2.41367 14.5588 3.26894 15.7495 4.37209 16.6815C5.47524 17.6136 6.79196 18.2581 8.20476 18.5575C8.28592 18.9014 8.46264 19.2154 8.71454 19.4633C8.96644 19.7112 9.28327 19.8828 9.62849 19.9584C9.97371 20.034 10.3333 20.0104 10.6657 19.8905C10.9981 19.7706 11.2899 19.5591 11.5073 19.2806C11.7248 19.002 11.8591 18.6676 11.8947 18.316C11.9304 17.9644 11.8659 17.6099 11.7088 17.2934C11.5517 16.9768 11.3083 16.7111 11.0067 16.5269C10.7051 16.3427 10.3576 16.2475 10.0042 16.2523ZM10.0042 18.7514C9.83846 18.7514 9.6795 18.6856 9.5623 18.5684C9.4451 18.4512 9.37926 18.2922 9.37926 18.1265C9.37926 17.9607 9.4451 17.8018 9.5623 17.6846C9.6795 17.5674 9.83846 17.5015 10.0042 17.5015C10.1699 17.5015 10.3289 17.5674 10.4461 17.6846C10.5633 17.8018 10.6291 17.9607 10.6291 18.1265C10.6291 18.2922 10.5633 18.4512 10.4461 18.5684C10.3289 18.6856 10.1699 18.7514 10.0042 18.7514ZM20 10.0042C20.0011 9.66969 19.9128 9.34096 19.744 9.05212C19.5753 8.76328 19.3323 8.52485 19.0404 8.36155C18.7485 8.19825 18.4181 8.11604 18.0837 8.12344C17.7493 8.13084 17.4229 8.22759 17.1385 8.40364C16.854 8.5797 16.6219 8.82865 16.4661 9.12467C16.3103 9.42069 16.2366 9.75301 16.2525 10.0871C16.2684 10.4213 16.3735 10.7451 16.5568 11.0249C16.74 11.3048 16.9948 11.5305 17.2947 11.6786C17.0246 12.8648 16.4699 13.9674 15.6786 14.8913C14.8873 15.8153 13.8831 16.5329 12.7526 16.9822L13.2152 18.1258C14.5582 17.5947 15.7488 16.7395 16.6809 15.6363C17.6129 14.5332 18.2574 13.2164 18.5568 11.8036C18.9635 11.7074 19.3264 11.4781 19.5879 11.1521C19.8494 10.8261 19.9944 10.4221 20 10.0042ZM18.1252 10.6291C17.9594 10.6291 17.8005 10.5633 17.6833 10.4461C17.5661 10.3289 17.5002 10.1699 17.5002 10.0042C17.5002 9.83845 17.5661 9.6795 17.6833 9.5623C17.8005 9.4451 17.9594 9.37926 18.1252 9.37926C18.2909 9.37926 18.4499 9.4451 18.5671 9.5623C18.6843 9.6795 18.7501 9.83845 18.7501 10.0042C18.7501 10.1699 18.6843 10.3289 18.5671 10.4461C18.4499 10.5633 18.2909 10.6291 18.1252 10.6291Z"/>
<path d="M11.7469 9.91722C12.1024 9.57013 12.3463 9.12497 12.4476 8.63859C12.5489 8.15221 12.5029 7.64668 12.3155 7.18656C12.1281 6.72645 11.8078 6.33262 11.3956 6.05537C10.9833 5.77813 10.4978 5.63005 10.001 5.63005C9.50414 5.63005 9.0186 5.77813 8.60634 6.05537C8.19408 6.33262 7.87381 6.72645 7.68642 7.18656C7.49904 7.64668 7.45305 8.15221 7.55432 8.63859C7.65559 9.12497 7.89954 9.57013 8.25499 9.91722C7.83198 10.2031 7.48548 10.5884 7.2458 11.0392C7.00612 11.49 6.88057 11.9927 6.88013 12.5033V13.7525H13.1276V12.5027C13.1265 11.9916 13.0001 11.4885 12.7593 11.0377C12.5186 10.5868 12.171 10.2025 11.7469 9.91722ZM8.7543 8.12938C8.7543 7.96525 8.78663 7.80272 8.84944 7.65108C8.91225 7.49944 9.00432 7.36165 9.12038 7.24559C9.23644 7.12953 9.37423 7.03746 9.52587 6.97465C9.67751 6.91184 9.84004 6.87951 10.0042 6.87951C10.1683 6.87951 10.3308 6.91184 10.4825 6.97465C10.6341 7.03746 10.7719 7.12953 10.888 7.24559C11.004 7.36165 11.0961 7.49944 11.1589 7.65108C11.2217 7.80272 11.2541 7.96525 11.2541 8.12938C11.2541 8.46087 11.1224 8.77878 10.888 9.01318C10.6536 9.24758 10.3357 9.37926 10.0042 9.37926C9.67269 9.37926 9.35478 9.24758 9.12038 9.01318C8.88598 8.77878 8.7543 8.46087 8.7543 8.12938ZM8.12936 12.5027C8.12474 12.2536 8.16982 12.0061 8.26194 11.7746C8.35407 11.5431 8.49141 11.3323 8.66593 11.1546C8.84045 10.9768 9.04865 10.8356 9.27837 10.7392C9.50809 10.6427 9.75473 10.5931 10.0039 10.5931C10.253 10.5931 10.4996 10.6427 10.7293 10.7392C10.9591 10.8356 11.1673 10.9768 11.3418 11.1546C11.5163 11.3323 11.6536 11.5431 11.7458 11.7746C11.8379 12.0061 11.883 12.2536 11.8783 12.5027H8.12936Z"/>
</mask>
<path d="M11.8223 1.45156C11.7226 1.02109 11.474 0.63968 11.1204 0.374648C10.7668 0.109616 10.331 -0.0220058 9.88978 0.0030078C9.4486 0.0280214 9.03044 0.208063 8.70908 0.511362C8.38772 0.814662 8.18382 1.22172 8.13335 1.66072C8.08289 2.09971 8.18911 2.54242 8.43327 2.91073C8.67743 3.27903 9.04384 3.54926 9.46783 3.67372C9.89183 3.79819 10.3462 3.76889 10.7507 3.591C11.1552 3.41311 11.4838 3.09806 11.6786 2.70144C12.8647 2.97153 13.9673 3.52607 14.8912 4.31726C15.8152 5.10844 16.5328 6.11251 16.9822 7.24287L18.1258 6.79318C17.5965 5.45245 16.744 4.26329 15.6443 3.3314C14.5446 2.39951 13.2317 1.75377 11.8223 1.45156ZM10.0042 2.50687C9.92049 2.50956 9.83708 2.49539 9.75895 2.46522C9.68082 2.43504 9.60956 2.38946 9.54939 2.33119C9.48922 2.27292 9.44138 2.20316 9.40871 2.12604C9.37603 2.04892 9.3592 1.96601 9.3592 1.88226C9.3592 1.7985 9.37603 1.7156 9.40871 1.63848C9.44138 1.56135 9.48922 1.49159 9.54939 1.43332C9.60956 1.37505 9.68082 1.32948 9.75895 1.2993C9.83708 1.26912 9.92049 1.25495 10.0042 1.25764C10.1699 1.25764 10.3289 1.32348 10.4461 1.44068C10.5633 1.55788 10.6291 1.71683 10.6291 1.88258C10.6291 2.04832 10.5633 2.20728 10.4461 2.32448C10.3289 2.44167 10.1699 2.50687 10.0042 2.50687ZM7.25511 3.02615L6.79318 1.88322C5.45245 2.41259 4.26329 3.26501 3.3314 4.36471C2.39951 5.46441 1.75377 6.77731 1.45156 8.18672C1.02109 8.28648 0.63968 8.53509 0.374648 8.88867C0.109616 9.24225 -0.0220058 9.67809 0.0030078 10.1193C0.0280214 10.5604 0.208063 10.9786 0.511363 11.3C0.814662 11.6213 1.22172 11.8252 1.66072 11.8757C2.09971 11.9261 2.54242 11.8199 2.91073 11.5758C3.27903 11.3316 3.54926 10.9652 3.67373 10.5412C3.79819 10.1172 3.76889 9.66288 3.591 9.25838C3.41311 8.85389 3.09806 8.52523 2.70144 8.33039C2.97264 7.14293 3.52899 6.03939 4.3224 5.11521C5.11581 4.19102 6.1224 3.474 7.25511 3.02615ZM1.88193 10.6298C1.79987 10.6298 1.7186 10.6136 1.64278 10.5822C1.56696 10.5508 1.49807 10.5048 1.44004 10.4467C1.38201 10.3887 1.33597 10.3198 1.30457 10.244C1.27316 10.1682 1.257 10.0869 1.257 10.0048C1.257 9.92277 1.27316 9.84151 1.30457 9.76569C1.33597 9.68987 1.38201 9.62097 1.44004 9.56294C1.49807 9.50491 1.56696 9.45888 1.64278 9.42747C1.7186 9.39607 1.79987 9.3799 1.88193 9.3799C2.04768 9.3799 2.20663 9.44574 2.32383 9.56294C2.44103 9.68014 2.50687 9.8391 2.50687 10.0048C2.50687 10.1706 2.44103 10.3295 2.32383 10.4467C2.20663 10.5639 2.04768 10.6298 1.88193 10.6298ZM10.0042 16.2523C9.65567 16.2534 9.31435 16.3517 9.01857 16.5361C8.72279 16.7204 8.48425 16.9836 8.32975 17.296C7.1435 17.0259 6.04077 16.4713 5.11668 15.68C4.19259 14.8887 3.4749 13.8845 3.02551 12.7539L1.88258 13.2159C2.41367 14.5588 3.26894 15.7495 4.37209 16.6815C5.47524 17.6136 6.79196 18.2581 8.20476 18.5575C8.28592 18.9014 8.46264 19.2154 8.71454 19.4633C8.96644 19.7112 9.28327 19.8828 9.62849 19.9584C9.97371 20.034 10.3333 20.0104 10.6657 19.8905C10.9981 19.7706 11.2899 19.5591 11.5073 19.2806C11.7248 19.002 11.8591 18.6676 11.8947 18.316C11.9304 17.9644 11.8659 17.6099 11.7088 17.2934C11.5517 16.9768 11.3083 16.7111 11.0067 16.5269C10.7051 16.3427 10.3576 16.2475 10.0042 16.2523ZM10.0042 18.7514C9.83846 18.7514 9.6795 18.6856 9.5623 18.5684C9.4451 18.4512 9.37926 18.2922 9.37926 18.1265C9.37926 17.9607 9.4451 17.8018 9.5623 17.6846C9.6795 17.5674 9.83846 17.5015 10.0042 17.5015C10.1699 17.5015 10.3289 17.5674 10.4461 17.6846C10.5633 17.8018 10.6291 17.9607 10.6291 18.1265C10.6291 18.2922 10.5633 18.4512 10.4461 18.5684C10.3289 18.6856 10.1699 18.7514 10.0042 18.7514ZM20 10.0042C20.0011 9.66969 19.9128 9.34096 19.744 9.05212C19.5753 8.76328 19.3323 8.52485 19.0404 8.36155C18.7485 8.19825 18.4181 8.11604 18.0837 8.12344C17.7493 8.13084 17.4229 8.22759 17.1385 8.40364C16.854 8.5797 16.6219 8.82865 16.4661 9.12467C16.3103 9.42069 16.2366 9.75301 16.2525 10.0871C16.2684 10.4213 16.3735 10.7451 16.5568 11.0249C16.74 11.3048 16.9948 11.5305 17.2947 11.6786C17.0246 12.8648 16.4699 13.9674 15.6786 14.8913C14.8873 15.8153 13.8831 16.5329 12.7526 16.9822L13.2152 18.1258C14.5582 17.5947 15.7488 16.7395 16.6809 15.6363C17.6129 14.5332 18.2574 13.2164 18.5568 11.8036C18.9635 11.7074 19.3264 11.4781 19.5879 11.1521C19.8494 10.8261 19.9944 10.4221 20 10.0042ZM18.1252 10.6291C17.9594 10.6291 17.8005 10.5633 17.6833 10.4461C17.5661 10.3289 17.5002 10.1699 17.5002 10.0042C17.5002 9.83845 17.5661 9.6795 17.6833 9.5623C17.8005 9.4451 17.9594 9.37926 18.1252 9.37926C18.2909 9.37926 18.4499 9.4451 18.5671 9.5623C18.6843 9.6795 18.7501 9.83845 18.7501 10.0042C18.7501 10.1699 18.6843 10.3289 18.5671 10.4461C18.4499 10.5633 18.2909 10.6291 18.1252 10.6291Z" fill="#929292"/>
<path d="M11.7469 9.91722C12.1024 9.57013 12.3463 9.12497 12.4476 8.63859C12.5489 8.15221 12.5029 7.64668 12.3155 7.18656C12.1281 6.72645 11.8078 6.33262 11.3956 6.05537C10.9833 5.77813 10.4978 5.63005 10.001 5.63005C9.50414 5.63005 9.0186 5.77813 8.60634 6.05537C8.19408 6.33262 7.87381 6.72645 7.68642 7.18656C7.49904 7.64668 7.45305 8.15221 7.55432 8.63859C7.65559 9.12497 7.89954 9.57013 8.25499 9.91722C7.83198 10.2031 7.48548 10.5884 7.2458 11.0392C7.00612 11.49 6.88057 11.9927 6.88013 12.5033V13.7525H13.1276V12.5027C13.1265 11.9916 13.0001 11.4885 12.7593 11.0377C12.5186 10.5868 12.171 10.2025 11.7469 9.91722ZM8.7543 8.12938C8.7543 7.96525 8.78663 7.80272 8.84944 7.65108C8.91225 7.49944 9.00432 7.36165 9.12038 7.24559C9.23644 7.12953 9.37423 7.03746 9.52587 6.97465C9.67751 6.91184 9.84004 6.87951 10.0042 6.87951C10.1683 6.87951 10.3308 6.91184 10.4825 6.97465C10.6341 7.03746 10.7719 7.12953 10.888 7.24559C11.004 7.36165 11.0961 7.49944 11.1589 7.65108C11.2217 7.80272 11.2541 7.96525 11.2541 8.12938C11.2541 8.46087 11.1224 8.77878 10.888 9.01318C10.6536 9.24758 10.3357 9.37926 10.0042 9.37926C9.67269 9.37926 9.35478 9.24758 9.12038 9.01318C8.88598 8.77878 8.7543 8.46087 8.7543 8.12938ZM8.12936 12.5027C8.12474 12.2536 8.16982 12.0061 8.26194 11.7746C8.35407 11.5431 8.49141 11.3323 8.66593 11.1546C8.84045 10.9768 9.04865 10.8356 9.27837 10.7392C9.50809 10.6427 9.75473 10.5931 10.0039 10.5931C10.253 10.5931 10.4996 10.6427 10.7293 10.7392C10.9591 10.8356 11.1673 10.9768 11.3418 11.1546C11.5163 11.3323 11.6536 11.5431 11.7458 11.7746C11.8379 12.0061 11.883 12.2536 11.8783 12.5027H8.12936Z" fill="#929292"/>
<path d="M11.8223 1.45156C11.7226 1.02109 11.474 0.63968 11.1204 0.374648C10.7668 0.109616 10.331 -0.0220058 9.88978 0.0030078C9.4486 0.0280214 9.03044 0.208063 8.70908 0.511362C8.38772 0.814662 8.18382 1.22172 8.13335 1.66072C8.08289 2.09971 8.18911 2.54242 8.43327 2.91073C8.67743 3.27903 9.04384 3.54926 9.46783 3.67372C9.89183 3.79819 10.3462 3.76889 10.7507 3.591C11.1552 3.41311 11.4838 3.09806 11.6786 2.70144C12.8647 2.97153 13.9673 3.52607 14.8912 4.31726C15.8152 5.10844 16.5328 6.11251 16.9822 7.24287L18.1258 6.79318C17.5965 5.45245 16.744 4.26329 15.6443 3.3314C14.5446 2.39951 13.2317 1.75377 11.8223 1.45156ZM10.0042 2.50687C9.92049 2.50956 9.83708 2.49539 9.75895 2.46522C9.68082 2.43504 9.60956 2.38946 9.54939 2.33119C9.48922 2.27292 9.44138 2.20316 9.40871 2.12604C9.37603 2.04892 9.3592 1.96601 9.3592 1.88226C9.3592 1.7985 9.37603 1.7156 9.40871 1.63848C9.44138 1.56135 9.48922 1.49159 9.54939 1.43332C9.60956 1.37505 9.68082 1.32948 9.75895 1.2993C9.83708 1.26912 9.92049 1.25495 10.0042 1.25764C10.1699 1.25764 10.3289 1.32348 10.4461 1.44068C10.5633 1.55788 10.6291 1.71683 10.6291 1.88258C10.6291 2.04832 10.5633 2.20728 10.4461 2.32448C10.3289 2.44167 10.1699 2.50687 10.0042 2.50687ZM7.25511 3.02615L6.79318 1.88322C5.45245 2.41259 4.26329 3.26501 3.3314 4.36471C2.39951 5.46441 1.75377 6.77731 1.45156 8.18672C1.02109 8.28648 0.63968 8.53509 0.374648 8.88867C0.109616 9.24225 -0.0220058 9.67809 0.0030078 10.1193C0.0280214 10.5604 0.208063 10.9786 0.511363 11.3C0.814662 11.6213 1.22172 11.8252 1.66072 11.8757C2.09971 11.9261 2.54242 11.8199 2.91073 11.5758C3.27903 11.3316 3.54926 10.9652 3.67373 10.5412C3.79819 10.1172 3.76889 9.66288 3.591 9.25838C3.41311 8.85389 3.09806 8.52523 2.70144 8.33039C2.97264 7.14293 3.52899 6.03939 4.3224 5.11521C5.11581 4.19102 6.1224 3.474 7.25511 3.02615ZM1.88193 10.6298C1.79987 10.6298 1.7186 10.6136 1.64278 10.5822C1.56696 10.5508 1.49807 10.5048 1.44004 10.4467C1.38201 10.3887 1.33597 10.3198 1.30457 10.244C1.27316 10.1682 1.257 10.0869 1.257 10.0048C1.257 9.92277 1.27316 9.84151 1.30457 9.76569C1.33597 9.68987 1.38201 9.62097 1.44004 9.56294C1.49807 9.50491 1.56696 9.45888 1.64278 9.42747C1.7186 9.39607 1.79987 9.3799 1.88193 9.3799C2.04768 9.3799 2.20663 9.44574 2.32383 9.56294C2.44103 9.68014 2.50687 9.8391 2.50687 10.0048C2.50687 10.1706 2.44103 10.3295 2.32383 10.4467C2.20663 10.5639 2.04768 10.6298 1.88193 10.6298ZM10.0042 16.2523C9.65567 16.2534 9.31435 16.3517 9.01857 16.5361C8.72279 16.7204 8.48425 16.9836 8.32975 17.296C7.1435 17.0259 6.04077 16.4713 5.11668 15.68C4.19259 14.8887 3.4749 13.8845 3.02551 12.7539L1.88258 13.2159C2.41367 14.5588 3.26894 15.7495 4.37209 16.6815C5.47524 17.6136 6.79196 18.2581 8.20476 18.5575C8.28592 18.9014 8.46264 19.2154 8.71454 19.4633C8.96644 19.7112 9.28327 19.8828 9.62849 19.9584C9.97371 20.034 10.3333 20.0104 10.6657 19.8905C10.9981 19.7706 11.2899 19.5591 11.5073 19.2806C11.7248 19.002 11.8591 18.6676 11.8947 18.316C11.9304 17.9644 11.8659 17.6099 11.7088 17.2934C11.5517 16.9768 11.3083 16.7111 11.0067 16.5269C10.7051 16.3427 10.3576 16.2475 10.0042 16.2523ZM10.0042 18.7514C9.83846 18.7514 9.6795 18.6856 9.5623 18.5684C9.4451 18.4512 9.37926 18.2922 9.37926 18.1265C9.37926 17.9607 9.4451 17.8018 9.5623 17.6846C9.6795 17.5674 9.83846 17.5015 10.0042 17.5015C10.1699 17.5015 10.3289 17.5674 10.4461 17.6846C10.5633 17.8018 10.6291 17.9607 10.6291 18.1265C10.6291 18.2922 10.5633 18.4512 10.4461 18.5684C10.3289 18.6856 10.1699 18.7514 10.0042 18.7514ZM20 10.0042C20.0011 9.66969 19.9128 9.34096 19.744 9.05212C19.5753 8.76328 19.3323 8.52485 19.0404 8.36155C18.7485 8.19825 18.4181 8.11604 18.0837 8.12344C17.7493 8.13084 17.4229 8.22759 17.1385 8.40364C16.854 8.5797 16.6219 8.82865 16.4661 9.12467C16.3103 9.42069 16.2366 9.75301 16.2525 10.0871C16.2684 10.4213 16.3735 10.7451 16.5568 11.0249C16.74 11.3048 16.9948 11.5305 17.2947 11.6786C17.0246 12.8648 16.4699 13.9674 15.6786 14.8913C14.8873 15.8153 13.8831 16.5329 12.7526 16.9822L13.2152 18.1258C14.5582 17.5947 15.7488 16.7395 16.6809 15.6363C17.6129 14.5332 18.2574 13.2164 18.5568 11.8036C18.9635 11.7074 19.3264 11.4781 19.5879 11.1521C19.8494 10.8261 19.9944 10.4221 20 10.0042ZM18.1252 10.6291C17.9594 10.6291 17.8005 10.5633 17.6833 10.4461C17.5661 10.3289 17.5002 10.1699 17.5002 10.0042C17.5002 9.83845 17.5661 9.6795 17.6833 9.5623C17.8005 9.4451 17.9594 9.37926 18.1252 9.37926C18.2909 9.37926 18.4499 9.4451 18.5671 9.5623C18.6843 9.6795 18.7501 9.83845 18.7501 10.0042C18.7501 10.1699 18.6843 10.3289 18.5671 10.4461C18.4499 10.5633 18.2909 10.6291 18.1252 10.6291Z" stroke="#EAF3FF" stroke-width="0.2" mask="url(#path-1-inside-1_283_2433)"/>
<path d="M11.7469 9.91722C12.1024 9.57013 12.3463 9.12497 12.4476 8.63859C12.5489 8.15221 12.5029 7.64668 12.3155 7.18656C12.1281 6.72645 11.8078 6.33262 11.3956 6.05537C10.9833 5.77813 10.4978 5.63005 10.001 5.63005C9.50414 5.63005 9.0186 5.77813 8.60634 6.05537C8.19408 6.33262 7.87381 6.72645 7.68642 7.18656C7.49904 7.64668 7.45305 8.15221 7.55432 8.63859C7.65559 9.12497 7.89954 9.57013 8.25499 9.91722C7.83198 10.2031 7.48548 10.5884 7.2458 11.0392C7.00612 11.49 6.88057 11.9927 6.88013 12.5033V13.7525H13.1276V12.5027C13.1265 11.9916 13.0001 11.4885 12.7593 11.0377C12.5186 10.5868 12.171 10.2025 11.7469 9.91722ZM8.7543 8.12938C8.7543 7.96525 8.78663 7.80272 8.84944 7.65108C8.91225 7.49944 9.00432 7.36165 9.12038 7.24559C9.23644 7.12953 9.37423 7.03746 9.52587 6.97465C9.67751 6.91184 9.84004 6.87951 10.0042 6.87951C10.1683 6.87951 10.3308 6.91184 10.4825 6.97465C10.6341 7.03746 10.7719 7.12953 10.888 7.24559C11.004 7.36165 11.0961 7.49944 11.1589 7.65108C11.2217 7.80272 11.2541 7.96525 11.2541 8.12938C11.2541 8.46087 11.1224 8.77878 10.888 9.01318C10.6536 9.24758 10.3357 9.37926 10.0042 9.37926C9.67269 9.37926 9.35478 9.24758 9.12038 9.01318C8.88598 8.77878 8.7543 8.46087 8.7543 8.12938ZM8.12936 12.5027C8.12474 12.2536 8.16982 12.0061 8.26194 11.7746C8.35407 11.5431 8.49141 11.3323 8.66593 11.1546C8.84045 10.9768 9.04865 10.8356 9.27837 10.7392C9.50809 10.6427 9.75473 10.5931 10.0039 10.5931C10.253 10.5931 10.4996 10.6427 10.7293 10.7392C10.9591 10.8356 11.1673 10.9768 11.3418 11.1546C11.5163 11.3323 11.6536 11.5431 11.7458 11.7746C11.8379 12.0061 11.883 12.2536 11.8783 12.5027H8.12936Z" stroke="#EAF3FF" stroke-width="0.2" mask="url(#path-1-inside-1_283_2433)"/>
</g>
</svg>
