<svg width="17" height="18" viewBox="0 0 17 18" fill="none" xmlns="http://www.w3.org/2000/svg">
<path id="Vector" d="M8.65894 6.5C8.65894 5.66667 9.25394 4.83333 10.4448 4.83333C11.0762 4.83333 11.6818 4.5825 12.1283 4.136C12.5748 3.68951 12.8256 3.08394 12.8256 2.4525V1.91667M5.3256 6.5V6.08333C5.3256 5.42029 5.58899 4.78441 6.05783 4.31557C6.52668 3.84673 7.16256 3.58333 7.8256 3.58333C8.26763 3.58333 8.69155 3.40774 9.00411 3.09518C9.31667 2.78262 9.49227 2.35869 9.49227 1.91667V1.5M11.9923 8.16667H14.0756C14.6281 8.16667 15.158 8.38616 15.5487 8.77686C15.9394 9.16756 16.1589 9.69747 16.1589 10.25C16.1589 10.8025 15.9394 11.3324 15.5487 11.7231C15.158 12.1138 14.6281 12.3333 14.0756 12.3333H12.8256M12.8256 8.66667V11.5C12.8256 12.8261 12.2988 14.0979 11.3611 15.0355C10.4235 15.9732 9.15168 16.5 7.8256 16.5H6.15894C4.83285 16.5 3.56108 15.9732 2.6234 15.0355C1.68572 14.0979 1.15894 12.8261 1.15894 11.5V8.66667C1.15894 8.53406 1.21161 8.40688 1.30538 8.31311C1.39915 8.21934 1.52633 8.16667 1.65894 8.16667H12.3256C12.4582 8.16667 12.5854 8.21934 12.6792 8.31311C12.7729 8.40688 12.8256 8.53406 12.8256 8.66667Z" stroke="#FFF4BD" stroke-width="1.5" stroke-linecap="round" stroke-linejoin="round"/>
</svg>
