<svg width="14" height="14" viewBox="0 0 14 14" fill="none" xmlns="http://www.w3.org/2000/svg">
<path id="Vector" d="M4.6 12.5C4.32386 12.5 4.1 12.7239 4.1 13C4.1 13.2761 4.32386 13.5 4.6 13.5V12.5ZM12.4726 12.4732L12.8262 12.8268L12.8264 12.8266L12.4726 12.4732ZM10.0028 4.70121C9.72662 4.69968 9.50153 4.9223 9.50001 5.19844C9.49848 5.47458 9.7211 5.69967 9.99724 5.70119L10.0028 4.70121ZM4.00276 5.70119C4.2789 5.69967 4.50152 5.47458 4.49999 5.19844C4.49847 4.9223 4.27338 4.69968 3.99724 4.70121L4.00276 5.70119ZM2.06375 13.3305C2.32944 13.4057 2.60583 13.2513 2.68108 12.9857C2.75633 12.72 2.60194 12.4436 2.33625 12.3683L2.06375 13.3305ZM7.5 1C7.5 0.723858 7.27614 0.5 7 0.5C6.72386 0.5 6.5 0.723858 6.5 1H7.5ZM7 8.8L6.62037 9.1254C6.71536 9.23622 6.85404 9.3 7 9.3C7.14596 9.3 7.28464 9.23622 7.37963 9.1254L7 8.8ZM5.57963 6.3746C5.39992 6.16494 5.08427 6.14066 4.8746 6.32037C4.66494 6.50008 4.64066 6.81573 4.82037 7.0254L5.57963 6.3746ZM9.17963 7.0254C9.35934 6.81573 9.33506 6.50008 9.1254 6.32037C8.91573 6.14066 8.60008 6.16494 8.42037 6.3746L9.17963 7.0254ZM4.6 13.5H9.4V12.5H4.6V13.5ZM9.4 13.5C10.2343 13.5 10.9104 13.5011 11.4416 13.4297C11.9871 13.3564 12.4543 13.1986 12.8262 12.8268L12.119 12.1196C11.9641 12.2746 11.7434 12.3802 11.3085 12.4386C10.8593 12.4989 10.2625 12.5 9.4 12.5V13.5ZM12.8264 12.8266C13.1982 12.4543 13.3562 11.9875 13.4296 11.4418C13.5011 10.9106 13.5 10.2346 13.5 9.4H12.5C12.5 10.2628 12.4989 10.8594 12.4385 11.3085C12.3801 11.743 12.2744 11.9641 12.1188 12.1198L12.8264 12.8266ZM13.5 9.4V8.8H12.5V9.4H13.5ZM13.5 8.8C13.5 7.96574 13.5011 7.28973 13.4296 6.75852C13.3562 6.2129 13.1982 5.74589 12.8262 5.37385L12.119 6.08095C12.2744 6.23631 12.3801 6.4572 12.4385 6.89183C12.4989 7.34088 12.5 7.93746 12.5 8.8H13.5ZM12.8262 5.37385C12.5019 5.04963 12.1044 4.8872 11.6433 4.80244C11.1964 4.7203 10.6513 4.70479 10.0028 4.70121L9.99724 5.70119C10.6537 5.70481 11.1145 5.722 11.4625 5.78596C11.7962 5.8473 11.9825 5.94437 12.119 6.08095L12.8262 5.37385ZM3.99724 4.70121C3.34866 4.70479 2.80362 4.7203 2.35674 4.80244C1.8956 4.8872 1.49806 5.04963 1.17385 5.37385L1.88095 6.08095C2.01754 5.94437 2.2038 5.8473 2.53751 5.78596C2.88548 5.722 3.34634 5.70481 4.00276 5.70119L3.99724 4.70121ZM1.17385 5.37385C0.8018 5.74589 0.643777 6.2129 0.570388 6.75852C0.498937 7.28973 0.5 7.96574 0.5 8.8H1.5C1.5 7.93746 1.50106 7.34088 1.56146 6.89183C1.61992 6.4572 1.7256 6.23631 1.88095 6.08095L1.17385 5.37385ZM0.5 8.8V9.4H1.5V8.8H0.5ZM0.5 9.4C0.5 10.2346 0.498937 10.9107 0.570386 11.442C0.643775 11.9877 0.801794 12.4547 1.17385 12.8268L1.88095 12.1196C1.72561 11.9643 1.61993 11.7434 1.56146 11.3087C1.50106 10.8596 1.5 10.2628 1.5 9.4H0.5ZM1.17385 12.8268C1.42515 13.0781 1.72252 13.2338 2.06375 13.3305L2.33625 12.3683C2.12668 12.309 1.98965 12.2283 1.88095 12.1196L1.17385 12.8268ZM6.5 1V8.8H7.5V1H6.5ZM7.37963 8.4746L5.57963 6.3746L4.82037 7.0254L6.62037 9.1254L7.37963 8.4746ZM7.37963 9.1254L9.17963 7.0254L8.42037 6.3746L6.62037 8.4746L7.37963 9.1254Z" fill="#F8F8F8"/>
</svg>
