<svg width="166" height="151" viewBox="0 0 166 151" fill="none" xmlns="http://www.w3.org/2000/svg">
<path opacity="0.16" d="M93.0175 150.32C133.287 150.32 165.932 117.675 165.932 77.4059C165.932 37.1365 133.287 4.4917 93.0175 4.4917C52.7481 4.4917 20.1033 37.1365 20.1033 77.4059C20.1033 117.675 52.7481 150.32 93.0175 150.32Z" fill="#00A3FF"/>
<path d="M54.8433 15.7195C57.6244 16.9564 60.102 18.8117 62.2492 20.9666C62.6948 21.4122 63.1212 21.8732 63.5283 22.3533C67.1045 26.5326 69.1749 31.918 69.4438 37.4033C69.6359 41.2906 68.9406 45.2624 67.2812 48.7964C63.8356 56.1907 58.0584 60.7656 50.3068 62.9782C39.4515 65.087 30.7281 61.5685 23.9368 52.9449C20.0302 46.7375 18.4669 40.0652 20.1954 32.8322C20.8676 30.0166 22.0046 27.3162 23.5757 24.8847C25.0776 22.5569 26.9713 20.4865 29.157 18.7848C31.3427 17.0832 33.7473 15.7887 36.3324 14.9013C38.9176 14.014 41.7255 13.5454 44.4989 13.5531C47.4643 13.5608 50.4029 14.1254 53.2031 15.0819C53.7601 15.2739 54.3055 15.4891 54.8433 15.7272V15.7195Z" fill="#214080"/>
<path d="M138.294 45.8155C139.001 42.9231 139.673 40.023 140.422 37.1459C140.714 36.0242 141.167 34.9026 141.947 34.0268C142.808 33.0665 143.998 32.6286 145.27 32.4711C146.38 32.3328 147.509 32.4135 148.627 32.4903C151.435 32.6862 154.247 32.8936 157.055 33.1011C159.594 33.2854 160.281 34.1997 159.717 36.6811C159.502 37.6222 159.405 38.7208 158.726 39.466C157.896 40.3725 156.551 40.2919 155.437 40.1689C154.289 40.0422 153.144 39.8847 151.988 39.8271C150.832 39.7694 149.749 39.8155 148.631 39.6888C147.751 39.5889 147.39 39.9807 147.198 40.8219C146.772 42.6773 146.238 44.5057 145.746 46.3456C143.261 46.1651 140.779 45.9884 138.294 45.8117V45.8155Z" fill="#0084DF"/>
<path d="M19.7537 17.1408C19.6039 17.4442 19.5424 17.763 19.3503 17.9167C18.9931 18.2009 18.5437 18.224 18.1826 17.8936C17.5565 17.3213 16.9496 16.7182 16.3503 16.1152C13.189 12.9538 10.0277 9.79249 6.88171 6.61579C6.3593 6.08955 5.44509 5.50184 6.20565 4.6875C6.99695 3.83858 7.58849 4.76048 8.11474 5.28289C11.6832 8.83987 15.2402 12.4084 18.7895 15.9807C19.1314 16.3226 19.4156 16.7259 19.7537 17.1369V17.1408Z" fill="#214080"/>
<path d="M13.7114 26.598C9.93548 25.6646 5.89451 24.6658 1.85354 23.6556C1.34265 23.5288 0.885546 23.2292 0.977735 22.6377C1.09297 21.904 1.70757 21.8118 2.28759 21.9501C6.34009 22.9142 10.3849 23.9014 14.4297 24.8886C14.9483 25.0154 15.3747 25.3073 15.2863 25.9104C15.1749 26.6671 14.5834 26.6748 13.7114 26.5941V26.598Z" fill="#214080"/>
<path d="M24.728 0.320068C25.3695 0.370004 25.6 0.819429 25.7767 1.28422C26.9521 4.31495 28.1237 7.34568 29.2761 10.3841C29.5027 10.9833 29.7332 11.7093 28.9303 12.0281C28.1314 12.3431 27.8202 11.694 27.5821 11.0678C26.422 8.03326 25.2696 4.99485 24.0942 1.96411C23.7831 1.1613 23.883 0.596638 24.7319 0.32391L24.728 0.320068Z" fill="#214080"/>
<path d="M138.294 45.8155C140.779 45.9922 143.261 46.1728 145.746 46.3495C144.025 53.7246 142.308 61.1036 140.58 68.4749C138.252 78.4007 135.92 88.3226 133.569 98.2445C133.393 98.9974 133.07 99.7157 132.816 100.449C130.957 103.929 127.938 105.067 124.197 104.74C114.106 104.06 104.019 103.373 93.9278 102.696C86.9406 102.228 79.9534 101.782 72.9662 101.317C68.7331 101.037 64.4924 100.799 60.2671 100.426C56.8215 100.123 53.8292 97.2266 53.3989 93.3508C52.3964 84.3431 51.6281 75.3085 50.7677 66.2854C56.8253 64.9794 61.9956 62.1254 66.1134 57.4429C70.1659 52.8335 72.4937 47.5018 72.7703 41.3213C83.8292 42.0857 94.8881 42.8539 105.947 43.6068C112.711 44.0678 119.483 44.4941 126.248 44.9513C130.266 45.224 134.28 45.5236 138.294 45.8117V45.8155Z" fill="#00A3FF"/>
<path d="M75.367 116.609C87.9892 117.485 100.612 118.365 113.234 119.241C112.539 121.203 112.88 123.247 112.8 125.256C100.297 124.557 87.801 123.731 75.3247 122.69C75.5321 120.666 76.1928 118.641 75.367 116.609Z" fill="#0084DF"/>
<path d="M75.367 116.61C76.1967 118.642 75.536 120.662 75.3247 122.69C74.8369 123.382 74.3798 124.092 73.8574 124.753C70.9726 128.406 66.4592 129.601 62.4528 127.799C58.577 126.055 56.18 121.688 56.9291 117.743C57.8433 112.937 61.2466 109.826 65.906 109.526C70.0853 109.257 73.9419 112.15 75.3631 116.61H75.367ZM66.4284 124.357C69.3247 124.311 71.6179 121.884 71.5411 118.941C71.4643 116.045 68.9944 113.679 66.1327 113.759C63.3247 113.836 60.8587 116.448 60.97 119.229C61.0853 122.141 63.4976 124.407 66.4323 124.357H66.4284Z" fill="#00A3FF"/>
<path d="M112.804 125.252C112.884 123.243 112.539 121.204 113.238 119.237C115.032 115.3 118.354 113.652 122.403 113.095C124.777 113.848 127.166 114.558 129.137 116.183C130.834 118.726 132.014 121.411 131.441 124.576C130.719 128.567 127.25 131.817 123.152 132.358C119.28 132.869 115.151 130.511 113.464 126.816C113.23 126.301 113.026 125.771 112.807 125.248L112.804 125.252ZM127.32 122.763C127.277 119.882 124.8 117.478 121.957 117.562C119.107 117.65 116.726 120.14 116.756 123.001C116.787 125.84 119.307 128.237 122.184 128.168C125.119 128.095 127.362 125.732 127.32 122.763Z" fill="#00A3FF"/>
<path d="M72.7666 41.3213C72.49 47.5018 70.166 52.8334 66.1097 57.4429C61.9919 62.1254 56.8178 64.9794 50.764 66.2854C50.6103 65.183 50.4605 64.0767 50.3069 62.9743C58.0585 60.7656 63.8357 56.1868 67.2813 48.7925C68.4298 46.3302 68.91 43.6913 69.4477 41.0601C70.554 41.1484 71.6603 41.2329 72.7666 41.3213Z" fill="#0084DF"/>
<path d="M129.137 116.187C127.166 114.558 124.773 113.852 122.403 113.099C123.002 110.314 123.601 107.525 124.201 104.74C127.942 105.067 130.961 103.93 132.82 100.449C131.852 105.758 130.477 110.967 129.14 116.187H129.137Z" fill="#0084DF"/>
<path d="M38.0072 48.2241C36.7972 47.187 36.1135 45.8617 35.4912 44.4098C34.8382 42.8848 34.4464 41.2599 34.3081 39.6082C34.1506 37.7222 34.3235 35.8169 34.7191 33.9654C35.8254 28.822 39.1557 25.8681 44.0264 25.4878C45.3977 25.3803 46.7883 25.5071 48.0943 25.9411C49.4003 26.3752 50.4797 27.0474 51.4361 27.9462C52.481 28.9296 53.2953 30.1357 53.9099 31.4264C54.4093 32.4712 54.7819 33.5045 54.9624 34.6492C55.2159 36.2625 55.2697 37.9488 55.166 39.5775C55.1276 40.2151 55.0507 40.8489 54.9355 41.4789C54.4285 44.2292 53.1109 46.8681 50.8369 48.5698C48.3248 50.452 44.9368 50.9552 41.9253 50.1908C40.5424 49.8412 39.1903 49.2151 38.0802 48.2932C38.0533 48.2702 38.0264 48.2471 37.9995 48.2241H38.0072ZM47.8523 33.42C47.3568 32.137 46.5271 31.0538 45.0943 30.8617C43.7498 30.685 42.8011 31.2843 42.1058 32.4021C40.7959 34.5071 40.7729 37.4533 41.1032 39.8233C41.326 41.4174 41.7678 43.3035 43.0162 44.4251C44.6833 45.9194 46.8036 44.9975 47.5949 43.0999C48.8433 40.1191 49.0239 36.4584 47.8484 33.42H47.8523Z" fill="#FEFEFE"/>
<path d="M66.4323 124.357C63.5014 124.403 61.0891 122.137 60.9701 119.229C60.8587 116.452 63.3247 113.84 66.1327 113.759C68.9944 113.679 71.4643 116.045 71.5411 118.941C71.6218 121.88 69.3286 124.311 66.4284 124.357H66.4323Z" fill="#FEFEFE"/>
<path d="M127.32 122.763C127.362 125.732 125.119 128.095 122.184 128.168C119.307 128.241 116.787 125.844 116.756 123.001C116.726 120.143 119.107 117.651 121.957 117.562C124.8 117.474 127.277 119.882 127.32 122.763Z" fill="#FEFEFE"/>
<path d="M115.6 60.3661C114.82 63.443 114.018 66.5121 113.261 69.5966C111.828 75.4276 110.422 81.2701 108.997 87.1049C108.402 89.5403 106.546 91.0153 104.687 90.5582C102.555 90.032 101.564 88.0729 102.171 85.53C104.192 77.0793 106.212 68.6248 108.252 60.1779C108.647 58.5492 109.247 56.9897 111.121 56.5595C112.516 56.2368 113.737 56.5326 114.74 57.7234C115.42 58.5339 115.397 59.3981 115.596 60.37L115.6 60.3661Z" fill="#214080" fill-opacity="0.5"/>
<path d="M85.9726 84.5006C86.1685 86.0563 86.0379 87.5428 84.3823 88.4686C82.2812 89.6478 79.6077 88.5569 79.2504 86.1869C78.8279 83.3981 78.6397 80.5748 78.3285 77.7707C77.6525 71.6747 76.961 65.5787 76.2773 59.4826C76.1006 57.9039 75.9815 56.3136 77.3682 55.1536C78.5667 54.151 79.9687 54.0435 81.3631 54.6235C82.8612 55.2458 83.276 56.6363 83.4297 58.0883C84.2901 66.224 85.1275 74.3636 85.9572 82.507C86.0225 83.1408 85.9649 83.7861 85.9649 84.5006H85.9726Z" fill="#214080" fill-opacity="0.5"/>
</svg>
