<svg width="20" height="18" viewBox="0 0 20 18" fill="none" xmlns="http://www.w3.org/2000/svg">
<path id="Vector" d="M12 4.94739V2.94739C12 2.41695 11.7893 1.90825 11.4142 1.53317C11.0391 1.1581 10.5304 0.947388 10 0.947388H3C2.46957 0.947388 1.96086 1.1581 1.58579 1.53317C1.21071 1.90825 1 2.41695 1 2.94739V14.9474C1 15.4778 1.21071 15.9865 1.58579 16.3616C1.96086 16.7367 2.46957 16.9474 3 16.9474H10C10.5304 16.9474 11.0391 16.7367 11.4142 16.3616C11.7893 15.9865 12 15.4778 12 14.9474V12.9474M7 8.94739H19M19 8.94739L16 5.94739M19 8.94739L16 11.9474" stroke="#929292" stroke-width="1.5" stroke-linecap="round" stroke-linejoin="round"/>
</svg>
