<svg width="28" height="28" viewBox="0 0 28 28" fill="none" xmlns="http://www.w3.org/2000/svg">
<g id="Frame">
<g id="Group">
<path id="Union" fill-rule="evenodd" clip-rule="evenodd" d="M17.6738 2.94524L23.3977 8.96534C23.5491 9.12509 23.6339 9.33732 23.6339 9.55868V20.0437C23.6339 22.9122 21.3165 25.3346 18.572 25.3346H9.54655C6.64163 25.3346 4.36719 23.0103 4.36719 20.0437V17.1842C4.36719 16.7118 4.74683 16.3284 5.2146 16.3284C5.68236 16.3284 6.062 16.7118 6.062 17.1842V20.0437C6.062 22.0838 7.55909 23.6231 9.54655 23.6231H18.572C20.3979 23.6231 21.939 21.9834 21.939 20.0437V9.90213L17.6127 5.35168V6.84416C17.6127 7.98976 18.5358 8.92427 19.6702 8.92655C20.138 8.92769 20.5165 9.31108 20.5154 9.78461C20.5143 10.2559 20.1358 10.6381 19.668 10.6381H19.6669C17.6003 10.6335 15.9179 8.93225 15.9179 6.84416V4.39321H9.54655C7.65739 4.39321 6.062 5.94959 6.062 7.79236V12.5322C6.062 13.0046 5.68236 13.388 5.2146 13.388C4.74683 13.388 4.36719 13.0046 4.36719 12.5322V7.79236C4.36719 5.02192 6.7388 2.68166 9.54655 2.68166H16.6998C16.7107 2.68062 16.7206 2.67766 16.7303 2.67476C16.7418 2.67133 16.7531 2.66797 16.7653 2.66797C16.7786 2.66797 16.7904 2.67151 16.8022 2.67504C16.8115 2.67785 16.8209 2.68065 16.8309 2.68166H17.0625C17.293 2.68166 17.5133 2.77637 17.6738 2.94524ZM14.4122 18.6585C14.4122 19.1309 14.0326 19.5143 13.5648 19.5143C13.0971 19.5143 12.7174 19.1309 12.7174 18.6585V13.2295L10.9582 15.0152C10.6283 15.3507 10.0916 15.3507 9.75942 15.0175C9.42836 14.6843 9.42723 14.1423 9.75716 13.8068L12.9649 10.5537V10.5526C13.1185 10.3986 13.331 10.3027 13.5648 10.3027C13.7999 10.3027 14.0111 10.3986 14.1648 10.5526V10.5537L17.3725 13.8068C17.7025 14.1423 17.7013 14.6843 17.3703 15.0175C17.2042 15.1829 16.9884 15.2662 16.7714 15.2662C16.5545 15.2662 16.3376 15.1829 16.1715 15.0152L14.4122 13.2295V18.6585Z" fill="#5694E3"/>
</g>
</g>
</svg>
