<svg width="24" height="24" viewBox="0 0 24 24" fill="none" xmlns="http://www.w3.org/2000/svg">
<g clip-path="url(#clip0_14_31)">
<path d="M4.38103 2.13014V2.74588L4.93085 3.02308C6.46719 3.79763 7.9905 3.80464 9.41917 3.50029C10.6451 3.23913 11.8655 2.73133 12.983 2.26635C13.1311 2.20474 13.2774 2.14388 13.4216 2.08444C15.9718 1.03356 17.9795 0.400907 20.0028 1.8384V1.85056V1.86994V1.88932V1.90869V1.92807V1.94745V1.96682V1.9862V2.00557V2.02495V2.04433V2.0637V2.08308V2.10245V2.12183V2.1412V2.16058V2.17996V2.19933V2.21871V2.23808V2.25746V2.27683V2.2962V2.31558V2.33495V2.35433V2.3737V2.39308V2.41245V2.43182V2.4512V2.47057V2.48994V2.50932V2.52869V2.54806V2.56744V2.58681V2.60618V2.62556V2.64493V2.6643V2.68367V2.70305V2.72242V2.74179V2.76116V2.78053V2.79991V2.81928V2.83865V2.85802V2.87739V2.89676V2.91614V2.93551V2.95488V2.97425V2.99362V3.01299V3.03236V3.05173V3.0711V3.09047V3.10984V3.12921V3.14858V3.16795V3.18732V3.20669V3.22606V3.24543V3.2648V3.28417V3.30354V3.32291V3.34228V3.36165V3.38102V3.40039V3.41976V3.43913V3.45849V3.47786V3.49723V3.5166V3.53597V3.55534V3.5747V3.59407V3.61344V3.63281V3.65218V3.67154V3.69091V3.71028V3.72965V3.74901V3.76838V3.78775V3.80712V3.82648V3.84585V3.86522V3.88458V3.90395V3.92332V3.94268V3.96205V3.98141V4.00078V4.02015V4.03951V4.05888V4.07824V4.09761V4.11698V4.13634V4.15571V4.17507V4.19444V4.2138V4.23317V4.25253V4.2719V4.29126V4.31063V4.32999V4.34936V4.36872V4.38809V4.40745V4.42682V4.44618V4.46554V4.48491V4.50427V4.52364V4.543V4.56236V4.58173V4.60109V4.62045V4.63982V4.65918V4.67854V4.69791V4.71727V4.73663V4.756V4.77536V4.79472V4.81409V4.83345V4.85281V4.87217V4.89154V4.9109V4.93026V4.94962V4.96899V4.98835V5.00771V5.02707V5.04643V5.06579V5.08516V5.10452V5.12388V5.14324V5.1626V5.18196V5.20133V5.22069V5.24005V5.25941V5.27877V5.29813V5.31749V5.33685V5.35621V5.37557V5.39493V5.4143V5.43366V5.45302V5.47238V5.49174V5.5111V5.53046V5.54982V5.56918V5.58854V5.6079V5.62726V5.64662V5.66598V5.68533V5.70469V5.72405V5.74341V5.76277V5.78213V5.80149V5.82085V5.84021V5.85957V5.87893V5.89829V5.91764V5.937V5.95636V5.97572V5.99508V6.01444V6.0338V6.05315V6.07251V6.09187V6.11123V6.13059V6.14994V6.1693V6.18866V6.20802V6.22738V6.24673V6.26609V6.28545V6.30481V6.32416V6.34352V6.36288V6.38224V6.40159V6.42095V6.44031V6.45966V6.47902V6.49838V6.51774V6.53709V6.55645V6.57581V6.59516V6.61452V6.63387V6.65323V6.67259V6.69194V6.7113V6.73066V6.75001V6.76937V6.78872V6.80808V6.82744V6.84679V6.86615V6.8855V6.90486V6.92422V6.94357V6.96293V6.98228V7.00164V7.02099V7.04035V7.0597V7.07906V7.09841V7.11777V7.13713V7.15648V7.17584V7.19519V7.21455V7.2339V7.25325V7.27261V7.29196V7.31132V7.33067V7.35003V7.36938V7.38874V7.40809V7.42745V7.4468V7.46616V7.48551V7.50486V7.52422V7.54357V7.56293V7.58228V7.60163V7.62099V7.64034V7.6597V7.67905V7.6984V7.71776V7.73711V7.75646V7.77582V7.79517V7.81452V7.83388V7.85323V7.87258V7.89194V7.91129V7.93064V7.95V7.96935V7.9887V8.00806V8.02741V8.04676V8.06612V8.08547V8.10482V8.12418V8.14353V8.16288V8.18223V8.20159V8.22094V8.24029V8.25964V8.279V8.29835V8.3177V8.33705V8.35641V8.37576V8.39511V8.41446V8.43382V8.45317V8.47252V8.49187V8.51122V8.53057V8.54993V8.56928V8.58863V8.60798V8.62733V8.64669V8.66604V8.68539V8.70474V8.72409V8.74345V8.7628V8.78215V8.8015V8.82085V8.8402V8.85955V8.87891V8.89826V8.91761V8.93696V8.95631V8.97566V8.99501V9.01437V9.03372V9.05307V9.07242V9.09177V9.11112V9.13047V9.14982V9.16917V9.18853V9.20788V9.22723V9.24658V9.26593V9.28528V9.30463V9.32398V9.34333V9.36268V9.38203V9.40138V9.42073V9.44009V9.45944V9.47879V9.49814V9.51749V9.53684V9.55619V9.57554V9.59489V9.61424V9.63359V9.65294V9.67229V9.69164V9.71099V9.73034V9.74969V9.76904V9.78839V9.80774V9.82709V9.84644V9.86579V9.88514V9.90449V9.92384V9.94319V9.96254V9.98189V10.0012V10.0206V10.0399V10.0593V10.0786V10.098V10.1173V10.1367V10.156V10.1754V10.1947V10.2141V10.2334V10.2528V10.2721V10.2915V10.3108V10.3302V10.3495V10.3689V10.3882V10.4076V10.4269V10.4463V10.4656V10.485V10.5043V10.5237V10.543V10.5624V10.5817V10.6011V10.6204V10.6398V10.6591V10.6785V10.6978V10.7172V10.7365V10.7559V10.7752V10.7946V10.8139V10.8333V10.8526V10.872V10.8913V10.9107V10.93V10.9494V10.9687V10.9881V11.0074V11.0268V11.0461V11.0655V11.0848V11.1042V11.1235V11.1429V11.1622V11.1816V11.2009V11.2057C17.2738 9.97933 14.5843 11.0973 12.3775 12.0146C12.3444 12.0283 12.3115 12.042 12.2787 12.0556C9.74601 13.1078 7.77853 13.8821 5.83039 12.9022L4.38103 12.1731V13.7955V22.7692C4.38103 22.9269 4.26396 23.0002 4.18954 23.0002C4.11511 23.0002 3.99805 22.9269 3.99805 22.7692V1.58302C3.99805 1.42528 4.11512 1.352 4.18954 1.352C4.26395 1.352 4.38103 1.42528 4.38103 1.58302V2.13014Z" stroke="#214080" stroke-width="2"/>
</g>
<defs>
<clipPath id="clip0_14_31">
<rect width="24" height="24" fill="white"/>
</clipPath>
</defs>
</svg>
