<svg width="29" height="23" viewBox="0 0 29 23" fill="none" xmlns="http://www.w3.org/2000/svg">
<g id="logos:google-gmail" clip-path="url(#clip0_762_4671)">
<path id="Vector" d="M6.59093 22.3371V11.0624L3.11603 7.86354L0 6.08838V20.3475C0 21.4484 0.886426 22.3371 1.97732 22.3371H6.59093Z" fill="#4285F4"/>
<path id="Vector_2" d="M22.4091 22.337H27.0227C28.1169 22.337 29 21.4449 29 20.3473V6.08838L25.4706 8.12161L22.4091 11.0623V22.337Z" fill="#34A853"/>
<path id="Vector_3" d="M6.59093 11.0622L6.11809 6.65679L6.59093 2.44043L14.5 8.40938L22.4091 2.44043L22.938 6.42915L22.4091 11.0622L14.5 17.0311L6.59093 11.0622Z" fill="#EA4335"/>
<path id="Vector_4" d="M22.4091 2.44055V11.0623L29 6.08822V3.43534C29 0.974873 26.2087 -0.427769 24.2546 1.04783L22.4091 2.44055Z" fill="#FBBC04"/>
<path id="Vector_5" d="M0 6.08827L3.03129 8.37604L6.59093 11.0623V2.4406L4.74535 1.04788C2.78785 -0.427831 0 0.974925 0 3.43528V6.08827Z" fill="#C5221F"/>
</g>
<defs>
<clipPath id="clip0_762_4671">
<rect width="29" height="22" fill="white" transform="translate(0 0.445312)"/>
</clipPath>
</defs>
</svg>
