<svg width="10" height="10" viewBox="0 0 10 10" fill="none" xmlns="http://www.w3.org/2000/svg">
<path id="Vector" d="M8.3578 0.00226889L5.17066 -0.00162125C5.02592 -0.00155106 4.88263 0.027218 4.74909 0.0830215C4.61554 0.138825 4.49438 0.220555 4.39263 0.323484L0.319086 4.43259C0.114598 4.64048 0 4.92041 0 5.21201C0 5.50362 0.114598 5.78354 0.319086 5.99143L3.97194 9.67651C4.07351 9.77969 4.19463 9.86159 4.32822 9.91741C4.46181 9.97323 4.60518 10.0019 4.74997 10.0016C4.8947 10.0015 5.03799 9.97278 5.17154 9.91698C5.30508 9.86117 5.42624 9.77944 5.528 9.67651L9.64544 5.52128C9.75691 5.41761 9.84591 5.29215 9.9069 5.15268C9.96789 5.0132 9.99958 4.86269 10 4.71046V1.65392C10.0003 1.21741 9.82768 0.798567 9.51991 0.489031C9.21215 0.179494 8.7943 0.00447333 8.3578 0.00226889ZM6.99514 3.58009C6.84775 3.58009 6.70639 3.52154 6.60217 3.41732C6.49795 3.3131 6.4394 3.17175 6.4394 3.02436C6.4394 2.87697 6.49795 2.73562 6.60217 2.63139C6.70639 2.52717 6.84775 2.46862 6.99514 2.46862C7.14253 2.46862 7.28388 2.52717 7.3881 2.63139C7.49232 2.73562 7.55087 2.87697 7.55087 3.02436C7.55087 3.17175 7.49232 3.3131 7.3881 3.41732C7.28388 3.52154 7.14253 3.58009 6.99514 3.58009Z" fill="#0CC42E"/>
</svg>
