<svg width="24" height="24" viewBox="0 0 24 24" fill="none" xmlns="http://www.w3.org/2000/svg">
<path d="M22.8213 3.91113H8.357C7.8829 3.91113 7.49986 4.29417 7.49986 4.76828V11.0897H1.17843C0.704325 11.0897 0.321289 11.4727 0.321289 11.9468V19.2326C0.321289 19.7067 0.704325 20.0897 1.17843 20.0897H15.6427C16.1168 20.0897 16.4999 19.7067 16.4999 19.2326V12.9111H22.8213C23.2954 12.9111 23.6784 12.5281 23.6784 12.054V4.76828C23.6784 4.29417 23.2954 3.91113 22.8213 3.91113ZM9.32129 5.73256H14.6784V11.0897H9.32129V5.73256ZM7.49986 18.2683H2.14272V12.9111H7.49986V18.2683ZM14.6784 18.2683H9.32129V12.9111H14.6784V18.2683ZM21.857 11.0897H16.4999V5.73256H21.857V11.0897Z" fill="#214080"/>
</svg>
