<svg width="245" height="123" viewBox="0 0 245 123" fill="none" xmlns="http://www.w3.org/2000/svg">
  <path d="M239.703 96.6552C243.345 101.959 238.56 103.219 234.662 103.913C230.763 104.607 177.801 114.8 162.955 109.217C148.11 103.634 119.259 118.429 109.456 109.217C99.0579 99.4467 84.5265 106.147 82.2855 100.005C80.0446 93.8637 91.2488 87.4428 106.935 87.4428C122.621 87.4428 117.579 77.1188 130.463 75.16C146.922 72.6579 138.586 47.3185 162.955 47.3185C173.376 47.3185 182.843 52.3433 186.204 64.3471C190.154 78.4552 217.295 58.9688 221.217 83.5344C222.838 93.6911 236.062 91.3511 239.703 96.6552Z" fill="#F8F8F8"/>
  <path d="M171.636 0.383075C198.659 0.365979 202.675 12.3015 203.938 32.7097C205.201 53.1189 186.851 61.9763 171.411 61.9174C155.971 61.8585 143.851 55.7602 140.909 31.4874C137.968 7.21463 149.955 0.396371 171.636 0.383075Z" fill="#91DEAA"/>
  <path d="M109.97 90.1356C99.8725 89.8851 89.7138 90.8331 79.801 91.9377C61.0833 93.3796 59.0105 101.491 60.3138 105.367C60.3138 105.367 68.595 117.675 102.031 112.816C135.467 107.958 156.488 122.981 178.729 122.61C200.969 122.239 195.586 104.375 213.911 110.238C232.237 116.101 239.183 111.825 239.183 107.065C239.183 95.1825 255.009 103.559 257.635 97.7428C260.262 91.9269 248.14 91.2906 239.183 90.4624C226.852 89.3222 213.998 89.3959 201.634 90.3205C196.064 90.7372 190.769 91.8372 185.185 92.2119C174.898 92.9019 164.337 92.2876 154.049 91.9039C144.837 91.5599 135.634 91.1322 126.426 90.7393C120.945 90.5056 115.461 90.2723 109.97 90.1356Z" fill="#ECEDEF"/>
  <path d="M118.777 66.3879C118.777 66.3879 132.464 62.2812 133.015 62.3838C133.556 62.4844 131.406 67.049 131.674 68.5239C131.761 68.9969 119.96 75.7449 117.337 75.2472C114.477 74.7039 103.486 65.2492 102.313 63.1996C101.002 60.9079 98.7086 55.1923 100.237 53.0401C100.933 52.059 102.621 50.7531 103.791 51.0295C108.447 52.1284 113.474 60.375 118.776 66.3889L118.777 66.3879Z" fill="#1E2B5F"/>
  <path d="M119.528 82.0788C119.438 81.6723 116.598 75.0677 116.454 74.3934C114.568 65.5901 107.307 52.7182 103.945 51.0618C103.4 50.7902 99.5197 50.7655 99.5197 50.7655L101.526 51.758C103.811 53.8455 106.368 56.2598 108 58.9542C112.731 66.7678 115.953 84.7656 116.383 84.7343C116.865 84.6991 119.727 82.981 119.527 82.0797L119.528 82.0788Z" fill="#1E3877"/>
  <path d="M114.305 83.1026C107.606 79.2067 106.553 70.0065 103.72 65.0668C100.253 59.0169 95.1375 58.3578 86.3333 69.3245C77.4864 80.3445 79.5815 100.503 88.8321 112.188C91.9976 116.185 96.847 118.479 101.945 118.467L128.098 118.411C131.533 118.404 134.896 117.358 137.695 115.366C141.104 112.939 143.17 109.752 144.952 105.391C156.715 76.5977 129.208 91.77 114.304 83.1035L114.305 83.1026Z" fill="#54C295"/>
  <path d="M113.3 118.443L128.099 118.411C131.534 118.403 134.897 117.357 137.696 115.365C141.105 112.938 143.171 109.751 144.953 105.39C149.707 93.7531 148.045 89.2978 143.395 87.5474L135.171 88.7887C135.171 96.6166 134.302 108.787 134.302 108.787C130.767 115.183 126.015 118.157 113.301 118.442L113.3 118.443Z" fill="#2DA981"/>
  <path d="M142.958 93.4539C138.247 87.0497 121.435 91.393 110.848 85.2357C104.149 81.3398 103.095 72.1396 100.263 67.2C99.0761 65.1285 97.6952 63.6897 96.0398 63.1322C90.857 65.7639 88.3173 87.3708 97.1054 95.569C110.326 107.903 127.527 89.0946 142.959 93.453L142.958 93.4539Z" fill="#2DA981"/>
  <path d="M130.758 111.949C130.758 111.949 130.511 116.318 130.509 116.327C130.418 116.881 130.06 118.252 130.06 118.756C130.06 120.65 138.488 117.148 136.599 116.309C136.428 116.233 135.266 115.229 135.21 114.585C135.124 113.591 135.169 112.011 135.169 112.011L130.757 111.949H130.758Z" fill="#F7A491"/>
  <path d="M136.478 116.227C136.478 116.227 134.5 116.806 133.487 116.952C132.473 117.097 131.137 115.877 130.42 116.206C129.834 116.475 129.606 118.428 129.527 119.417C129.502 119.731 129.741 120.002 130.054 120.018C132.385 120.14 141.246 120.548 143.545 119.883C144.738 119.537 140.522 117.577 136.477 116.227H136.478Z" fill="#1E2B5F"/>
  <path d="M154.441 107.57C154.441 107.57 152.463 108.149 151.449 108.295C150.436 108.439 149.1 107.22 148.382 107.549C147.797 107.818 147.569 109.771 147.49 110.76C147.465 111.074 147.739 111.429 148.053 111.459C150.638 111.714 159.209 111.892 161.509 111.227C162.702 110.881 158.486 108.921 154.441 107.571V107.57Z" fill="#1E2B5F"/>
  <path d="M146.137 104.029C146.137 104.029 148.507 107.363 148.729 108.099C148.951 108.835 154.443 109.375 154.443 107.571C154.443 107.547 152.74 106.163 152.258 105.531C151.454 104.476 149.578 100.949 149.578 100.949L146.137 104.029Z" fill="#F7A491"/>
  <path d="M95.1034 31.4143C95.1034 31.4143 92.4289 29.606 91.2977 32.7743C91.2977 32.7743 89.7867 32.3166 89.1399 33.8694C89.1399 33.8694 86.549 33.6747 86.7617 37.4367C86.7617 37.4367 85.4596 37.4766 85.6229 38.999C85.7863 40.5215 86.7598 41.3449 86.7598 41.3449C86.7598 41.3449 86.1738 42.0268 86.7949 43.3223C87.323 44.424 88.3231 44.3889 88.3231 44.3889C88.3231 44.3889 89.0145 46.2893 89.9937 46.691C90.9729 47.0928 92.0661 46.5552 92.0661 46.5552C92.0661 46.5552 92.6074 47.5487 93.5771 47.2353C94.5468 46.9218 95.5649 45.7081 96.7673 45.8876C97.9697 46.0671 100.748 44.9834 100.748 44.9834C100.748 44.9834 103.661 42.8313 101.965 39.7427C101.965 39.7427 103.324 37.8346 101.432 36.3236C101.432 36.3236 101.882 33.2065 99.3611 31.9823C96.8395 30.758 95.1053 31.4134 95.1053 31.4134L95.1034 31.4143Z" fill="#1E2B5F"/>
  <path d="M137.508 78.635C135.284 77.5408 111.953 81.1746 111.953 81.1746L109.156 76.7155L100.049 78.7822C100.049 78.7822 97.4711 81.7492 97.3647 83.0788C97.02 87.3793 98.9907 94.6107 101.214 95.3135C109.131 97.8171 126.153 92.6998 128.536 92.1528C128.536 92.1528 128.449 96.0097 129.171 103.882C129.456 106.993 129.83 110.422 130.176 113.421C132.26 113.417 134.343 113.378 136.427 113.103C136.427 113.103 139.732 79.7291 137.508 78.635Z" fill="#F1C38F"/>
  <path d="M152.297 103.558C148.306 93.4777 139.645 73.6934 136.506 73.1369C132.39 72.4075 111.95 81.1822 111.95 81.1822L132.689 80.7501C132.689 80.7501 132.803 80.9552 133.706 85.3022C134.41 88.6909 142.211 100.622 146.66 107.232C148.711 106.304 150.743 105.447 152.297 103.559V103.558Z" fill="#FFD19D"/>
  <path d="M99.6194 50.8395C99.6194 50.8395 94.4556 50.7807 93.9067 50.9022C93.3577 51.0238 94.3397 71.9772 95.0122 79.7965C95.6836 87.6158 96.7607 88.7887 96.7607 88.7887C96.7607 88.7887 104.125 88.8172 109.215 87.2112C114.507 85.5406 115.764 79.3938 115.764 79.3938C115.764 79.3938 110.971 65.3356 109.049 60.98C107.821 58.1935 105.364 55.0574 102.878 52.5035C101.477 51.0646 99.6204 50.8405 99.6204 50.8405L99.6194 50.8395Z" fill="#FC716E"/>
  <path d="M98.1672 47.0272L99.2034 49.8547C99.2034 49.8547 101.01 53.8588 100.057 54.9178C99.1037 55.9767 94.1118 50.8538 94.1118 50.8538L92.8705 43.384L98.1682 47.0272H98.1672Z" fill="#F7A491"/>
  <path d="M93.2722 45.804C94.7633 48.1157 97.3324 49.1718 99.0457 49.4235L98.1672 47.0263L92.8695 43.3831L93.2722 45.804Z" fill="#F47458"/>
  <path d="M93.7718 35.049C95.8945 33.7507 98.6801 34.7365 99.5529 37.0264C99.9328 38.0217 100.356 39.2858 100.695 40.6953C101.508 44.0849 100.478 47.7861 98.9318 48.128C97.3866 48.469 92.6283 47.2096 91.4069 42.4124C90.6528 39.4501 91.5437 36.4119 93.7708 35.0499L93.7718 35.049Z" fill="#F7A491"/>
  <path d="M92.6311 42.5416C92.7973 43.2928 92.4335 44.0108 91.82 44.1466C91.2064 44.2825 90.5739 43.7838 90.4087 43.0326C90.2424 42.2823 90.6062 41.5633 91.2197 41.4275C91.8333 41.2917 92.4658 41.7903 92.632 42.5416H92.6311Z" fill="#F7A491"/>
  <path d="M94.1014 50.831C94.1014 50.831 88.1056 50.5926 86.7408 51.8539C85.8727 52.6555 87.6307 60.678 87.6307 60.678C87.6307 60.678 92.5219 70.0407 93.2333 75.5169C94.4148 84.6127 95.4918 90.201 95.9581 90.5021C98.6526 91.4699 107.561 89.6293 107.932 88.5769C112.02 76.9548 94.1023 50.831 94.1023 50.831H94.1014Z" fill="#1E3877"/>
  <path d="M123.098 70.0958L127.079 53.288C127.181 52.853 127.571 52.5453 128.018 52.5453H135.245C135.879 52.5453 136.341 53.1456 136.178 53.7582L131.788 70.2971C131.68 70.7065 131.317 70.9971 130.894 71.0142L124.075 71.282C123.437 71.3067 122.952 70.7169 123.099 70.0958H123.098Z" fill="#2DA981"/>
  <path d="M129.693 69.6617C129.387 69.7206 128.882 69.8308 128.532 69.959C128.154 70.0977 127.762 70.1062 127.427 70.1755C126.761 70.3133 126.278 70.4215 126.288 70.3921C126.3 70.3531 126.15 70.2905 126.497 70.1584C126.915 69.9998 127.875 69.8536 128.472 69.5744C128.81 69.4157 129.537 69.127 129.537 69.127C129.537 69.127 130.555 68.4907 130.538 68.4214C130.446 68.0424 129.629 68.2874 129.197 68.561C128.833 68.599 128.077 68.9238 128.077 68.9238C128.077 68.9238 126.403 69.2495 126.357 69.0197C126.337 68.9219 127.342 68.6028 128.279 68.1393C129.149 67.709 129.959 67.1373 129.901 66.9578C129.803 66.6539 128.786 67.0319 128.786 67.0319C128.786 67.0319 128.088 67.3339 127.849 67.4165C127.568 67.5134 126.706 67.7423 126.706 67.7423C126.706 67.7423 123.67 68.4033 123.645 68.182C123.621 67.9607 123.79 67.3633 123.964 67.2589C124.139 67.1544 124.559 67.1249 124.734 67.0214C124.908 66.917 125.048 66.6358 124.937 66.4193C124.826 66.2018 123.79 66.3936 123.79 66.3936C123.79 66.3936 122.948 66.556 122.494 66.9359C120.923 68.2542 121.205 68.4536 120.999 68.617C120.756 68.8108 116.611 69.2647 116.611 69.2647C116.611 69.2647 104.401 70.6827 103.739 70.7359L104.167 74.8008C104.894 74.8749 118.986 72.4198 120.432 72.1311C120.432 72.1311 122.276 72.4056 123.44 72.5414C124.605 72.6772 125.779 72.2982 126.115 72.2868C126.164 72.2849 127.277 72.1843 128.621 71.7046C129.779 71.2915 128.497 71.169 128.497 71.169C128.497 71.169 126.217 71.5612 126.219 71.3817C126.221 71.2431 127.478 71.0997 128.764 70.6552C129.094 70.5412 129.421 70.4272 129.719 70.3199C130.503 70.0388 130.559 69.4927 129.693 69.6598V69.6617Z" fill="#F8A492"/>
  <path d="M101.913 68.7462C101.913 68.7462 116.156 68.6436 116.707 68.7462C117.249 68.8468 117.402 72.5015 117.669 73.9764C117.756 74.4494 102.657 76.1409 100.034 75.6432C97.1747 75.1 89.9737 67.1895 88.305 64.5198C86.9051 62.2803 83.9191 56.5817 84.6618 54.0877C85.1101 52.5804 87.4407 50.8794 88.7134 51.2736C93.7879 52.8473 101.913 68.7471 101.913 68.7471V68.7462Z" fill="#274787"/>
  <path d="M134.181 62.039C134.454 61.9326 134.763 62.095 134.819 62.3838C134.876 62.6791 134.878 63.0324 134.652 63.2585C134.204 63.7068 131.181 64.042 131.181 63.5947C131.181 63.2499 133.232 62.4094 134.181 62.039Z" fill="#F7A491"/>
  <path d="M134.847 63.3525C134.847 63.3525 135.194 64.4675 134.934 64.4875C134.674 64.5074 131.432 64.9623 131.272 64.5815C131.111 64.2006 134.418 63.1417 134.847 63.3525Z" fill="#F7A491"/>
  <path d="M134.98 64.6043C134.98 64.6043 135.104 65.0981 134.854 65.4049C134.603 65.7117 131.565 65.7183 131.424 65.2444C131.282 64.7714 134.849 64.2424 134.98 64.6043Z" fill="#F7A491"/>
  <path d="M134.286 65.7421C134.286 65.7421 134.349 66.1201 134.223 66.3053C134.098 66.4914 131.849 66.6101 131.556 66.1723C131.262 65.7345 133.953 65.2928 134.286 65.7421Z" fill="#F7A491"/>
  <path d="M184.219 48.5174L177.759 42.4551L174.486 48.4984C174.486 48.4984 175.833 49.4225 177.585 50.5651L184.22 48.5174H184.219Z" fill="#FC716E"/>
  <path d="M175.102 51.9241C175.702 50.8462 176.385 49.6058 177.066 48.3445C179.055 44.6604 179.687 42.722 178.356 41.1093C177.025 39.4957 175.71 39.6249 175.71 39.6249L171.693 42.6232C171.693 42.6232 170.266 47.9893 169.382 51.9251H175.102V51.9241Z" fill="#FF8B88"/>
  <path d="M166.592 29.8064L163.602 33.1485L161.154 35.5647C161.154 35.5647 159.601 33.3765 159.431 32.101C159.406 31.9186 159.506 31.6584 159.535 31.5473C159.77 30.6554 158.349 29.8842 158.349 29.8842C158.349 29.8842 157.665 29.9213 157.596 31.0942C157.526 32.2672 158.457 32.4343 158.457 32.4343C158.457 32.4343 158.635 35.8515 159.788 37.9894C160.392 39.1101 163.061 37.2173 165.075 35.3814C166.769 33.8371 167.903 32.3745 167.903 32.3745L166.592 29.8064Z" fill="#F7A491"/>
  <path d="M167.302 29.1653C167.199 29.1187 167.055 29.1197 166.872 29.2707C166.472 29.5984 162.868 33.5664 162.868 33.5664C162.868 33.5664 164 35.5647 165.268 35.862L167.271 34.4098L167.495 29.4939C167.502 29.3562 167.428 29.2223 167.301 29.1662L167.302 29.1653Z" fill="#FFD19D"/>
  <path d="M174.394 16.5231C172.352 16.0701 170.319 16.9923 169.544 18.8101C168.381 18.7769 167.209 19.2128 166.408 19.9878C164.825 21.5169 163.946 24.3899 165.942 25.5705C166.401 27.8907 168.17 28.7236 169.873 28.3029C171.39 29.7959 174.637 28.887 175.959 26.7728C177.673 26.8374 179.383 25.9675 180.127 24.4915C180.306 24.1373 180.554 23.5826 180.631 23.5133C180.542 23.6045 184.669 21.5454 183.161 17.8015C181.623 13.9806 176.455 14.088 174.395 16.5231H174.394Z" fill="#1E2B5F"/>
  <path d="M169.766 27.9885L172.563 27.1964L173.426 31.1882C173.426 31.1882 173.37 35.3349 174.52 36.9238C175.67 38.5127 176.635 39.6268 176.635 39.6268C176.635 39.6268 175.689 41.9584 171.183 43.0962C171.183 43.0962 170.147 39.8937 169.758 38.9487C169.368 38.0037 166.87 34.3756 166.713 33.4164C166.555 32.4562 166.658 29.6174 166.836 29.3191C167.014 29.0209 167.971 28.5736 167.971 28.5736L169.765 27.9895L169.766 27.9885Z" fill="#F5FFF5"/>
  <path d="M169.172 25.8373C169.172 25.8373 169.231 26.1641 169.324 26.5772C169.439 27.0939 169.604 27.7454 169.768 28.0693C170.063 28.6515 170.042 30.4598 168.763 30.965C167.485 31.4703 168.124 29.1947 168.014 28.5546C167.904 27.9144 167.144 25.7053 167.144 25.7053L169.173 25.8364L169.172 25.8373Z" fill="#F7A491"/>
  <path d="M167.474 26.638C167.299 26.128 167.142 25.7063 167.142 25.7063L169.171 25.8373C169.171 25.8373 169.232 26.1745 169.326 26.5981C168.633 27.0416 167.981 26.9761 167.473 26.637L167.474 26.638Z" fill="#F47458"/>
  <path d="M167.739 21.2358C167.739 21.2358 168.582 21.2434 169.241 21.894C169.9 22.5436 170.721 24.6986 169.311 26.0909C167.902 27.4833 166.314 26.2856 165.984 24.8553C165.654 23.425 165.548 21.4438 167.74 21.2358H167.739Z" fill="#F7A491"/>
  <path d="M165.513 24.4868C165.727 24.8031 166.05 24.9579 166.234 24.8335C166.418 24.709 166.395 24.351 166.18 24.0347C165.966 23.7184 165.643 23.5627 165.459 23.6881C165.275 23.8125 165.299 24.1705 165.513 24.4868Z" fill="#F7A491"/>
  <path d="M169.697 23.8828C169.659 24.2816 169.846 24.6255 170.116 24.6511C170.385 24.6767 170.634 24.3747 170.672 23.9758C170.71 23.5769 170.523 23.2331 170.253 23.2075C169.984 23.1818 169.735 23.4839 169.697 23.8828Z" fill="#F7A491"/>
  <path d="M177.756 5.639L158.776 7.71136C156.266 7.98489 154.446 10.1522 154.707 12.5503L158.889 50.8633C159.151 53.2624 161.397 54.9843 163.905 54.7107L182.886 52.6384C185.394 52.3648 187.216 50.1985 186.955 47.7994L182.773 9.48644C182.511 7.08737 180.265 5.36548 177.756 5.639ZM184.805 45.028C184.956 46.4118 183.906 47.6607 182.459 47.8193L163.283 49.9126C161.836 50.0702 160.54 49.0768 160.389 47.694L156.521 12.2578C156.37 10.874 157.42 9.62511 158.868 9.4665L178.043 7.37325C179.49 7.21559 180.786 8.20903 180.936 9.59187L184.805 45.028H184.805Z" fill="#2DA981"/>
  <path d="M172.795 28.2288C172.795 28.2288 178.099 24.8335 179.308 24.1534C180.517 23.4734 184.44 20.3193 184.588 20.192C184.736 20.0648 184.582 17.5422 184.891 17.6163C185.2 17.6904 184.902 18.9108 185.263 18.9317C185.624 18.9526 187.905 16.8185 187.999 17.0303C188.175 17.4264 186.653 18.3894 186.77 18.5594C186.886 18.7294 188.265 17.4093 188.563 17.6211C188.86 17.8329 187.141 18.7503 187.162 18.9203C187.184 19.0903 188.893 18.2716 188.912 18.643C188.923 18.8443 187.374 19.3335 187.512 19.5244C187.65 19.7153 188.891 19.5234 188.881 19.7571C188.87 19.9907 187.82 19.7789 187.268 20.1408C186.716 20.5017 186.133 20.4808 185.423 21.3089C184.712 22.1371 182.551 25.3425 180.631 26.5117C178.712 27.6799 174.478 30.2736 174.478 30.2736L172.793 28.2298L172.795 28.2288Z" fill="#F7A491"/>
  <path d="M156.908 32.7098L157.108 32.1428C157.108 32.1428 157.21 31.7277 157.529 31.5814C157.847 31.4352 157.695 31.0249 157.366 31.2044C157.038 31.383 156.847 31.5416 156.847 31.5416C156.847 31.5416 157.417 30.947 157.415 30.8967C157.395 30.6137 156.977 30.644 156.595 31.2006C156.213 31.7572 156.91 32.7098 156.91 32.7098H156.908Z" fill="#F7A491"/>
  <path d="M157.632 30.6564C157.632 30.6564 158.227 29.7133 158.455 29.9488C158.682 30.1853 158.834 30.8121 158.697 30.8112C158.559 30.8112 158.427 30.3715 158.113 30.606C158.025 30.6716 157.588 30.9945 157.633 30.6554L157.632 30.6564Z" fill="#F7A491"/>
  <path d="M173.428 31.5501C172.564 29.4093 172.564 27.1964 172.564 27.1964C174.597 26.4157 176.71 25.6046 176.71 25.6046C177.395 27.5668 177.289 29.1387 177.289 29.1387C175.288 30.0105 173.428 31.5501 173.428 31.5501Z" fill="#FFD19D"/>
  <path d="M142.441 32.0724C133.279 37.2315 131.216 47.6636 131.216 47.6636C135.491 39.868 144.362 40.2384 144.362 40.2384C144.046 34.3927 142.441 32.0724 142.441 32.0724Z" fill="#91DEAA"/>
</svg>
