<svg width="24" height="24" viewBox="0 0 24 24" fill="none" xmlns="http://www.w3.org/2000/svg">
<g clip-path="url(#clip0_16_2)">
<path d="M1.28627 11.0714L1.28686 11.0708L11.0763 1.28333L10.4437 0.650633L11.0763 1.28333C11.3251 1.03458 11.6495 0.9 12.0012 0.9C12.3528 0.9 12.6773 1.03457 12.9261 1.28333C12.9261 1.28334 12.9261 1.28334 12.9261 1.28335L22.7185 11.0738C22.7187 11.0741 22.719 11.0744 22.7193 11.0746C23.2282 11.5871 23.2254 12.4194 22.7202 12.9245L22.7202 12.9245C22.4714 13.1732 22.1469 13.3078 21.7953 13.3078H21.4343H20.5343V14.2078V21.4125C20.5343 22.3439 19.7757 23.1 18.8463 23.1H15.2172V17.6484C15.2172 16.4996 14.2843 15.5672 13.1358 15.5672H10.876C9.72739 15.5672 8.79446 16.4996 8.79446 17.6484V23.1048H5.16077C4.22881 23.1048 3.47278 22.3461 3.47278 21.4172V14.2125V13.3125H2.57278H2.21583C2.21048 13.312 2.20455 13.3115 2.19842 13.3111C2.18399 13.31 2.16469 13.3088 2.14191 13.3082C1.81163 13.2922 1.51379 13.1603 1.28305 12.93C0.772693 12.4161 0.773225 11.5871 1.27922 11.0785L1.28627 11.0714Z" stroke="#214080" stroke-width="1.8"/>
</g>
<defs>
<clipPath id="clip0_16_2">
<rect width="24" height="24" fill="white"/>
</clipPath>
</defs>
</svg>
