<svg width="10" height="13" viewBox="0 0 10 13" fill="none" xmlns="http://www.w3.org/2000/svg">
<g id="Group 1000010712">
<path id="Vector" d="M3.875 10H5.125M8.25 8.125V9.875C8.25 10.5751 8.25 11.4251 8.11375 11.6925C7.99394 11.9277 7.80269 12.1189 7.5675 12.2387C7.30013 12.375 6.95006 12.375 6.25 12.375H2.75C2.04994 12.375 1.6999 12.375 1.43251 12.2387C1.19731 12.1189 1.00608 11.9277 0.886244 11.6925C0.75 11.4251 0.75 10.5751 0.75 9.875V2.625C0.75 1.92494 0.75 1.5749 0.886244 1.30751C1.00608 1.07231 1.19731 0.881081 1.43251 0.761244C1.6999 0.625 2.04994 0.625 2.75 0.625H4.5" stroke="#41D172" stroke-width="1.25" stroke-linecap="round" stroke-linejoin="round"/>
<path id="Vector_2" d="M7.99001 2.01882L9.60748 3.65278C9.65269 3.69835 9.68855 3.75248 9.71301 3.81208C9.73747 3.87168 9.75004 3.93557 9.75 4.00008C9.74996 4.0646 9.73732 4.12847 9.71279 4.18804C9.68827 4.24761 9.65234 4.3017 9.60708 4.34722L7.9896 5.98118C7.89844 6.07327 7.77481 6.125 7.64589 6.125C7.51697 6.125 7.39333 6.07327 7.30218 5.98118C7.21102 5.88909 7.1598 5.76419 7.1598 5.63396C7.1598 5.50373 7.21102 5.37883 7.30218 5.28674L8.0915 4.48978H4.23524C4.10655 4.48978 3.98312 4.43813 3.89212 4.34621C3.80112 4.25428 3.75 4.1296 3.75 3.99959C3.75 3.86959 3.80112 3.7449 3.89212 3.65298C3.98312 3.56105 4.10655 3.5094 4.23524 3.5094H8.0915L7.30258 2.71326C7.21142 2.62117 7.16021 2.49627 7.16021 2.36604C7.16021 2.23581 7.21142 2.11091 7.30258 2.01882C7.39374 1.92673 7.51738 1.875 7.64629 1.875C7.77521 1.875 7.89885 1.92673 7.99001 2.01882Z" fill="#41D172"/>
</g>
</svg>
