<svg width="36" height="35" viewBox="0 0 36 35" fill="none" xmlns="http://www.w3.org/2000/svg">
<path d="M18 0C22.6413 0 27.0925 1.84374 30.3744 5.12563C33.6563 8.40752 35.5 12.8587 35.5 17.5C35.5 22.1413 33.6563 26.5925 30.3744 29.8744C27.0925 33.1563 22.6413 35 18 35C13.3587 35 8.90752 33.1563 5.62563 29.8744C2.34374 26.5925 0.5 22.1413 0.5 17.5C0.5 12.8587 2.34374 8.40752 5.62563 5.12563C8.90752 1.84374 13.3587 0 18 0ZM20.6248 10.7442C21.9247 10.7442 22.9796 9.8418 22.9796 8.50439C22.9796 7.16699 21.9222 6.26455 20.6248 6.26455C19.3249 6.26455 18.275 7.16699 18.275 8.50439C18.275 9.8418 19.3249 10.7442 20.6248 10.7442ZM21.0823 24.8107C21.0823 24.5432 21.1748 23.8483 21.1223 23.4533L19.0674 25.8182C18.6425 26.2656 18.11 26.5756 17.86 26.4931C17.7466 26.4514 17.6518 26.3705 17.5927 26.2651C17.5336 26.1597 17.514 26.0367 17.5375 25.9182L20.9623 15.0989C21.2423 13.7265 20.4723 12.4741 18.8399 12.3141C17.1176 12.3141 14.5827 14.0615 13.0404 16.2788C13.0404 16.5438 12.9904 17.2038 13.0429 17.5987L15.0952 15.2314C15.5202 14.7889 16.0151 14.4765 16.2651 14.5615C16.3883 14.6057 16.4892 14.6964 16.5462 14.8142C16.6032 14.932 16.6118 15.0674 16.5701 15.1914L13.1753 25.9581C12.7829 27.2181 13.5253 28.453 15.3252 28.733C17.975 28.733 19.5399 27.0281 21.0848 24.8107H21.0823Z" fill="#5694E3"/>
</svg>
