<svg width="24" height="24" viewBox="0 0 24 24" fill="none" xmlns="http://www.w3.org/2000/svg">
<path d="M21.1772 6.02919C20.6729 4.86636 19.9459 3.81353 19.037 2.93008C18.1252 2.03865 17.0503 1.33113 15.871 0.84615C14.6442 0.337221 13.3424 0.0800781 12.0004 0.0800781C10.6585 0.0800781 9.35667 0.337221 8.12988 0.843471C6.94328 1.33365 5.87988 2.03544 4.96381 2.9274C4.05557 3.81134 3.32859 4.86406 2.82363 6.02651C2.30131 7.23186 2.03613 8.51222 2.03613 9.83008C2.03613 11.7211 2.48881 13.6042 3.3781 15.4203C4.09328 16.8801 5.09238 18.3024 6.35131 19.6551C8.5022 21.964 10.7576 23.3756 11.3977 23.7533C11.5795 23.8606 11.7867 23.9171 11.9977 23.9167C12.2067 23.9167 12.4129 23.8631 12.5977 23.7533C13.2379 23.3756 15.4933 21.964 17.6442 19.6551C18.9031 18.3051 19.9022 16.8801 20.6174 15.4203C21.512 13.6069 21.9647 11.7265 21.9647 9.83276C21.9647 8.5149 21.6995 7.23454 21.1772 6.02919ZM12.0004 21.8622C10.2352 20.7399 3.9647 16.2962 3.9647 9.83276C3.9647 7.74615 4.79774 5.78544 6.31113 4.30686C7.82988 2.82561 9.84953 2.00865 12.0004 2.00865C14.1513 2.00865 16.171 2.82561 17.6897 4.30954C19.2031 5.78543 20.0361 7.74615 20.0361 9.83276C20.0361 16.2962 13.7656 20.7399 12.0004 21.8622ZM12.0004 5.33008C9.39685 5.33008 7.28613 7.44079 7.28613 10.0444C7.28613 12.6479 9.39685 14.7586 12.0004 14.7586C14.604 14.7586 16.7147 12.6479 16.7147 10.0444C16.7147 7.44079 14.604 5.33008 12.0004 5.33008ZM14.1218 12.1658C13.8436 12.4448 13.5129 12.6661 13.1489 12.8169C12.7848 12.9677 12.3945 13.045 12.0004 13.0444C11.1995 13.0444 10.4468 12.731 9.87899 12.1658C9.59995 11.8875 9.37867 11.5569 9.22789 11.1928C9.07711 10.8287 8.9998 10.4384 9.00042 10.0444C9.00042 9.24347 9.31381 8.49079 9.87899 7.92294C10.4468 7.35508 11.1995 7.04436 12.0004 7.04436C12.8013 7.04436 13.554 7.35508 14.1218 7.92294C14.6897 8.49079 15.0004 9.24347 15.0004 10.0444C15.0004 10.8453 14.6897 11.5979 14.1218 12.1658Z" fill="#214080"/>
</svg>
