<svg width="411" height="254" viewBox="0 0 411 254" fill="none" xmlns="http://www.w3.org/2000/svg">
<path d="M373.021 199.837C380.579 210.847 370.647 213.463 362.555 214.903C354.464 216.343 244.526 237.502 213.71 225.913C182.895 214.324 123.008 245.035 102.658 225.913C81.0746 205.632 50.911 219.539 46.2594 206.791C41.6077 194.043 64.865 180.715 97.4247 180.715C129.985 180.715 119.519 159.284 146.265 155.219C180.429 150.025 163.126 97.4263 213.71 97.4263C235.341 97.4263 254.991 107.857 261.969 132.774C270.169 162.059 326.507 121.61 334.647 172.602C338.012 193.685 365.462 188.827 373.021 199.837Z" fill="#F8F8F8"/>
<path d="M231.73 3.80688e-05C287.822 -0.0354481 296.159 24.7398 298.781 67.1024C301.403 109.467 263.313 127.853 231.263 127.73C199.213 127.608 174.055 114.95 167.948 64.5651C161.842 14.1807 186.726 0.0276384 231.73 3.80688e-05Z" fill="#91DEAA"/>
<path d="M103.727 186.304C82.7656 185.784 61.6786 187.752 41.1021 190.045C2.24857 193.038 -2.05397 209.876 0.65147 217.92C0.65147 217.92 17.8412 243.469 87.2458 233.384C156.65 223.299 200.287 254.483 246.452 253.713C292.618 252.944 281.444 215.862 319.483 228.032C357.522 240.202 371.94 231.325 371.94 221.445C371.94 196.78 404.79 214.167 410.243 202.095C415.696 190.022 390.533 188.702 371.94 186.982C346.345 184.616 319.663 184.769 293.998 186.688C282.436 187.553 271.445 189.836 259.854 190.614C238.499 192.046 216.578 190.771 195.223 189.975C176.101 189.261 156.997 188.373 137.885 187.557C126.507 187.072 115.124 186.588 103.727 186.304Z" fill="#ECEDEF"/>
<path d="M122.006 137.01C122.006 137.01 150.417 128.485 151.56 128.698C152.684 128.907 148.22 138.382 148.778 141.443C148.958 142.425 124.462 156.432 119.017 155.399C113.081 154.272 90.2656 134.646 87.8308 130.392C85.1102 125.634 80.3492 113.77 83.5212 109.303C84.9663 107.266 88.4696 104.556 90.8984 105.129C100.564 107.41 110.999 124.528 122.004 137.012L122.006 137.01Z" fill="#1E2B5F"/>
<path d="M123.566 169.58C123.378 168.737 117.484 155.027 117.184 153.627C113.269 135.354 98.1969 108.635 91.218 105.197C90.0883 104.633 82.033 104.582 82.033 104.582L86.1967 106.642C90.94 110.975 96.2491 115.986 99.6361 121.579C109.456 137.799 116.145 175.158 117.038 175.092C118.038 175.02 123.978 171.453 123.564 169.582L123.566 169.58Z" fill="#1E3877"/>
<path d="M112.725 171.705C98.8186 163.618 96.6323 144.521 90.7534 134.267C83.5556 121.709 72.9374 120.341 54.662 143.105C36.298 165.98 40.647 207.824 59.8489 232.079C66.4198 240.377 76.486 245.138 87.0688 245.114L141.355 244.998C148.485 244.982 155.466 242.812 161.276 238.676C168.354 233.639 172.642 227.022 176.34 217.971C200.757 158.203 143.659 189.697 112.723 171.707L112.725 171.705Z" fill="#54C295"/>
<path d="M110.637 245.063L141.357 244.996C148.487 244.981 155.468 242.81 161.278 238.674C168.356 233.637 172.644 227.021 176.342 217.97C186.211 193.813 182.761 184.565 173.109 180.932L156.038 183.509C156.038 199.757 154.234 225.02 154.234 225.02C146.896 238.297 137.031 244.47 110.639 245.061L110.637 245.063Z" fill="#2DA981"/>
<path d="M172.202 193.192C162.422 179.899 127.525 188.914 105.549 176.133C91.6426 168.046 89.4563 148.949 83.5774 138.696C81.1131 134.396 78.2466 131.409 74.8103 130.252C64.0521 135.715 58.7805 180.565 77.0223 197.583C104.465 223.186 140.17 184.143 172.204 193.19L172.202 193.192Z" fill="#2DA981"/>
<path d="M146.877 231.584C146.877 231.584 146.364 240.653 146.36 240.671C146.171 241.822 145.428 244.667 145.428 245.714C145.428 249.645 162.922 242.376 159.001 240.633C158.646 240.476 156.235 238.392 156.119 237.055C155.939 234.993 156.034 231.712 156.034 231.712L146.875 231.584H146.877Z" fill="#F7A491"/>
<path d="M158.751 240.464C158.751 240.464 154.644 241.667 152.54 241.968C150.437 242.27 147.663 239.737 146.175 240.421C144.958 240.979 144.485 245.032 144.322 247.086C144.27 247.737 144.765 248.301 145.416 248.334C150.254 248.586 168.647 249.434 173.42 248.052C175.896 247.335 167.145 243.265 158.749 240.464H158.751Z" fill="#1E2B5F"/>
<path d="M196.037 222.494C196.037 222.494 191.93 223.696 189.827 223.998C187.723 224.298 184.949 221.766 183.461 222.45C182.246 223.008 181.771 227.062 181.608 229.116C181.556 229.767 182.126 230.504 182.777 230.567C188.143 231.095 205.933 231.466 210.708 230.084C213.184 229.366 204.433 225.297 196.037 222.496V222.494Z" fill="#1E2B5F"/>
<path d="M178.8 215.144C178.8 215.144 183.719 222.064 184.18 223.592C184.641 225.12 196.04 226.24 196.04 222.496C196.04 222.447 192.505 219.572 191.506 218.261C189.836 216.071 185.943 208.751 185.943 208.751L178.8 215.144Z" fill="#F7A491"/>
<path d="M72.8663 64.4131C72.8663 64.4131 67.3147 60.6595 64.9667 67.2362C64.9667 67.2362 61.8301 66.286 60.4876 69.5093C60.4876 69.5093 55.1094 69.1052 55.551 76.9141C55.551 76.9141 52.8482 76.9969 53.1873 80.1572C53.5264 83.3174 55.5471 85.0266 55.5471 85.0266C55.5471 85.0266 54.3307 86.4421 55.62 89.1312C56.7162 91.4181 58.7921 91.3451 58.7921 91.3451C58.7921 91.3451 60.2273 95.29 62.2599 96.1239C64.2925 96.9579 66.5616 95.842 66.5616 95.842C66.5616 95.842 67.6853 97.9042 69.6982 97.2536C71.711 96.603 73.8244 94.0835 76.3203 94.4561C78.8162 94.8287 84.5826 92.5793 84.5826 92.5793C84.5826 92.5793 90.6291 88.112 87.1101 81.7008C87.1101 81.7008 89.9312 77.7402 86.0041 74.6036C86.0041 74.6036 86.9366 68.1333 81.7043 65.5921C76.4701 63.0509 72.8703 64.4112 72.8703 64.4112L72.8663 64.4131Z" fill="#1E2B5F"/>
<path d="M160.887 162.432C156.27 160.161 107.841 167.703 107.841 167.703L102.035 158.447L83.1312 162.737C83.1312 162.737 77.7806 168.896 77.5598 171.656C76.8442 180.583 80.935 195.593 85.5501 197.052C101.984 202.249 137.317 191.627 142.263 190.491C142.263 190.491 142.083 198.497 143.582 214.839C144.173 221.295 144.95 228.414 145.668 234.64C149.993 234.63 154.318 234.549 158.644 233.98C158.644 233.98 165.504 164.703 160.887 162.432Z" fill="#F1C38F"/>
<path d="M191.587 214.167C183.303 193.242 165.324 152.174 158.808 151.019C150.266 149.505 107.836 167.719 107.836 167.719L150.885 166.822C150.885 166.822 151.121 167.248 152.996 176.272C154.457 183.306 170.65 208.071 179.885 221.792C184.143 219.866 188.362 218.088 191.587 214.169V214.167Z" fill="#FFD19D"/>
<path d="M82.24 104.735C82.24 104.735 71.5212 104.613 70.3818 104.865C69.2423 105.118 71.2807 148.612 72.6765 164.843C74.0703 181.074 76.306 183.509 76.306 183.509C76.306 183.509 91.5926 183.568 102.158 180.234C113.143 176.766 115.753 164.007 115.753 164.007C115.753 164.007 105.803 134.826 101.815 125.784C99.2635 120 94.1654 113.491 89.0041 108.189C86.0962 105.203 82.242 104.737 82.242 104.737L82.24 104.735Z" fill="#FC716E"/>
<path d="M79.2262 96.8216L81.3771 102.691C81.3771 102.691 85.1268 111.002 83.1494 113.2C81.1701 115.399 70.8081 104.765 70.8081 104.765L68.2314 89.2591L79.2282 96.8216H79.2262Z" fill="#F7A491"/>
<path d="M69.0653 94.2828C72.1605 99.0814 77.4932 101.274 81.0497 101.796L79.2261 96.8201L68.2294 89.2576L69.0653 94.2828Z" fill="#F47458"/>
<path d="M70.1016 71.9577C74.5078 69.2627 80.29 71.3091 82.1018 76.0622C82.8904 78.1283 83.7696 80.7523 84.4715 83.678C86.159 90.7141 84.022 98.3968 80.8125 99.1065C77.6049 99.8143 67.7279 97.2001 65.1926 87.2423C63.6273 81.0934 65.4765 74.7867 70.0996 71.9596L70.1016 71.9577Z" fill="#F7A491"/>
<path d="M67.7347 87.5105C68.0797 89.0699 67.3246 90.5603 66.0511 90.8423C64.7775 91.1242 63.4645 90.0892 63.1215 88.5297C62.7765 86.9723 63.5316 85.4799 64.8051 85.198C66.0787 84.9161 67.3917 85.9511 67.7367 87.5105H67.7347Z" fill="#F7A491"/>
<path d="M70.7862 104.718C70.7862 104.718 58.3404 104.223 55.5074 106.841C53.7055 108.505 57.3547 125.158 57.3547 125.158C57.3547 125.158 67.5077 144.592 68.9843 155.96C71.4368 174.84 73.6724 186.44 74.6404 187.065C80.2334 189.074 98.7256 185.253 99.4945 183.069C107.982 158.944 70.7882 104.718 70.7882 104.718H70.7862Z" fill="#1E3877"/>
<path d="M130.977 144.706L139.239 109.818C139.452 108.915 140.26 108.276 141.189 108.276H156.192C157.507 108.276 158.465 109.522 158.128 110.793L149.016 145.124C148.791 145.974 148.038 146.577 147.158 146.613L133.005 147.169C131.681 147.22 130.673 145.996 130.979 144.706H130.977Z" fill="#2DA981"/>
<path d="M144.666 143.806C144.031 143.928 142.982 144.157 142.255 144.423C141.47 144.711 140.658 144.728 139.962 144.872C138.58 145.158 137.577 145.383 137.596 145.322C137.622 145.241 137.31 145.111 138.032 144.837C138.899 144.507 140.893 144.204 142.131 143.624C142.832 143.295 144.341 142.696 144.341 142.696C144.341 142.696 146.454 141.375 146.419 141.231C146.227 140.444 144.532 140.953 143.635 141.521C142.88 141.6 141.311 142.274 141.311 142.274C141.311 142.274 137.837 142.95 137.74 142.473C137.699 142.27 139.785 141.607 141.73 140.645C143.536 139.752 145.218 138.566 145.098 138.193C144.895 137.562 142.783 138.347 142.783 138.347C142.783 138.347 141.334 138.974 140.837 139.145C140.254 139.346 138.466 139.821 138.466 139.821C138.466 139.821 132.163 141.193 132.112 140.734C132.06 140.275 132.411 139.035 132.774 138.818C133.137 138.601 134.008 138.54 134.371 138.325C134.734 138.108 135.024 137.525 134.793 137.075C134.562 136.624 132.411 137.022 132.411 137.022C132.411 137.022 130.665 137.359 129.722 138.148C126.462 140.884 127.047 141.298 126.619 141.637C126.115 142.039 117.509 142.982 117.509 142.982C117.509 142.982 92.1642 145.925 90.7901 146.035L91.6792 154.473C93.1893 154.627 122.44 149.531 125.442 148.931C125.442 148.931 129.269 149.501 131.686 149.783C134.103 150.065 136.542 149.278 137.237 149.255C137.34 149.251 139.651 149.042 142.44 148.046C144.843 147.189 142.182 146.934 142.182 146.934C142.182 146.934 137.45 147.749 137.454 147.376C137.458 147.088 140.067 146.79 142.736 145.868C143.422 145.631 144.1 145.395 144.719 145.172C146.346 144.588 146.464 143.455 144.666 143.802V143.806Z" fill="#F8A492"/>
<path d="M87.0013 141.905C87.0013 141.905 116.565 141.692 117.711 141.905C118.834 142.114 119.152 149.7 119.708 152.762C119.887 153.744 88.545 157.255 83.1018 156.222C77.1658 155.094 62.2182 138.674 58.7544 133.132C55.8484 128.483 49.6502 116.655 51.1919 111.478C52.1224 108.349 56.9603 104.818 59.6021 105.636C70.1356 108.903 87.0013 141.907 87.0013 141.907V141.905Z" fill="#274787"/>
<path d="M153.982 127.983C154.549 127.762 155.19 128.099 155.306 128.698C155.425 129.311 155.429 130.045 154.959 130.514C154.029 131.444 147.754 132.14 147.754 131.212C147.754 130.496 152.012 128.751 153.982 127.983Z" fill="#F7A491"/>
<path d="M155.363 130.709C155.363 130.709 156.085 133.024 155.545 133.065C155.005 133.107 148.276 134.051 147.943 133.26C147.61 132.47 154.474 130.272 155.363 130.709Z" fill="#F7A491"/>
<path d="M155.64 133.308C155.64 133.308 155.898 134.333 155.38 134.97C154.859 135.606 148.553 135.62 148.259 134.636C147.965 133.655 155.37 132.557 155.64 133.308Z" fill="#F7A491"/>
<path d="M154.201 135.669C154.201 135.669 154.331 136.454 154.071 136.838C153.81 137.225 149.142 137.471 148.533 136.562C147.924 135.653 153.509 134.737 154.201 135.669Z" fill="#F7A491"/>
<path d="M257.849 99.9144L244.439 87.3306L237.646 99.875C237.646 99.875 240.441 101.793 244.077 104.165L257.851 99.9144H257.849Z" fill="#FC716E"/>
<path d="M238.923 106.986C240.169 104.749 241.587 102.174 243 99.556C247.128 91.9088 248.441 87.885 245.677 84.5375C242.915 81.188 240.185 81.4561 240.185 81.4561L231.848 87.68C231.848 87.68 228.884 98.8187 227.051 106.988H238.923V106.986Z" fill="#FF8B88"/>
<path d="M221.259 61.075L215.053 68.0126L209.971 73.028C209.971 73.028 206.747 68.4857 206.394 65.8381C206.343 65.4595 206.55 64.9194 206.611 64.6887C207.098 62.8375 204.149 61.2367 204.149 61.2367C204.149 61.2367 202.73 61.3136 202.586 63.7483C202.44 66.1831 204.374 66.5301 204.374 66.5301C204.374 66.5301 204.742 73.6233 207.136 78.0611C208.39 80.3874 213.929 76.4583 218.111 72.6475C221.626 69.4419 223.98 66.4058 223.98 66.4058L221.259 61.075Z" fill="#F7A491"/>
<path d="M222.734 59.7446C222.519 59.648 222.221 59.65 221.841 59.9634C221.011 60.6436 213.529 68.8803 213.529 68.8803C213.529 68.8803 215.879 73.0282 218.511 73.6453L222.669 70.6309L223.134 60.4267C223.148 60.1409 222.994 59.8629 222.732 59.7466L222.734 59.7446Z" fill="#FFD19D"/>
<path d="M237.455 33.5023C233.216 32.5619 228.995 34.4762 227.387 38.2496C224.972 38.1806 222.541 39.0855 220.877 40.6942C217.591 43.8682 215.767 49.8319 219.909 52.2824C220.863 57.0986 224.534 58.8276 228.069 57.9543C231.219 61.0534 237.958 59.1667 240.702 54.7782C244.26 54.9123 247.811 53.1064 249.355 50.0428C249.725 49.3075 250.242 48.1561 250.402 48.0122C250.216 48.2015 258.782 43.9274 255.653 36.1559C252.46 28.2248 241.733 28.4475 237.457 33.5023H237.455Z" fill="#1E2B5F"/>
<path d="M227.848 57.3018L233.653 55.6576L235.444 63.9436C235.444 63.9436 235.327 72.551 237.715 75.8492C240.102 79.1474 242.105 81.46 242.105 81.46C242.105 81.46 240.141 86.2999 230.789 88.6617C230.789 88.6617 228.638 82.0139 227.83 80.0523C227.021 78.0908 221.837 70.5598 221.509 68.5686C221.182 66.5755 221.395 60.6828 221.766 60.0638C222.134 59.4448 224.121 58.5162 224.121 58.5162L227.846 57.3038L227.848 57.3018Z" fill="#F5FFF5"/>
<path d="M226.614 52.8362C226.614 52.8362 226.738 53.5144 226.929 54.372C227.168 55.4445 227.511 56.7969 227.852 57.4692C228.465 58.6777 228.42 62.4313 225.766 63.4801C223.113 64.5289 224.439 59.8053 224.211 58.4766C223.982 57.1478 222.405 52.5622 222.405 52.5622L226.616 52.8343L226.614 52.8362Z" fill="#F7A491"/>
<path d="M223.091 54.4982C222.726 53.4396 222.401 52.5642 222.401 52.5642L226.612 52.8363C226.612 52.8363 226.74 53.5362 226.935 54.4154C225.496 55.3361 224.142 55.2001 223.089 54.4963L223.091 54.4982Z" fill="#F47458"/>
<path d="M223.64 43.2846C223.64 43.2846 225.389 43.3004 226.757 44.6509C228.125 45.9993 229.829 50.4726 226.903 53.3627C223.977 56.2529 220.681 53.7669 219.997 50.7979C219.311 47.8288 219.092 43.7164 223.642 43.2846H223.64Z" fill="#F7A491"/>
<path d="M219.019 50.033C219.463 50.6895 220.133 51.0109 220.516 50.7526C220.898 50.4944 220.849 49.7511 220.403 49.0946C219.96 48.4381 219.289 48.1148 218.907 48.375C218.524 48.6333 218.574 49.3765 219.019 50.033Z" fill="#F7A491"/>
<path d="M227.704 48.7792C227.625 49.6072 228.013 50.3209 228.573 50.3741C229.133 50.4273 229.65 49.8004 229.728 48.9724C229.807 48.1444 229.419 47.4307 228.859 47.3775C228.299 47.3243 227.783 47.9512 227.704 48.7792Z" fill="#F7A491"/>
<path d="M244.434 10.9099L205.035 15.2116C199.826 15.7794 196.047 20.2782 196.589 25.2561L205.269 104.785C205.813 109.764 210.476 113.339 215.682 112.771L255.082 108.469C260.288 107.901 264.07 103.405 263.528 98.4246L254.847 18.8962C254.303 13.9163 249.641 10.3421 244.434 10.9099ZM259.066 92.6719C259.38 95.5443 257.199 98.1368 254.195 98.466L214.391 102.811C211.387 103.138 208.698 101.076 208.384 98.2058L200.354 24.6489C200.041 21.7765 202.221 19.1841 205.226 18.8548L245.029 14.5098C248.032 14.1825 250.723 16.2446 251.034 19.1151L259.064 92.6719H259.066Z" fill="#2DA981"/>
<path d="M234.135 57.8007C234.135 57.8007 245.145 50.7527 247.655 49.3412C250.165 47.9296 258.307 41.3824 258.614 41.1182C258.922 40.854 258.603 35.6179 259.243 35.7716C259.884 35.9254 259.267 38.4587 260.016 38.5021C260.765 38.5455 265.501 34.1156 265.696 34.5553C266.061 35.3773 262.9 37.3764 263.143 37.7293C263.385 38.0822 266.248 35.3419 266.865 35.7815C267.482 36.2211 263.914 38.1256 263.957 38.4784C264.002 38.8313 267.551 37.1319 267.59 37.9028C267.612 38.3207 264.399 39.336 264.684 39.7323C264.97 40.1286 267.547 39.7303 267.525 40.2153C267.504 40.7003 265.323 40.2606 264.178 41.0118C263.032 41.7609 261.822 41.7175 260.347 43.4367C258.873 45.1558 254.386 51.8094 250.401 54.2363C246.417 56.6611 237.628 62.0452 237.628 62.0452L234.131 57.8026L234.135 57.8007Z" fill="#F7A491"/>
<path d="M201.159 67.102L201.573 65.925C201.573 65.925 201.786 65.0635 202.446 64.7599C203.107 64.4563 202.791 63.6046 202.109 63.9772C201.427 64.3478 201.031 64.6771 201.031 64.6771C201.031 64.6771 202.216 63.443 202.21 63.3385C202.168 62.751 201.301 62.8141 200.508 63.9693C199.716 65.1246 201.163 67.102 201.163 67.102H201.159Z" fill="#F7A491"/>
<path d="M202.661 62.8396C202.661 62.8396 203.895 60.882 204.368 61.3709C204.839 61.8618 205.155 63.163 204.871 63.161C204.585 63.161 204.311 62.2482 203.658 62.7352C203.477 62.8712 202.57 63.5415 202.663 62.8377L202.661 62.8396Z" fill="#F7A491"/>
<path d="M235.451 64.6948C233.657 60.2511 233.657 55.6576 233.657 55.6576C237.875 54.0371 242.262 52.3535 242.262 52.3535C243.683 56.4265 243.465 59.6893 243.465 59.6893C239.311 61.499 235.451 64.6948 235.451 64.6948Z" fill="#FFD19D"/>
<path d="M171.127 65.7796C152.109 76.4885 147.827 98.143 147.827 98.143C156.7 81.9613 175.116 82.7302 175.116 82.7302C174.459 70.5959 171.127 65.7796 171.127 65.7796Z" fill="#91DEAA"/>
</svg>
