<svg width="20" height="21" viewBox="0 0 20 21" fill="none" xmlns="http://www.w3.org/2000/svg">
<path id="Vector" d="M7.1579 19C7.912 19.5893 8.90863 19.9474 10 19.9474C11.0914 19.9474 12.088 19.5893 12.8421 19M1.02843 12.7417C0.826637 14.0235 1.72758 14.913 2.83032 15.3564C7.05842 17.0569 12.9416 17.0569 17.1697 15.3564C18.2724 14.913 19.1734 14.0235 18.9716 12.7417C18.8484 11.9535 18.2355 11.2979 17.7817 10.6575C17.1877 9.80768 17.1289 8.8821 17.128 7.89589C17.1289 4.08842 13.9382 1 10 1C6.06179 1 2.87106 4.08842 2.87106 7.89684C2.87106 8.8821 2.81232 9.80863 2.21737 10.6575C1.76453 11.2979 1.15253 11.9535 1.02843 12.7417Z" stroke="#929292" stroke-width="1.5" stroke-linecap="round" stroke-linejoin="round"/>
</svg>
