<svg width="10" height="14" viewBox="0 0 10 14" fill="none" xmlns="http://www.w3.org/2000/svg">
<g id="Group 1000010713">
<path id="Vector" d="M5.875 10.875H4.625M1.5 9V10.75C1.5 11.4501 1.5 12.3001 1.63625 12.5675C1.75606 12.8027 1.94731 12.9939 2.1825 13.1137C2.44987 13.25 2.79994 13.25 3.5 13.25H7C7.70006 13.25 8.0501 13.25 8.31749 13.1137C8.55269 12.9939 8.74392 12.8027 8.86376 12.5675C9 12.3001 9 11.4501 9 10.75V3.5C9 2.79994 9 2.4499 8.86376 2.18251C8.74392 1.94731 8.55269 1.75608 8.31749 1.63624C8.0501 1.5 7.70006 1.5 7 1.5H5.25" stroke="#FF5B5B" stroke-width="1.25" stroke-linecap="round" stroke-linejoin="round"/>
<path id="Vector_2" d="M1.75999 2.89382L0.142518 4.52778C0.0973072 4.57335 0.0614457 4.62748 0.0369892 4.68708C0.0125327 4.74668 -3.76701e-05 4.81057 0 4.87508C3.76701e-05 4.9396 0.012682 5.00347 0.0372081 5.06304C0.0617342 5.12261 0.0976586 5.1767 0.142923 5.22222L1.7604 6.85618C1.85156 6.94827 1.97519 7 2.10411 7C2.23303 7 2.35667 6.94827 2.44782 6.85618C2.53898 6.76409 2.5902 6.63919 2.5902 6.50896C2.5902 6.37873 2.53898 6.25383 2.44782 6.16174L1.6585 5.36478H5.51476C5.64345 5.36478 5.76688 5.31313 5.85788 5.22121C5.94888 5.12928 6 5.0046 6 4.87459C6 4.74459 5.94888 4.6199 5.85788 4.52798C5.76688 4.43605 5.64345 4.3844 5.51476 4.3844H1.6585L2.44742 3.58826C2.53858 3.49617 2.58979 3.37127 2.58979 3.24104C2.58979 3.11081 2.53858 2.98591 2.44742 2.89382C2.35626 2.80173 2.23262 2.75 2.10371 2.75C1.97479 2.75 1.85115 2.80173 1.75999 2.89382Z" fill="#FF5B5B"/>
</g>
</svg>
