<svg width="32" height="33" viewBox="0 0 32 33" fill="none" xmlns="http://www.w3.org/2000/svg">
<g id="vscode-icons:file-type-outlook">
<path id="Vector" d="M19.484 8.38232V13.8593L21.4 15.0643C21.4692 15.0792 21.5408 15.0792 21.61 15.0643L29.848 9.51032C29.842 9.24077 29.7434 8.98151 29.5687 8.77609C29.3941 8.57068 29.1541 8.43163 28.889 8.38232H19.484Z" fill="#0072C6"/>
<path id="Vector_2" d="M19.484 15.9021L21.231 17.1021C21.3127 17.1521 21.4067 17.1786 21.5025 17.1786C21.5983 17.1786 21.6923 17.1521 21.774 17.1021C21.474 17.2831 29.847 11.7241 29.847 11.7241V21.7901C29.8688 21.9941 29.8458 22.2004 29.7796 22.3945C29.7134 22.5887 29.6056 22.766 29.4636 22.9141C29.3217 23.0622 29.1491 23.1776 28.958 23.252C28.7668 23.3265 28.5617 23.3582 28.357 23.3451H19.483L19.484 15.9021ZM10.44 13.3771C10.1498 13.3758 9.86456 13.453 9.61459 13.6005C9.36462 13.7481 9.15918 13.9604 9.02 14.2151C8.64007 14.8905 8.45779 15.6591 8.494 16.4331C8.45452 17.2056 8.63705 17.9731 9.02 18.6451C9.15851 18.8894 9.35888 19.0929 9.60096 19.2353C9.84305 19.3776 10.1183 19.4537 10.3992 19.4559C10.68 19.4582 10.9564 19.3864 11.2007 19.248C11.4451 19.1095 11.6486 18.9092 11.791 18.6671C12.1705 17.9985 12.3493 17.2347 12.306 16.4671C12.3493 15.6755 12.1765 14.887 11.806 14.1861C11.6732 13.9399 11.4759 13.7346 11.2353 13.592C10.9946 13.4495 10.7197 13.3752 10.44 13.3771Z" fill="#0072C6"/>
<path id="Vector_3" d="M2.153 5.60031V27.0273L18.453 30.4453V2.44531L2.153 5.60031ZM13.061 19.9363C12.7561 20.3662 12.3507 20.715 11.8801 20.9523C11.4095 21.1895 10.8879 21.3079 10.361 21.2973C9.84735 21.3064 9.33909 21.1914 8.87945 20.9619C8.41981 20.7324 8.0224 20.3953 7.721 19.9793C7.00626 18.9813 6.64868 17.7715 6.706 16.5453C6.64534 15.259 7.00937 13.9884 7.742 12.9293C8.05095 12.4914 8.46279 12.1362 8.94128 11.8949C9.41976 11.6535 9.95023 11.5335 10.486 11.5453C10.9959 11.5354 11.5004 11.6507 11.9554 11.881C12.4104 12.1113 12.802 12.4496 13.096 12.8663C13.8036 13.886 14.1551 15.1106 14.096 16.3503C14.1586 17.6274 13.7944 18.889 13.061 19.9363Z" fill="#0072C6"/>
</g>
</svg>
