<svg width="24" height="24" viewBox="0 0 24 24" fill="none" xmlns="http://www.w3.org/2000/svg">
<path d="M21.2815 18.7389C20.7762 17.542 20.0429 16.4549 19.1225 15.538C18.2049 14.6184 17.118 13.8853 15.9216 13.379C15.9109 13.3737 15.9002 13.371 15.8895 13.3657C17.5582 12.1603 18.6431 10.1969 18.6431 7.98172C18.6431 4.31208 15.6698 1.33887 12.0002 1.33887C8.33056 1.33887 5.35735 4.31208 5.35735 7.98172C5.35735 10.1969 6.44217 12.1603 8.11092 13.3683C8.10021 13.3737 8.08949 13.3764 8.07878 13.3817C6.87878 13.888 5.80199 14.6139 4.87789 15.5407C3.95836 16.4582 3.22522 17.5452 2.71896 18.7415C2.22161 19.9128 1.95337 21.1685 1.92878 22.4407C1.92806 22.4692 1.93308 22.4977 1.94353 22.5243C1.95397 22.5509 1.96964 22.5752 1.98961 22.5957C2.00958 22.6161 2.03345 22.6324 2.0598 22.6435C2.08616 22.6546 2.11447 22.6603 2.14306 22.6603H3.75021C3.86806 22.6603 3.96181 22.5665 3.96449 22.4514C4.01806 20.3835 4.84842 18.4469 6.31628 16.979C7.83503 15.4603 9.85199 14.6246 12.0002 14.6246C14.1484 14.6246 16.1654 15.4603 17.6841 16.979C19.152 18.4469 19.9823 20.3835 20.0359 22.4514C20.0386 22.5692 20.1323 22.6603 20.2502 22.6603H21.8573C21.8859 22.6603 21.9143 22.6546 21.9406 22.6435C21.967 22.6324 21.9908 22.6161 22.0108 22.5957C22.0308 22.5752 22.0464 22.5509 22.0569 22.5243C22.0673 22.4977 22.0724 22.4692 22.0716 22.4407C22.0448 21.1603 21.7797 19.9148 21.2815 18.7389ZM12.0002 12.5889C10.7707 12.5889 9.6136 12.1094 8.74306 11.2389C7.87253 10.3683 7.39306 9.21119 7.39306 7.98172C7.39306 6.75226 7.87253 5.59512 8.74306 4.72458C9.6136 3.85405 10.7707 3.37458 12.0002 3.37458C13.2297 3.37458 14.3868 3.85405 15.2573 4.72458C16.1279 5.59512 16.6073 6.75226 16.6073 7.98172C16.6073 9.21119 16.1279 10.3683 15.2573 11.2389C14.3868 12.1094 13.2297 12.5889 12.0002 12.5889Z" fill="#214080"/>
</svg>
