<svg width="10" height="10" viewBox="0 0 10 10" fill="none" xmlns="http://www.w3.org/2000/svg">
<path id="Vector" d="M8.3578 0.0022727L5.17066 -0.00161743C5.02592 -0.00154725 4.88263 0.0272218 4.74909 0.0830253C4.61554 0.138829 4.49438 0.220559 4.39263 0.323488L0.319086 4.4326C0.114598 4.64049 0 4.92041 0 5.21202C0 5.50362 0.114598 5.78355 0.319086 5.99144L3.97194 9.67652C4.07351 9.7797 4.19463 9.86159 4.32822 9.91741C4.46181 9.97323 4.60518 10.0019 4.74997 10.0016C4.8947 10.0016 5.03799 9.97278 5.17154 9.91698C5.30508 9.86118 5.42624 9.77945 5.528 9.67652L9.64544 5.52128C9.75691 5.41762 9.84591 5.29216 9.9069 5.15268C9.96789 5.01321 9.99958 4.86269 10 4.71046V1.65392C10.0003 1.21742 9.82768 0.798571 9.51991 0.489034C9.21215 0.179497 8.7943 0.00447715 8.3578 0.0022727ZM6.99514 3.5801C6.84775 3.5801 6.70639 3.52155 6.60217 3.41733C6.49795 3.31311 6.4394 3.17175 6.4394 3.02436C6.4394 2.87697 6.49795 2.73562 6.60217 2.6314C6.70639 2.52718 6.84775 2.46863 6.99514 2.46863C7.14253 2.46863 7.28388 2.52718 7.3881 2.6314C7.49232 2.73562 7.55087 2.87697 7.55087 3.02436C7.55087 3.17175 7.49232 3.31311 7.3881 3.41733C7.28388 3.52155 7.14253 3.5801 6.99514 3.5801Z" fill="#FF5B5B"/>
</svg>
