<svg width="24" height="24" viewBox="0 0 24 24" fill="none" xmlns="http://www.w3.org/2000/svg">
<g clip-path="url(#clip0_14_35)">
<path d="M12 0C5.37321 0 0 5.37321 0 12C0 18.6268 5.37321 24 12 24C18.6268 24 24 18.6268 24 12C24 5.37321 18.6268 0 12 0ZM12 21.9643C6.49821 21.9643 2.03571 17.5018 2.03571 12C2.03571 6.49821 6.49821 2.03571 12 2.03571C17.5018 2.03571 21.9643 6.49821 21.9643 12C21.9643 17.5018 17.5018 21.9643 12 21.9643Z" fill="#214080"/>
<path d="M16.6792 15.3915L12.8595 12.6299V6.00042C12.8595 5.88256 12.7631 5.78613 12.6453 5.78613H11.3569C11.239 5.78613 11.1426 5.88256 11.1426 6.00042V13.3772C11.1426 13.4468 11.1747 13.5111 11.231 13.5513L15.6613 16.7817C15.7578 16.8513 15.8917 16.8299 15.9613 16.7361L16.7274 15.6915C16.797 15.5924 16.7756 15.4585 16.6792 15.3915Z" fill="#214080"/>
</g>
<defs>
<clipPath id="clip0_14_35">
<rect width="24" height="24" fill="white"/>
</clipPath>
</defs>
</svg>
