<svg width="24" height="24" viewBox="0 0 24 24" fill="none" xmlns="http://www.w3.org/2000/svg">
<g clip-path="url(#clip0_14_34)">
<path d="M6.79688 21C7.90144 21 8.79688 20.1046 8.79688 19C8.79688 17.8954 7.90144 17 6.79688 17C5.69229 17 4.79688 17.8954 4.79688 19C4.79688 20.1046 5.69229 21 6.79688 21Z" fill="#214080"/>
<path d="M18.2031 21C19.3077 21 20.2032 20.1046 20.2032 19C20.2032 17.8954 19.3077 17 18.2031 17C17.0986 17 16.2031 17.8954 16.2031 19C16.2031 20.1046 17.0986 21 18.2031 21Z" fill="#214080"/>
<path d="M18 14C15.4597 14 13.3864 15.9921 13.2565 18.5H11.4935C11.3636 15.9921 9.29031 14 6.75 14C4.20969 14 2.13638 15.9921 2.00646 18.5H1.5C1.2226 18.5 1 18.2774 1 18V4.5C1 4.2226 1.2226 4 1.5 4H13.5C13.7774 4 14 4.2226 14 4.5V6V7H15H20.25C20.4275 7 20.5902 7.09513 20.6745 7.23712L20.6769 7.24106L22.9269 10.991C22.9758 11.0725 23 11.1623 23 11.25V18C23 18.1902 22.8953 18.3547 22.74 18.4393C22.5801 15.96 20.5197 14 18 14Z" stroke="#214080" stroke-width="2"/>
</g>
<defs>
<clipPath id="clip0_14_34">
<rect width="24" height="18" fill="white" transform="translate(0 3)"/>
</clipPath>
</defs>
</svg>
