<svg width="7" height="11" viewBox="0 0 7 11" fill="none" xmlns="http://www.w3.org/2000/svg">
<path id="Vector" fill-rule="evenodd" clip-rule="evenodd" d="M4.51054 1.12128C4.38599 0.97487 4.23111 0.857276 4.05663 0.776632C3.88214 0.695988 3.69222 0.654221 3.5 0.654221C3.30778 0.654221 3.11786 0.695988 2.94337 0.776632C2.76889 0.857276 2.61401 0.97487 2.48946 1.12128L2.47089 1.14339C2.42544 1.1967 2.36799 1.23845 2.30324 1.26521C2.2385 1.29197 2.16833 1.30296 2.09851 1.29729L2.06977 1.29508C1.87824 1.27973 1.68567 1.30616 1.50536 1.37255C1.32506 1.43894 1.16132 1.5437 1.02548 1.67958C0.889637 1.81546 0.78493 1.97923 0.718598 2.15956C0.652267 2.33988 0.625893 2.53247 0.641302 2.72399L0.643071 2.75273C0.648743 2.82255 0.637748 2.89273 0.610991 2.95747C0.584234 3.02221 0.54248 3.07966 0.489169 3.12511L0.467056 3.14368C0.32065 3.26823 0.203055 3.42311 0.122411 3.59759C0.0417674 3.77208 0 3.962 0 4.15422C0 4.34644 0.0417674 4.53636 0.122411 4.71085C0.203055 4.88533 0.32065 5.04021 0.467056 5.16476L0.489169 5.18333C0.54248 5.22878 0.584234 5.28624 0.610991 5.35098C0.637748 5.41572 0.648743 5.48589 0.643071 5.55571L0.64086 5.58445C0.614517 5.91332 0.71157 6.24022 0.913103 6.50144C1.11464 6.76266 1.40621 6.93948 1.731 6.99744V9.90346C1.73099 9.98352 1.75272 10.0621 1.79386 10.1308C1.835 10.1995 1.89402 10.2557 1.96461 10.2935C2.03521 10.3312 2.11474 10.3491 2.19471 10.3453C2.27468 10.3414 2.3521 10.3158 2.4187 10.2714L3.5 9.55054L4.5813 10.2714C4.6479 10.3158 4.72532 10.3414 4.80529 10.3453C4.88526 10.3491 4.96479 10.3312 5.03538 10.2935C5.10598 10.2557 5.165 10.1995 5.20614 10.1308C5.24728 10.0621 5.26901 9.98352 5.269 9.90346V6.99788C5.59387 6.93991 5.88551 6.76303 6.08705 6.50172C6.2886 6.2404 6.3856 5.9134 6.35914 5.58445L6.35693 5.55571C6.35126 5.48589 6.36225 5.41572 6.38901 5.35098C6.41577 5.28624 6.45752 5.22878 6.51083 5.18333L6.53294 5.16476C6.67935 5.04021 6.79694 4.88533 6.87759 4.71085C6.95823 4.53636 7 4.34644 7 4.15422C7 3.962 6.95823 3.77208 6.87759 3.59759C6.79694 3.42311 6.67935 3.26823 6.53294 3.14368L6.51083 3.12511C6.45752 3.07966 6.41577 3.02221 6.38901 2.95747C6.36225 2.89273 6.35126 2.82255 6.35693 2.75273L6.35914 2.72399C6.37449 2.53246 6.34806 2.33989 6.28167 2.15958C6.21528 1.97928 6.11052 1.81554 5.97464 1.6797C5.83876 1.54386 5.67499 1.43915 5.49466 1.37282C5.31434 1.30649 5.12175 1.28011 4.93023 1.29552L4.90149 1.29729C4.83167 1.30296 4.7615 1.29197 4.69675 1.26521C4.63201 1.23845 4.57456 1.1967 4.52911 1.14339L4.51054 1.12128ZM2.6155 9.07734V7.3163C2.85884 7.53369 3.17371 7.65385 3.5 7.65385C3.82629 7.65385 4.14116 7.53369 4.3845 7.3163V9.07645L3.74545 8.65057C3.67277 8.60208 3.58737 8.5762 3.5 8.5762C3.41263 8.5762 3.32723 8.60208 3.25455 8.65057L2.6155 9.07734ZM4.69717 4.02464C4.77773 3.94123 4.8223 3.82952 4.8213 3.71356C4.82029 3.59761 4.77378 3.48669 4.69178 3.40469C4.60978 3.32269 4.49886 3.27618 4.38291 3.27517C4.26695 3.27417 4.15524 3.31874 4.07183 3.3993L3.05775 4.41338L2.92817 4.2838C2.84476 4.20324 2.73305 4.15866 2.61709 4.15967C2.50114 4.16068 2.39022 4.20719 2.30822 4.28919C2.22622 4.37118 2.17971 4.48211 2.1787 4.59806C2.1777 4.71402 2.22227 4.82573 2.30283 4.90914L2.74508 5.35139C2.82801 5.4343 2.94048 5.48087 3.05775 5.48087C3.17502 5.48087 3.28749 5.4343 3.37042 5.35139L4.69717 4.02464Z" fill="#5694E3"/>
</svg>
