<svg width="23" height="28" viewBox="0 0 23 28" fill="none" xmlns="http://www.w3.org/2000/svg">
<path id="Vector" d="M21.4975 21.5C21.5 21.295 21.5 21.0862 21.5 20.875C21.5 17.7688 17.0225 15.25 11.5 15.25C5.9775 15.25 1.5 17.7688 1.5 20.875C1.5 23.9812 1.5 26.5 11.5 26.5C14.2887 26.5 16.3 26.3037 17.75 25.9537M16.5 6.5C16.5 9.26142 14.2614 11.5 11.5 11.5C8.73858 11.5 6.5 9.26142 6.5 6.5C6.5 3.73858 8.73858 1.5 11.5 1.5C14.2614 1.5 16.5 3.73858 16.5 6.5Z" stroke="white" stroke-width="2" stroke-linecap="round"/>
</svg>
