<svg width="32" height="33" viewBox="0 0 32 33" fill="none" xmlns="http://www.w3.org/2000/svg">
<g id="vscode-icons:file-type-outlook">
<path id="Vector" d="M14.0735 9.77469L10.7949 18.0837L7.55616 9.77469H2L8.12063 24.2331L5.88995 29.4453H11.3362L19.4857 9.77469H14.0735ZM20.1693 17.6554C19.5033 17.6554 18.8523 17.8535 18.2986 18.2248C17.7449 18.5961 17.3133 19.1238 17.0585 19.7412C16.8036 20.3586 16.7369 21.0379 16.8669 21.6934C16.9968 22.3488 17.3175 22.9509 17.7884 23.4234C18.2593 23.8959 18.8592 24.2177 19.5124 24.3481C20.1656 24.4785 20.8426 24.4116 21.4578 24.1558C22.0731 23.9001 22.599 23.467 22.969 22.9114C23.3389 22.3557 23.5364 21.7025 23.5364 21.0342C23.5364 20.5905 23.4493 20.1511 23.2801 19.7412C23.1109 19.3312 22.8629 18.9588 22.5502 18.645C22.2375 18.3312 21.8664 18.0824 21.4578 17.9126C21.0493 17.7428 20.6115 17.6554 20.1693 17.6554ZM23.9609 3.44531L18.5823 16.4146H24.6428L30 3.44531H23.9609Z" fill="#5F01D1"/>
</g>
</svg>
