<svg width="25" height="28" viewBox="0 0 25 28" fill="none" xmlns="http://www.w3.org/2000/svg">
  <path d="M21.25 9.24875V2.75C21.25 2.41848 21.1183 2.10054 20.8839 1.86612C20.6495 1.6317 20.3315 1.5 20 1.5H2.5C2.16848 1.5 1.85054 1.6317 1.61612 1.86612C1.3817 2.10054 1.25 2.41848 1.25 2.75V25.25C1.25 25.5815 1.3817 25.8995 1.61612 26.1339C1.85054 26.3683 2.16848 26.5 2.5 26.5H8.75M6.25 7.75H14.375M6.25 12.125H9.375M17.5 21.5V23.375M17.5 18.375V17.75M17.5 26.5C14.0482 26.5 11.25 23.7018 11.25 20.25C11.25 16.7982 14.0482 14 17.5 14C20.9518 14 23.75 16.7982 23.75 20.25C23.75 23.7018 20.9518 26.5 17.5 26.5Z" stroke="#5694E3" stroke-width="2" stroke-linecap="round" stroke-linejoin="round"/>
</svg>
