<svg width="27" height="28" viewBox="0 0 27 28" fill="none" xmlns="http://www.w3.org/2000/svg">
  <path d="M6.35714 6.85714H8.14286M8.14286 6.85714C8.14286 7.33074 8.331 7.78495 8.66588 8.11983C9.00077 8.45472 9.45497 8.64286 9.92857 8.64286C10.1631 8.64286 10.3953 8.59667 10.6119 8.50693C10.8286 8.41719 11.0254 8.28565 11.1913 8.11983C11.3571 7.95401 11.4886 7.75716 11.5784 7.54051C11.6681 7.32385 11.7143 7.09165 11.7143 6.85714M8.14286 6.85714C8.14286 6.38354 8.331 5.92934 8.66588 5.59445C9.00077 5.25957 9.45497 5.07143 9.92857 5.07143C10.1631 5.07143 10.3953 5.11762 10.6119 5.20736C10.8286 5.2971 11.0254 5.42863 11.1913 5.59445C11.3571 5.76027 11.4886 5.95713 11.5784 6.17378C11.6681 6.39043 11.7143 6.62264 11.7143 6.85714M11.7143 6.85714L20.6429 6.85714M20.6429 14H18.8571M18.8571 14C18.8571 14.4736 18.669 14.9278 18.3341 15.2627C17.9992 15.5976 17.545 15.7857 17.0714 15.7857C16.5978 15.7857 16.1436 15.5976 15.8087 15.2627C15.4738 14.9278 15.2857 14.4736 15.2857 14M18.8571 14C18.8571 13.5264 18.669 13.0722 18.3341 12.7373C17.9992 12.4024 17.545 12.2143 17.0714 12.2143C16.5978 12.2143 16.1436 12.4024 15.8087 12.7373C15.4738 13.0722 15.2857 13.5264 15.2857 14M15.2857 14H6.35714M6.35714 21.1429H8.14286M8.14286 21.1429C8.14286 21.6165 8.331 22.0707 8.66588 22.4055C9.00077 22.7404 9.45497 22.9286 9.92857 22.9286C10.1631 22.9286 10.3953 22.8824 10.6119 22.7926C10.8286 22.7029 11.0254 22.5714 11.1913 22.4055C11.3571 22.2397 11.4886 22.0429 11.5784 21.8262C11.6681 21.6096 11.7143 21.3774 11.7143 21.1429M8.14286 21.1429C8.14286 20.6693 8.331 20.2151 8.66588 19.8802C9.00077 19.5453 9.45497 19.3571 9.92857 19.3571C10.1631 19.3571 10.3953 19.4033 10.6119 19.4931C10.8286 19.5828 11.0254 19.7143 11.1913 19.8802C11.3571 20.046 11.4886 20.2428 11.5784 20.4595C11.6681 20.6761 11.7143 20.9084 11.7143 21.1429M11.7143 21.1429L20.6429 21.1429M4.57143 1.5H22.4286C24.4071 1.5 26 3.09286 26 5.07143V22.9286C26 24.9071 24.4071 26.5 22.4286 26.5H4.57143C2.59286 26.5 1 24.9071 1 22.9286V5.07143C1 3.09286 2.59286 1.5 4.57143 1.5Z" stroke="#5694E3" stroke-width="1.5" stroke-linecap="round" stroke-linejoin="round"/>
</svg>
