<svg width="26" height="26" viewBox="0 0 26 26" fill="none" xmlns="http://www.w3.org/2000/svg">
  <path d="M4.40625 0.5C3.37025 0.5 2.37668 0.91155 1.64411 1.64411C0.91155 2.37668 0.5 3.37025 0.5 4.40625V19.0938C0.5 20.1298 0.91155 21.1233 1.64411 21.8559C2.37668 22.5884 3.37025 23 4.40625 23H11.7775C11.465 22.5125 11.2031 21.9888 11 21.4375H4.40625C3.78465 21.4375 3.18851 21.1906 2.74897 20.751C2.30943 20.3115 2.0625 19.7154 2.0625 19.0938V4.40625C2.0625 3.78465 2.30943 3.18851 2.74897 2.74897C3.18851 2.30943 3.78465 2.0625 4.40625 2.0625H19.0938C19.7154 2.0625 20.3115 2.30943 20.751 2.74897C21.1906 3.18851 21.4375 3.78465 21.4375 4.40625V11C21.9888 11.2031 22.5125 11.465 23 11.7775V4.40625C23 3.37025 22.5884 2.37668 21.8559 1.64411C21.1233 0.91155 20.1298 0.5 19.0938 0.5H4.40625ZM18.625 10.5C18.8283 10.5 19.0298 10.5073 19.2294 10.5219C19.2431 10.4648 19.25 10.4054 19.25 10.3438C19.25 9.9125 18.9 9.5625 18.4688 9.5625H11.9062C11.699 9.5625 11.5003 9.64481 11.3538 9.79132C11.2073 9.93783 11.125 10.1365 11.125 10.3438C11.125 10.551 11.2073 10.7497 11.3538 10.8962C11.5003 11.0427 11.699 11.125 11.9062 11.125H15.4944C16.4863 10.7117 17.5504 10.4993 18.625 10.5ZM4.25 5.03125C4.25 4.6 4.6 4.25 5.03125 4.25H18.4688C18.676 4.25 18.8747 4.33231 19.0212 4.47882C19.1677 4.62534 19.25 4.82405 19.25 5.03125C19.25 5.23845 19.1677 5.43716 19.0212 5.58368C18.8747 5.73019 18.676 5.8125 18.4688 5.8125H5.03125C4.6 5.8125 4.25 5.4625 4.25 5.03125ZM9.875 10.1875C9.875 10.5568 9.80225 10.9226 9.66091 11.2638C9.51957 11.605 9.3124 11.9151 9.05124 12.1762C8.79007 12.4374 8.48003 12.6446 8.1388 12.7859C7.79757 12.9273 7.43184 13 7.0625 13C6.69316 13 6.32743 12.9273 5.9862 12.7859C5.64497 12.6446 5.33493 12.4374 5.07376 12.1762C4.8126 11.9151 4.60543 11.605 4.46409 11.2638C4.32275 10.9226 4.25 10.5568 4.25 10.1875C4.25 9.44158 4.54632 8.72621 5.07376 8.19876C5.60121 7.67132 6.31658 7.375 7.0625 7.375C7.80842 7.375 8.52379 7.67132 9.05124 8.19876C9.57868 8.72621 9.875 9.44158 9.875 10.1875ZM8.3125 10.1875C8.3125 9.85598 8.1808 9.53804 7.94638 9.30362C7.71196 9.0692 7.39402 8.9375 7.0625 8.9375C6.73098 8.9375 6.41304 9.0692 6.17862 9.30362C5.9442 9.53804 5.8125 9.85598 5.8125 10.1875C5.8125 10.519 5.9442 10.837 6.17862 11.0714C6.41304 11.3058 6.73098 11.4375 7.0625 11.4375C7.39402 11.4375 7.71196 11.3058 7.94638 11.0714C8.1808 10.837 8.3125 10.519 8.3125 10.1875ZM7.0625 19.875C7.80842 19.875 8.52379 19.5787 9.05124 19.0512C9.57868 18.5238 9.875 17.8084 9.875 17.0625C9.875 16.3166 9.57868 15.6012 9.05124 15.0738C8.52379 14.5463 7.80842 14.25 7.0625 14.25C6.31658 14.25 5.60121 14.5463 5.07376 15.0738C4.54632 15.6012 4.25 16.3166 4.25 17.0625C4.25 17.8084 4.54632 18.5238 5.07376 19.0512C5.60121 19.5787 6.31658 19.875 7.0625 19.875ZM7.0625 18.3125C6.73098 18.3125 6.41304 18.1808 6.17862 17.9464C5.9442 17.712 5.8125 17.394 5.8125 17.0625C5.8125 16.731 5.9442 16.413 6.17862 16.1786C6.41304 15.9442 6.73098 15.8125 7.0625 15.8125C7.39402 15.8125 7.71196 15.9442 7.94638 16.1786C8.1808 16.413 8.3125 16.731 8.3125 17.0625C8.3125 17.394 8.1808 17.712 7.94638 17.9464C7.71196 18.1808 7.39402 18.3125 7.0625 18.3125ZM25.5 18.625C25.5 22.4219 22.4219 25.5 18.625 25.5C14.8281 25.5 11.75 22.4219 11.75 18.625C11.75 14.8281 14.8281 11.75 18.625 11.75C22.4219 11.75 25.5 14.8281 25.5 18.625ZM19.25 14.25C19.25 14.0842 19.1842 13.9253 19.0669 13.8081C18.9497 13.6908 18.7908 13.625 18.625 13.625C18.4592 13.625 18.3003 13.6908 18.1831 13.8081C18.0658 13.9253 18 14.0842 18 14.25V18H14.25C14.0842 18 13.9253 18.0658 13.8081 18.1831C13.6908 18.3003 13.625 18.4592 13.625 18.625C13.625 18.7908 13.6908 18.9497 13.8081 19.0669C13.9253 19.1842 14.0842 19.25 14.25 19.25H18V23C18 23.1658 18.0658 23.3247 18.1831 23.4419C18.3003 23.5592 18.4592 23.625 18.625 23.625C18.7908 23.625 18.9497 23.5592 19.0669 23.4419C19.1842 23.3247 19.25 23.1658 19.25 23V19.25H23C23.1658 19.25 23.3247 19.1842 23.4419 19.0669C23.5592 18.9497 23.625 18.7908 23.625 18.625C23.625 18.4592 23.5592 18.3003 23.4419 18.1831C23.3247 18.0658 23.1658 18 23 18H19.25V14.25Z" fill="black"/>
</svg>
