<svg width="25" height="30" viewBox="0 0 25 30" fill="none" xmlns="http://www.w3.org/2000/svg">
  <path d="M13.2333 4.61786H13.354L13.2687 4.5325L11.236 2.49979C11.0244 2.27239 10.9092 1.97179 10.9147 1.6612C10.9202 1.35032 11.0461 1.05371 11.266 0.833845C11.4859 0.613984 11.7825 0.488045 12.0933 0.48256C12.4039 0.47708 12.7045 0.592256 12.9319 0.803844L16.6813 4.55319C16.906 4.77819 17.0322 5.08319 17.0322 5.40119C17.0322 5.71919 16.906 6.02419 16.6813 6.24919L12.9319 9.99858C12.9318 9.99868 12.9317 9.99878 12.9316 9.99888C12.7054 10.2174 12.4025 10.3384 12.088 10.3358C11.7734 10.3332 11.4723 10.2071 11.2497 9.98476C11.0271 9.76237 10.9008 9.46146 10.8979 9.14682C10.895 8.83234 11.0157 8.5293 11.234 8.30291C11.2341 8.3028 11.2342 8.30269 11.2343 8.30258L12.4337 7.10321L12.5203 7.01662L12.3978 7.01786C10.4146 7.03802 8.48168 7.64454 6.84246 8.76104C5.20324 9.87753 3.93103 11.4541 3.18601 13.2922C2.44099 15.1302 2.25649 17.1477 2.65573 19.0904C3.05497 21.0331 4.02011 22.8143 5.42961 24.2096C6.83911 25.6049 8.62995 26.552 10.5766 26.9316C12.5233 27.3111 14.5387 27.1062 16.3692 26.3427C18.1996 25.5791 19.7633 24.291 20.8631 22.6406C21.963 20.9901 22.5499 19.0512 22.55 17.0679C22.55 16.7496 22.6764 16.4444 22.9015 16.2193C23.1265 15.9943 23.4317 15.8679 23.75 15.8679C24.0683 15.8679 24.3735 15.9943 24.5985 16.2193C24.8236 16.4444 24.95 16.7496 24.95 17.0679C24.95 19.5302 24.2198 21.9373 22.8518 23.9847C21.4838 26.0321 19.5394 27.6278 17.2644 28.5702C14.9895 29.5125 12.4862 29.759 10.0711 29.2786C7.65607 28.7983 5.43769 27.6125 3.69653 25.8713C1.95536 24.1302 0.769615 21.9118 0.289229 19.4967C-0.191157 17.0817 0.0553944 14.5784 0.997705 12.3034C1.94002 10.0285 3.53576 8.08409 5.58316 6.71606C7.63055 5.34804 10.0376 4.61786 12.5 4.61786H13.2333ZM11.9527 16.9659L17.4693 11.2359C17.6901 11.0069 17.9927 10.8749 18.3107 10.8689C18.6287 10.8629 18.9361 10.9834 19.1653 11.2039C19.3943 11.4246 19.5263 11.7272 19.5323 12.0452C19.5383 12.3633 19.4178 12.6706 19.1973 12.8999L12.7807 19.5665C12.6687 19.6826 12.5345 19.775 12.3861 19.8381C12.2376 19.9012 12.078 19.9337 11.9167 19.9337C11.7554 19.9337 11.5957 19.9012 11.4473 19.8381C11.2988 19.775 11.1646 19.6826 11.0527 19.5665L8.30269 16.7098L8.30271 16.7098L8.30164 16.7088C8.18684 16.5965 8.09576 16.4623 8.03378 16.3141C7.9718 16.166 7.94019 16.0069 7.94083 15.8463C7.94147 15.6857 7.97433 15.5268 8.03748 15.3792C8.10063 15.2315 8.19277 15.098 8.30845 14.9866C8.42413 14.8752 8.561 14.7882 8.71094 14.7307C8.86088 14.6731 9.02084 14.6463 9.18134 14.6517C9.34185 14.6571 9.49963 14.6947 9.64535 14.7622C9.79106 14.8297 9.92174 14.9258 10.0296 15.0448L10.0296 15.0448L10.0307 15.0459L11.8807 16.9659L11.9167 17.0033L11.9527 16.9659Z" fill="#5694E3" stroke="#EAF3FF" stroke-width="0.1"/>
</svg>
