<svg width="27" height="28" viewBox="0 0 27 28" fill="none" xmlns="http://www.w3.org/2000/svg">
  <path d="M13.5 9.83333C13.5 8.44444 14.4917 7.05556 16.4764 7.05556C17.5288 7.05556 18.5381 6.63749 19.2822 5.89334C20.0264 5.14918 20.4444 4.13989 20.4444 3.0875V2.19444M7.94444 9.83333V9.13889C7.94444 8.03382 8.38343 6.97401 9.16483 6.19261C9.94623 5.41121 11.006 4.97222 12.1111 4.97222C12.8478 4.97222 13.5544 4.67956 14.0753 4.15863C14.5962 3.6377 14.8889 2.93116 14.8889 2.19444V1.5M19.0556 12.6111H22.5278C23.4487 12.6111 24.3318 12.9769 24.983 13.6281C25.6342 14.2793 26 15.1624 26 16.0833C26 17.0042 25.6342 17.8874 24.983 18.5386C24.3318 19.1897 23.4487 19.5556 22.5278 19.5556H20.4444M20.4444 13.4444V18.1667C20.4444 20.3768 19.5665 22.4964 18.0037 24.0592C16.4409 25.622 14.3212 26.5 12.1111 26.5H9.33333C7.1232 26.5 5.00358 25.622 3.44078 24.0592C1.87797 22.4964 1 20.3768 1 18.1667V13.4444C1 13.2234 1.0878 13.0115 1.24408 12.8552C1.40036 12.6989 1.61232 12.6111 1.83333 12.6111H19.6111C19.8321 12.6111 20.0441 12.6989 20.2004 12.8552C20.3566 13.0115 20.4444 13.2234 20.4444 13.4444Z" stroke="#5694E3" stroke-width="2" stroke-linecap="round" stroke-linejoin="round"/>
</svg>
