<svg width="17" height="17" viewBox="0 0 17 17" fill="none" xmlns="http://www.w3.org/2000/svg">
  <path d="M10 15.6274H7C4.17175 15.6274 2.75725 15.6274 1.879 14.7484C1 13.8702 1 12.4557 1 9.62744V8.12744C1 5.29919 1 3.88469 1.879 3.00644C2.75725 2.12744 4.17175 2.12744 7 2.12744H10C12.8282 2.12744 14.2427 2.12744 15.121 3.00644C16 3.88469 16 5.29919 16 8.12744V9.62744C16 12.4557 16 13.8702 15.121 14.7484C14.6312 15.2389 13.975 15.4557 13 15.5509M4.75 2.12744V1.00244M12.25 2.12744V1.00244M15.625 5.87744H7.5625M1 5.87744H3.90625" stroke="#4FBFEF" stroke-width="1.5" stroke-linecap="round"/>
  <path d="M12.5 11.8774C12.5 11.9437 12.4737 12.0073 12.4268 12.0542C12.3799 12.1011 12.3163 12.1274 12.25 12.1274C12.1837 12.1274 12.1201 12.1011 12.0732 12.0542C12.0263 12.0073 12 11.9437 12 11.8774C12 11.8111 12.0263 11.7475 12.0732 11.7007C12.1201 11.6538 12.1837 11.6274 12.25 11.6274C12.3163 11.6274 12.3799 11.6538 12.4268 11.7007C12.4737 11.7475 12.5 11.8111 12.5 11.8774ZM12.5 8.87744C12.5 8.94375 12.4737 9.00733 12.4268 9.05422C12.3799 9.1011 12.3163 9.12744 12.25 9.12744C12.1837 9.12744 12.1201 9.1011 12.0732 9.05422C12.0263 9.00733 12 8.94375 12 8.87744C12 8.81114 12.0263 8.74755 12.0732 8.70066C12.1201 8.65378 12.1837 8.62744 12.25 8.62744C12.3163 8.62744 12.3799 8.65378 12.4268 8.70067C12.4737 8.74755 12.5 8.81114 12.5 8.87744ZM8.75 11.8774C8.75 11.9437 8.72366 12.0073 8.67678 12.0542C8.62989 12.1011 8.56631 12.1274 8.5 12.1274C8.4337 12.1274 8.37011 12.1011 8.32322 12.0542C8.27634 12.0073 8.25 11.9437 8.25 11.8774C8.25 11.8111 8.27634 11.7475 8.32322 11.7007C8.37011 11.6538 8.4337 11.6274 8.5 11.6274C8.56631 11.6274 8.62989 11.6538 8.67678 11.7007C8.72366 11.7475 8.75 11.8111 8.75 11.8774ZM8.75 8.87744C8.75 8.94374 8.72366 9.00733 8.67678 9.05422C8.62989 9.1011 8.5663 9.12744 8.5 9.12744C8.4337 9.12744 8.37011 9.1011 8.32322 9.05422C8.27634 9.00733 8.25 8.94375 8.25 8.87744C8.25 8.81114 8.27634 8.74755 8.32322 8.70066C8.37011 8.65378 8.4337 8.62744 8.5 8.62744C8.5663 8.62744 8.62989 8.65378 8.67678 8.70066C8.72366 8.74755 8.75 8.81114 8.75 8.87744ZM5 11.8774C5 11.9437 4.97366 12.0073 4.92678 12.0542C4.87989 12.1011 4.8163 12.1274 4.75 12.1274C4.6837 12.1274 4.62011 12.1011 4.57322 12.0542C4.52634 12.0073 4.5 11.9437 4.5 11.8774C4.5 11.8111 4.52634 11.7475 4.57322 11.7007C4.62011 11.6538 4.6837 11.6274 4.75 11.6274C4.8163 11.6274 4.87989 11.6538 4.92678 11.7007C4.97366 11.7475 5 11.8111 5 11.8774ZM5 8.87744C5 8.94375 4.97366 9.00733 4.92678 9.05422C4.87989 9.1011 4.8163 9.12744 4.75 9.12744C4.6837 9.12744 4.62011 9.1011 4.57322 9.05422C4.52634 9.00733 4.5 8.94375 4.5 8.87744C4.5 8.81114 4.52634 8.74755 4.57322 8.70066C4.62011 8.65378 4.6837 8.62744 4.75 8.62744C4.8163 8.62744 4.87989 8.65378 4.92678 8.70066C4.97366 8.74755 5 8.81114 5 8.87744Z" stroke="#4FBFEF"/>
</svg>
