<svg width="23" height="28" viewBox="0 0 13 16" fill="none" xmlns="http://www.w3.org/2000/svg">
  <path d="M12.6592 8C12.6596 8.1852 12.6121 8.36736 12.5213 8.52878C12.4305 8.69019 12.2995 8.82536 12.141 8.92113L2.31736 14.9307C2.15174 15.0321 1.96204 15.0875 1.76787 15.0911C1.57369 15.0947 1.38208 15.0464 1.21282 14.9511C1.04516 14.8574 0.905504 14.7207 0.8082 14.5551C0.710897 14.3895 0.65946 14.2009 0.65918 14.0089V1.99114C0.65946 1.79906 0.710897 1.61052 0.8082 1.44491C0.905504 1.27931 1.04516 1.1426 1.21282 1.04887C1.38208 0.953649 1.57369 0.905344 1.76787 0.908939C1.96204 0.912535 2.15174 0.967902 2.31736 1.06932L12.141 7.07886C12.2995 7.17464 12.4305 7.30981 12.5213 7.47122C12.6121 7.63263 12.6596 7.8148 12.6592 8Z" fill="#5694E3"/>
</svg>
