<svg width="17" height="17" viewBox="0 0 17 17" fill="none" xmlns="http://www.w3.org/2000/svg">
  <path d="M8.5 5.81494C8.5 4.98161 9.095 4.14827 10.2858 4.14827C10.9173 4.14827 11.5228 3.89744 11.9693 3.45094C12.4158 3.00445 12.6667 2.39888 12.6667 1.76744V1.23161M5.16667 5.81494V5.39827C5.16667 4.73523 5.43006 4.09935 5.8989 3.63051C6.36774 3.16167 7.00363 2.89827 7.66667 2.89827C8.10869 2.89827 8.53262 2.72268 8.84518 2.41012C9.15774 2.09756 9.33333 1.67364 9.33333 1.23161V0.814941M11.8333 7.48161H13.9167C14.4692 7.48161 14.9991 7.7011 15.3898 8.0918C15.7805 8.4825 16 9.01241 16 9.56494C16 10.1175 15.7805 10.6474 15.3898 11.0381C14.9991 11.4288 14.4692 11.6483 13.9167 11.6483H12.6667M12.6667 7.98161V10.8149C12.6667 12.141 12.1399 13.4128 11.2022 14.3505C10.2645 15.2882 8.99275 15.8149 7.66667 15.8149H6C4.67392 15.8149 3.40215 15.2882 2.46447 14.3505C1.52678 13.4128 1 12.141 1 10.8149V7.98161C1 7.849 1.05268 7.72182 1.14645 7.62805C1.24021 7.53429 1.36739 7.48161 1.5 7.48161H12.1667C12.2993 7.48161 12.4265 7.53429 12.5202 7.62805C12.614 7.72182 12.6667 7.849 12.6667 7.98161Z" stroke="#FFF4BD" stroke-width="1.5" stroke-linecap="round" stroke-linejoin="round"/>
</svg>
