<svg width="25" height="26" viewBox="0 0 25 26" fill="none" xmlns="http://www.w3.org/2000/svg">
  <path d="M7.47958 7.97885V6.58988H18.9108V7.97885H7.47958ZM7.47958 11.8249V10.4359H18.9108V11.8249H7.47958ZM14.2091 25.5007V22.431L21.6165 15.0598C21.7535 14.9394 21.8957 14.8515 22.0429 14.7959C22.191 14.7385 22.3392 14.7098 22.4874 14.7098C22.6401 14.7098 22.7948 14.7394 22.9513 14.7987C23.1087 14.8589 23.2467 14.9487 23.3652 15.0681L24.65 16.3793C24.7639 16.5164 24.8505 16.659 24.9097 16.8071C24.9699 16.9543 25 17.102 25 17.2502C25 17.3984 24.9759 17.5474 24.9278 17.6974C24.8796 17.8475 24.787 17.991 24.65 18.128L17.2787 25.5007H14.2091ZM22.4874 18.5767L23.7722 17.2488L22.4874 15.939L21.1678 17.2585L22.4874 18.5767ZM2.77793 25.5007C1.99456 25.5007 1.33572 25.2335 0.801434 24.6992C0.267145 24.1649 0 23.5061 0 22.7227V18.8753H4.1669V0.499268H22.2235V11.4318C21.9734 11.4392 21.7359 11.4656 21.5109 11.511C21.2859 11.5564 21.0604 11.6212 20.8345 11.7054V1.88823H5.55586V18.8753H12.9813L10.8978 20.9587V25.5007H2.77793Z" fill="#5694E3"/>
</svg>
