<svg width="33" height="32" viewBox="0 0 33 32" fill="none" xmlns="http://www.w3.org/2000/svg">
  <path d="M26.525 28.7721L26.4481 28.7231L22.0683 25.9332C22.0683 25.9332 22.0683 25.9332 22.0683 25.9332C21.9522 25.8599 21.8216 25.8125 21.6855 25.7945C21.5494 25.7765 21.411 25.7881 21.2798 25.8287C21.2798 25.8287 21.2798 25.8287 21.2798 25.8287L21.265 25.781L26.525 28.7721ZM26.525 28.7721V28.681M26.525 28.7721V28.681M26.525 28.681V23.3411C26.5254 23.2109 26.5526 23.0821 26.6049 22.9628C26.6572 22.8436 26.7333 22.7364 26.8287 22.6479C27.9792 21.6216 28.9044 20.3678 29.5458 18.9658C30.1872 17.5636 30.5309 16.0435 30.555 14.5018V14.501M26.525 28.681L30.555 14.501M30.555 14.501C30.555 7.8464 24.2451 2.45098 16.505 2.45098C8.76491 2.45098 2.455 7.8464 2.455 14.501C2.455 21.1555 8.76488 26.551 16.505 26.551L30.555 14.501ZM16.5051 28.451H16.505C7.70613 28.451 0.555005 22.1873 0.555005 14.501C0.555005 6.81466 7.70613 0.550977 16.505 0.550977C25.3038 0.550977 32.4549 6.81457 32.445 14.5007C32.4302 16.2278 32.07 17.9345 31.3858 19.5203C30.7015 21.1062 29.7068 22.5392 28.4604 23.7349L28.445 23.7497V23.771V30.5008C28.4445 30.6829 28.3918 30.8609 28.293 31.0138L28.293 31.0139C28.1567 31.2252 27.9421 31.3739 27.6964 31.4274C27.4506 31.4808 27.1937 31.4346 26.982 31.2989L26.9819 31.2988L21.4519 27.7788L21.433 27.7668L21.4114 27.7729C19.8151 28.2245 18.164 28.4527 16.5051 28.451ZM27.707 31.4762C27.9657 31.42 28.1915 31.2635 28.335 31.041L26.955 31.341C27.1779 31.4838 27.4483 31.5325 27.707 31.4762ZM12.425 22.551H14.855C15.021 22.5521 15.1852 22.5179 15.337 22.4507C15.4887 22.3834 15.6244 22.2847 15.735 22.161L12.425 22.551ZM15.7168 15.091L13.0196 20.92L12.9868 20.991H13.065H14.705H14.7267L14.7415 20.9752L19.9313 15.4453L19.9315 15.4452L20.2665 15.091H28.125H28.1457L28.1513 15.0854L28.1519 15.0853L28.1548 15.0849C28.1638 15.0837 28.1777 15.0817 28.1915 15.0781C28.2065 15.0741 28.2269 15.0669 28.244 15.0516C28.261 15.0365 28.2723 15.0156 28.2746 14.9905C28.2844 14.9588 28.2835 14.9247 28.2718 14.8935L28.2676 14.882L28.2585 14.8739L25.8988 12.7441C25.8987 12.7441 25.8987 12.744 25.8986 12.744C25.7298 12.5893 25.5315 12.4704 25.3155 12.3943C25.0995 12.3181 24.8704 12.2864 24.6418 12.3011L24.6418 12.3011L9.27662 13.2995L8.04869 11.8747L12.6581 11.5909L12.7373 11.586L12.6987 11.5166L11.3387 9.07663L11.3387 9.07662L11.3379 9.07533C11.2712 8.96368 11.236 8.83604 11.236 8.70598C11.236 8.57591 11.2712 8.44827 11.3379 8.33663L11.3379 8.33664L11.3387 8.33533C11.4027 8.2206 11.4964 8.12526 11.6101 8.05938C11.7237 7.99349 11.8531 7.95949 11.9844 7.96098H11.985H15.045L15.0452 7.96098C15.2237 7.96044 15.3965 8.0236 15.5327 8.1391L15.5329 8.13934L19.1229 11.1393L19.1383 11.1521L19.1582 11.1509L24.5381 10.8109C24.9658 10.7842 25.3944 10.8436 25.7986 10.9857C26.2029 11.1278 26.5745 11.3496 26.8913 11.638L26.8917 11.6383L29.3869 13.864L29.4829 14.008C29.483 14.0081 29.4831 14.0082 29.4832 14.0084C29.6454 14.2614 29.7373 14.5531 29.7492 14.8535C29.7611 15.1539 29.6927 15.4522 29.5509 15.7174L29.5503 15.7186C29.414 15.9906 29.2029 16.2181 28.9418 16.3744C28.6807 16.5307 28.3805 16.6093 28.0764 16.601V16.601H28.075H20.915H20.8934L20.8786 16.6167L15.6986 22.1267L15.6977 22.1276C15.5918 22.2461 15.4619 22.3406 15.3167 22.405C15.1715 22.4693 15.0142 22.5021 14.8553 22.501H14.855H12.4256C12.2341 22.4968 12.0466 22.4457 11.8796 22.3521C11.7124 22.2584 11.5707 22.1252 11.4671 21.9639L11.4667 21.9634C11.3593 21.8007 11.295 21.6132 11.2799 21.4187C11.2648 21.2243 11.2994 21.0292 11.3805 20.8518L13.3204 16.672L13.3533 16.601H13.275L6.705 16.601L6.7047 16.601C6.49152 16.6023 6.28211 16.5448 6.09946 16.4349C5.91688 16.325 5.7681 16.1669 5.66945 15.9781C5.66941 15.978 5.66937 15.9779 5.66933 15.9778L3.66959 12.0383L3.66962 12.0383L3.66868 12.0366C3.57087 11.8611 3.54655 11.654 3.60106 11.4605C3.65553 11.2673 3.78425 11.1034 3.95912 11.0048C4.1127 10.9223 4.29023 10.8958 4.4612 10.93C4.63078 10.9639 4.78338 11.0554 4.89321 11.1888L5.51061 12.344L5.51091 12.3445L6.92061 15.064L6.93461 15.091H6.965H15.7168ZM13.345 9.42098H13.2595L13.3014 9.49549L14.3814 11.4155L14.3968 11.4428L14.4281 11.4409L16.8481 11.2909L16.9722 11.2832L16.8773 11.2028L14.7873 9.43282L14.7733 9.42098H14.755H13.345Z" fill="#5694E3" stroke="#EAF3FF" stroke-width="0.1"/>
</svg>
