<svg width="33" height="32" viewBox="0 0 33 32" fill="none" xmlns="http://www.w3.org/2000/svg">
<g id="location-pointer_svgrepo.com">
<g id="Group">
<g id="Group 1000010654">
<path id="Vector" d="M4.76294 26.4048L4.76315 26.4049L16.2907 30.0833C16.291 30.0834 16.2912 30.0835 16.2914 30.0836C16.3595 30.1057 16.4305 30.1165 16.5 30.1165C16.5742 30.1165 16.6453 30.1039 16.7109 30.0834L16.711 30.0834L16.7147 30.0822L28.2516 26.2628L28.2519 26.2627C28.8957 26.0488 29.3166 25.4712 29.3166 24.7922C29.3166 24.1142 28.8974 23.5332 28.2525 23.3199C28.2525 23.3199 28.2525 23.3199 28.2524 23.3198L21.5527 21.1019C21.5524 21.1018 21.552 21.1017 21.5516 21.1015C21.1878 20.9782 20.805 21.1809 20.6872 21.5342L20.687 21.5348C20.5683 21.8937 20.7623 22.2794 21.1203 22.3983L21.1205 22.3984L27.8223 24.617C27.8223 24.617 27.8224 24.617 27.8224 24.617C27.891 24.6398 27.9161 24.6744 27.9296 24.7021C27.9469 24.7377 27.9499 24.7759 27.9499 24.7922C27.9499 24.8079 27.947 24.8457 27.9298 24.881C27.9164 24.9085 27.8914 24.943 27.823 24.9657L16.496 28.7153L5.17951 25.1026L5.17919 25.1025C5.11029 25.0806 5.08499 25.0465 5.07136 25.0192C5.05378 24.9841 5.05033 24.9462 5.05013 24.9297L5.05013 24.9296C5.04995 24.9142 5.05246 24.8765 5.0693 24.8409C5.08239 24.8133 5.10712 24.7784 5.17539 24.7547C5.17549 24.7547 5.17558 24.7546 5.17567 24.7546L12.1322 22.369C12.1323 22.369 12.1324 22.369 12.1325 22.3689C12.49 22.2468 12.679 21.8573 12.5576 21.5014L12.5575 21.5009C12.4348 21.1438 12.0459 20.953 11.6893 21.0762C11.6892 21.0762 11.689 21.0763 11.6889 21.0763L4.73205 23.462L4.73193 23.462C4.09076 23.6823 3.67628 24.2652 3.6835 24.9439C3.69072 25.6221 4.11629 26.1979 4.76294 26.4048Z" fill="#5694E3" stroke="#5694E3" stroke-width="0.5"/>
<path id="Vector_2" d="M17.5498 1.93955L17.5497 1.93953C12.3143 1.35257 7.85815 5.43605 7.85815 10.5443C7.85815 12.5491 8.51367 14.3237 9.94557 16.2725L15.4122 24.1743L15.4123 24.1746C15.6747 24.5529 16.1058 24.7796 16.5676 24.7796C17.0315 24.7796 17.4657 24.5507 17.725 24.1715C17.7252 24.1711 17.7255 24.1708 17.7257 24.1704L21.3409 18.9785L21.341 18.9785L21.3447 18.9729L23.3702 15.8898C24.8424 14.0222 25.4698 11.683 25.1377 9.30592C24.6018 5.47076 21.4117 2.3752 17.5498 1.93955ZM22.2681 15.0824L22.2614 15.0909L22.2555 15.0999L20.2102 18.2102L16.5999 23.3953L16.5988 23.3969C16.5949 23.4025 16.5919 23.4052 16.5901 23.4065C16.5881 23.4081 16.5858 23.4094 16.5829 23.4105C16.5797 23.4118 16.5763 23.4127 16.5728 23.4132C16.5696 23.4137 16.5676 23.4138 16.5676 23.4138C16.5671 23.4138 16.5647 23.4137 16.5612 23.4132C16.5597 23.4129 16.5582 23.4126 16.5568 23.4123C16.5547 23.4118 16.5527 23.4112 16.5509 23.4105C16.548 23.4094 16.5458 23.4081 16.544 23.4068C16.5424 23.4056 16.5396 23.4032 16.5359 23.3979L16.5357 23.3976L11.0602 15.4824L11.0603 15.4824L11.056 15.4766C9.77937 13.7395 9.22481 12.2224 9.22481 10.5443C9.22481 6.52312 12.5069 3.25003 16.5416 3.25003C16.8225 3.25003 17.1077 3.26596 17.3956 3.2987L17.3959 3.29873C20.6458 3.66476 23.3333 6.27359 23.7837 9.49558C24.0646 11.5055 23.5345 13.4772 22.2681 15.0824Z" fill="#5694E3" stroke="#5694E3" stroke-width="0.5"/>
<path id="Vector_3" d="M16.4974 5.96094C13.97 5.96094 11.9141 8.01678 11.9141 10.5442C11.9141 13.0717 13.97 15.1275 16.4974 15.1275C19.0249 15.1275 21.0807 13.0717 21.0807 10.5442C21.0807 8.01675 19.024 5.96094 16.4974 5.96094ZM16.4974 13.7609C14.7236 13.7609 13.2808 12.318 13.2808 10.5442C13.2808 8.77045 14.7236 7.3276 16.4974 7.3276C18.2712 7.3276 19.7141 8.77045 19.7141 10.5442C19.7141 12.318 18.2704 13.7609 16.4974 13.7609Z" fill="#5694E3" stroke="#5694E3" stroke-width="0.5"/>
</g>
</g>
</g>
</svg>
