<svg width="27" height="30" viewBox="0 0 27 30" fill="none" xmlns="http://www.w3.org/2000/svg">
  <path d="M9.55263 26.842C10.6 27.6605 11.9842 28.1578 13.5 28.1578C15.0158 28.1578 16.4 27.6605 17.4474 26.842M1.03948 18.1499C0.759217 19.9302 2.01053 21.1657 3.54211 21.7815C9.41448 24.1433 17.5855 24.1433 23.4579 21.7815C24.9895 21.1657 26.2408 19.9302 25.9605 18.1499C25.7895 17.0552 24.9382 16.1447 24.3079 15.2552C23.4829 14.0749 23.4013 12.7894 23.4 11.4197C23.4013 6.13151 18.9697 1.84204 13.5 1.84204C8.03027 1.84204 3.59869 6.13151 3.59869 11.421C3.59869 12.7894 3.51711 14.0762 2.6908 15.2552C2.06185 16.1447 1.21185 17.0552 1.03948 18.1499Z" stroke="#5694E3" stroke-width="2" stroke-linecap="round" stroke-linejoin="round"/>
</svg>
