<svg width="13" height="15" viewBox="0 0 13 15" fill="none" xmlns="http://www.w3.org/2000/svg">
  <path d="M12.5 7.31494C12.5004 7.50014 12.453 7.68231 12.3622 7.84372C12.2714 8.00513 12.1403 8.1403 11.9818 8.23608L2.15818 14.2456C1.99256 14.347 1.80286 14.4024 1.60869 14.406C1.41451 14.4096 1.2229 14.3613 1.05364 14.2661C0.885984 14.1723 0.746325 14.0356 0.649021 13.87C0.551717 13.7044 0.50028 13.5159 0.5 13.3238V1.30608C0.50028 1.114 0.551717 0.925464 0.649021 0.759855C0.746325 0.594247 0.885984 0.457545 1.05364 0.363807C1.2229 0.26859 1.41451 0.220285 1.60869 0.223881C1.80286 0.227477 1.99256 0.282843 2.15818 0.384261L11.9818 6.39381C12.1403 6.48958 12.2714 6.62475 12.3622 6.78616C12.453 6.94758 12.5004 7.12974 12.5 7.31494Z" fill="#41D172"/>
</svg>
