<svg width="27" height="22" viewBox="0 0 27 22" fill="none" xmlns="http://www.w3.org/2000/svg">
  <path d="M11 16.625H6M8.5 12.875H6M26 11C26 6.28625 26 3.92875 24.535 2.465C23.0712 1 20.7137 1 16 1H11C6.28625 1 3.92875 1 2.465 2.465C1 3.92875 1 6.28625 1 11C1 15.7137 1 18.0712 2.465 19.535C3.92875 21 6.28625 21 11 21H16C20.7137 21 23.0712 21 24.535 19.535C25.3525 18.7187 25.7138 17.625 25.8725 16M1 8.5H7.25M26 8.5H12.25M16 14.75C16 13.5712 16 12.9825 16.3663 12.6163C16.7325 12.25 17.3212 12.25 18.5 12.25C19.6788 12.25 20.2675 12.25 20.6338 12.6163C21 12.9825 21 13.5712 21 14.75C21 15.9288 21 16.5175 20.6338 16.8838C20.2675 17.25 19.6788 17.25 18.5 17.25C17.3212 17.25 16.7325 17.25 16.3663 16.8838C16 16.5175 16 15.9288 16 14.75Z" stroke="#5694E3" stroke-width="1.7" stroke-linecap="round"/>
</svg>
