<svg width="25" height="28" viewBox="0 0 25 28" fill="none" xmlns="http://www.w3.org/2000/svg">
  <path d="M1.25024 12.8722V19.1133C1.25024 22.9832 1.25024 24.9195 2.16772 25.7644C2.60521 26.1682 3.1577 26.4219 3.74644 26.4894C4.98016 26.6307 6.42137 25.3557 9.30256 22.807C10.5775 21.6808 11.2138 21.117 11.95 20.9695C12.3125 20.8945 12.6875 20.8945 13.05 20.9695C13.7875 21.117 14.4237 21.6808 15.6974 22.807C18.5786 25.3557 20.0198 26.6307 21.2535 26.4882C21.841 26.4219 22.3948 26.1682 22.8322 25.7644C23.7497 24.9195 23.7497 22.9845 23.7497 19.1133V12.871C23.7497 7.51111 23.7497 4.83117 22.1023 3.16496C20.4548 1.5 17.8024 1.5 12.5 1.5C7.19636 1.5 4.54517 1.5 2.89771 3.16496C1.88898 4.18494 1.49774 5.5874 1.34649 7.74985M16.2499 6.49988H8.75007" stroke="#5694E3" stroke-width="2" stroke-linecap="round"/>
</svg>
