<svg width="33" height="32" viewBox="0 0 33 32" fill="none" xmlns="http://www.w3.org/2000/svg">
  <mask id="path-1-inside-1_257_2384" fill="white">
    <path d="M19.3286 2.7301C19.1737 2.06193 18.7879 1.46993 18.239 1.05856C17.6902 0.647192 17.0137 0.442894 16.329 0.481719C15.6442 0.520544 14.9951 0.799997 14.4963 1.27076C13.9975 1.74153 13.6811 2.37335 13.6027 3.05474C13.5244 3.73613 13.6893 4.42328 14.0682 4.99495C14.4472 5.56662 15.0159 5.98605 15.674 6.17924C16.3322 6.37242 17.0373 6.32695 17.6652 6.05083C18.293 5.77471 18.8032 5.28571 19.1056 4.6701C20.9465 5.08931 22.6579 5.95006 24.092 7.1781C25.5261 8.40614 26.64 9.96461 27.3376 11.7191L29.1126 11.0211C28.2909 8.9401 26.9678 7.09434 25.2609 5.6479C23.554 4.20147 21.5162 3.19917 19.3286 2.7301ZM16.5066 4.3681C16.3766 4.37227 16.2472 4.35029 16.1259 4.30344C16.0046 4.2566 15.894 4.18586 15.8006 4.09542C15.7072 4.00498 15.633 3.89669 15.5823 3.77699C15.5316 3.65728 15.5054 3.5286 15.5054 3.3986C15.5054 3.2686 15.5316 3.13992 15.5823 3.02022C15.633 2.90051 15.7072 2.79222 15.8006 2.70178C15.894 2.61135 16.0046 2.5406 16.1259 2.49376C16.2472 2.44692 16.3766 2.42493 16.5066 2.4291C16.7638 2.4291 17.0105 2.5313 17.1925 2.71321C17.3744 2.89512 17.4766 3.14184 17.4766 3.3991C17.4766 3.65636 17.3744 3.90308 17.1925 4.08499C17.0105 4.26691 16.7638 4.3681 16.5066 4.3681ZM12.2396 5.1741L11.5226 3.4001C9.44156 4.22176 7.5958 5.54484 6.14937 7.25174C4.70293 8.95865 3.70063 10.9965 3.23157 13.1841C2.5634 13.3389 1.9714 13.7248 1.56003 14.2736C1.14866 14.8224 0.944359 15.4989 0.983184 16.1837C1.02201 16.8685 1.30146 17.5175 1.77223 18.0163C2.243 18.5151 2.87482 18.8316 3.55621 18.9099C4.23759 18.9883 4.92475 18.8234 5.49641 18.4444C6.06808 18.0654 6.48751 17.4967 6.6807 16.8386C6.87389 16.1805 6.82841 15.4753 6.5523 14.8475C6.27618 14.2196 5.78717 13.7095 5.17157 13.4071C5.5925 11.564 6.45605 9.85112 7.68755 8.41664C8.91904 6.98216 10.4814 5.86924 12.2396 5.1741ZM3.89957 16.9761C3.77218 16.9761 3.64605 16.951 3.52836 16.9023C3.41068 16.8535 3.30375 16.7821 3.21367 16.692C3.1236 16.6019 3.05215 16.495 3.0034 16.3773C2.95466 16.2596 2.92957 16.1335 2.92957 16.0061C2.92957 15.8787 2.95466 15.7526 3.0034 15.6349C3.05215 15.5172 3.1236 15.4103 3.21367 15.3202C3.30375 15.2301 3.41068 15.1587 3.52836 15.1099C3.64605 15.0612 3.77218 15.0361 3.89957 15.0361C4.15683 15.0361 4.40355 15.1383 4.58546 15.3202C4.76737 15.5021 4.86957 15.7488 4.86957 16.0061C4.86957 16.2634 4.76737 16.5101 4.58546 16.692C4.40355 16.8739 4.15683 16.9761 3.89957 16.9761ZM16.5066 25.7031C15.9656 25.7049 15.4358 25.8574 14.9767 26.1435C14.5176 26.4297 14.1474 26.8382 13.9076 27.3231C12.0663 26.9039 10.3547 26.0431 8.92039 24.8149C7.48606 23.5866 6.37209 22.0279 5.67457 20.2731L3.90057 20.9901C4.7249 23.0746 6.05241 24.9227 7.76467 26.3694C9.47693 27.816 11.5207 28.8164 13.7136 29.2811C13.8395 29.815 14.1138 30.3024 14.5048 30.6871C14.8958 31.0718 15.3876 31.3382 15.9234 31.4555C16.4592 31.5728 17.0173 31.5363 17.5333 31.3502C18.0493 31.164 18.5021 30.8358 18.8397 30.4034C19.1772 29.9711 19.3856 29.4521 19.441 28.9063C19.4963 28.3606 19.3962 27.8104 19.1524 27.319C18.9085 26.8277 18.5307 26.4153 18.0626 26.1294C17.5944 25.8435 17.055 25.6957 16.5066 25.7031ZM16.5066 29.5821C16.2493 29.5821 16.0026 29.4799 15.8207 29.298C15.6388 29.1161 15.5366 28.8694 15.5366 28.6121C15.5366 28.3548 15.6388 28.1081 15.8207 27.9262C16.0026 27.7443 16.2493 27.6421 16.5066 27.6421C16.7638 27.6421 17.0105 27.7443 17.1925 27.9262C17.3744 28.1081 17.4766 28.3548 17.4766 28.6121C17.4766 28.8694 17.3744 29.1161 17.1925 29.298C17.0105 29.4799 16.7638 29.5821 16.5066 29.5821ZM32.0216 16.0051C32.0233 15.4859 31.8862 14.9757 31.6243 14.5273C31.3624 14.079 30.9853 13.7089 30.5321 13.4555C30.079 13.202 29.5663 13.0744 29.0472 13.0859C28.5281 13.0974 28.0215 13.2475 27.5801 13.5208C27.1386 13.7941 26.7782 14.1805 26.5364 14.6399C26.2946 15.0994 26.1801 15.6152 26.2049 16.1338C26.2296 16.6525 26.3927 17.155 26.6771 17.5894C26.9616 18.0238 27.3571 18.3741 27.8226 18.6041C27.4033 20.4452 26.5424 22.1566 25.3141 23.5907C24.0859 25.0249 22.5272 26.1387 20.7726 26.8361L21.4906 28.6111C23.5751 27.7868 25.4231 26.4593 26.8698 24.747C28.3165 23.0347 29.3168 20.991 29.7816 18.7981C30.4128 18.6488 30.9761 18.2929 31.3819 17.7869C31.7878 17.2808 32.0129 16.6537 32.0216 16.0051ZM29.1116 16.9751C28.8543 16.9751 28.6076 16.8729 28.4257 16.691C28.2438 16.5091 28.1416 16.2624 28.1416 16.0051C28.1416 15.7478 28.2438 15.5011 28.4257 15.3192C28.6076 15.1373 28.8543 15.0351 29.1116 15.0351C29.3688 15.0351 29.6156 15.1373 29.7975 15.3192C29.9794 15.5011 30.0816 15.7478 30.0816 16.0051C30.0816 16.2624 29.9794 16.5091 29.7975 16.691C29.6156 16.8729 29.3688 16.9751 29.1116 16.9751Z"/>
    <path d="M19.2115 15.8701C19.7633 15.3314 20.1419 14.6404 20.2991 13.8855C20.4563 13.1305 20.3849 12.3459 20.094 11.6317C19.8032 10.9175 19.3061 10.3062 18.6662 9.87592C18.0263 9.4456 17.2727 9.21576 16.5015 9.21576C15.7304 9.21576 14.9768 9.4456 14.3369 9.87592C13.697 10.3062 13.1999 10.9175 12.909 11.6317C12.6182 12.3459 12.5468 13.1305 12.704 13.8855C12.8612 14.6404 13.2398 15.3314 13.7915 15.8701C13.135 16.3139 12.5971 16.9118 12.2251 17.6116C11.8531 18.3113 11.6582 19.0916 11.6575 19.8841V21.8231H21.3545V19.8831C21.3529 19.0898 21.1566 18.309 20.783 17.6092C20.4094 16.9094 19.8698 16.3129 19.2115 15.8701ZM14.5665 13.0951C14.5665 12.8403 14.6167 12.5881 14.7142 12.3527C14.8117 12.1173 14.9546 11.9035 15.1347 11.7233C15.3149 11.5432 15.5288 11.4003 15.7641 11.3028C15.9995 11.2053 16.2518 11.1551 16.5065 11.1551C16.7613 11.1551 17.0136 11.2053 17.2489 11.3028C17.4843 11.4003 17.6982 11.5432 17.8783 11.7233C18.0585 11.9035 18.2014 12.1173 18.2989 12.3527C18.3964 12.5881 18.4465 12.8403 18.4465 13.0951C18.4465 13.6096 18.2421 14.1031 17.8783 14.4669C17.5145 14.8307 17.0211 15.0351 16.5065 15.0351C15.992 15.0351 15.4986 14.8307 15.1347 14.4669C14.7709 14.1031 14.5665 13.6096 14.5665 13.0951ZM13.5965 19.8831C13.5894 19.4965 13.6593 19.1123 13.8023 18.753C13.9453 18.3938 14.1585 18.0666 14.4294 17.7906C14.7002 17.5147 15.0234 17.2955 15.38 17.1459C15.7365 16.9962 16.1193 16.9192 16.506 16.9192C16.8927 16.9192 17.2755 16.9962 17.6321 17.1459C17.9886 17.2955 18.3118 17.5147 18.5827 17.7906C18.8536 18.0666 19.0667 18.3938 19.2097 18.753C19.3527 19.1123 19.4227 19.4965 19.4155 19.8831H13.5965Z"/>
  </mask>
  <path d="M19.3286 2.7301C19.1737 2.06193 18.7879 1.46993 18.239 1.05856C17.6902 0.647192 17.0137 0.442894 16.329 0.481719C15.6442 0.520544 14.9951 0.799997 14.4963 1.27076C13.9975 1.74153 13.6811 2.37335 13.6027 3.05474C13.5244 3.73613 13.6893 4.42328 14.0682 4.99495C14.4472 5.56662 15.0159 5.98605 15.674 6.17924C16.3322 6.37242 17.0373 6.32695 17.6652 6.05083C18.293 5.77471 18.8032 5.28571 19.1056 4.6701C20.9465 5.08931 22.6579 5.95006 24.092 7.1781C25.5261 8.40614 26.64 9.96461 27.3376 11.7191L29.1126 11.0211C28.2909 8.9401 26.9678 7.09434 25.2609 5.6479C23.554 4.20147 21.5162 3.19917 19.3286 2.7301ZM16.5066 4.3681C16.3766 4.37227 16.2472 4.35029 16.1259 4.30344C16.0046 4.2566 15.894 4.18586 15.8006 4.09542C15.7072 4.00498 15.633 3.89669 15.5823 3.77699C15.5316 3.65728 15.5054 3.5286 15.5054 3.3986C15.5054 3.2686 15.5316 3.13992 15.5823 3.02022C15.633 2.90051 15.7072 2.79222 15.8006 2.70178C15.894 2.61135 16.0046 2.5406 16.1259 2.49376C16.2472 2.44692 16.3766 2.42493 16.5066 2.4291C16.7638 2.4291 17.0105 2.5313 17.1925 2.71321C17.3744 2.89512 17.4766 3.14184 17.4766 3.3991C17.4766 3.65636 17.3744 3.90308 17.1925 4.08499C17.0105 4.26691 16.7638 4.3681 16.5066 4.3681ZM12.2396 5.1741L11.5226 3.4001C9.44156 4.22176 7.5958 5.54484 6.14937 7.25174C4.70293 8.95865 3.70063 10.9965 3.23157 13.1841C2.5634 13.3389 1.9714 13.7248 1.56003 14.2736C1.14866 14.8224 0.944359 15.4989 0.983184 16.1837C1.02201 16.8685 1.30146 17.5175 1.77223 18.0163C2.243 18.5151 2.87482 18.8316 3.55621 18.9099C4.23759 18.9883 4.92475 18.8234 5.49641 18.4444C6.06808 18.0654 6.48751 17.4967 6.6807 16.8386C6.87389 16.1805 6.82841 15.4753 6.5523 14.8475C6.27618 14.2196 5.78717 13.7095 5.17157 13.4071C5.5925 11.564 6.45605 9.85112 7.68755 8.41664C8.91904 6.98216 10.4814 5.86924 12.2396 5.1741ZM3.89957 16.9761C3.77218 16.9761 3.64605 16.951 3.52836 16.9023C3.41068 16.8535 3.30375 16.7821 3.21367 16.692C3.1236 16.6019 3.05215 16.495 3.0034 16.3773C2.95466 16.2596 2.92957 16.1335 2.92957 16.0061C2.92957 15.8787 2.95466 15.7526 3.0034 15.6349C3.05215 15.5172 3.1236 15.4103 3.21367 15.3202C3.30375 15.2301 3.41068 15.1587 3.52836 15.1099C3.64605 15.0612 3.77218 15.0361 3.89957 15.0361C4.15683 15.0361 4.40355 15.1383 4.58546 15.3202C4.76737 15.5021 4.86957 15.7488 4.86957 16.0061C4.86957 16.2634 4.76737 16.5101 4.58546 16.692C4.40355 16.8739 4.15683 16.9761 3.89957 16.9761ZM16.5066 25.7031C15.9656 25.7049 15.4358 25.8574 14.9767 26.1435C14.5176 26.4297 14.1474 26.8382 13.9076 27.3231C12.0663 26.9039 10.3547 26.0431 8.92039 24.8149C7.48606 23.5866 6.37209 22.0279 5.67457 20.2731L3.90057 20.9901C4.7249 23.0746 6.05241 24.9227 7.76467 26.3694C9.47693 27.816 11.5207 28.8164 13.7136 29.2811C13.8395 29.815 14.1138 30.3024 14.5048 30.6871C14.8958 31.0718 15.3876 31.3382 15.9234 31.4555C16.4592 31.5728 17.0173 31.5363 17.5333 31.3502C18.0493 31.164 18.5021 30.8358 18.8397 30.4034C19.1772 29.9711 19.3856 29.4521 19.441 28.9063C19.4963 28.3606 19.3962 27.8104 19.1524 27.319C18.9085 26.8277 18.5307 26.4153 18.0626 26.1294C17.5944 25.8435 17.055 25.6957 16.5066 25.7031ZM16.5066 29.5821C16.2493 29.5821 16.0026 29.4799 15.8207 29.298C15.6388 29.1161 15.5366 28.8694 15.5366 28.6121C15.5366 28.3548 15.6388 28.1081 15.8207 27.9262C16.0026 27.7443 16.2493 27.6421 16.5066 27.6421C16.7638 27.6421 17.0105 27.7443 17.1925 27.9262C17.3744 28.1081 17.4766 28.3548 17.4766 28.6121C17.4766 28.8694 17.3744 29.1161 17.1925 29.298C17.0105 29.4799 16.7638 29.5821 16.5066 29.5821ZM32.0216 16.0051C32.0233 15.4859 31.8862 14.9757 31.6243 14.5273C31.3624 14.079 30.9853 13.7089 30.5321 13.4555C30.079 13.202 29.5663 13.0744 29.0472 13.0859C28.5281 13.0974 28.0215 13.2475 27.5801 13.5208C27.1386 13.7941 26.7782 14.1805 26.5364 14.6399C26.2946 15.0994 26.1801 15.6152 26.2049 16.1338C26.2296 16.6525 26.3927 17.155 26.6771 17.5894C26.9616 18.0238 27.3571 18.3741 27.8226 18.6041C27.4033 20.4452 26.5424 22.1566 25.3141 23.5907C24.0859 25.0249 22.5272 26.1387 20.7726 26.8361L21.4906 28.6111C23.5751 27.7868 25.4231 26.4593 26.8698 24.747C28.3165 23.0347 29.3168 20.991 29.7816 18.7981C30.4128 18.6488 30.9761 18.2929 31.3819 17.7869C31.7878 17.2808 32.0129 16.6537 32.0216 16.0051ZM29.1116 16.9751C28.8543 16.9751 28.6076 16.8729 28.4257 16.691C28.2438 16.5091 28.1416 16.2624 28.1416 16.0051C28.1416 15.7478 28.2438 15.5011 28.4257 15.3192C28.6076 15.1373 28.8543 15.0351 29.1116 15.0351C29.3688 15.0351 29.6156 15.1373 29.7975 15.3192C29.9794 15.5011 30.0816 15.7478 30.0816 16.0051C30.0816 16.2624 29.9794 16.5091 29.7975 16.691C29.6156 16.8729 29.3688 16.9751 29.1116 16.9751Z" fill="#5694E3"/>
  <path d="M19.2115 15.8701C19.7633 15.3314 20.1419 14.6404 20.2991 13.8855C20.4563 13.1305 20.3849 12.3459 20.094 11.6317C19.8032 10.9175 19.3061 10.3062 18.6662 9.87592C18.0263 9.4456 17.2727 9.21576 16.5015 9.21576C15.7304 9.21576 14.9768 9.4456 14.3369 9.87592C13.697 10.3062 13.1999 10.9175 12.909 11.6317C12.6182 12.3459 12.5468 13.1305 12.704 13.8855C12.8612 14.6404 13.2398 15.3314 13.7915 15.8701C13.135 16.3139 12.5971 16.9118 12.2251 17.6116C11.8531 18.3113 11.6582 19.0916 11.6575 19.8841V21.8231H21.3545V19.8831C21.3529 19.0898 21.1566 18.309 20.783 17.6092C20.4094 16.9094 19.8698 16.3129 19.2115 15.8701ZM14.5665 13.0951C14.5665 12.8403 14.6167 12.5881 14.7142 12.3527C14.8117 12.1173 14.9546 11.9035 15.1347 11.7233C15.3149 11.5432 15.5288 11.4003 15.7641 11.3028C15.9995 11.2053 16.2518 11.1551 16.5065 11.1551C16.7613 11.1551 17.0136 11.2053 17.2489 11.3028C17.4843 11.4003 17.6982 11.5432 17.8783 11.7233C18.0585 11.9035 18.2014 12.1173 18.2989 12.3527C18.3964 12.5881 18.4465 12.8403 18.4465 13.0951C18.4465 13.6096 18.2421 14.1031 17.8783 14.4669C17.5145 14.8307 17.0211 15.0351 16.5065 15.0351C15.992 15.0351 15.4986 14.8307 15.1347 14.4669C14.7709 14.1031 14.5665 13.6096 14.5665 13.0951ZM13.5965 19.8831C13.5894 19.4965 13.6593 19.1123 13.8023 18.753C13.9453 18.3938 14.1585 18.0666 14.4294 17.7906C14.7002 17.5147 15.0234 17.2955 15.38 17.1459C15.7365 16.9962 16.1193 16.9192 16.506 16.9192C16.8927 16.9192 17.2755 16.9962 17.6321 17.1459C17.9886 17.2955 18.3118 17.5147 18.5827 17.7906C18.8536 18.0666 19.0667 18.3938 19.2097 18.753C19.3527 19.1123 19.4227 19.4965 19.4155 19.8831H13.5965Z" fill="#5694E3"/>
  <path d="M19.3286 2.7301C19.1737 2.06193 18.7879 1.46993 18.239 1.05856C17.6902 0.647192 17.0137 0.442894 16.329 0.481719C15.6442 0.520544 14.9951 0.799997 14.4963 1.27076C13.9975 1.74153 13.6811 2.37335 13.6027 3.05474C13.5244 3.73613 13.6893 4.42328 14.0682 4.99495C14.4472 5.56662 15.0159 5.98605 15.674 6.17924C16.3322 6.37242 17.0373 6.32695 17.6652 6.05083C18.293 5.77471 18.8032 5.28571 19.1056 4.6701C20.9465 5.08931 22.6579 5.95006 24.092 7.1781C25.5261 8.40614 26.64 9.96461 27.3376 11.7191L29.1126 11.0211C28.2909 8.9401 26.9678 7.09434 25.2609 5.6479C23.554 4.20147 21.5162 3.19917 19.3286 2.7301ZM16.5066 4.3681C16.3766 4.37227 16.2472 4.35029 16.1259 4.30344C16.0046 4.2566 15.894 4.18586 15.8006 4.09542C15.7072 4.00498 15.633 3.89669 15.5823 3.77699C15.5316 3.65728 15.5054 3.5286 15.5054 3.3986C15.5054 3.2686 15.5316 3.13992 15.5823 3.02022C15.633 2.90051 15.7072 2.79222 15.8006 2.70178C15.894 2.61135 16.0046 2.5406 16.1259 2.49376C16.2472 2.44692 16.3766 2.42493 16.5066 2.4291C16.7638 2.4291 17.0105 2.5313 17.1925 2.71321C17.3744 2.89512 17.4766 3.14184 17.4766 3.3991C17.4766 3.65636 17.3744 3.90308 17.1925 4.08499C17.0105 4.26691 16.7638 4.3681 16.5066 4.3681ZM12.2396 5.1741L11.5226 3.4001C9.44156 4.22176 7.5958 5.54484 6.14937 7.25174C4.70293 8.95865 3.70063 10.9965 3.23157 13.1841C2.5634 13.3389 1.9714 13.7248 1.56003 14.2736C1.14866 14.8224 0.944359 15.4989 0.983184 16.1837C1.02201 16.8685 1.30146 17.5175 1.77223 18.0163C2.243 18.5151 2.87482 18.8316 3.55621 18.9099C4.23759 18.9883 4.92475 18.8234 5.49641 18.4444C6.06808 18.0654 6.48751 17.4967 6.6807 16.8386C6.87389 16.1805 6.82841 15.4753 6.5523 14.8475C6.27618 14.2196 5.78717 13.7095 5.17157 13.4071C5.5925 11.564 6.45605 9.85112 7.68755 8.41664C8.91904 6.98216 10.4814 5.86924 12.2396 5.1741ZM3.89957 16.9761C3.77218 16.9761 3.64605 16.951 3.52836 16.9023C3.41068 16.8535 3.30375 16.7821 3.21367 16.692C3.1236 16.6019 3.05215 16.495 3.0034 16.3773C2.95466 16.2596 2.92957 16.1335 2.92957 16.0061C2.92957 15.8787 2.95466 15.7526 3.0034 15.6349C3.05215 15.5172 3.1236 15.4103 3.21367 15.3202C3.30375 15.2301 3.41068 15.1587 3.52836 15.1099C3.64605 15.0612 3.77218 15.0361 3.89957 15.0361C4.15683 15.0361 4.40355 15.1383 4.58546 15.3202C4.76737 15.5021 4.86957 15.7488 4.86957 16.0061C4.86957 16.2634 4.76737 16.5101 4.58546 16.692C4.40355 16.8739 4.15683 16.9761 3.89957 16.9761ZM16.5066 25.7031C15.9656 25.7049 15.4358 25.8574 14.9767 26.1435C14.5176 26.4297 14.1474 26.8382 13.9076 27.3231C12.0663 26.9039 10.3547 26.0431 8.92039 24.8149C7.48606 23.5866 6.37209 22.0279 5.67457 20.2731L3.90057 20.9901C4.7249 23.0746 6.05241 24.9227 7.76467 26.3694C9.47693 27.816 11.5207 28.8164 13.7136 29.2811C13.8395 29.815 14.1138 30.3024 14.5048 30.6871C14.8958 31.0718 15.3876 31.3382 15.9234 31.4555C16.4592 31.5728 17.0173 31.5363 17.5333 31.3502C18.0493 31.164 18.5021 30.8358 18.8397 30.4034C19.1772 29.9711 19.3856 29.4521 19.441 28.9063C19.4963 28.3606 19.3962 27.8104 19.1524 27.319C18.9085 26.8277 18.5307 26.4153 18.0626 26.1294C17.5944 25.8435 17.055 25.6957 16.5066 25.7031ZM16.5066 29.5821C16.2493 29.5821 16.0026 29.4799 15.8207 29.298C15.6388 29.1161 15.5366 28.8694 15.5366 28.6121C15.5366 28.3548 15.6388 28.1081 15.8207 27.9262C16.0026 27.7443 16.2493 27.6421 16.5066 27.6421C16.7638 27.6421 17.0105 27.7443 17.1925 27.9262C17.3744 28.1081 17.4766 28.3548 17.4766 28.6121C17.4766 28.8694 17.3744 29.1161 17.1925 29.298C17.0105 29.4799 16.7638 29.5821 16.5066 29.5821ZM32.0216 16.0051C32.0233 15.4859 31.8862 14.9757 31.6243 14.5273C31.3624 14.079 30.9853 13.7089 30.5321 13.4555C30.079 13.202 29.5663 13.0744 29.0472 13.0859C28.5281 13.0974 28.0215 13.2475 27.5801 13.5208C27.1386 13.7941 26.7782 14.1805 26.5364 14.6399C26.2946 15.0994 26.1801 15.6152 26.2049 16.1338C26.2296 16.6525 26.3927 17.155 26.6771 17.5894C26.9616 18.0238 27.3571 18.3741 27.8226 18.6041C27.4033 20.4452 26.5424 22.1566 25.3141 23.5907C24.0859 25.0249 22.5272 26.1387 20.7726 26.8361L21.4906 28.6111C23.5751 27.7868 25.4231 26.4593 26.8698 24.747C28.3165 23.0347 29.3168 20.991 29.7816 18.7981C30.4128 18.6488 30.9761 18.2929 31.3819 17.7869C31.7878 17.2808 32.0129 16.6537 32.0216 16.0051ZM29.1116 16.9751C28.8543 16.9751 28.6076 16.8729 28.4257 16.691C28.2438 16.5091 28.1416 16.2624 28.1416 16.0051C28.1416 15.7478 28.2438 15.5011 28.4257 15.3192C28.6076 15.1373 28.8543 15.0351 29.1116 15.0351C29.3688 15.0351 29.6156 15.1373 29.7975 15.3192C29.9794 15.5011 30.0816 15.7478 30.0816 16.0051C30.0816 16.2624 29.9794 16.5091 29.7975 16.691C29.6156 16.8729 29.3688 16.9751 29.1116 16.9751Z" stroke="#EAF3FF" stroke-width="0.2" mask="url(#path-1-inside-1_257_2384)"/>
  <path d="M19.2115 15.8701C19.7633 15.3314 20.1419 14.6404 20.2991 13.8855C20.4563 13.1305 20.3849 12.3459 20.094 11.6317C19.8032 10.9175 19.3061 10.3062 18.6662 9.87592C18.0263 9.4456 17.2727 9.21576 16.5015 9.21576C15.7304 9.21576 14.9768 9.4456 14.3369 9.87592C13.697 10.3062 13.1999 10.9175 12.909 11.6317C12.6182 12.3459 12.5468 13.1305 12.704 13.8855C12.8612 14.6404 13.2398 15.3314 13.7915 15.8701C13.135 16.3139 12.5971 16.9118 12.2251 17.6116C11.8531 18.3113 11.6582 19.0916 11.6575 19.8841V21.8231H21.3545V19.8831C21.3529 19.0898 21.1566 18.309 20.783 17.6092C20.4094 16.9094 19.8698 16.3129 19.2115 15.8701ZM14.5665 13.0951C14.5665 12.8403 14.6167 12.5881 14.7142 12.3527C14.8117 12.1173 14.9546 11.9035 15.1347 11.7233C15.3149 11.5432 15.5288 11.4003 15.7641 11.3028C15.9995 11.2053 16.2518 11.1551 16.5065 11.1551C16.7613 11.1551 17.0136 11.2053 17.2489 11.3028C17.4843 11.4003 17.6982 11.5432 17.8783 11.7233C18.0585 11.9035 18.2014 12.1173 18.2989 12.3527C18.3964 12.5881 18.4465 12.8403 18.4465 13.0951C18.4465 13.6096 18.2421 14.1031 17.8783 14.4669C17.5145 14.8307 17.0211 15.0351 16.5065 15.0351C15.992 15.0351 15.4986 14.8307 15.1347 14.4669C14.7709 14.1031 14.5665 13.6096 14.5665 13.0951ZM13.5965 19.8831C13.5894 19.4965 13.6593 19.1123 13.8023 18.753C13.9453 18.3938 14.1585 18.0666 14.4294 17.7906C14.7002 17.5147 15.0234 17.2955 15.38 17.1459C15.7365 16.9962 16.1193 16.9192 16.506 16.9192C16.8927 16.9192 17.2755 16.9962 17.6321 17.1459C17.9886 17.2955 18.3118 17.5147 18.5827 17.7906C18.8536 18.0666 19.0667 18.3938 19.2097 18.753C19.3527 19.1123 19.4227 19.4965 19.4155 19.8831H13.5965Z" stroke="#EAF3FF" stroke-width="0.2" mask="url(#path-1-inside-1_257_2384)"/>
</svg>
