<svg width="27" height="28" viewBox="0 0 27 28" fill="none" xmlns="http://www.w3.org/2000/svg">
  <path d="M9.75 24H6C4.67392 24 3.40215 23.4732 2.46447 22.5355C1.52678 21.5979 1 20.3261 1 19V7.75C1 6.42392 1.52678 5.15215 2.46447 4.21447C3.40215 3.27678 4.67392 2.75 6 2.75H19.75C21.0761 2.75 22.3479 3.27678 23.2855 4.21447C24.2232 5.15215 24.75 6.42392 24.75 7.75V11.5M8.5 1.5V4M17.25 1.5V4M1 9H24.75M21.625 18.5537L19.75 20.4287M26 20.25C26 23.7018 23.2018 26.5 19.75 26.5C16.2982 26.5 13.5 23.7018 13.5 20.25C13.5 16.7982 16.2982 14 19.75 14C23.2018 14 26 16.7982 26 20.25Z" stroke="#5694E3" stroke-width="2" stroke-linecap="round" stroke-linejoin="round"/>
</svg>
