<svg width="17" height="17" viewBox="0 0 17 17" fill="none" xmlns="http://www.w3.org/2000/svg">
  <path d="M8.50016 1.91762C8.28806 1.91762 8.08465 2.00187 7.93467 2.15185C7.7847 2.30182 7.70044 2.50523 7.70044 2.71733C7.70044 4.07045 6.06422 4.74861 5.10696 3.79135C5.03319 3.71497 4.94495 3.65405 4.84738 3.61213C4.74981 3.57022 4.64487 3.54816 4.53869 3.54724C4.4325 3.54631 4.32719 3.56655 4.22891 3.60676C4.13063 3.64697 4.04134 3.70635 3.96625 3.78144C3.89117 3.85653 3.83178 3.94582 3.79157 4.0441C3.75136 4.14238 3.73113 4.24769 3.73205 4.35387C3.73297 4.46006 3.75504 4.565 3.79695 4.66256C3.83886 4.76013 3.89978 4.84838 3.97617 4.92215C4.93342 5.87941 4.25607 7.51563 2.90215 7.51563C2.69005 7.51563 2.48664 7.59988 2.33666 7.74986C2.18669 7.89983 2.10243 8.10324 2.10243 8.31534C2.10243 8.52744 2.18669 8.73085 2.33666 8.88083C2.48664 9.0308 2.69005 9.11506 2.90215 9.11506C4.25527 9.11506 4.93342 10.7513 3.97617 11.7085C3.83049 11.8594 3.74988 12.0614 3.75171 12.2711C3.75353 12.4807 3.83763 12.6813 3.98591 12.8296C4.13418 12.9779 4.33476 13.062 4.54444 13.0638C4.75413 13.0656 4.95613 12.985 5.10696 12.8393C6.06422 11.8821 7.70044 12.5594 7.70044 13.9134C7.70044 14.1254 7.7847 14.3289 7.93467 14.4788C8.08465 14.6288 8.28806 14.7131 8.50016 14.7131C8.71225 14.7131 8.91566 14.6288 9.06564 14.4788C9.21562 14.3289 9.29987 14.1254 9.29987 13.9134C9.29987 12.5602 10.9361 11.8821 11.8933 12.8393C11.9671 12.9157 12.0554 12.9766 12.1529 13.0185C12.2505 13.0605 12.3554 13.0825 12.4616 13.0834C12.5678 13.0844 12.6731 13.0641 12.7714 13.0239C12.8697 12.9837 12.959 12.9243 13.0341 12.8492C13.1091 12.7742 13.1685 12.6849 13.2087 12.5866C13.2489 12.4883 13.2692 12.383 13.2683 12.2768C13.2673 12.1706 13.2453 12.0657 13.2034 11.9681C13.1615 11.8706 13.1005 11.7823 13.0241 11.7085C12.0669 10.7513 12.7442 9.11506 14.0982 9.11506C14.3103 9.11506 14.5137 9.0308 14.6637 8.88083C14.8136 8.73085 14.8979 8.52744 14.8979 8.31534C14.8979 8.10324 14.8136 7.89983 14.6637 7.74986C14.5137 7.59988 14.3103 7.51563 14.0982 7.51563C12.745 7.51563 12.0669 5.87941 13.0241 4.92215C13.1698 4.77132 13.2504 4.56931 13.2486 4.35963C13.2468 4.14994 13.1627 3.94937 13.0144 3.80109C12.8661 3.65282 12.6656 3.56871 12.4559 3.56689C12.2462 3.56507 12.0442 3.64568 11.8933 3.79135C10.9361 4.74861 9.29987 4.07125 9.29987 2.71733C9.29987 2.50523 9.21562 2.30182 9.06564 2.15185C8.91566 2.00187 8.71225 1.91762 8.50016 1.91762ZM6.10741 2.539C6.15163 1.93463 6.42292 1.36938 6.86678 0.956821C7.31064 0.544258 7.89417 0.314941 8.50016 0.314941C9.10614 0.314941 9.68968 0.544258 10.1335 0.956821C10.5774 1.36938 10.8487 1.93463 10.8929 2.539C11.3518 2.14488 11.9426 1.93866 12.5471 1.96161C13.1515 1.98456 13.725 2.235 14.1527 2.66277C14.5804 3.09055 14.8307 3.66409 14.8535 4.26856C14.8763 4.87303 14.6699 5.4638 14.2757 5.92259C14.8801 5.96672 15.4454 6.23791 15.858 6.6817C16.2706 7.12549 16.5001 7.70899 16.5002 8.31497C16.5003 8.92095 16.271 9.50453 15.8585 9.94845C15.4461 10.3924 14.8809 10.6638 14.2765 10.7081C14.6706 11.167 14.8768 11.7578 14.8539 12.3623C14.8309 12.9667 14.5805 13.5402 14.1527 13.9679C13.7249 14.3956 13.1514 14.6459 12.5469 14.6687C11.9425 14.6915 11.3517 14.4851 10.8929 14.0909C10.8487 14.6953 10.5774 15.2605 10.1335 15.6731C9.68968 16.0856 9.10614 16.3149 8.50016 16.3149C7.89417 16.3149 7.31064 16.0856 6.86678 15.6731C6.42292 15.2605 6.15163 14.6953 6.10741 14.0909C5.64862 14.4851 5.05784 14.6915 4.45337 14.6687C3.84891 14.6459 3.27537 14.3956 2.84759 13.9679C2.41981 13.5402 2.16937 12.9667 2.14642 12.3623C2.12347 11.7578 2.3297 11.167 2.72381 10.7081C2.11944 10.6639 1.5542 10.3926 1.14164 9.94872C0.729072 9.50486 0.499756 8.92132 0.499756 8.31534C0.499756 7.70936 0.729072 7.12582 1.14164 6.68197C1.5542 6.23811 2.11944 5.96682 2.72381 5.92259C2.32849 5.46388 2.12126 4.87265 2.14369 4.26752C2.16612 3.66238 2.41655 3.08811 2.84474 2.65992C3.27293 2.23174 3.8472 1.98131 4.45233 1.95888C5.05746 1.93645 5.6487 2.14368 6.10741 2.539Z" fill="#5694E3"/>
  <path d="M8.50017 6.7159C8.07597 6.7159 7.66915 6.88441 7.3692 7.18437C7.06925 7.48432 6.90073 7.89114 6.90073 8.31533C6.90073 8.73953 7.06925 9.14635 7.3692 9.4463C7.66915 9.74625 8.07597 9.91477 8.50017 9.91477C8.92436 9.91477 9.33118 9.74625 9.63113 9.4463C9.93109 9.14635 10.0996 8.73953 10.0996 8.31533C10.0996 7.89114 9.93109 7.48432 9.63113 7.18437C9.33118 6.88441 8.92436 6.7159 8.50017 6.7159ZM6.23857 6.05374C6.53366 5.74821 6.88663 5.50452 7.27691 5.33687C7.66718 5.16922 8.08694 5.08098 8.51168 5.07728C8.93642 5.07359 9.35765 5.15453 9.75077 5.31537C10.1439 5.47621 10.5011 5.71374 10.8014 6.01409C11.1018 6.31444 11.3393 6.6716 11.5001 7.06473C11.661 7.45786 11.7419 7.87908 11.7382 8.30382C11.7345 8.72857 11.6463 9.14832 11.4786 9.53859C11.311 9.92887 11.0673 10.2818 10.7618 10.5769C10.1585 11.1596 9.35041 11.4821 8.51168 11.4748C7.67295 11.4675 6.87063 11.1311 6.27754 10.538C5.68444 9.94487 5.34802 9.14255 5.34073 8.30382C5.33345 7.46509 5.65587 6.65705 6.23857 6.05374Z" fill="#5694E3"/>
</svg>
