<svg width="31" height="30" viewBox="0 0 31 30" fill="none" xmlns="http://www.w3.org/2000/svg">
  <path d="M28.7353 15C29.6713 14.298 30.2902 13.2528 30.4556 12.0945C30.6211 10.9362 30.3197 9.7596 29.6176 8.82354C28.9156 7.88748 27.8705 7.26865 26.7121 7.10318C25.5538 6.9377 24.3772 7.23915 23.4412 7.94119V4.41178C23.4412 3.48583 23.1498 2.58335 22.6084 1.83218C22.067 1.08101 21.303 0.519227 20.4245 0.226415C19.5461 -0.0663966 18.5978 -0.0753954 17.714 0.200693C16.8301 0.476782 16.0556 1.02396 15.5 1.76472C14.7979 0.828665 13.7528 0.209832 12.5945 0.0443585C11.4362 -0.121115 10.2596 0.180327 9.32352 0.88237C8.38747 1.58441 7.76863 2.62955 7.60316 3.78786C7.43769 4.94618 7.73913 6.12278 8.44117 7.05884H4.91176C3.98581 7.05884 3.08333 7.35018 2.33216 7.89159C1.58099 8.43301 1.01921 9.19704 0.726397 10.0755C0.433586 10.9539 0.424587 11.9022 0.700676 12.786C0.976764 13.6699 1.52394 14.4444 2.26471 15C1.80122 15.3476 1.41073 15.7831 1.11555 16.2817C0.820373 16.7802 0.626275 17.332 0.544341 17.9055C0.462407 18.479 0.494241 19.0631 0.638028 19.6243C0.781814 20.1856 1.03474 20.713 1.38235 21.1765C1.72997 21.64 2.16547 22.0304 2.664 22.3256C3.16252 22.6208 3.71431 22.8149 4.28784 22.8968C4.86138 22.9788 5.44544 22.9469 6.00668 22.8032C6.56791 22.6594 7.09533 22.4064 7.55882 22.0588V25.5882C7.55882 26.5142 7.85016 27.4167 8.39157 28.1678C8.93299 28.919 9.69703 29.4808 10.5755 29.7736C11.4539 30.0664 12.4022 30.0754 13.286 29.7993C14.1699 29.5232 14.9444 28.9761 15.5 28.2353C15.8476 28.6988 16.2831 29.0893 16.7816 29.3844C17.2802 29.6796 17.8319 29.8737 18.4055 29.9557C18.979 30.0376 19.5631 30.0058 20.1243 29.862C20.6856 29.7182 21.213 29.4653 21.6765 29.1176C22.1399 28.77 22.5304 28.3345 22.8256 27.836C23.1208 27.3375 23.3149 26.7857 23.3968 26.2122C23.4788 25.6386 23.4469 25.0546 23.3031 24.4933C23.1593 23.9321 22.9064 23.4047 22.5588 22.9412H26.0882C27.0142 22.9412 27.9167 22.6498 28.6678 22.1084C29.419 21.567 29.9808 20.803 30.2736 19.9245C30.5664 19.0461 30.5754 18.0978 30.2993 17.214C30.0232 16.3301 29.476 15.5556 28.7353 15ZM26.0882 8.82354C26.7903 8.82354 27.4636 9.10243 27.96 9.59885C28.4564 10.0953 28.7353 10.7686 28.7353 11.4706C28.7353 12.1726 28.4564 12.8459 27.96 13.3424C27.4636 13.8388 26.7903 14.1177 26.0882 14.1177H23.4412V11.4706C23.4412 10.7686 23.72 10.0953 24.2165 9.59885C24.7129 9.10243 25.3862 8.82354 26.0882 8.82354ZM19.0294 1.76472C19.7314 1.76472 20.4047 2.04361 20.9012 2.54003C21.3976 3.03645 21.6765 3.70974 21.6765 4.41178V11.4706C21.6765 12.1726 21.3976 12.8459 20.9012 13.3424C20.4047 13.8388 19.7314 14.1177 19.0294 14.1177H16.3823V4.41178C16.3823 3.70974 16.6612 3.03645 17.1576 2.54003C17.6541 2.04361 18.3274 1.76472 19.0294 1.76472ZM9.32352 4.41178C9.32352 3.70974 9.60241 3.03645 10.0988 2.54003C10.5952 2.04361 11.2685 1.76472 11.9706 1.76472C12.6726 1.76472 13.3459 2.04361 13.8423 2.54003C14.3388 3.03645 14.6176 3.70974 14.6176 4.41178V7.05884H11.9706C11.2685 7.05884 10.5952 6.77995 10.0988 6.28353C9.60241 5.78711 9.32352 5.11382 9.32352 4.41178ZM2.26471 11.4706C2.26471 10.7686 2.54359 10.0953 3.04001 9.59885C3.53643 9.10243 4.20972 8.82354 4.91176 8.82354H11.9706C12.6726 8.82354 13.3459 9.10243 13.8423 9.59885C14.3388 10.0953 14.6176 10.7686 14.6176 11.4706V14.1177H4.91176C4.20972 14.1177 3.53643 13.8388 3.04001 13.3424C2.54359 12.8459 2.26471 12.1726 2.26471 11.4706ZM4.91176 21.1765C4.20972 21.1765 3.53643 20.8976 3.04001 20.4012C2.54359 19.9048 2.26471 19.2315 2.26471 18.5294C2.26471 17.8274 2.54359 17.1541 3.04001 16.6577C3.53643 16.1612 4.20972 15.8824 4.91176 15.8824H7.55882V18.5294C7.55882 19.2315 7.27993 19.9048 6.78351 20.4012C6.28709 20.8976 5.61381 21.1765 4.91176 21.1765ZM11.9706 28.2353C11.2685 28.2353 10.5952 27.9564 10.0988 27.46C9.60241 26.9636 9.32352 26.2903 9.32352 25.5882V18.5294C9.32352 17.8274 9.60241 17.1541 10.0988 16.6577C10.5952 16.1612 11.2685 15.8824 11.9706 15.8824H14.6176V25.5882C14.6176 26.2903 14.3388 26.9636 13.8423 27.46C13.3459 27.9564 12.6726 28.2353 11.9706 28.2353ZM21.6765 25.5882C21.6765 26.2903 21.3976 26.9636 20.9012 27.46C20.4047 27.9564 19.7314 28.2353 19.0294 28.2353C18.3274 28.2353 17.6541 27.9564 17.1576 27.46C16.6612 26.9636 16.3823 26.2903 16.3823 25.5882V22.9412H19.0294C19.7314 22.9412 20.4047 23.2201 20.9012 23.7165C21.3976 24.2129 21.6765 24.8862 21.6765 25.5882ZM26.0882 21.1765H19.0294C18.3274 21.1765 17.6541 20.8976 17.1576 20.4012C16.6612 19.9048 16.3823 19.2315 16.3823 18.5294V15.8824H26.0882C26.7903 15.8824 27.4636 16.1612 27.96 16.6577C28.4564 17.1541 28.7353 17.8274 28.7353 18.5294C28.7353 19.2315 28.4564 19.9048 27.96 20.4012C27.4636 20.8976 26.7903 21.1765 26.0882 21.1765Z" fill="#5694E3"/>
</svg>
