<svg width="29" height="20" viewBox="0 0 29 20" fill="none" xmlns="http://www.w3.org/2000/svg">
  <path d="M10.8282 14.3282C11.0064 14.1501 11.248 14.05 11.5 14.05H17.5C17.752 14.05 17.9936 14.1501 18.1718 14.3282C18.3499 14.5064 18.45 14.748 18.45 15C18.45 15.252 18.3499 15.4936 18.1718 15.6718C17.9936 15.8499 17.752 15.95 17.5 15.95H11.5C11.248 15.95 11.0064 15.8499 10.8282 15.6718C10.6501 15.4936 10.55 15.252 10.55 15C10.55 14.748 10.6501 14.5064 10.8282 14.3282ZM1.56048 1.06048C2.20748 0.413481 3.085 0.05 4 0.05H25C25.915 0.05 26.7925 0.413481 27.4395 1.06048C28.0865 1.70748 28.45 2.585 28.45 3.5V16.5C28.45 17.415 28.0865 18.2925 27.4395 18.9395C26.7925 19.5865 25.915 19.95 25 19.95H4C2.09561 19.95 0.55 18.4044 0.55 16.5V3.5C0.55 2.585 0.913481 1.70748 1.56048 1.06048ZM2.90398 2.40398C2.6133 2.69467 2.45 3.08891 2.45 3.5V16.5C2.45 16.9111 2.6133 17.3053 2.90398 17.596C3.19467 17.8867 3.58891 18.05 4 18.05H25C25.4111 18.05 25.8053 17.8867 26.096 17.596C26.3867 17.3053 26.55 16.9111 26.55 16.5V3.5C26.55 3.08891 26.3867 2.69467 26.096 2.40398C25.8053 2.1133 25.4111 1.95 25 1.95H4C3.58891 1.95 3.19467 2.1133 2.90398 2.40398Z" fill="#5694E3" stroke="#EAF3FF" stroke-width="0.1"/>
</svg>
