<svg width="25" height="24" viewBox="0 0 25 24" fill="none" xmlns="http://www.w3.org/2000/svg">
  <mask id="path-1-inside-1_257_2382" fill="white">
    <path d="M15.9425 9.5C17.15 9.5 18.13 10.48 18.13 11.6875V17.6238C18.13 19.1159 17.5372 20.547 16.4821 21.6021C15.427 22.6572 13.9959 23.25 12.5037 23.25C11.0116 23.25 9.58052 22.6572 8.52539 21.6021C7.47026 20.547 6.8775 19.1159 6.8775 17.6238V11.6875C6.8775 10.48 7.85625 9.5 9.065 9.5H15.9425ZM15.9425 11.375H9.065C8.98212 11.375 8.90263 11.4079 8.84403 11.4665C8.78542 11.5251 8.7525 11.6046 8.7525 11.6875V17.6238C8.7525 18.6186 9.14772 19.5728 9.85122 20.2763C10.5547 20.9798 11.5089 21.375 12.5037 21.375C13.4986 21.375 14.4528 20.9798 15.1563 20.2763C15.8598 19.5728 16.255 18.6186 16.255 17.6238V11.6875C16.255 11.6046 16.2221 11.5251 16.1635 11.4665C16.1049 11.4079 16.0254 11.375 15.9425 11.375ZM2.1875 9.5H6.41375C5.97288 10.0327 5.70358 10.6863 5.64125 11.375H2.1875C2.10462 11.375 2.02513 11.4079 1.96653 11.4665C1.90792 11.5251 1.875 11.6046 1.875 11.6875V15.7487C1.87468 16.2212 1.98148 16.6875 2.18737 17.1127C2.39326 17.538 2.69287 17.911 3.06369 18.2037C3.4345 18.4964 3.86686 18.7013 4.32825 18.8028C4.78964 18.9044 5.26805 18.9 5.7275 18.79C5.83375 19.42 6.0275 20.0212 6.29375 20.58C5.88042 20.6925 5.44917 20.7492 5 20.75C4.34329 20.75 3.693 20.6206 3.08629 20.3693C2.47958 20.1179 1.92833 19.7495 1.46402 19.2851C0.999715 18.8207 0.631444 18.2693 0.380244 17.6626C0.129044 17.0558 -0.000164022 16.4055 1.56264e-07 15.7487V11.6875C1.56264e-07 10.48 0.98 9.5 2.1875 9.5ZM18.5938 9.5H22.8125C24.02 9.5 25 10.48 25 11.6875V15.75C25.0002 16.5165 24.8241 17.2727 24.4855 17.9603C24.1468 18.6479 23.6547 19.2484 23.047 19.7155C22.4393 20.1825 21.7323 20.5036 20.9807 20.654C20.2292 20.8043 19.4531 20.7799 18.7125 20.5825C18.98 20.0225 19.1737 19.4213 19.2812 18.7913C19.5121 18.8463 19.7517 18.8742 20 18.875C20.8288 18.875 21.6237 18.5458 22.2097 17.9597C22.7958 17.3737 23.125 16.5788 23.125 15.75V11.6875C23.125 11.6046 23.0921 11.5251 23.0335 11.4665C22.9749 11.4079 22.8954 11.375 22.8125 11.375H19.3662C19.3039 10.6863 19.0346 10.0327 18.5938 9.5ZM12.5 0.75C13.4946 0.75 14.4484 1.14509 15.1517 1.84835C15.8549 2.55161 16.25 3.50544 16.25 4.5C16.25 5.49456 15.8549 6.44839 15.1517 7.15165C14.4484 7.85491 13.4946 8.25 12.5 8.25C11.5054 8.25 10.5516 7.85491 9.84835 7.15165C9.14509 6.44839 8.75 5.49456 8.75 4.5C8.75 3.50544 9.14509 2.55161 9.84835 1.84835C10.5516 1.14509 11.5054 0.75 12.5 0.75ZM20.625 2C21.4538 2 22.2487 2.32924 22.8347 2.91529C23.4208 3.50134 23.75 4.2962 23.75 5.125C23.75 5.9538 23.4208 6.74866 22.8347 7.33471C22.2487 7.92076 21.4538 8.25 20.625 8.25C19.7962 8.25 19.0013 7.92076 18.4153 7.33471C17.8292 6.74866 17.5 5.9538 17.5 5.125C17.5 4.2962 17.8292 3.50134 18.4153 2.91529C19.0013 2.32924 19.7962 2 20.625 2ZM4.375 2C5.2038 2 5.99866 2.32924 6.58471 2.91529C7.17076 3.50134 7.5 4.2962 7.5 5.125C7.5 5.9538 7.17076 6.74866 6.58471 7.33471C5.99866 7.92076 5.2038 8.25 4.375 8.25C3.5462 8.25 2.75134 7.92076 2.16529 7.33471C1.57924 6.74866 1.25 5.9538 1.25 5.125C1.25 4.2962 1.57924 3.50134 2.16529 2.91529C2.75134 2.32924 3.5462 2 4.375 2ZM12.5 2.625C12.0027 2.625 11.5258 2.82254 11.1742 3.17417C10.8225 3.52581 10.625 4.00272 10.625 4.5C10.625 4.99728 10.8225 5.47419 11.1742 5.82583C11.5258 6.17746 12.0027 6.375 12.5 6.375C12.9973 6.375 13.4742 6.17746 13.8258 5.82583C14.1775 5.47419 14.375 4.99728 14.375 4.5C14.375 4.00272 14.1775 3.52581 13.8258 3.17417C13.4742 2.82254 12.9973 2.625 12.5 2.625ZM20.625 3.875C20.2935 3.875 19.9755 4.0067 19.7411 4.24112C19.5067 4.47554 19.375 4.79348 19.375 5.125C19.375 5.45652 19.5067 5.77446 19.7411 6.00888C19.9755 6.2433 20.2935 6.375 20.625 6.375C20.9565 6.375 21.2745 6.2433 21.5089 6.00888C21.7433 5.77446 21.875 5.45652 21.875 5.125C21.875 4.79348 21.7433 4.47554 21.5089 4.24112C21.2745 4.0067 20.9565 3.875 20.625 3.875ZM4.375 3.875C4.04348 3.875 3.72554 4.0067 3.49112 4.24112C3.2567 4.47554 3.125 4.79348 3.125 5.125C3.125 5.45652 3.2567 5.77446 3.49112 6.00888C3.72554 6.2433 4.04348 6.375 4.375 6.375C4.70652 6.375 5.02446 6.2433 5.25888 6.00888C5.4933 5.77446 5.625 5.45652 5.625 5.125C5.625 4.79348 5.4933 4.47554 5.25888 4.24112C5.02446 4.0067 4.70652 3.875 4.375 3.875Z"/>
  </mask>
  <path d="M15.9425 9.5C17.15 9.5 18.13 10.48 18.13 11.6875V17.6238C18.13 19.1159 17.5372 20.547 16.4821 21.6021C15.427 22.6572 13.9959 23.25 12.5037 23.25C11.0116 23.25 9.58052 22.6572 8.52539 21.6021C7.47026 20.547 6.8775 19.1159 6.8775 17.6238V11.6875C6.8775 10.48 7.85625 9.5 9.065 9.5H15.9425ZM15.9425 11.375H9.065C8.98212 11.375 8.90263 11.4079 8.84403 11.4665C8.78542 11.5251 8.7525 11.6046 8.7525 11.6875V17.6238C8.7525 18.6186 9.14772 19.5728 9.85122 20.2763C10.5547 20.9798 11.5089 21.375 12.5037 21.375C13.4986 21.375 14.4528 20.9798 15.1563 20.2763C15.8598 19.5728 16.255 18.6186 16.255 17.6238V11.6875C16.255 11.6046 16.2221 11.5251 16.1635 11.4665C16.1049 11.4079 16.0254 11.375 15.9425 11.375ZM2.1875 9.5H6.41375C5.97288 10.0327 5.70358 10.6863 5.64125 11.375H2.1875C2.10462 11.375 2.02513 11.4079 1.96653 11.4665C1.90792 11.5251 1.875 11.6046 1.875 11.6875V15.7487C1.87468 16.2212 1.98148 16.6875 2.18737 17.1127C2.39326 17.538 2.69287 17.911 3.06369 18.2037C3.4345 18.4964 3.86686 18.7013 4.32825 18.8028C4.78964 18.9044 5.26805 18.9 5.7275 18.79C5.83375 19.42 6.0275 20.0212 6.29375 20.58C5.88042 20.6925 5.44917 20.7492 5 20.75C4.34329 20.75 3.693 20.6206 3.08629 20.3693C2.47958 20.1179 1.92833 19.7495 1.46402 19.2851C0.999715 18.8207 0.631444 18.2693 0.380244 17.6626C0.129044 17.0558 -0.000164022 16.4055 1.56264e-07 15.7487V11.6875C1.56264e-07 10.48 0.98 9.5 2.1875 9.5ZM18.5938 9.5H22.8125C24.02 9.5 25 10.48 25 11.6875V15.75C25.0002 16.5165 24.8241 17.2727 24.4855 17.9603C24.1468 18.6479 23.6547 19.2484 23.047 19.7155C22.4393 20.1825 21.7323 20.5036 20.9807 20.654C20.2292 20.8043 19.4531 20.7799 18.7125 20.5825C18.98 20.0225 19.1737 19.4213 19.2812 18.7913C19.5121 18.8463 19.7517 18.8742 20 18.875C20.8288 18.875 21.6237 18.5458 22.2097 17.9597C22.7958 17.3737 23.125 16.5788 23.125 15.75V11.6875C23.125 11.6046 23.0921 11.5251 23.0335 11.4665C22.9749 11.4079 22.8954 11.375 22.8125 11.375H19.3662C19.3039 10.6863 19.0346 10.0327 18.5938 9.5ZM12.5 0.75C13.4946 0.75 14.4484 1.14509 15.1517 1.84835C15.8549 2.55161 16.25 3.50544 16.25 4.5C16.25 5.49456 15.8549 6.44839 15.1517 7.15165C14.4484 7.85491 13.4946 8.25 12.5 8.25C11.5054 8.25 10.5516 7.85491 9.84835 7.15165C9.14509 6.44839 8.75 5.49456 8.75 4.5C8.75 3.50544 9.14509 2.55161 9.84835 1.84835C10.5516 1.14509 11.5054 0.75 12.5 0.75ZM20.625 2C21.4538 2 22.2487 2.32924 22.8347 2.91529C23.4208 3.50134 23.75 4.2962 23.75 5.125C23.75 5.9538 23.4208 6.74866 22.8347 7.33471C22.2487 7.92076 21.4538 8.25 20.625 8.25C19.7962 8.25 19.0013 7.92076 18.4153 7.33471C17.8292 6.74866 17.5 5.9538 17.5 5.125C17.5 4.2962 17.8292 3.50134 18.4153 2.91529C19.0013 2.32924 19.7962 2 20.625 2ZM4.375 2C5.2038 2 5.99866 2.32924 6.58471 2.91529C7.17076 3.50134 7.5 4.2962 7.5 5.125C7.5 5.9538 7.17076 6.74866 6.58471 7.33471C5.99866 7.92076 5.2038 8.25 4.375 8.25C3.5462 8.25 2.75134 7.92076 2.16529 7.33471C1.57924 6.74866 1.25 5.9538 1.25 5.125C1.25 4.2962 1.57924 3.50134 2.16529 2.91529C2.75134 2.32924 3.5462 2 4.375 2ZM12.5 2.625C12.0027 2.625 11.5258 2.82254 11.1742 3.17417C10.8225 3.52581 10.625 4.00272 10.625 4.5C10.625 4.99728 10.8225 5.47419 11.1742 5.82583C11.5258 6.17746 12.0027 6.375 12.5 6.375C12.9973 6.375 13.4742 6.17746 13.8258 5.82583C14.1775 5.47419 14.375 4.99728 14.375 4.5C14.375 4.00272 14.1775 3.52581 13.8258 3.17417C13.4742 2.82254 12.9973 2.625 12.5 2.625ZM20.625 3.875C20.2935 3.875 19.9755 4.0067 19.7411 4.24112C19.5067 4.47554 19.375 4.79348 19.375 5.125C19.375 5.45652 19.5067 5.77446 19.7411 6.00888C19.9755 6.2433 20.2935 6.375 20.625 6.375C20.9565 6.375 21.2745 6.2433 21.5089 6.00888C21.7433 5.77446 21.875 5.45652 21.875 5.125C21.875 4.79348 21.7433 4.47554 21.5089 4.24112C21.2745 4.0067 20.9565 3.875 20.625 3.875ZM4.375 3.875C4.04348 3.875 3.72554 4.0067 3.49112 4.24112C3.2567 4.47554 3.125 4.79348 3.125 5.125C3.125 5.45652 3.2567 5.77446 3.49112 6.00888C3.72554 6.2433 4.04348 6.375 4.375 6.375C4.70652 6.375 5.02446 6.2433 5.25888 6.00888C5.4933 5.77446 5.625 5.45652 5.625 5.125C5.625 4.79348 5.4933 4.47554 5.25888 4.24112C5.02446 4.0067 4.70652 3.875 4.375 3.875Z" fill="#5694E3" stroke="#EAF3FF" stroke-width="0.2" mask="url(#path-1-inside-1_257_2382)"/>
</svg>
