<svg width="25" height="26" viewBox="0 0 25 26" fill="none" xmlns="http://www.w3.org/2000/svg">
  <path d="M17.8418 12.6551L12.8745 7.68946C12.7355 7.55045 12.6377 7.4061 12.581 7.25641C12.5243 7.10778 12.496 6.94846 12.496 6.77844C12.496 6.60843 12.5243 6.45018 12.581 6.30369C12.6377 6.1572 12.7355 6.01445 12.8745 5.87545L17.8418 0.909771C17.9808 0.770766 18.1251 0.672928 18.2748 0.616257C18.4224 0.559586 18.5817 0.53125 18.7528 0.53125C18.9239 0.53125 19.0816 0.559586 19.226 0.616257C19.3724 0.671859 19.5152 0.769697 19.6542 0.909771L24.6215 5.87545C24.7605 6.01552 24.8583 6.15987 24.915 6.3085C24.9717 6.4582 25 6.61752 25 6.78646C25 6.95541 24.9717 7.11366 24.915 7.26122C24.8583 7.40664 24.7605 7.54939 24.6215 7.68946L19.6542 12.6551C19.5152 12.7952 19.3708 12.8936 19.2211 12.9503C19.0725 13.0069 18.9132 13.0353 18.7432 13.0353C18.5732 13.0353 18.4155 13.0069 18.27 12.9503C18.1246 12.8936 17.9819 12.7952 17.8418 12.6551ZM0 10.1081V3.07504C0 2.70828 0.124036 2.40086 0.372106 2.15279C0.620175 1.90472 0.928124 1.78015 1.29595 1.77908H8.32906C8.69581 1.77908 9.00323 1.90365 9.2513 2.15279C9.49937 2.40193 9.6234 2.70935 9.6234 3.07504V10.1081C9.6234 10.4749 9.49937 10.7823 9.2513 11.0304C9.00323 11.2785 8.69581 11.4025 8.32906 11.4025H1.29595C0.929193 11.4025 0.621779 11.2785 0.373709 11.0304C0.125639 10.7823 0.00106927 10.4749 0 10.1081ZM14.0662 24.1727V17.1396C14.0662 16.7729 14.1902 16.4655 14.4383 16.2174C14.6864 15.9693 14.9938 15.8453 15.3606 15.8453H22.3937C22.7604 15.8453 23.0684 15.9693 23.3175 16.2174C23.5666 16.4655 23.6907 16.7729 23.6896 17.1396V24.1727C23.6896 24.5395 23.5656 24.8475 23.3175 25.0966C23.0694 25.3457 22.7615 25.4698 22.3937 25.4687H15.3606C14.9938 25.4687 14.6864 25.3441 14.4383 25.095C14.1902 24.8458 14.0662 24.5384 14.0662 24.1727ZM0 24.1727V17.1396C0 16.7729 0.12457 16.4655 0.373709 16.2174C0.622849 15.9693 0.930263 15.8453 1.29595 15.8453H8.32906C8.69581 15.8453 9.00323 15.9693 9.2513 16.2174C9.49937 16.4655 9.62394 16.7729 9.62501 17.1396V24.1727C9.62501 24.5395 9.50044 24.8475 9.2513 25.0966C9.00216 25.3457 8.69475 25.4698 8.32906 25.4687H1.29595C0.929193 25.4687 0.621779 25.3441 0.373709 25.095C0.125639 24.8458 0.00106927 24.5384 0 24.1727ZM1.6039 9.79859H8.0195V3.38299H1.6039V9.79859ZM18.7881 11.3544L23.3191 6.82175L18.7881 2.29073L14.2571 6.82175L18.7881 11.3544ZM15.6685 23.8648H22.0841V17.4492H15.6685V23.8648ZM1.6039 23.8648H8.0195V17.4492H1.6039V23.8648Z" fill="#5694E3"/>
</svg>
