<svg width="29" height="28" viewBox="0 0 29 28" fill="none" xmlns="http://www.w3.org/2000/svg">
<path fill-rule="evenodd" clip-rule="evenodd" d="M10.0193 20.5799C10.0276 21.7496 9.34701 22.8088 8.29574 23.2625C7.24446 23.716 6.03026 23.4742 5.22085 22.6501C4.41145 21.8261 4.16681 20.5825 4.60131 19.501C5.03581 18.4194 6.0636 17.7136 7.20409 17.7136C7.948 17.7109 8.66251 18.0112 9.19046 18.5487C9.71841 19.0863 10.0165 19.8169 10.0193 20.5799Z" stroke="#5694E3" stroke-width="1.7" stroke-linecap="round" stroke-linejoin="round"/>
<path fill-rule="evenodd" clip-rule="evenodd" d="M23.4317 20.5799C23.4401 21.7496 22.7595 22.8088 21.7082 23.2625C20.657 23.716 19.4427 23.4742 18.6333 22.6501C17.824 21.8261 17.5793 20.5825 18.0138 19.501C18.4482 18.4194 19.4761 17.7136 20.6165 17.7136C21.3605 17.7109 22.075 18.0112 22.6029 18.5487C23.1309 19.0863 23.429 19.8169 23.4317 20.5799Z" stroke="#5694E3" stroke-width="1.7" stroke-linecap="round" stroke-linejoin="round"/>
<path d="M17.471 21.5694C18.0171 21.5694 18.4598 21.1268 18.4598 20.5805C18.4598 20.0344 18.0171 19.5917 17.471 19.5917V21.5694ZM10.0153 19.5917C9.4692 19.5917 9.02649 20.0344 9.02649 20.5805C9.02649 21.1268 9.4692 21.5694 10.0153 21.5694V19.5917ZM16.4822 20.5805C16.4822 21.1268 16.9249 21.5694 17.471 21.5694C18.0171 21.5694 18.4598 21.1268 18.4598 20.5805H16.4822ZM18.4598 13.6364C18.4598 13.0903 18.0171 12.6476 17.471 12.6476C16.9249 12.6476 16.4822 13.0903 16.4822 13.6364H18.4598ZM17.471 19.5917C16.9249 19.5917 16.4822 20.0344 16.4822 20.5805C16.4822 21.1268 16.9249 21.5694 17.471 21.5694V19.5917ZM17.8001 21.5694C18.3462 21.5694 18.7889 21.1268 18.7889 20.5805C18.7889 20.0344 18.3462 19.5917 17.8001 19.5917V21.5694ZM23.4261 19.5918C22.88 19.5942 22.4392 20.0388 22.4416 20.5849C22.444 21.131 22.8887 21.5719 23.4348 21.5694L23.4261 19.5918ZM26.4127 17.4941L27.4015 17.4896C27.4013 17.4327 27.3961 17.376 27.3861 17.3199L26.4127 17.4941ZM26.6958 13.4622C26.5995 12.9247 26.0859 12.5669 25.5482 12.6631C25.0107 12.7592 24.6529 13.273 24.7491 13.8107L26.6958 13.4622ZM17.4697 6.47475C16.9236 6.47475 16.4809 6.91745 16.4809 7.46357C16.4809 8.00968 16.9236 8.45239 17.4697 8.45239V6.47475ZM22.1887 7.46357V8.45239C22.1953 8.45239 22.202 8.45233 22.2088 8.45218L22.1887 7.46357ZM25.1697 10.55L24.1813 10.5218C24.1793 10.5895 24.1843 10.6573 24.1963 10.7239L25.1697 10.55ZM24.7477 13.8104C24.8438 14.3479 25.3574 14.7059 25.8951 14.6099C26.4326 14.5138 26.7918 13.9999 26.6958 13.4622L24.7477 13.8104ZM18.4572 7.46357C18.4572 6.91745 18.0159 6.47475 17.4697 6.47475C16.9236 6.47475 16.4809 6.91745 16.4809 7.46357H18.4572ZM16.4796 13.6364C16.4796 14.1826 16.9223 14.6252 17.4684 14.6252C18.0146 14.6252 18.4572 14.1826 18.4572 13.6364H16.4796ZM16.4809 7.46357C16.4809 8.00968 16.9236 8.45239 17.4697 8.45239C18.0159 8.45239 18.4572 8.00968 18.4572 7.46357H16.4809ZM17.4684 6.40883H18.4573L18.4572 6.40174L17.4684 6.40883ZM16.0646 4.98889V5.97772L16.0712 5.97768L16.0646 4.98889ZM3.39644 4.98889L3.38705 5.97771H3.39644V4.98889ZM1.98886 6.40619L1.00004 6.39735V6.40619H1.98886ZM1.98886 19.1619H1L1.00008 19.1709L1.98886 19.1619ZM3.39644 20.5792V19.5904L3.38705 19.5905L3.39644 20.5792ZM4.38883 21.568C4.93494 21.568 5.37765 21.1254 5.37765 20.5792C5.37765 20.0331 4.93494 19.5904 4.38883 19.5904V21.568ZM17.471 12.6476C16.9249 12.6476 16.4822 13.0903 16.4822 13.6364C16.4822 14.1826 16.9249 14.6252 17.471 14.6252V12.6476ZM25.7237 14.6252C26.2698 14.6252 26.7125 14.1826 26.7125 13.6364C26.7125 13.0903 26.2698 12.6476 25.7237 12.6476V14.6252ZM17.471 19.5917H10.0153V21.5694H17.471V19.5917ZM18.4598 20.5805V13.6364H16.4822V20.5805H18.4598ZM17.471 21.5694H17.8001V19.5917H17.471V21.5694ZM23.4348 21.5694C24.4999 21.5647 25.5142 21.126 26.2561 20.3581L24.8339 18.9839C24.4571 19.3739 23.9502 19.5895 23.4261 19.5918L23.4348 21.5694ZM26.2561 20.3581C26.9972 19.5912 27.4064 18.5589 27.4015 17.4896L25.4239 17.4987C25.4265 18.0593 25.2115 18.5931 24.8339 18.9839L26.2561 20.3581ZM27.3861 17.3199L26.6958 13.4622L24.7491 13.8107L25.4393 17.6684L27.3861 17.3199ZM17.4697 8.45239H22.1887V6.47475H17.4697V8.45239ZM22.2088 8.45218C22.7298 8.44162 23.2378 8.65022 23.6129 9.03847L25.0353 7.66458C24.2837 6.88633 23.2481 6.45306 22.1686 6.47495L22.2088 8.45218ZM23.6129 9.03847C23.9888 9.42768 24.1971 9.96344 24.1813 10.5218L26.1581 10.5782C26.189 9.49531 25.7861 8.44187 25.0353 7.66458L23.6129 9.03847ZM24.1963 10.7239L24.7477 13.8104L26.6958 13.4622L26.1431 10.3761L24.1963 10.7239ZM16.4809 7.46357L16.4796 13.6364H18.4572V7.46357H16.4809ZM18.4572 7.46357L18.4573 6.40883H16.4796L16.4809 7.46357H18.4572ZM18.4572 6.40174C18.4478 5.09004 17.3973 3.99118 16.0582 4.00008L16.0712 5.97768C16.2718 5.97635 16.4777 6.14855 16.4797 6.41591L18.4572 6.40174ZM16.0646 4.00007H3.39644V5.97771L16.0646 5.97772V4.00007ZM3.40584 4.00011C2.76547 3.99403 2.15406 4.24941 1.70483 4.70173L3.10805 6.09531C3.18678 6.01603 3.2876 5.97677 3.38705 5.97771L3.40584 4.00011ZM1.70483 4.70173C1.25646 5.1532 1.00571 5.76365 1.00004 6.39735L2.97764 6.41503C2.97876 6.28994 3.02847 6.17544 3.10805 6.09531L1.70483 4.70173ZM1.00004 6.40619L1 19.1619H2.97768V6.40619H1.00004ZM1.00008 19.1709C1.00575 19.8045 1.25646 20.4149 1.70483 20.8664L3.10805 19.4728C3.02847 19.3928 2.97876 19.2782 2.97764 19.1531L1.00008 19.1709ZM1.70483 20.8664C2.15406 21.3187 2.76547 21.5741 3.40584 21.568L3.38705 19.5905C3.2876 19.5914 3.18678 19.5522 3.10805 19.4728L1.70483 20.8664ZM3.39644 21.568H4.38883V19.5904H3.39644V21.568ZM17.471 14.6252H25.7237V12.6476H17.471V14.6252Z" fill="#5694E3"/>
</svg>
