<svg width="14" height="14" viewBox="0 0 14 14" fill="none" xmlns="http://www.w3.org/2000/svg">
  <path d="M1 11.5H0.25H1ZM4 8.5V7.75V8.5ZM10 8.5V7.75V8.5ZM1.75 11.5C1.75 10.9033 1.98705 10.331 2.40901 9.90901L1.34835 8.84835C0.645088 9.55161 0.25 10.5054 0.25 11.5H1.75ZM2.40901 9.90901C2.83097 9.48705 3.40326 9.25 4 9.25V7.75C3.00544 7.75 2.05161 8.14509 1.34835 8.84835L2.40901 9.90901ZM4 9.25H10V7.75H4V9.25ZM10 9.25C10.5967 9.25 11.169 9.48705 11.591 9.90901L12.6516 8.84835C11.9484 8.14509 10.9946 7.75 10 7.75V9.25ZM11.591 9.90901C12.0129 10.331 12.25 10.9033 12.25 11.5H13.75C13.75 10.5054 13.3549 9.55161 12.6516 8.84835L11.591 9.90901ZM12.25 11.5C12.25 11.6989 12.171 11.8897 12.0303 12.0303L13.091 13.091C13.5129 12.669 13.75 12.0967 13.75 11.5H12.25ZM12.0303 12.0303C11.8897 12.171 11.6989 12.25 11.5 12.25V13.75C12.0967 13.75 12.669 13.5129 13.091 13.091L12.0303 12.0303ZM11.5 12.25H2.5V13.75H11.5V12.25ZM2.5 12.25C2.30109 12.25 2.11032 12.171 1.96967 12.0303L0.90901 13.091C1.33097 13.5129 1.90326 13.75 2.5 13.75V12.25ZM1.96967 12.0303C1.82902 11.8897 1.75 11.6989 1.75 11.5H0.25C0.25 12.0967 0.487053 12.669 0.90901 13.091L1.96967 12.0303ZM8.5 3.25C8.5 4.07843 7.82843 4.75 7 4.75V6.25C8.65685 6.25 10 4.90685 10 3.25H8.5ZM7 4.75C6.17157 4.75 5.5 4.07843 5.5 3.25H4C4 4.90685 5.34315 6.25 7 6.25V4.75ZM5.5 3.25C5.5 2.42157 6.17157 1.75 7 1.75V0.25C5.34315 0.25 4 1.59315 4 3.25H5.5ZM7 1.75C7.82843 1.75 8.5 2.42157 8.5 3.25H10C10 1.59315 8.65685 0.25 7 0.25V1.75Z" fill="black"/>
</svg>
