<svg xmlns="http://www.w3.org/2000/svg" viewBox="0 0 144.07 37.82"><defs><style>.cls-1{fill:#214080;}</style></defs><g id="Layer_2" data-name="Layer 2"><g id="Layer_1-2" data-name="Layer 1"><polygon class="cls-1" points="33.23 4.59 0 4.59 0 11.18 12.66 11.18 12.66 37.82 20.57 37.82 20.57 11.18 33.23 11.18 33.23 4.59"/><polygon class="cls-1" points="24.31 37.82 32.89 37.82 36.5 31.41 32.15 23.89 24.31 37.82"/><polygon class="cls-1" points="38.96 11.81 53.96 37.82 62.06 37.82 43.21 4.24 38.96 11.81"/><path class="cls-1" d="M64.13,9.16A16.23,16.23,0,0,0,59.22,21a16.26,16.26,0,0,0,4.91,11.88A16.26,16.26,0,0,0,76,37.82h16.8V17H82.1l-4.95,8h7.69v4.82H76a8.77,8.77,0,0,1-7.65-4.39A8.84,8.84,0,0,1,67.18,21a8.8,8.8,0,0,1,4.4-7.64A8.8,8.8,0,0,1,76,12.21h16.8v-8H76A16.27,16.27,0,0,0,64.13,9.16Z"/><polygon class="cls-1" points="97.4 37.82 105.37 37.82 105.37 25.03 105.37 17.03 105.37 4.24 97.4 4.24 97.4 37.82"/><polygon class="cls-1" points="123.02 4.24 123.02 17.03 116.67 17.03 111.72 25.03 123.02 25.03 123.02 37.82 130.98 37.82 130.98 4.24 123.02 4.24"/><path class="cls-1" d="M144.07,4.21A4.34,4.34,0,1,1,139.75,0,4.24,4.24,0,0,1,144.07,4.21Zm-7.59,0a3.27,3.27,0,0,0,3.29,3.37A3.23,3.23,0,0,0,143,4.24a3.26,3.26,0,1,0-6.51,0Zm2.6,2.21h-1V2.21a8.35,8.35,0,0,1,1.62-.13,2.64,2.64,0,0,1,1.47.31,1.17,1.17,0,0,1,.41.93,1.07,1.07,0,0,1-.88,1v0a1.26,1.26,0,0,1,.78,1,3.1,3.1,0,0,0,.3,1h-1.05a3.49,3.49,0,0,1-.33-1c-.08-.47-.34-.67-.88-.67h-.46Zm0-2.39h.46c.54,0,1-.17,1-.61s-.29-.64-.9-.64a2.1,2.1,0,0,0-.54.05Z"/></g></g></svg>