<svg xmlns="http://www.w3.org/2000/svg" viewBox="0 0 1518.2 214.63"><defs><style>.cls-1{fill:#0d1466;}.cls-2{fill:#b7b7b7;}.cls-3{fill:none;stroke:#fff;stroke-linecap:round;stroke-miterlimit:10;stroke-width:3.51px;}</style></defs><g id="Layer_2" data-name="Layer 2"><g id="Layer_1-2" data-name="Layer 1"><polygon class="cls-1" points="469.69 27.59 297.23 27.59 297.23 61.78 362.92 61.78 362.92 200.04 404.01 200.04 404.01 61.78 469.69 61.78 469.69 27.59"/><polygon class="cls-1" points="423.42 200.04 467.93 200.04 486.66 166.73 464.1 127.73 423.42 200.04"/><polygon class="cls-1" points="499.42 65.02 577.3 200.04 619.33 200.04 521.51 25.74 499.42 65.02"/><path class="cls-1" d="M630.07,51.26c-16.92,16.91-25.51,37.66-25.51,61.63s8.59,44.71,25.51,61.63S667.73,200,691.7,200h87.22V92.14H723.33l-25.72,41.5h39.95v25H691.7A45.64,45.64,0,0,1,652,135.85a45.44,45.44,0,0,1-6.11-23,45.64,45.64,0,0,1,22.83-39.68,45.72,45.72,0,0,1,23-6.11h87.22V25.74H691.7C667.73,25.74,647,34.34,630.07,51.26Z"/><polygon class="cls-1" points="802.74 200.04 844.09 200.04 844.09 133.66 844.09 92.13 844.09 25.75 802.74 25.75 802.74 200.04"/><polygon class="cls-1" points="935.68 25.75 935.68 92.13 902.73 92.13 877.03 133.66 935.68 133.66 935.68 200.04 977.03 200.04 977.03 25.75 935.68 25.75"/><polygon class="cls-2" points="1007.88 35.1 1058.05 35.1 1058.05 200.04 1070.25 200.04 1070.25 35.1 1120.17 35.1 1120.17 26 1007.88 26 1007.88 35.1"/><rect class="cls-2" x="1154.54" y="26" width="12.19" height="174.04"/><polygon class="cls-2" points="1298.29 186.41 1227.7 28.3 1213.46 28.3 1213.46 200.04 1225.65 200.04 1225.65 61.68 1231.21 60.49 1293.74 200.04 1303.09 200.04 1365.62 60 1371.18 61.18 1371.18 200.04 1383.37 200.04 1383.37 28.3 1368.87 28.3 1298.29 186.41"/><polygon class="cls-2" points="1518.2 34.85 1518.2 25.75 1430.11 25.75 1430.11 200.04 1518.2 200.04 1518.2 190.93 1442.3 190.93 1442.3 116.92 1510.48 116.92 1510.48 107.83 1442.3 107.83 1442.3 34.85 1518.2 34.85"/><path class="cls-1" d="M107.32,214.63A107.34,107.34,0,0,1,65.54,8.44a107.34,107.34,0,0,1,83.55,197.75A106.67,106.67,0,0,1,107.32,214.63Zm0-172.47a65.16,65.16,0,1,0,65.15,65.16A65.23,65.23,0,0,0,107.32,42.16Z"/><path class="cls-1" d="M105.72,117.16,66.36,78.59A1.68,1.68,0,0,1,68.44,76l46.18,30.07a6.88,6.88,0,0,1,1.73,9.65c-2.41,3.71-7.66,4.42-10.63,1.45Z"/><line class="cls-3" x1="107.05" y1="24.93" x2="107.05" y2="11.77"/><line class="cls-3" x1="148.28" y1="35.83" x2="154.86" y2="24.44"/><line class="cls-3" x1="178.53" y1="65.89" x2="189.93" y2="59.31"/><line class="cls-3" x1="189.7" y1="107.05" x2="202.86" y2="107.05"/><line class="cls-3" x1="178.8" y1="148.28" x2="190.19" y2="154.86"/><line class="cls-3" x1="148.74" y1="178.53" x2="155.32" y2="189.93"/><line class="cls-3" x1="107.58" y1="189.7" x2="107.58" y2="202.86"/><line class="cls-3" x1="66.35" y1="178.8" x2="59.78" y2="190.19"/><line class="cls-3" x1="36.1" y1="148.74" x2="24.71" y2="155.32"/><line class="cls-3" x1="24.93" y1="107.58" x2="11.77" y2="107.58"/><line class="cls-3" x1="35.83" y1="66.35" x2="24.44" y2="59.78"/><line class="cls-3" x1="65.89" y1="36.1" x2="59.31" y2="24.71"/></g></g></svg>