<svg width="344" height="344" viewBox="0 0 344 344" fill="none" xmlns="http://www.w3.org/2000/svg">
<mask id="path-1-inside-1_443_557" fill="white">
<path d="M172 0C209.838 4.51213e-07 246.62 12.4771 276.649 35.4986C306.678 58.5201 328.277 90.8012 338.101 127.342C347.926 163.882 345.427 202.642 330.991 237.618C316.556 272.595 290.99 301.835 258.254 320.81C225.517 339.784 187.438 347.435 149.913 342.576C112.388 337.717 77.5129 320.62 50.689 293.933C23.8652 267.246 6.58996 232.459 1.53922 194.959C-3.51152 157.46 3.94412 119.341 22.7513 86.5084L81.4071 120.107C69.9913 140.037 65.4657 163.174 68.5315 185.936C71.5973 208.698 82.0832 229.814 98.3651 246.012C114.647 262.211 135.816 272.589 158.593 275.538C181.371 278.488 204.485 273.844 224.355 262.326C244.226 250.809 259.745 233.06 268.507 211.83C277.269 190.6 278.786 167.072 272.822 144.893C266.859 122.713 253.748 103.119 235.521 89.1446C217.294 75.1707 194.967 67.5972 172 67.5972V0Z"/>
</mask>
<path d="M172 0C209.838 4.51213e-07 246.62 12.4771 276.649 35.4986C306.678 58.5201 328.277 90.8012 338.101 127.342C347.926 163.882 345.427 202.642 330.991 237.618C316.556 272.595 290.99 301.835 258.254 320.81C225.517 339.784 187.438 347.435 149.913 342.576C112.388 337.717 77.5129 320.62 50.689 293.933C23.8652 267.246 6.58996 232.459 1.53922 194.959C-3.51152 157.46 3.94412 119.341 22.7513 86.5084L81.4071 120.107C69.9913 140.037 65.4657 163.174 68.5315 185.936C71.5973 208.698 82.0832 229.814 98.3651 246.012C114.647 262.211 135.816 272.589 158.593 275.538C181.371 278.488 204.485 273.844 224.355 262.326C244.226 250.809 259.745 233.06 268.507 211.83C277.269 190.6 278.786 167.072 272.822 144.893C266.859 122.713 253.748 103.119 235.521 89.1446C217.294 75.1707 194.967 67.5972 172 67.5972V0Z" stroke="#5694E3" stroke-width="150" mask="url(#path-1-inside-1_443_557)"/>
<mask id="path-2-inside-2_443_557" fill="white">
<path d="M22.7755 86.466C37.8321 60.1981 59.5557 38.37 85.751 23.1877C111.946 8.00529 141.685 0.00663045 171.962 4.11924e-06L171.977 67.5972C153.599 67.6012 135.548 72.4564 119.647 81.6719C103.747 90.8875 90.561 104.137 81.4218 120.081L22.7755 86.466Z"/>
</mask>

<path class="blue-area" d="M22.7755 86.466C37.8321 60.1981 59.5557 38.37 85.751 23.1877C111.946 8.00529 141.685 0.00663045 171.962 4.11924e-06L171.977 67.5972C153.599 67.6012 135.548 72.4564 119.647 81.6719C103.747 90.8875 90.561 104.137 81.4218 120.081L22.7755 86.466Z" stroke="#0D1467" stroke-width="150" mask="url(#path-2-inside-2_443_557)"/>

<path class="needle" d="M167.062 184.505L128.406 104.98C128.155 104.386 128.125 103.722 128.321 103.108C128.518 102.494 128.928 101.971 129.477 101.633C130.026 101.296 130.678 101.166 131.315 101.268C131.952 101.37 132.531 101.697 132.947 102.189L186.496 172.552C187.355 173.737 187.97 175.081 188.305 176.506C188.64 177.931 188.688 179.409 188.447 180.853C188.205 182.296 187.679 183.678 186.899 184.916C186.118 186.155 185.099 187.226 183.901 188.067C178.257 192.372 169.941 190.611 167.056 184.52L167.062 184.505Z" fill="#0D1467"/>
<path fill-rule="evenodd" clip-rule="evenodd" d="M171.722 15.6925C173.277 15.6925 174.538 16.9533 174.538 18.5085V39.6243C174.538 41.1795 173.277 42.4402 171.722 42.4402C170.167 42.4402 168.906 41.1795 168.906 39.6243V18.5085C168.906 16.9533 170.167 15.6925 171.722 15.6925Z" fill="white"/>
<path fill-rule="evenodd" clip-rule="evenodd" d="M249.829 36.3864C251.176 37.1644 251.637 38.8867 250.859 40.2334L240.301 58.5091C239.523 59.8558 237.8 60.3168 236.454 59.5388C235.107 58.7608 234.646 57.0385 235.424 55.6919L245.982 37.4161C246.76 36.0695 248.482 35.6084 249.829 36.3864Z" fill="#0D1467"/>
<path fill-rule="evenodd" clip-rule="evenodd" d="M307.136 93.3843C307.913 94.7313 307.452 96.4534 306.105 97.2309L287.813 107.789C286.466 108.566 284.744 108.105 283.966 106.758C283.189 105.411 283.651 103.688 284.998 102.911L303.289 92.3532C304.636 91.5757 306.358 92.0374 307.136 93.3843Z" fill="#0D1467"/>
<path fill-rule="evenodd" clip-rule="evenodd" d="M301.504 171.381C301.504 169.826 302.765 168.565 304.32 168.565H325.436C326.991 168.565 328.252 169.826 328.252 171.381C328.252 172.936 326.991 174.197 325.436 174.197H304.32C302.765 174.197 301.504 172.936 301.504 171.381Z" fill="#0D1467"/>
<path fill-rule="evenodd" clip-rule="evenodd" d="M284.387 236.127C285.165 234.781 286.887 234.32 288.234 235.098L306.51 245.655C307.856 246.433 308.317 248.156 307.539 249.502C306.761 250.849 305.039 251.31 303.692 250.532L285.417 239.974C284.07 239.196 283.609 237.474 284.387 236.127Z" fill="#0D1467"/>
<path fill-rule="evenodd" clip-rule="evenodd" d="M237.18 283.632C238.527 282.854 240.249 283.316 241.027 284.663L251.585 302.955C252.362 304.302 251.9 306.024 250.554 306.801C249.207 307.579 247.484 307.117 246.707 305.77L236.149 287.478C235.372 286.131 235.833 284.409 237.18 283.632Z" fill="#0D1467"/>
<path fill-rule="evenodd" clip-rule="evenodd" d="M172.535 301.176C174.09 301.176 175.351 302.437 175.351 303.992V325.108C175.351 326.663 174.09 327.924 172.535 327.924C170.98 327.924 169.719 326.663 169.719 325.108V303.992C169.719 302.437 170.98 301.176 172.535 301.176Z" fill="#0D1467"/>
<path fill-rule="evenodd" clip-rule="evenodd" d="M107.806 284.072C109.153 284.849 109.616 286.571 108.839 287.919L98.2967 306.194C97.5196 307.541 95.7976 308.004 94.4504 307.227C93.1033 306.449 92.6411 304.727 93.4182 303.38L103.96 285.104C104.737 283.757 106.459 283.295 107.806 284.072Z" fill="#0D1467"/>
<path fill-rule="evenodd" clip-rule="evenodd" d="M60.302 236.862C61.08 238.209 60.6189 239.931 59.2723 240.709L40.9966 251.267C39.6499 252.045 37.9276 251.584 37.1496 250.237C36.3716 248.891 36.8326 247.168 38.1793 246.39L56.455 235.832C57.8017 235.054 59.524 235.516 60.302 236.862Z" fill="#0D1467"/>
<path fill-rule="evenodd" clip-rule="evenodd" d="M16.0146 172.229C16.0146 170.674 17.2754 169.413 18.8306 169.413H39.9464C41.5016 169.413 42.7624 170.674 42.7624 172.229C42.7624 173.785 41.5016 175.045 39.9464 175.045H18.8306C17.2754 175.045 16.0146 173.785 16.0146 172.229Z" fill="#0D1467"/>
<path fill-rule="evenodd" clip-rule="evenodd" d="M36.716 94.1323C37.4931 92.7852 39.2152 92.323 40.5623 93.1001L58.8381 103.642C60.1852 104.419 60.6474 106.141 59.8703 107.488C59.0932 108.835 57.3712 109.298 56.024 108.52L37.7483 97.9786C36.4011 97.2015 35.939 95.4795 36.716 94.1323Z" fill="white"/>
<path fill-rule="evenodd" clip-rule="evenodd" d="M93.693 36.8273C95.0396 36.0494 96.762 36.5104 97.5399 37.857L108.098 56.1328C108.876 57.4794 108.415 59.2018 107.068 59.9797C105.721 60.7577 103.999 60.2967 103.221 58.95L92.6633 40.6743C91.8853 39.3276 92.3463 37.6053 93.693 36.8273Z" fill="white"/>

  <style>
    @keyframes rotate {
    from {
    transform: rotate(0deg);
    }
    to {
    transform: rotate(360deg);
    }
    }

    .needle {
    transform-origin: 50%  ;  /* Adjust based on the needle's position */
    animation: rotate 60s linear infinite; /* Adjust duration as needed */
    }

<!--    .blue-area {-->
<!--    transform-origin: 50% 50%; /* Adjust based on the circle's center */-->
<!--    animation: rotate 60s linear infinite; /* Adjust duration as needed */-->
<!--    }-->


  </style>
</svg>

