<svg width="24" height="24" viewBox="0 0 24 24" fill="none" xmlns="http://www.w3.org/2000/svg">
<path d="M23.9387 12.5239L20.5101 4.19055C20.5088 4.18735 20.5068 4.18455 20.5055 4.18135C20.4907 4.14616 20.4735 4.112 20.4539 4.07911C20.4524 4.07657 20.4506 4.07423 20.449 4.07169C20.4305 4.04189 20.4101 4.01327 20.3878 3.98598C20.3831 3.98013 20.3785 3.97418 20.3736 3.96848C20.35 3.94064 20.3245 3.91432 20.2974 3.8897C20.2925 3.88527 20.2872 3.88136 20.2822 3.87703C20.2586 3.85675 20.2339 3.83775 20.2081 3.82012C20.2008 3.81513 20.1937 3.80994 20.1863 3.80512C20.1562 3.78585 20.125 3.76841 20.0928 3.75288C20.0855 3.74942 20.078 3.74647 20.0707 3.74322C20.0418 3.73033 20.0123 3.71902 19.9821 3.70934C19.9752 3.7071 19.9684 3.70456 19.9613 3.70248C19.9253 3.69197 19.8886 3.68376 19.8515 3.67791C19.8446 3.67684 19.8376 3.67618 19.8307 3.67521C19.7955 3.67045 19.7599 3.66783 19.7243 3.66738C19.7209 3.66738 19.7177 3.66667 19.7143 3.66667C19.713 3.66667 19.7117 3.66697 19.7104 3.66697C19.672 3.66724 19.6337 3.67006 19.5957 3.67541C19.5863 3.67668 19.5771 3.67841 19.5678 3.67999C19.5546 3.68223 19.5415 3.68366 19.5284 3.6865L12.8571 5.1278V2.83333C12.8571 2.61232 12.7668 2.40036 12.6061 2.24408C12.4453 2.0878 12.2273 2 12 2C11.7727 2 11.5547 2.0878 11.3939 2.24408C11.2332 2.40036 11.1429 2.61232 11.1429 2.83333V5.49818L4.09978 7.01984C4.08205 7.02365 4.0651 7.02894 4.04789 7.03377C4.04046 7.03586 4.03287 7.03749 4.02549 7.03978C3.98975 7.05085 3.9548 7.0642 3.92086 7.07975C3.91469 7.0826 3.90878 7.08575 3.90271 7.08876C3.87252 7.10338 3.84326 7.11973 3.81508 7.13774C3.81037 7.14074 3.80551 7.14348 3.80085 7.14659C3.76978 7.16736 3.74015 7.19012 3.71217 7.2147C3.70699 7.21922 3.70218 7.22405 3.69711 7.22873C3.67323 7.25073 3.65066 7.27403 3.62951 7.29852C3.62517 7.30355 3.62057 7.30828 3.61634 7.31347C3.59335 7.34162 3.57226 7.37118 3.55319 7.40197C3.5488 7.40904 3.54477 7.41626 3.54058 7.42344C3.5221 7.45475 3.50572 7.4872 3.49156 7.52058C3.49109 7.52175 3.49036 7.52272 3.48989 7.52389L3.48884 7.52648L3.48733 7.53009L0.0613146 15.8572C0.0208118 15.9556 1.37263e-06 16.0607 0 16.1667C0 18.5951 2.62877 19.5 4.28571 19.5C5.94266 19.5 8.57143 18.5951 8.57143 16.1667C8.57143 16.0607 8.55062 15.9556 8.51011 15.8572L5.45607 8.43412L11.1429 7.20553V20.3333H9.42857C9.20124 20.3333 8.98323 20.4211 8.82248 20.5774C8.66173 20.7337 8.57143 20.9457 8.57143 21.1667C8.57143 21.3877 8.66173 21.5996 8.82248 21.7559C8.98323 21.9122 9.20124 22 9.42857 22H14.5714C14.7988 22 15.0168 21.9122 15.1775 21.7559C15.3383 21.5996 15.4286 21.3877 15.4286 21.1667C15.4286 20.9457 15.3383 20.7337 15.1775 20.5774C15.0168 20.4211 14.7988 20.3333 14.5714 20.3333H12.8571V6.83515L18.3156 5.65585L15.4899 12.5239C15.4494 12.6223 15.4286 12.7273 15.4286 12.8333C15.4286 15.2617 18.0573 16.1667 19.7143 16.1667C21.3712 16.1667 24 15.2617 24 12.8333C24 12.7273 23.9792 12.6223 23.9387 12.5239ZM6.79112 16.1667H1.78031L4.28571 10.0772L6.79112 16.1667ZM17.2089 12.8333L19.7143 6.74385L22.2197 12.8333H17.2089Z" fill="#2196f3"/>
</svg>
