<svg width="24" height="24" viewBox="0 0 24 24" fill="none" xmlns="http://www.w3.org/2000/svg">
<g clip-path="url(#clip0_12_96)">
<mask id="mask0_12_96" style="mask-type:luminance" maskUnits="userSpaceOnUse" x="0" y="0" width="24" height="24">
<path d="M23.1998 0H0.799805V24H23.1998V0Z" fill="white"/>
</mask>
<g mask="url(#mask0_12_96)">
<path d="M23.1998 5.10938C23.1998 4.80469 23.0195 4.53282 22.742 4.41563L12.2841 0.0562499C12.1038 -0.01875 11.9004 -0.01875 11.7201 0.0562499L1.25751 4.41094C0.980113 4.52813 0.799805 4.80469 0.799805 5.10938V18.8906C0.799805 19.1954 0.980113 19.4672 1.25751 19.5843L11.7155 23.939C11.8958 24.0141 12.0946 24.0141 12.2795 23.939C12.2888 23.9344 11.8912 24.0984 22.742 19.5843C23.0195 19.4672 23.1998 19.1954 23.1998 18.8906V5.10938ZM12.0021 8.71406L8.14627 7.11094L16.4775 3.42656L20.5876 5.1375L12.0021 8.71406ZM2.27927 6.29062L5.60344 7.67344V11.5828C5.60344 11.9953 5.93632 12.3328 6.34316 12.3328C6.75003 12.3328 7.08289 11.9953 7.08289 11.5828V8.29219L11.2578 10.0312V22.1298L2.27927 18.3891V6.29062ZM12.0021 1.56094L14.5681 2.62968L6.23683 6.31406L3.41198 5.1375L12.0021 1.56094ZM12.7419 10.0312L21.7203 6.29062V18.3891L12.7419 22.1298V10.0312Z" fill="#2196f3"/>
</g>
</g>
<defs>
<clipPath id="clip0_12_96">
<rect width="24" height="24" fill="white"/>
</clipPath>
</defs>
</svg>
