<svg width="24" height="24" viewBox="0 0 24 24" fill="none" xmlns="http://www.w3.org/2000/svg">
<path d="M23.5979 9.32115H16.7407C16.6229 9.32115 16.5264 9.41758 16.5264 9.53544V10.8211C16.5264 10.939 16.6229 11.0354 16.7407 11.0354H23.5979C23.7157 11.0354 23.8121 10.939 23.8121 10.8211V9.53544C23.8121 9.41758 23.7157 9.32115 23.5979 9.32115ZM20.0086 12.964H16.7407C16.6229 12.964 16.5264 13.0604 16.5264 13.1783V14.464C16.5264 14.5819 16.6229 14.6783 16.7407 14.6783H20.0086C20.1264 14.6783 20.2229 14.5819 20.2229 14.464V13.1783C20.2229 13.0604 20.1264 12.964 20.0086 12.964ZM11.0702 6.92383H9.91035C9.74428 6.92383 9.61035 7.05776 9.61035 7.22383V13.8667C9.61035 13.9631 9.65589 14.0515 9.73357 14.1078L13.722 17.0167C13.8559 17.1131 14.0434 17.0863 14.1398 16.9524L14.8282 16.0122V16.0095C14.9246 15.8756 14.8952 15.6881 14.7612 15.5917L11.3675 13.1381V7.22383C11.3702 7.05776 11.2336 6.92383 11.0702 6.92383Z" fill="#2196f3"/>
<path d="M19.8425 16.3363H18.2942C18.1442 16.3363 18.0023 16.414 17.9219 16.5425C17.5812 17.0826 17.1814 17.583 16.73 18.0345C15.9526 18.8144 15.031 19.4357 14.0166 19.864C12.9639 20.3086 11.8469 20.5336 10.6951 20.5336C9.54067 20.5336 8.42371 20.3086 7.37371 19.864C6.35853 19.4354 5.44514 18.8193 4.66031 18.0345C3.87549 17.2497 3.25942 16.3363 2.83085 15.3211C2.38621 14.2711 2.16121 13.1541 2.16121 11.9997C2.16121 10.8452 2.38621 9.73092 2.83085 8.67824C3.25942 7.66307 3.87549 6.74967 4.66031 5.96485C5.44514 5.18003 6.35853 4.56396 7.37371 4.13539C8.42371 3.69074 9.54335 3.46574 10.6951 3.46574C11.8496 3.46574 12.9666 3.69074 14.0166 4.13539C15.0317 4.56396 15.9451 5.18003 16.73 5.96485C17.1814 6.41637 17.5812 6.91678 17.9219 7.45682C18.0023 7.58539 18.1442 7.66307 18.2942 7.66307H19.8425C20.0273 7.66307 20.1451 7.47021 20.0621 7.30682C18.3157 3.83271 14.7746 1.57467 10.821 1.52914C5.03264 1.45682 0.2246 6.19521 0.213885 11.9782C0.203171 17.772 4.89871 22.4729 10.6925 22.4729C14.6969 22.4729 18.2969 20.2068 20.0621 16.6925C20.0809 16.655 20.0898 16.6134 20.088 16.5715C20.0862 16.5296 20.0737 16.4888 20.0517 16.4531C20.0297 16.4174 19.9989 16.3879 19.9623 16.3675C19.9256 16.347 19.8844 16.3363 19.8425 16.3363Z" fill="#2196f3"/>
</svg>
