<svg width="24" height="24" viewBox="0 0 24 24" fill="none" xmlns="http://www.w3.org/2000/svg">
<g clip-path="url(#clip0_12_87)">
<path d="M3.9131 9.79095C4.14506 10.0079 4.63821 10.0551 4.91312 9.73287L6.6731 7.72486C6.92876 7.43322 6.8993 6.98977 6.60734 6.73439C6.31542 6.47906 5.8715 6.50838 5.61589 6.80006L4.32633 8.27131L3.98069 7.95887C3.69289 7.6988 3.24865 7.72097 2.98825 8.00844C2.72791 8.2959 2.75011 8.73973 3.03786 8.99984L3.9131 9.79095Z" fill="#2196f3"/>
<path d="M12.5596 8.54102H8.50535C8.11731 8.54102 7.80273 8.85528 7.80273 9.24294C7.80273 9.6306 8.11731 9.94486 8.50535 9.94486H12.5596C12.9476 9.94486 13.2622 9.6306 13.2622 9.24294C13.2622 8.85528 12.9476 8.54102 12.5596 8.54102Z" fill="#2196f3"/>
<path d="M12.5589 11.4531H3.45164C3.0636 11.4531 2.74902 11.7673 2.74902 12.155C2.74902 12.5427 3.0636 12.8569 3.45164 12.8569H12.5589C12.9469 12.8569 13.2615 12.5427 13.2615 12.155C13.2615 11.7673 12.9469 11.4531 12.5589 11.4531Z" fill="#2196f3"/>
<path d="M3.9131 17.8378C4.14506 18.0547 4.63821 18.1019 4.91312 17.7797L6.6731 15.7717C6.92876 15.4801 6.8993 15.0366 6.60734 14.7813C6.31542 14.5259 5.8715 14.5553 5.61589 14.8469L4.32633 16.3182L3.98069 16.0058C3.69289 15.7457 3.2486 15.7679 2.98825 16.0554C2.72791 16.3428 2.75011 16.7867 3.03786 17.0468L3.9131 17.8378Z" fill="#2196f3"/>
<path d="M12.5596 16.585H8.50535C8.11731 16.585 7.80273 16.8993 7.80273 17.2869C7.80273 17.6746 8.11731 17.9889 8.50535 17.9889H12.5596C12.9476 17.9889 13.2622 17.6746 13.2622 17.2869C13.2622 16.8993 12.9476 16.585 12.5596 16.585Z" fill="#2196f3"/>
<path d="M12.5589 19.4551H3.45164C3.0636 19.4551 2.74902 19.7693 2.74902 20.157C2.74902 20.5447 3.0636 20.8589 3.45164 20.8589H12.5589C12.9469 20.8589 13.2615 20.5447 13.2615 20.157C13.2615 19.7693 12.9469 19.4551 12.5589 19.4551Z" fill="#2196f3"/>
<path d="M22.2624 0H8.88362C8.75631 0.00060894 8.60412 0.0256692 8.4538 0.0841277C8.31168 0.0568658 8.16605 0.0427196 8.01831 0.0427196C7.41556 0.0427196 6.84671 0.275008 6.41666 0.696817C6.15701 0.951449 5.96548 1.25793 5.85198 1.59323H5.10101C4.57067 1.59323 4.13636 2.00693 4.10174 2.52814H1.62391C0.728482 2.52814 0 3.25587 0 4.15041V22.3778C0 23.2723 0.728482 24 1.62391 24H14.4128C15.1619 24 15.7938 23.4906 15.9805 22.8004H22.3804C23.2249 22.7492 23.9921 21.9826 23.9763 21.0883V1.71211C23.9763 0.768063 23.2074 0 22.2624 0ZM5.50357 2.99703H6.43469C6.81725 2.99703 7.12949 2.69129 7.13718 2.3092C7.14673 1.83348 7.54203 1.44647 8.01831 1.44647C8.4946 1.44647 8.8899 1.83348 8.8995 2.3092C8.90718 2.69129 9.21943 2.99703 9.60199 2.99703H10.5331V3.77015H5.50357V2.99703ZM14.6314 22.3777C14.6314 22.4982 14.5333 22.5962 14.4128 22.5962H1.62391C1.50334 22.5962 1.40525 22.4982 1.40525 22.3777V4.15036C1.40525 4.02993 1.50334 3.93194 1.62391 3.93194H4.09832V4.08108C4.09832 4.6837 4.58908 5.17399 5.19231 5.17399H10.8444C11.4476 5.17399 11.9384 4.68375 11.9384 4.08108V3.93194H14.4128C14.5333 3.93194 14.6314 4.02993 14.6314 4.15036V22.3777ZM22.571 21.0882C22.571 21.2448 22.4539 21.3762 22.2986 21.394C22.2919 21.3948 22.2851 21.3956 22.2784 21.3966H16.0367V4.15036C16.0367 3.25587 15.3082 2.52809 14.4128 2.52809H11.9345C11.8956 2.00623 11.4591 1.59318 10.9269 1.59318H10.1846C10.1629 1.52882 10.1373 1.46586 10.1098 1.4038H22.2624C22.4326 1.4038 22.571 1.54212 22.571 1.71211V21.0882Z" fill="#2196f3"/>
</g>
<defs>
<clipPath id="clip0_12_87">
<rect width="24" height="24" fill="white"/>
</clipPath>
</defs>
</svg>
