<svg width="24" height="24" viewBox="0 0 24 24" fill="none" xmlns="http://www.w3.org/2000/svg">
<path d="M15.5855 0H8.41528C7.47609 0 6.71484 0.761297 6.71484 1.70086V22.2991C6.71484 23.2387 7.47609 24 8.41528 24H15.5855C16.5247 24 17.2863 23.2387 17.2863 22.2991V1.70086C17.2864 0.761297 16.5247 0 15.5855 0ZM12.0004 21.7287C10.6511 21.7287 9.55748 20.6347 9.55748 19.2857C9.55748 17.9368 10.6511 16.8428 12.0004 16.8428C13.3498 16.8428 14.4434 17.9368 14.4434 19.2857C14.4434 20.6347 13.3497 21.7287 12.0004 21.7287ZM12.0004 14.4429C10.6511 14.4429 9.55748 13.3489 9.55748 12C9.55748 10.6511 10.6511 9.55706 12.0004 9.55706C13.3498 9.55706 14.4434 10.6511 14.4434 12C14.4434 13.3489 13.3497 14.4429 12.0004 14.4429ZM12.0004 7.15725C10.6511 7.15725 9.55748 6.06323 9.55748 4.71431C9.55748 3.36539 10.6511 2.27138 12.0004 2.27138C13.3498 2.27138 14.4434 3.36539 14.4434 4.71431C14.4434 6.06319 13.3497 7.15725 12.0004 7.15725Z" fill="#2196f3"/>
<path d="M2.10059 3.43479C2.10059 4.8574 3.01713 6.11801 4.37065 6.55577L5.74343 6.99982V2.07129H2.10059V3.43479Z" fill="#2196f3"/>
<path d="M2.10059 10.9348C2.10059 12.3574 3.01713 13.618 4.37065 14.0558L5.74343 14.4998V9.57129H2.10059V10.9348Z" fill="#2196f3"/>
<path d="M2.10059 18.4348C2.10059 19.8574 3.01713 21.118 4.37065 21.5558L5.74343 21.9998V17.0713H2.10059V18.4348Z" fill="#2196f3"/>
<path d="M18.2578 2.07129V6.99982L19.6305 6.55577C20.9841 6.11801 21.9007 4.8574 21.9007 3.43479V2.07129H18.2578Z" fill="#2196f3"/>
<path d="M18.2578 14.4999L19.6305 14.0558C20.9841 13.6181 21.9007 12.3574 21.9007 10.9348V9.57129H18.2578V14.4999Z" fill="#2196f3"/>
<path d="M18.2578 21.9999L19.6305 21.5558C20.9841 21.1181 21.9007 19.8574 21.9007 18.4348V17.0713H18.2578V21.9999Z" fill="#2196f3"/>
</svg>
