<?xml version="1.0" encoding="UTF-8"?>
<svg id="Layer_1" data-name="Layer 1" xmlns="http://www.w3.org/2000/svg" viewBox="0 0 360 50">
  <defs>
    <style>
      .cls-1 {
        fill: #6b6b6b;
      }

      .cls-2 {
        fill: #214080;
      }
    </style>
  </defs>
  <g>
    <polygon class="cls-2" points="46.85 1.98 .32 1.98 .32 11.21 18.04 11.21 18.04 48.51 29.12 48.51 29.12 11.21 46.85 11.21 46.85 1.98"/>
    <polygon class="cls-2" points="34.36 48.51 46.37 48.51 51.42 39.53 45.34 29 34.36 48.51"/>
    <polygon class="cls-2" points="54.86 12.08 75.88 48.51 87.22 48.51 60.82 1.49 54.86 12.08"/>
    <path class="cls-2" d="M90.12,8.37c-4.56,4.56-6.88,10.16-6.88,16.63s2.32,12.06,6.88,16.63,10.16,6.88,16.63,6.88h23.53V19.4h-15l-6.94,11.19h10.78v6.76h-12.37c-2.25,0-4.27-.54-6.19-1.65-1.92-1.1-3.39-2.59-4.51-4.51-1.09-1.88-1.65-3.97-1.65-6.19s.54-4.28,1.65-6.2c1.12-1.92,2.59-3.41,4.51-4.51,1.9-1.09,3.98-1.65,6.19-1.65h23.53V1.49h-23.53c-6.47,0-12.06,2.32-16.63,6.88Z"/>
    <polygon class="cls-2" points="136.7 48.51 147.86 48.51 147.86 30.6 147.86 19.4 147.86 1.49 136.7 1.49 136.7 48.51"/>
    <polygon class="cls-2" points="172.57 1.49 172.57 19.4 163.68 19.4 156.75 30.6 172.57 30.6 172.57 48.51 183.73 48.51 183.73 1.49 172.57 1.49"/>
  </g>
  <g>
    <path class="cls-1" d="M218.67,1.49v2.55h-21.24V23.66h18.56v2.55h-18.56v22.31h-3.01V1.49h24.25Z"/>
    <path class="cls-1" d="M233.14,45.97h17.48v2.55h-20.5V1.49h3.01V45.97Z"/>
    <path class="cls-1" d="M263.96,4.03V23.66h18.76v2.55h-18.76v19.76h20.77v2.55h-23.78V1.49h23.78v2.55h-20.77Z"/>
    <path class="cls-1" d="M300.33,4.03V23.66h18.76v2.55h-18.76v19.76h20.77v2.55h-23.78V1.49h23.78v2.55h-20.77Z"/>
    <path class="cls-1" d="M359.68,1.49v2.55h-13.4V48.51h-3.01V4.03h-13.4V1.49h29.81Z"/>
  </g>
</svg>