<svg width="202" height="34" viewBox="0 0 202 34" fill="none" xmlns="http://www.w3.org/2000/svg">
<path d="M29.27 4.82031H1V10.4203H11.77V33.0903H18.5V10.4203H29.27V4.82031Z" fill="#214080"/>
<path d="M21.69 33.0902H28.98L32.05 27.6302L28.36 21.2402L21.69 33.0902Z" fill="#214080"/>
<path d="M34.15 10.9595L46.91 33.0895H53.8L37.77 4.51953L34.15 10.9595Z" fill="#214080"/>
<path d="M55.56 8.69953C52.79 11.4695 51.38 14.8695 51.38 18.7995C51.38 22.7295 52.79 26.1295 55.56 28.8995C58.33 31.6695 61.73 33.0795 65.66 33.0795H79.96V15.3995H70.85L66.63 22.1995H73.18V26.3095H65.66C64.29 26.3095 63.06 25.9795 61.9 25.3095C60.73 24.6395 59.84 23.7395 59.16 22.5695C58.5 21.4295 58.16 20.1595 58.16 18.8095C58.16 17.4595 58.49 16.2095 59.16 15.0495C59.84 13.8795 60.73 12.9795 61.9 12.3095C63.06 11.6495 64.32 11.3095 65.66 11.3095H79.96V4.51953H65.66C61.73 4.51953 58.33 5.92953 55.56 8.69953Z" fill="#214080"/>
<path d="M83.87 33.0895H90.65V22.2095V15.3995V4.51953H83.87V33.0895Z" fill="#214080"/>
<path d="M105.67 4.51953V15.3995H100.26L96.05 22.2095H105.67V33.0895H112.44V4.51953H105.67Z" fill="#214080"/>
<path d="M124.37 4.59C124.37 6.62 122.77 8.22 120.7 8.22C118.63 8.22 117 6.62 117 4.59C117 2.56 118.64 1 120.7 1C122.76 1 124.37 2.6 124.37 4.59ZM117.92 4.59C117.92 6.19 119.1 7.45 120.72 7.45C122.34 7.45 123.45 6.18 123.45 4.61C123.45 3.04 122.29 1.72 120.7 1.72C119.11 1.72 117.92 3.01 117.92 4.58V4.59ZM120.13 6.47H119.3V2.88C119.63 2.81 120.09 2.77 120.68 2.77C121.36 2.77 121.66 2.88 121.93 3.03C122.13 3.18 122.28 3.47 122.28 3.82C122.28 4.21 121.97 4.52 121.54 4.65V4.69C121.89 4.82 122.09 5.08 122.2 5.56C122.31 6.11 122.38 6.33 122.46 6.46H121.56C121.45 6.33 121.38 6 121.28 5.59C121.21 5.2 121 5.02 120.54 5.02H120.15V6.46L120.13 6.47ZM120.15 4.44H120.54C121 4.44 121.37 4.29 121.37 3.92C121.37 3.59 121.13 3.37 120.6 3.37C120.38 3.37 120.23 3.39 120.14 3.41V4.44H120.15Z" fill="#214080"/>
<path d="M135.33 4.41016H127V32.6702H128.91V20.1902H135.33C138.48 20.1902 140.85 19.4602 142.39 18.0302C143.94 16.5802 144.7 14.7102 144.7 12.3402C144.7 9.97016 143.95 8.04016 142.37 6.60016C140.82 5.16016 138.44 4.44016 135.32 4.44016H135.33V4.41016ZM135.33 18.6702H128.91V5.85016H135.33C137.85 5.85016 139.73 6.41016 140.91 7.50016C142.11 8.60016 142.7 10.2202 142.7 12.3302C142.7 15.2302 141.42 18.7102 135.31 18.7102H135.32L135.33 18.6702Z" fill="#6B6C6C"/>
<path d="M170.44 5.91031C168.32 4.69031 165.91 4.07031 163.28 4.07031C160.65 4.07031 158.28 4.68031 156.16 5.91031C154.04 7.13031 152.36 8.86031 151.14 11.0303C149.92 13.2203 149.3 15.7403 149.3 18.5003C149.3 21.2603 149.91 23.8003 151.14 25.9903C152.36 28.1703 154.04 29.9003 156.16 31.1103C158.28 32.3303 160.67 32.9503 163.28 32.9503C165.89 32.9503 168.32 32.3403 170.44 31.1103C172.55 29.9003 174.24 28.1603 175.44 25.9903C176.65 23.8003 177.26 21.2803 177.26 18.5003C177.26 15.7203 176.65 13.2003 175.44 11.0103C174.23 8.83031 172.55 7.11031 170.44 5.89031V5.91031ZM173.71 25.3403C172.66 27.3003 171.22 28.8303 169.41 29.8803C167.6 30.9303 165.55 31.4603 163.29 31.4603C161.03 31.4603 158.96 30.9303 157.17 29.8803C155.36 28.8303 153.91 27.3003 152.87 25.3403C151.83 23.3903 151.3 21.1003 151.3 18.5403C151.3 15.9803 151.83 13.7003 152.87 11.7603C153.92 9.81031 155.36 8.29031 157.17 7.25031C158.98 6.20031 161.03 5.67031 163.29 5.67031C165.55 5.67031 167.6 6.20031 169.41 7.25031C171.22 8.30031 172.67 9.81031 173.71 11.7603C174.75 13.7003 175.28 15.9703 175.28 18.5403C175.28 21.1103 174.75 23.3803 173.71 25.3403Z" fill="#6B6C6C"/>
<path d="M199.83 21.5098C199.08 20.5298 198.15 19.7898 197.05 19.2998C195.91 18.7998 194.39 18.2798 192.51 17.7498C190.82 17.2898 189.52 16.8698 188.54 16.4698C187.5 16.0598 186.63 15.4298 185.94 14.6098C185.21 13.7698 184.86 12.6498 184.86 11.3098C184.86 9.52984 185.51 8.10984 186.81 7.07984C188.08 6.06984 189.66 5.56984 191.54 5.56984C193.55 5.56984 195.18 6.07984 196.39 7.08984C197.47 7.98984 198.16 9.02984 198.45 10.1798H200.61C200.28 8.46984 199.43 7.08984 198.02 5.96984C196.45 4.71984 194.36 4.08984 191.79 4.08984C190.02 4.08984 188.46 4.41984 187.11 5.03984C185.77 5.66984 184.73 6.54984 184.01 7.63984C183.28 8.73984 182.93 9.99984 182.93 11.3998C182.93 13.0898 183.3 14.4498 184.04 15.3998C184.79 16.3798 185.71 17.1198 186.77 17.5898C187.89 18.0898 189.43 18.5998 191.35 19.1098C193.07 19.5698 194.37 19.9798 195.35 20.3598C196.37 20.7598 197.24 21.3998 197.94 22.2198C198.65 23.0698 199.02 24.2098 199.02 25.5898C199.02 27.2998 198.38 28.7398 197.11 29.8498C195.86 30.9498 194.16 31.4998 192.06 31.4998C189.78 31.4998 188.02 30.9198 186.81 29.7498C185.73 28.7098 185.06 27.4998 184.83 26.1498H182.74C182.87 27.3198 183.27 28.3998 183.95 29.3698C184.73 30.4898 185.83 31.3798 187.2 31.9998C188.59 32.6398 190.23 32.9498 192.08 32.9498C193.93 32.9498 195.61 32.5898 196.95 31.8798C198.29 31.1698 199.3 30.2398 199.97 29.0998C200.64 27.9598 200.99 26.7398 200.99 25.4698C200.99 23.7998 200.62 22.4698 199.88 21.5098L199.84 21.4798L199.83 21.5098Z" fill="#6B6C6C"/>
</svg>
