<svg width="20" height="20" viewBox="0 0 20 20" fill="none" xmlns="http://www.w3.org/2000/svg">
<path d="M5.83366 14.9987C4.02113 14.9886 3.03954 14.9082 2.39923 14.2678C1.66699 13.5356 1.66699 12.3571 1.66699 10.0001V6.66675C1.66699 4.30972 1.66699 3.13121 2.39923 2.39898C3.13146 1.66675 4.30997 1.66675 6.66699 1.66675H13.3337C15.6907 1.66675 16.8692 1.66675 17.6014 2.39898C18.3337 3.13121 18.3337 4.30972 18.3337 6.66675V10.0001C18.3337 12.3571 18.3337 13.5356 17.6014 14.2678C16.9932 14.8761 16.0771 14.9791 14.4334 14.9965L13.7503 14.9987" stroke="#929292" stroke-width="1.2" stroke-linecap="round" stroke-linejoin="round"/>
<path d="M7.5 5H12.5" stroke="#929292" stroke-width="1.2" stroke-linecap="round" stroke-linejoin="round"/>
<path d="M5.83301 7.91675H14.1663" stroke="#929292" stroke-width="1.2" stroke-linecap="round" stroke-linejoin="round"/>
<path d="M9.07513 11.6212C9.60788 11.1673 10.3914 11.1673 10.9241 11.6212C11.1523 11.8158 11.4361 11.9334 11.7351 11.9572C12.4328 12.0129 12.9868 12.5669 13.0425 13.2645C13.0664 13.5635 13.1839 13.8474 13.3785 14.0756C13.8324 14.6084 13.8324 15.3919 13.3785 15.9245C13.1839 16.1528 13.0664 16.4366 13.0425 16.7356C12.9868 17.4333 12.4328 17.9873 11.7351 18.0429C11.4361 18.0669 11.1523 18.1844 10.9241 18.3789C10.3914 18.8329 9.60788 18.8329 9.07513 18.3789C8.84688 18.1844 8.56305 18.0669 8.26408 18.0429C7.56639 17.9873 7.01238 17.4333 6.9567 16.7356C6.93284 16.4366 6.81528 16.1528 6.62074 15.9245C6.16678 15.3919 6.16678 14.6084 6.62074 14.0756C6.81528 13.8474 6.93284 13.5635 6.9567 13.2645C7.01238 12.5669 7.56639 12.0129 8.26408 11.9572C8.56305 11.9334 8.84688 11.8158 9.07513 11.6212Z" stroke="#929292" stroke-width="1.2" stroke-linecap="round" stroke-linejoin="round"/>
<path d="M8.75 15.1667L9.46425 15.8334L11.25 14.1667" stroke="#929292" stroke-width="1.2" stroke-linecap="round" stroke-linejoin="round"/>
</svg>
