<svg width="20" height="20" viewBox="0 0 20 20" fill="none" xmlns="http://www.w3.org/2000/svg">
<g id="organization_svgrepo.com">
<path id="Vector" d="M6.04199 10.0001C5.87623 10.0001 5.71726 10.0659 5.60005 10.1831C5.48284 10.3004 5.41699 10.4593 5.41699 10.6251C5.41699 10.7908 5.48284 10.9498 5.60005 11.067C5.71726 11.1842 5.87623 11.2501 6.04199 11.2501H6.45866C6.62442 11.2501 6.78339 11.1842 6.9006 11.067C7.01781 10.9498 7.08366 10.7908 7.08366 10.6251C7.08366 10.4593 7.01781 10.3004 6.9006 10.1831C6.78339 10.0659 6.62442 10.0001 6.45866 10.0001H6.04199ZM5.41699 7.70841C5.41699 7.54265 5.48284 7.38368 5.60005 7.26647C5.71726 7.14926 5.87623 7.08341 6.04199 7.08341H6.45866C6.62442 7.08341 6.78339 7.14926 6.9006 7.26647C7.01781 7.38368 7.08366 7.54265 7.08366 7.70841C7.08366 7.87418 7.01781 8.03315 6.9006 8.15036C6.78339 8.26757 6.62442 8.33342 6.45866 8.33342H6.04199C5.87623 8.33342 5.71726 8.26757 5.60005 8.15036C5.48284 8.03315 5.41699 7.87418 5.41699 7.70841ZM6.04199 4.16675C5.87623 4.16675 5.71726 4.2326 5.60005 4.34981C5.48284 4.46702 5.41699 4.62599 5.41699 4.79175C5.41699 4.95751 5.48284 5.11648 5.60005 5.23369C5.71726 5.3509 5.87623 5.41675 6.04199 5.41675H6.45866C6.62442 5.41675 6.78339 5.3509 6.9006 5.23369C7.01781 5.11648 7.08366 4.95751 7.08366 4.79175C7.08366 4.62599 7.01781 4.46702 6.9006 4.34981C6.78339 4.2326 6.62442 4.16675 6.45866 4.16675H6.04199ZM8.33366 10.6251C8.33366 10.4593 8.39951 10.3004 8.51672 10.1831C8.63393 10.0659 8.7929 10.0001 8.95866 10.0001H9.37533C9.54109 10.0001 9.70006 10.0659 9.81727 10.1831C9.93448 10.3004 10.0003 10.4593 10.0003 10.6251C10.0003 10.7908 9.93448 10.9498 9.81727 11.067C9.70006 11.1842 9.54109 11.2501 9.37533 11.2501H8.95866C8.7929 11.2501 8.63393 11.1842 8.51672 11.067C8.39951 10.9498 8.33366 10.7908 8.33366 10.6251ZM8.95866 7.08341C8.7929 7.08341 8.63393 7.14926 8.51672 7.26647C8.39951 7.38368 8.33366 7.54265 8.33366 7.70841C8.33366 7.87418 8.39951 8.03315 8.51672 8.15036C8.63393 8.26757 8.7929 8.33342 8.95866 8.33342H9.37533C9.54109 8.33342 9.70006 8.26757 9.81727 8.15036C9.93448 8.03315 10.0003 7.87418 10.0003 7.70841C10.0003 7.54265 9.93448 7.38368 9.81727 7.26647C9.70006 7.14926 9.54109 7.08341 9.37533 7.08341H8.95866ZM8.33366 4.79175C8.33366 4.62599 8.39951 4.46702 8.51672 4.34981C8.63393 4.2326 8.7929 4.16675 8.95866 4.16675H9.37533C9.54109 4.16675 9.70006 4.2326 9.81727 4.34981C9.93448 4.46702 10.0003 4.62599 10.0003 4.79175C10.0003 4.95751 9.93448 5.11648 9.81727 5.23369C9.70006 5.3509 9.54109 5.41675 9.37533 5.41675H8.95866C8.7929 5.41675 8.63393 5.3509 8.51672 5.23369C8.39951 5.11648 8.33366 4.95751 8.33366 4.79175ZM11.8753 10.0001C11.7096 10.0001 11.5506 10.0659 11.4334 10.1831C11.3162 10.3004 11.2503 10.4593 11.2503 10.6251C11.2503 10.7908 11.3162 10.9498 11.4334 11.067C11.5506 11.1842 11.7096 11.2501 11.8753 11.2501H12.292C12.4578 11.2501 12.6167 11.1842 12.7339 11.067C12.8511 10.9498 12.917 10.7908 12.917 10.6251C12.917 10.4593 12.8511 10.3004 12.7339 10.1831C12.6167 10.0659 12.4578 10.0001 12.292 10.0001H11.8753ZM11.2503 7.70841C11.2503 7.54265 11.3162 7.38368 11.4334 7.26647C11.5506 7.14926 11.7096 7.08341 11.8753 7.08341H12.292C12.4578 7.08341 12.6167 7.14926 12.7339 7.26647C12.8511 7.38368 12.917 7.54265 12.917 7.70841C12.917 7.87418 12.8511 8.03315 12.7339 8.15036C12.6167 8.26757 12.4578 8.33342 12.292 8.33342H11.8753C11.7096 8.33342 11.5506 8.26757 11.4334 8.15036C11.3162 8.03315 11.2503 7.87418 11.2503 7.70841ZM11.8753 4.16675C11.7096 4.16675 11.5506 4.2326 11.4334 4.34981C11.3162 4.46702 11.2503 4.62599 11.2503 4.79175C11.2503 4.95751 11.3162 5.11648 11.4334 5.23369C11.5506 5.3509 11.7096 5.41675 11.8753 5.41675H12.292C12.4578 5.41675 12.6167 5.3509 12.7339 5.23369C12.8511 5.11648 12.917 4.95751 12.917 4.79175C12.917 4.62599 12.8511 4.46702 12.7339 4.34981C12.6167 4.2326 12.4578 4.16675 12.292 4.16675H11.8753Z" fill="#929292"/>
<path id="Vector_2" fill-rule="evenodd" clip-rule="evenodd" d="M2.5 16.6666C2.5 17.1086 2.67559 17.5325 2.98816 17.8451C3.30072 18.1577 3.72464 18.3333 4.16667 18.3333H7.29167C7.45743 18.3333 7.6164 18.2674 7.73361 18.1502C7.85082 18.033 7.91667 17.874 7.91667 17.7083V15.8333H10.4167V17.7083C10.4167 18.0533 10.6967 18.3333 11.0417 18.3333H14.1667C14.2433 18.3333 14.3192 18.3283 14.3933 18.3183C14.4388 18.3283 14.4851 18.3334 14.5317 18.3333H17.9167C18.3587 18.3333 18.7826 18.1577 19.0952 17.8451C19.4077 17.5325 19.5833 17.1086 19.5833 16.6666V10.3124C19.5833 10.0537 19.5231 9.79849 19.4074 9.56706C19.2917 9.33564 19.1237 9.13433 18.9167 8.97908L18.0833 8.35409C18.0177 8.30484 17.943 8.26901 17.8634 8.24864C17.7839 8.22827 17.7012 8.22376 17.6199 8.23537C17.5387 8.24697 17.4605 8.27447 17.3899 8.31629C17.3193 8.35811 17.2576 8.41342 17.2083 8.47909C17.1591 8.54475 17.1233 8.61946 17.1029 8.69897C17.0825 8.77848 17.078 8.86122 17.0896 8.94247C17.1012 9.02373 17.1287 9.10189 17.1705 9.17252C17.2124 9.24314 17.2677 9.30484 17.3333 9.35409L18.1667 9.97909C18.2184 10.0179 18.2604 10.0682 18.2893 10.1261C18.3183 10.1839 18.3333 10.2477 18.3333 10.3124V16.6666C18.3333 16.7771 18.2894 16.8831 18.2113 16.9612C18.1332 17.0394 18.0272 17.0833 17.9167 17.0833H15.7808C15.815 16.9499 15.8333 16.8108 15.8333 16.6666V2.49992C15.8333 2.05789 15.6577 1.63397 15.3452 1.32141C15.0326 1.00885 14.6087 0.833252 14.1667 0.833252H4.16667C3.72464 0.833252 3.30072 1.00885 2.98816 1.32141C2.67559 1.63397 2.5 2.05789 2.5 2.49992V16.6666ZM4.16667 17.0833C4.05616 17.0833 3.95018 17.0394 3.87204 16.9612C3.7939 16.8831 3.75 16.7771 3.75 16.6666V2.49992C3.75 2.38941 3.7939 2.28343 3.87204 2.20529C3.95018 2.12715 4.05616 2.08325 4.16667 2.08325H14.1667C14.2772 2.08325 14.3832 2.12715 14.4613 2.20529C14.5394 2.28343 14.5833 2.38941 14.5833 2.49992V16.6666C14.5833 16.7771 14.5394 16.8831 14.4613 16.9612C14.3832 17.0394 14.2772 17.0833 14.1667 17.0833H11.6667V15.2083C11.6667 15.0425 11.6008 14.8835 11.4836 14.7663C11.3664 14.6491 11.2074 14.5833 11.0417 14.5833H7.29167C7.12591 14.5833 6.96694 14.6491 6.84973 14.7663C6.73252 14.8835 6.66667 15.0425 6.66667 15.2083V17.0833H4.16667Z" fill="#929292"/>
</g>
</svg>
