<svg width="344" height="344" viewBox="0 0 344 344" fill="none" xmlns="http://www.w3.org/2000/svg">
<mask id="path-1-inside-1_401_1606" fill="white">
<path d="M344 172C344 266.993 266.993 344 172 344C77.007 344 0 266.993 0 172C0 77.007 77.007 0 172 0C266.993 0 344 77.007 344 172ZM67.5972 172C67.5972 229.66 114.34 276.403 172 276.403C229.66 276.403 276.403 229.66 276.403 172C276.403 114.34 229.66 67.5972 172 67.5972C114.34 67.5972 67.5972 114.34 67.5972 172Z"/>
</mask>
<path d="M344 172C344 266.993 266.993 344 172 344C77.007 344 0 266.993 0 172C0 77.007 77.007 0 172 0C266.993 0 344 77.007 344 172ZM67.5972 172C67.5972 229.66 114.34 276.403 172 276.403C229.66 276.403 276.403 229.66 276.403 172C276.403 114.34 229.66 67.5972 172 67.5972C114.34 67.5972 67.5972 114.34 67.5972 172Z" stroke="#5694E3" stroke-width="150" mask="url(#path-1-inside-1_401_1606)"/>
<mask id="path-2-inside-2_401_1606" fill="white">
<path d="M22.7755 86.466C37.8321 60.1981 59.5557 38.37 85.751 23.1877C111.946 8.00529 141.685 0.00663045 171.962 4.11924e-06L171.977 67.5972C153.599 67.6012 135.548 72.4564 119.647 81.6719C103.747 90.8875 90.561 104.137 81.4218 120.081L22.7755 86.466Z"/>
</mask>
<path class="needle" d="M22.7755 86.466C37.8321 60.1981 59.5557 38.37 85.751 23.1877C111.946 8.00529 141.685 0.00663045 171.962 4.11924e-06L171.977 67.5972C153.599 67.6012 135.548 72.4564 119.647 81.6719C103.747 90.8875 90.561 104.137 81.4218 120.081L22.7755 86.466Z" stroke="#0D1467" stroke-width="150" mask="url(#path-2-inside-2_401_1606)"/>
<path class="needle" d="M167.062 184.505L128.406 104.98C128.155 104.386 128.125 103.722 128.321 103.108C128.518 102.494 128.928 101.971 129.477 101.633C130.026 101.296 130.678 101.166 131.315 101.268C131.952 101.37 132.531 101.697 132.947 102.189L186.496 172.552C187.355 173.737 187.97 175.081 188.305 176.506C188.64 177.931 188.688 179.409 188.447 180.853C188.205 182.296 187.679 183.678 186.899 184.916C186.118 186.155 185.099 187.226 183.901 188.067C178.257 192.372 169.941 190.611 167.056 184.52L167.062 184.505Z" fill="#0D1467"/>
<path class="changing-color" fill-rule="evenodd" clip-rule="evenodd" d="M171.723 15.6924C173.278 15.6924 174.539 16.9531 174.539 18.5084V39.6241C174.539 41.1793 173.278 42.4401 171.723 42.4401C170.167 42.4401 168.907 41.1793 168.907 39.6241V18.5084C168.907 16.9531 170.167 15.6924 171.723 15.6924Z" fill="white"/>
<path  fill-rule="evenodd" clip-rule="evenodd" d="M249.829 36.3859C251.175 37.1639 251.636 38.8862 250.858 40.2329L240.3 58.5086C239.522 59.8553 237.8 60.3163 236.453 59.5383C235.107 58.7604 234.646 57.038 235.424 55.6914L245.982 37.4156C246.76 36.069 248.482 35.608 249.829 36.3859Z" fill="#0D1467"/>
<path  fill-rule="evenodd" clip-rule="evenodd" d="M307.136 93.3843C307.913 94.7313 307.451 96.4534 306.105 97.2309L287.813 107.789C286.466 108.566 284.744 108.105 283.966 106.758C283.189 105.411 283.65 103.688 284.997 102.911L303.289 92.3532C304.636 91.5757 306.358 92.0374 307.136 93.3843Z" fill="#0D1467"/>
<path fill-rule="evenodd" clip-rule="evenodd" d="M301.504 171.38C301.504 169.825 302.765 168.564 304.32 168.564H325.436C326.991 168.564 328.252 169.825 328.252 171.38C328.252 172.936 326.991 174.196 325.436 174.196H304.32C302.765 174.196 301.504 172.936 301.504 171.38Z" fill="#0D1467"/>
<path fill-rule="evenodd" clip-rule="evenodd" d="M284.387 236.128C285.165 234.781 286.887 234.32 288.234 235.098L306.509 245.656C307.856 246.434 308.317 248.156 307.539 249.503C306.761 250.849 305.039 251.31 303.692 250.532L285.416 239.975C284.07 239.197 283.609 237.474 284.387 236.128Z" fill="#0D1467"/>
<path fill-rule="evenodd" clip-rule="evenodd" d="M237.18 283.631C238.527 282.854 240.249 283.316 241.027 284.663L251.585 302.954C252.362 304.301 251.9 306.024 250.554 306.801C249.207 307.578 247.484 307.117 246.707 305.77L236.149 287.478C235.372 286.131 235.833 284.409 237.18 283.631Z" fill="#0D1467"/>
<path fill-rule="evenodd" clip-rule="evenodd" d="M172.535 301.176C174.09 301.176 175.351 302.437 175.351 303.992V325.108C175.351 326.663 174.09 327.924 172.535 327.924C170.98 327.924 169.719 326.663 169.719 325.108V303.992C169.719 302.437 170.98 301.176 172.535 301.176Z" fill="#0D1467"/>
<path fill-rule="evenodd" clip-rule="evenodd" d="M107.807 284.072C109.154 284.85 109.616 286.572 108.839 287.919L98.2971 306.195C97.52 307.542 95.798 308.004 94.4508 307.227C93.1036 306.45 92.6415 304.728 93.4186 303.38L103.96 285.105C104.737 283.758 106.46 283.295 107.807 284.072Z" fill="#0D1467"/>
<path fill-rule="evenodd" clip-rule="evenodd" d="M60.3022 236.862C61.0802 238.209 60.6192 239.931 59.2725 240.709L40.9968 251.267C39.6501 252.045 37.9278 251.584 37.1498 250.237C36.3719 248.89 36.8329 247.168 38.1795 246.39L56.4553 235.832C57.8019 235.054 59.5243 235.515 60.3022 236.862Z" fill="#0D1467"/>
<path fill-rule="evenodd" clip-rule="evenodd" d="M16.0144 172.229C16.0144 170.674 17.2752 169.413 18.8304 169.413H39.9462C41.5014 169.413 42.7621 170.674 42.7621 172.229C42.7621 173.784 41.5014 175.045 39.9462 175.045H18.8304C17.2752 175.045 16.0144 173.784 16.0144 172.229Z" fill="#0D1467"/>
<path fill-rule="evenodd" clip-rule="evenodd" d="M36.7158 94.1321C37.4929 92.7849 39.2149 92.3228 40.5621 93.0998L58.8378 103.642C60.185 104.419 60.6471 106.141 59.8701 107.488C59.093 108.835 57.3709 109.297 56.0238 108.52L37.748 97.9784C36.4009 97.2013 35.9387 95.4792 36.7158 94.1321Z" fill="white"/>
<path fill-rule="evenodd" clip-rule="evenodd" d="M93.6932 36.8273C95.0399 36.0494 96.7622 36.5104 97.5402 37.857L108.098 56.1328C108.876 57.4794 108.415 59.2018 107.068 59.9797C105.722 60.7577 103.999 60.2967 103.221 58.95L92.6635 40.6743C91.8855 39.3276 92.3466 37.6053 93.6932 36.8273Z" fill="white"/>

<!--  <style>-->
<!--    @keyframes rotate {-->
<!--    from {-->
<!--    transform: rotate(0deg);-->
<!--    }-->
<!--    to {-->
<!--    transform: rotate(360deg);-->
<!--    }-->
<!--    }-->

<!--    .needle {-->
<!--    transform-origin: 50%  ;  /* Adjust based on the needle's position */-->
<!--    animation: rotate 60s linear infinite; /* Adjust duration as needed */-->
<!--    }-->

<!--    .blue-area {-->
<!--    transform-origin: 50% 50%; /* Adjust based on the circle's center */-->
<!--    animation: rotate 60s linear infinite; /* Adjust duration as needed */-->
<!--    }-->

<!--    .changing-color {-->
<!--    animation: colorChange 60s forwards infinite; /* Adjust duration as needed */-->
<!--    }-->

<!--    @keyframes colorChange {-->
<!--&lt;!&ndash;    0% {&ndash;&gt;-->
<!--&lt;!&ndash;    fill: white;&ndash;&gt;-->
<!--&lt;!&ndash;    }&ndash;&gt;-->
<!--    16.65% { /* After 2 seconds */-->
<!--    fill: white;-->
<!--    }-->
<!--    16.66% { /* After 2 seconds */-->
<!--    fill: #0D1467;-->
<!--    }-->
<!--    100% {-->
<!--    fill: #0D1467;-->
<!--    }-->
<!--    }-->


<!--  </style>-->
</svg>
