<svg width="380" height="380" viewBox="0 0 380 380" fill="none" xmlns="http://www.w3.org/2000/svg">
<path class="darkblue-area" d="M190.506 380C146.542 379.975 103.938 364.783 69.9116 336.996C35.885 309.208 12.5278 270.535 3.79687 227.527C-4.93405 184.52 1.49811 139.821 22.0037 101.005C42.5093 62.1888 75.8276 31.6409 116.314 14.5363C162.812 -4.72822 215.058 -4.84916 261.645 14.1999C308.233 33.249 345.378 69.9209 364.972 116.21C384.565 162.499 385.016 214.645 366.226 261.265C347.436 307.884 310.931 345.191 264.68 365.04C241.215 374.956 215.987 380.044 190.506 380ZM190.506 74.3037C167.62 74.3002 145.247 81.0707 126.216 93.7592C107.186 106.448 92.3523 124.484 83.5918 145.587C74.8313 166.691 72.5374 189.913 77 212.318C81.4627 234.723 92.4815 255.303 108.663 271.457C124.845 287.611 145.462 298.612 167.908 303.07C190.354 307.528 213.62 305.242 234.764 296.501C255.908 287.76 273.981 272.957 286.696 253.964C299.411 234.97 306.198 212.64 306.198 189.797C306.165 159.179 293.966 129.825 272.277 108.173C250.588 86.5218 221.181 74.3412 190.506 74.3037Z" fill="#0D1467"/>
<mask id="mask0_401_1508" style="mask-type:alpha" maskUnits="userSpaceOnUse" x="0" y="0" width="380" height="380">
<path d="M190.506 380C146.542 379.975 103.938 364.783 69.9116 336.996C35.885 309.208 12.5278 270.535 3.79687 227.527C-4.93405 184.52 1.49811 139.821 22.0037 101.005C42.5093 62.1888 75.8276 31.6409 116.314 14.5363C162.812 -4.72822 215.058 -4.84916 261.645 14.1999C308.233 33.249 345.378 69.9209 364.972 116.21C384.565 162.499 385.016 214.645 366.226 261.265C347.436 307.884 310.931 345.191 264.68 365.04C241.215 374.956 215.987 380.044 190.506 380ZM190.506 74.3037C167.62 74.3002 145.247 81.0707 126.216 93.7592C107.186 106.448 92.3523 124.484 83.5918 145.587C74.8313 166.691 72.5374 189.913 77 212.318C81.4627 234.723 92.4815 255.303 108.663 271.457C124.845 287.611 145.462 298.612 167.908 303.07C190.354 307.528 213.62 305.242 234.764 296.501C255.908 287.76 273.981 272.957 286.696 253.964C299.411 234.97 306.198 212.64 306.198 189.797C306.165 159.179 293.966 129.825 272.277 108.173C250.588 86.5218 221.181 74.3412 190.506 74.3037Z" fill="#0D1467"/>
</mask>
<g class="blue-area" mask="url(#mask0_401_1508)">
<ellipse cx="72.5" cy="92" rx="237.5" ry="225" fill="url(#paint0_radial_401_1508)"/>
</g>
<path class="needle" d="M187.321 207.247L117.557 138.883C117.075 138.359 116.797 137.679 116.773 136.968C116.749 136.256 116.982 135.559 117.428 135.004C117.873 134.449 118.504 134.071 119.204 133.941C119.904 133.811 120.628 133.935 121.244 134.293L203.096 187.591C204.43 188.504 205.569 189.674 206.447 191.032C207.325 192.39 207.924 193.909 208.21 195.501C208.495 197.092 208.461 198.725 208.109 200.303C207.758 201.882 207.096 203.375 206.162 204.695C201.89 211.271 192.585 212.529 187.321 207.265V207.247Z" fill="#0D1467"/>
<path fill-rule="evenodd" clip-rule="evenodd" d="M189.693 17.335C191.411 17.335 192.803 18.7277 192.803 20.4456V43.7712C192.803 45.4892 191.411 46.8819 189.693 46.8819C187.975 46.8819 186.582 45.4892 186.582 43.7712V20.4456C186.582 18.7277 187.975 17.335 189.693 17.335Z" fill="white"/>
<path fill-rule="evenodd" clip-rule="evenodd" d="M275.973 40.194C277.46 41.0534 277.969 42.956 277.11 44.4436L265.447 64.6319C264.588 66.1195 262.685 66.6287 261.198 65.7694C259.71 64.91 259.201 63.0074 260.06 61.5198L271.723 41.3315C272.582 39.8439 274.485 39.3347 275.973 40.194Z" fill="white"/>
<path fill-rule="evenodd" clip-rule="evenodd" d="M339.278 103.157C340.137 104.645 339.627 106.547 338.139 107.406L317.933 119.069C316.445 119.927 314.542 119.417 313.684 117.93C312.825 116.442 313.335 114.539 314.823 113.68L335.029 102.018C336.517 101.159 338.419 101.669 339.278 103.157Z" fill="white"/>
<path fill-rule="evenodd" clip-rule="evenodd" d="M333.057 189.316C333.057 187.598 334.449 186.206 336.167 186.206H359.493C361.211 186.206 362.604 187.598 362.604 189.316C362.604 191.034 361.211 192.427 359.493 192.427H336.167C334.449 192.427 333.057 191.034 333.057 189.316Z" fill="white"/>
<path fill-rule="evenodd" clip-rule="evenodd" d="M314.148 260.838C315.008 259.351 316.91 258.842 318.398 259.701L338.586 271.364C340.074 272.223 340.583 274.126 339.723 275.613C338.864 277.101 336.962 277.61 335.474 276.751L315.286 265.088C313.798 264.229 313.289 262.326 314.148 260.838Z" fill="white"/>
<path fill-rule="evenodd" clip-rule="evenodd" d="M262.001 313.314C263.489 312.455 265.392 312.965 266.251 314.453L277.913 334.659C278.772 336.147 278.262 338.049 276.774 338.908C275.286 339.767 273.384 339.257 272.525 337.769L260.862 317.563C260.004 316.075 260.514 314.173 262.001 313.314Z" fill="white"/>
<path fill-rule="evenodd" clip-rule="evenodd" d="M190.591 332.695C192.309 332.695 193.702 334.088 193.702 335.805V359.131C193.702 360.849 192.309 362.242 190.591 362.242C188.873 362.242 187.48 360.849 187.48 359.131V335.805C187.48 334.088 188.873 332.695 190.591 332.695Z" fill="white"/>
<path fill-rule="evenodd" clip-rule="evenodd" d="M119.088 313.8C120.576 314.659 121.087 316.561 120.228 318.049L108.583 338.238C107.725 339.726 105.822 340.236 104.334 339.378C102.846 338.519 102.336 336.617 103.194 335.129L114.839 314.941C115.697 313.453 117.6 312.942 119.088 313.8Z" fill="white"/>
<path fill-rule="evenodd" clip-rule="evenodd" d="M66.6121 261.65C67.4715 263.137 66.9623 265.04 65.4747 265.899L45.2864 277.562C43.7988 278.422 41.8962 277.912 41.0368 276.425C40.1774 274.937 40.6867 273.035 42.1743 272.175L62.3626 260.512C63.8502 259.653 65.7528 260.162 66.6121 261.65Z" fill="white"/>
<path fill-rule="evenodd" clip-rule="evenodd" d="M17.6895 190.253C17.6895 188.535 19.0821 187.143 20.8001 187.143H44.1257C45.8437 187.143 47.2364 188.535 47.2364 190.253C47.2364 191.971 45.8437 193.364 44.1257 193.364H20.8001C19.0821 193.364 17.6895 191.971 17.6895 190.253Z" fill="white"/>
<path fill-rule="evenodd" clip-rule="evenodd" d="M40.5573 103.984C41.4157 102.496 43.3179 101.985 44.8061 102.843L64.9944 114.488C66.4825 115.347 66.9931 117.249 66.1347 118.737C65.2763 120.225 63.374 120.736 61.8859 119.878L41.6975 108.232C40.2094 107.374 39.6989 105.472 40.5573 103.984Z" fill="white"/>
<path fill-rule="evenodd" clip-rule="evenodd" d="M103.499 40.6813C104.986 39.822 106.889 40.3312 107.748 41.8188L119.411 62.0071C120.27 63.4947 119.761 65.3973 118.273 66.2567C116.786 67.1161 114.883 66.6068 114.024 65.1192L102.361 44.9309C101.502 43.4433 102.011 41.5407 103.499 40.6813Z" fill="white"/>
<defs>
<radialGradient id="paint0_radial_401_1508" cx="0" cy="0" r="1" gradientUnits="userSpaceOnUse" gradientTransform="translate(72.5 92) rotate(90) scale(225 237.5)">
<stop offset="0.148" stop-color="#5694E3"/>
<stop offset="0.803" stop-color="#5694E3" stop-opacity="0"/>
</radialGradient>
</defs>

  <style>
    @keyframes rotate {
    from {
    transform: rotate(0deg);
    }
    to {
    transform: rotate(360deg);
    }
    }

    .needle {
    transform-origin: 50%  ;  /* Adjust based on the needle's position */
    animation: rotate 60s linear infinite; /* Adjust duration as needed */
    }

        .blue-area {
    position:relative;
    z-index: 10;
        transform-origin: 50% 50%; /* Adjust based on the circle's center */
        animation: rotate 60s linear infinite; /* Adjust duration as needed */
        }
.darkblue-area {
    position:relative;
    z-index: 99;
    }

  </style>
</svg>
