<svg width="20" height="21" viewBox="0 0 20 21" fill="none" xmlns="http://www.w3.org/2000/svg">
<g id="user-left-01">
<path id="Icon" d="M15.8337 17.5176L13.3337 15.0176M13.3337 15.0176L15.8337 12.5176M13.3337 15.0176H18.3337M10.0003 12.9342H6.25033C5.08736 12.9342 4.50587 12.9342 4.03271 13.0778C2.96737 13.4009 2.13369 14.2346 1.81053 15.3C1.66699 15.7731 1.66699 16.3546 1.66699 17.5176M12.0837 6.26758C12.0837 8.33865 10.4047 10.0176 8.33366 10.0176C6.26259 10.0176 4.58366 8.33865 4.58366 6.26758C4.58366 4.19651 6.26259 2.51758 8.33366 2.51758C10.4047 2.51758 12.0837 4.19651 12.0837 6.26758Z" stroke="#929292" stroke-width="1.2" stroke-linecap="round" stroke-linejoin="round"/>
</g>
</svg>
