<svg width="432" height="322" viewBox="0 0 432 322" fill="none" xmlns="http://www.w3.org/2000/svg">
<path d="M431.32 282.55H0.679901V282.765H431.32V282.55Z" fill="#EBEBEB"/>
<path d="M119.244 288.415H90.7182V288.63H119.244V288.415Z" fill="#EBEBEB"/>
<path d="M183.177 296.304H148.079V296.52H183.177V296.304Z" fill="#EBEBEB"/>
<path d="M89.8569 293.608H45.8627V293.824H89.8569V293.608Z" fill="#EBEBEB"/>
<path d="M388.17 289.862H307.95V290.077H388.17V289.862Z" fill="#EBEBEB"/>
<path d="M300.285 289.862H294.833V290.077H300.285V289.862Z" fill="#EBEBEB"/>
<path d="M275.807 293.497H239.435V293.712H275.807V293.497Z" fill="#EBEBEB"/>
<path d="M204.803 244.137H38.4987C37.1959 244.134 35.9472 243.615 35.0268 242.693C34.1064 241.771 33.5894 240.521 33.5894 239.219V5.44125C33.6008 4.14591 34.1227 2.90735 35.0419 1.9946C35.9611 1.08185 37.2033 0.568625 38.4987 0.566406H204.803C206.108 0.566406 207.359 1.08454 208.281 2.00683C209.203 2.92912 209.721 4.18001 209.721 5.48432V239.219C209.721 240.523 209.203 241.774 208.281 242.696C207.359 243.618 206.108 244.137 204.803 244.137ZM38.4987 0.738663C37.253 0.740945 36.0591 1.2374 35.1791 2.11906C34.299 3.00072 33.8047 4.19554 33.8047 5.44125V239.219C33.8047 240.464 34.299 241.659 35.1791 242.541C36.0591 243.422 37.253 243.919 38.4987 243.921H204.803C206.05 243.919 207.245 243.423 208.126 242.541C209.007 241.66 209.504 240.465 209.506 239.219V5.44125C209.504 4.19475 209.007 2.99995 208.126 2.11853C207.245 1.23712 206.05 0.74094 204.803 0.738663H38.4987Z" fill="#EBEBEB"/>
<path d="M391.107 244.137H224.794C223.49 244.134 222.241 243.615 221.319 242.694C220.397 241.772 219.878 240.522 219.876 239.219V5.44125C219.889 4.14512 220.413 2.90657 221.334 1.99406C222.254 1.08155 223.497 0.568601 224.794 0.566406H391.107C392.401 0.570889 393.641 1.08511 394.558 1.99762C395.476 2.91013 395.996 4.1474 396.008 5.44125V239.219C396.008 240.52 395.492 241.768 394.573 242.69C393.655 243.612 392.408 244.132 391.107 244.137ZM224.794 0.738663C223.547 0.74094 222.352 1.23712 221.471 2.11853C220.59 2.99995 220.093 4.19475 220.091 5.44125V239.219C220.093 240.465 220.59 241.66 221.471 242.541C222.352 243.423 223.547 243.919 224.794 243.921H391.107C392.353 243.919 393.548 243.423 394.43 242.541C395.311 241.66 395.807 240.465 395.809 239.219V5.44125C395.807 4.19475 395.311 2.99995 394.43 2.11853C393.548 1.23712 392.353 0.74094 391.107 0.738663H224.794Z" fill="#EBEBEB"/>
<path d="M199.11 282.55V109.277H129.562V282.55H199.11Z" fill="#F0F0F0"/>
<path d="M195.286 164.631V113.626H133.377V164.631H195.286Z" fill="#E6E6E6"/>
<path d="M195.295 220.219V169.214H133.386V220.219H195.295Z" fill="#E6E6E6"/>
<path d="M195.295 275.797V224.792H133.386V275.797H195.295Z" fill="#E6E6E6"/>
<path d="M195.295 164.631V113.626H170.946V164.631H195.295Z" fill="#E0E0E0"/>
<path d="M195.286 220.21V169.205H170.938V220.21H195.286Z" fill="#E0E0E0"/>
<path d="M160.043 199.841H143.17V220.219H160.043V199.841Z" fill="#FAFAFA"/>
<path d="M136.047 220.21H143.17V199.832H136.047V220.21Z" fill="#F0F0F0"/>
<path d="M187.294 199.841H170.421V220.219H187.294V199.841Z" fill="#FAFAFA"/>
<path d="M163.307 220.21H170.43V199.832H163.307V220.21Z" fill="#F0F0F0"/>
<path d="M173.97 179.463H157.097V199.841H173.97V179.463Z" fill="#FAFAFA"/>
<path d="M149.974 199.841H157.097V179.463H149.974V199.841Z" fill="#F0F0F0"/>
<path d="M195.295 275.797V224.792H170.946V275.797H195.295Z" fill="#E0E0E0"/>
<path d="M129.562 282.55V109.277H110.674L110.674 282.55H129.562Z" fill="#F5F5F5"/>
<path d="M191.092 232.147H140.819V275.797H191.092V232.147Z" fill="#F0F0F0"/>
<path d="M133.386 275.789H140.827V232.139H133.386V275.789Z" fill="#E0E0E0"/>
<path d="M191.092 120.982H140.819V164.632H191.092V120.982Z" fill="#F0F0F0"/>
<path d="M133.386 164.623H140.827V120.973H133.386V164.623Z" fill="#E0E0E0"/>
<path d="M367.585 282.55V28.7046L247.764 28.7046V282.55H367.585Z" fill="#FAFAFA"/>
<path d="M247.764 282.55L247.764 28.7046H247.316L247.316 282.55H247.764Z" fill="#F0F0F0"/>
<path d="M354.235 37.0332H256.428V282.55H354.235V37.0332Z" fill="#E6E6E6"/>
<path d="M359.472 37.0332H258.875V282.55H359.472V37.0332Z" fill="#F0F0F0"/>
<path d="M352.143 161.833V164.925L355.235 161.833H352.143Z" fill="#E0E0E0"/>
<path d="M352.143 275.22V44.3711L266.204 44.3711V275.22H352.143Z" fill="#FAFAFA"/>
<path d="M336.166 160.575C335.535 160.575 334.931 160.826 334.485 161.271C334.039 161.717 333.789 162.322 333.789 162.952C333.789 163.583 334.039 164.187 334.485 164.633C334.931 165.079 335.535 165.329 336.166 165.329H351.221V160.575H336.166Z" fill="#F5F5F5"/>
<path d="M285.057 275.22L311.283 44.3711H328.948L302.722 275.22H285.057Z" fill="white"/>
<path d="M306.521 275.22L332.747 44.3711H339.637L313.411 275.22H306.521Z" fill="white"/>
<path d="M352.143 275.211V44.3623H351.212V275.211H352.143Z" fill="#E6E6E6"/>
<path d="M354.416 162.168H339.37C338.74 162.166 338.137 161.915 337.691 161.47C337.246 161.024 336.995 160.421 336.993 159.791C336.995 159.161 337.246 158.558 337.691 158.113C338.137 157.668 338.74 157.416 339.37 157.414H354.416C355.047 157.414 355.651 157.665 356.097 158.11C356.543 158.556 356.794 159.161 356.794 159.791C356.794 160.422 356.543 161.026 356.097 161.472C355.651 161.918 355.047 162.168 354.416 162.168Z" fill="#EBEBEB"/>
<path d="M98.0563 58.1431H55.776V125.4H98.0563V58.1431Z" fill="#E0E0E0"/>
<path d="M100.597 58.1431H56.8871V125.4H100.597V58.1431Z" fill="#F5F5F5"/>
<path d="M60.5561 63.0438V120.491H96.9452V63.0438H60.5561Z" fill="white"/>
<path d="M157.752 25.6899H115.471V92.9473H157.752V25.6899Z" fill="#E0E0E0"/>
<path d="M160.301 25.6899H116.591V92.9473H160.301V25.6899Z" fill="#F5F5F5"/>
<path d="M120.251 30.5995V88.0469H156.641V30.5995H120.251Z" fill="white"/>
<path d="M216 321.445C308.228 321.445 382.994 317.08 382.994 311.695C382.994 306.311 308.228 301.946 216 301.946C123.772 301.946 49.0063 306.311 49.0063 311.695C49.0063 317.08 123.772 321.445 216 321.445Z" fill="#F5F5F5"/>
<path d="M141.611 61.0542C143.463 63.5088 143.687 66.5233 141.697 71.3896C140.836 73.3877 139.716 75.3428 137.219 71.9925C134.721 68.6421 132.576 62.5184 136.357 61.9758C140.138 61.4332 141.611 61.0542 141.611 61.0542Z" fill="#263238"/>
<path d="M140.81 303.642H147.21L147.485 288.82H141.086L140.81 303.642Z" fill="#FFC3BD"/>
<path d="M93.302 292.273L99.5032 293.85L105.92 280.198L99.7185 278.622L93.302 292.273Z" fill="#FFC3BD"/>
<path d="M100.33 293.195L93.5173 290.895C93.3984 290.854 93.2689 290.856 93.1511 290.9C93.0333 290.944 92.9344 291.028 92.8714 291.136L89.9861 296.158C89.9167 296.282 89.8758 296.42 89.8661 296.562C89.8565 296.704 89.8784 296.846 89.9302 296.979C89.9821 297.112 90.0627 297.231 90.1661 297.329C90.2696 297.426 90.3934 297.5 90.5287 297.544C92.923 298.311 94.1202 298.561 97.1175 299.577C98.9606 300.197 104.206 302.402 106.755 303.263C109.305 304.124 110.416 301.704 109.451 301.119C105.102 298.535 102.268 295.77 101.191 293.91C101 293.576 100.694 293.322 100.33 293.195Z" fill="#263238"/>
<path d="M147.149 302.876H140.207C140.082 302.875 139.961 302.918 139.864 302.996C139.766 303.075 139.699 303.184 139.673 303.307L138.485 309.026C138.459 309.165 138.465 309.309 138.502 309.446C138.538 309.583 138.604 309.71 138.696 309.819C138.787 309.927 138.901 310.014 139.03 310.074C139.159 310.133 139.299 310.163 139.441 310.162C141.956 310.162 145.599 309.973 148.76 309.973C152.472 309.973 153.247 310.171 157.588 310.171C160.215 310.171 160.878 307.518 159.776 307.277C154.737 306.183 153.083 306.063 148.691 303.401C148.235 303.089 147.701 302.907 147.149 302.876Z" fill="#263238"/>
<path d="M145.487 101.259L154.22 98.4595C154.22 98.4595 163.247 119.354 166.278 120.655C170.395 122.377 173.616 125.314 178.896 125.822C179.611 126.641 180.782 129.267 180.67 130.249C173.582 132.919 162.661 130.086 159.655 127.304C152.773 120.982 145.487 101.259 145.487 101.259Z" fill="#FFC3BD"/>
<path d="M143.446 96.4529C140.991 102.051 150.853 119.828 150.853 119.828L163.901 113.799C162.299 108.373 160.131 103.131 157.433 98.1583C153.333 91.001 146.142 90.3034 143.446 96.4529Z" fill="#5694E3"/>
<path opacity="0.5" d="M143.446 96.4529C140.991 102.051 150.853 119.828 150.853 119.828L163.901 113.799C162.299 108.373 160.131 103.131 157.433 98.1583C153.333 91.001 146.142 90.3034 143.446 96.4529Z" fill="black"/>
<path d="M177.811 125.831L182.737 123.247L185.244 130.49C185.244 130.49 183.633 131.205 179.034 130.637L177.811 125.831Z" fill="#FFC3BD"/>
<path d="M187.647 121.43L189.223 127.622L185.244 130.516L182.737 123.273L187.647 121.43Z" fill="#FFC3BD"/>
<path opacity="0.2" d="M147.485 288.828L147.347 296.468H140.939L141.086 288.828H147.485Z" fill="black"/>
<path opacity="0.2" d="M99.7099 278.622L105.92 280.198L102.604 287.235L96.4026 285.659L99.7099 278.622Z" fill="black"/>
<path d="M151.809 92.8183C151.809 92.8183 159.836 114.807 153.531 150.791H119.321C118.951 145.537 121.63 117.244 115.954 92.491C119.725 91.7598 123.54 91.2765 127.374 91.0441C132.219 90.764 137.076 90.764 141.921 91.0441C145.258 91.3818 148.563 91.975 151.809 92.8183Z" fill="#5694E3"/>
<path opacity="0.5" d="M151.809 92.8183C151.809 92.8183 159.836 114.807 153.531 150.791H119.321C118.951 145.537 121.63 117.244 115.954 92.491C119.725 91.7598 123.54 91.2765 127.374 91.0441C132.219 90.764 137.076 90.764 141.921 91.0441C145.258 91.3818 148.563 91.975 151.809 92.8183Z" fill="black"/>
<path opacity="0.2" d="M123.542 98.6058C124.205 102.68 123.163 112.386 119.554 123.686C119.379 114.037 118.353 104.423 116.488 94.954V94.9023C118.736 94.6784 122.896 94.7818 123.542 98.6058Z" fill="black"/>
<path d="M128.942 77.4355C129.975 82.1209 130.57 87.9173 127.374 91.0438C127.374 91.0438 129.372 95.7894 138.071 95.7894C146.021 95.7894 141.921 91.0438 141.921 91.0438C136.676 89.7949 136.754 83.3439 137.615 79.7093L128.942 77.4355Z" fill="#FFC3BD"/>
<path d="M138.071 95.7897C137.163 97.1242 136.626 98.6755 136.512 100.286C136.512 100.286 125.522 96.4443 125.893 90.8115C125.893 90.8115 127.417 89.8899 128.382 89.1406C128.382 89.1492 128.847 93.5848 138.071 95.7897Z" fill="white"/>
<path d="M138.071 95.7895C139.005 97.0668 139.759 98.4666 140.311 99.9495C140.311 99.9495 145.168 96.6078 143.549 91.0439C142.634 90.6837 141.693 90.3957 140.733 90.1826C140.733 90.1826 141.473 94.5924 138.071 95.7895Z" fill="white"/>
<path opacity="0.2" d="M137.623 79.7093C136.979 82.2403 137.053 84.901 137.839 87.3919C137.027 87.2708 136.237 87.0299 135.496 86.6771C132.516 85.2904 131.009 83.1114 129.424 79.8644C129.286 79.0031 129.131 78.2279 128.95 77.4355L137.623 79.7093Z" fill="black"/>
<path d="M145.608 75.7389C145.279 76.4492 144.811 77.0862 144.231 77.6115C143.651 78.1368 142.971 78.5398 142.231 78.7964C140.242 79.4682 139.105 77.6853 139.536 75.7216C139.923 73.9991 141.422 71.4841 143.472 71.665C143.922 71.7169 144.353 71.8781 144.727 72.1346C145.101 72.3912 145.407 72.7352 145.617 73.1369C145.828 73.5385 145.937 73.9856 145.935 74.4391C145.934 74.8926 145.821 75.3388 145.608 75.7389Z" fill="#FFC3BD"/>
<path opacity="0.2" d="M145.608 75.7389C145.279 76.4492 144.811 77.0862 144.231 77.6115C143.651 78.1368 142.971 78.5398 142.231 78.7964C140.242 79.4682 139.105 77.6853 139.536 75.7216C139.923 73.9991 141.422 71.4841 143.472 71.665C143.922 71.7169 144.353 71.8781 144.727 72.1346C145.101 72.3912 145.407 72.7352 145.617 73.1369C145.828 73.5385 145.937 73.9856 145.935 74.4391C145.934 74.8926 145.821 75.3388 145.608 75.7389Z" fill="black"/>
<path d="M126.031 70.7176C127.202 77.0136 127.572 80.7601 131.129 83.6799C136.487 88.081 143.851 84.3689 144.557 77.8748C145.194 72.0354 143.179 62.7163 136.745 60.8301C135.336 60.4091 133.841 60.3622 132.408 60.694C130.975 61.0258 129.653 61.7248 128.572 62.7224C127.491 63.7199 126.688 64.9817 126.243 66.3835C125.797 67.7853 125.724 69.279 126.031 70.7176Z" fill="#FFC3BD"/>
<path d="M130.389 63.5175C131.836 66.2219 131.078 67.9875 129.08 72.8021C128.218 74.8002 126.857 76.9276 124.601 73.405C122.474 70.0804 119.227 63.9309 122.017 63.2591C125.746 62.415 130.389 63.5175 130.389 63.5175Z" fill="#263238"/>
<path d="M128.571 65.283C131.155 66.1442 133.205 64.8437 133.696 63.6035C135.763 64.5164 138.476 64.637 139.355 63.4657C141.077 63.4657 142.92 63.7757 143.747 61.3125C144.574 58.8492 143.549 56.6357 140.845 55.3869C140.784 55.9381 139.38 56.6529 138.063 55.74C137.324 55.3239 136.48 55.1301 135.634 55.1821C134.787 55.234 133.974 55.5295 133.291 56.0328C130.475 55.3007 128.485 54.8959 126.866 56.7477C124.188 56.1878 120.923 58.6167 121.371 60.7268C119.27 63.3106 121.302 65.4552 123.455 65.8256C123.886 66.885 128.003 66.3768 128.571 65.283Z" fill="#263238"/>
<path d="M124.076 78.0041C125.072 79.262 126.523 80.0785 128.115 80.2779C130.208 80.519 130.88 78.5553 129.984 76.7294C129.174 75.0843 127.107 72.9914 125.161 73.5857C123.214 74.18 122.853 76.4365 124.076 78.0041Z" fill="#FFC3BD"/>
<path d="M131.052 150.791C131.052 150.791 131.732 158.835 132.594 169.739C133.584 182.099 134.798 198.161 135.522 210.366C135.522 210.435 135.522 210.486 135.522 210.538C135.66 212.855 135.78 215.034 135.875 217.023C136.848 236.962 138.847 294.987 138.847 294.987H149.681C149.681 294.987 155.133 235.774 155.366 215.482C155.581 195.965 153.531 150.791 153.531 150.791H131.052Z" fill="#263238"/>
<path d="M138.054 291.679C138.011 291.679 138.14 295.219 138.14 295.219H150.637L151.068 291.24L138.054 291.679Z" fill="#5694E3"/>
<path opacity="0.2" d="M132.594 169.739C133.584 182.099 134.798 198.161 135.522 210.366C135.522 210.435 135.522 210.486 135.522 210.538C138.175 198.945 139.251 184.527 138.872 160.791L132.594 169.739Z" fill="black"/>
<path d="M141.405 150.791C141.405 150.791 135.376 197.025 131.801 215.387C127.925 235.446 105.825 286.572 105.825 286.572L94.4647 283.687C94.4647 283.687 110.648 237.065 112.655 217.204C114.825 195.672 119.321 150.834 119.321 150.834L141.405 150.791Z" fill="#263238"/>
<path d="M95.1451 280.663C95.1021 280.663 93.8532 283.712 93.8532 283.712L106.333 286.89L108.28 283.505L95.1451 280.663Z" fill="#5694E3"/>
<path d="M135.737 71.4927C135.806 72.0095 136.125 72.3971 136.461 72.354C136.797 72.311 137.012 71.8717 136.943 71.3549C136.874 70.8382 136.556 70.4937 136.228 70.4937C135.901 70.4937 135.677 70.976 135.737 71.4927Z" fill="#263238"/>
<path d="M141.499 70.89C141.56 71.4068 141.878 71.7513 142.214 71.7513C142.55 71.7513 142.765 71.269 142.696 70.7522C142.628 70.2355 142.317 69.8479 141.982 69.891C141.646 69.934 141.43 70.3733 141.499 70.89Z" fill="#263238"/>
<path d="M139.699 71.3379C140.5 72.8529 141.502 74.2523 142.679 75.4979C142.361 75.7864 141.983 76.0003 141.571 76.124C141.16 76.2477 140.727 76.278 140.302 76.2127L139.699 71.3379Z" fill="#ED847E"/>
<path d="M139.019 77.6507C139.057 77.6425 139.092 77.6205 139.116 77.5889C139.139 77.5572 139.151 77.518 139.148 77.4785C139.142 77.4388 139.12 77.4032 139.088 77.3791C139.056 77.355 139.016 77.3443 138.976 77.3493C138.339 77.4471 137.688 77.3936 137.076 77.1931C136.464 76.9926 135.908 76.6507 135.453 76.1952C135.423 76.1691 135.385 76.1548 135.345 76.1548C135.306 76.1548 135.268 76.1691 135.238 76.1952C135.21 76.2241 135.194 76.2627 135.194 76.3028C135.194 76.343 135.21 76.3816 135.238 76.4105C135.724 76.9031 136.32 77.2727 136.978 77.4884C137.636 77.7041 138.335 77.7598 139.019 77.6507Z" fill="#263238"/>
<path d="M133.774 69.7876C133.819 69.7819 133.862 69.7666 133.9 69.7429C133.939 69.7191 133.972 69.6874 133.997 69.6498C134.175 69.3173 134.431 69.033 134.743 68.8215C135.055 68.6099 135.414 68.4774 135.789 68.4354C135.829 68.4332 135.867 68.4232 135.903 68.406C135.939 68.3887 135.971 68.3646 135.997 68.335C136.024 68.3054 136.044 68.2709 136.057 68.2334C136.07 68.196 136.076 68.1563 136.073 68.1167C136.069 68.036 136.033 67.9602 135.973 67.9055C135.914 67.8508 135.835 67.8215 135.755 67.8239C135.279 67.8674 134.822 68.0279 134.424 68.2908C134.026 68.5538 133.699 68.9112 133.472 69.3311C133.434 69.4012 133.424 69.4833 133.445 69.5603C133.466 69.6372 133.516 69.7033 133.584 69.7445C133.639 69.783 133.707 69.7984 133.774 69.7876Z" fill="#263238"/>
<path d="M143.825 68.5475C143.868 68.5393 143.909 68.5216 143.945 68.4958C143.978 68.4728 144.006 68.4434 144.026 68.4093C144.047 68.3753 144.061 68.3373 144.067 68.2978C144.072 68.2583 144.07 68.218 144.059 68.1795C144.049 68.1409 144.03 68.105 144.006 68.0738C143.734 67.674 143.372 67.3445 142.948 67.1124C142.524 66.8803 142.051 66.7522 141.568 66.7388C141.528 66.7398 141.489 66.749 141.452 66.7658C141.416 66.7826 141.384 66.8067 141.357 66.8366C141.33 66.8664 141.31 66.9015 141.298 66.9394C141.285 66.9774 141.28 67.0176 141.284 67.0574C141.288 67.1382 141.324 67.214 141.384 67.2687C141.443 67.3234 141.522 67.3526 141.603 67.3503C141.985 67.3651 142.359 67.4704 142.692 67.6575C143.026 67.8447 143.311 68.1083 143.523 68.4269C143.558 68.4721 143.604 68.5072 143.657 68.5284C143.71 68.5496 143.768 68.5562 143.825 68.5475Z" fill="#263238"/>
<path d="M112.646 102.051L120.889 106.47C120.889 106.47 111.501 126.804 112.724 129.828C114.386 133.944 117.03 143.04 119.872 147.518C119.649 148.552 118.253 150.963 117.392 151.489C110.82 147.441 103.258 133.634 103.121 129.612C102.811 120.448 112.646 102.051 112.646 102.051Z" fill="#FFC3BD"/>
<path d="M115.954 92.491C109.925 93.3523 103.5 114.35 103.5 114.35L116.419 121.533C116.419 121.533 121.776 111.551 124.351 104.144C127.03 96.384 122.422 91.5436 115.954 92.491Z" fill="#5694E3"/>
<path opacity="0.5" d="M115.954 92.491C109.925 93.3523 103.5 114.35 103.5 114.35L116.419 121.533C116.419 121.533 121.776 111.551 124.351 104.144C127.03 96.384 122.422 91.5436 115.954 92.491Z" fill="black"/>
<path d="M102.001 294.944C102.398 295.114 102.842 295.145 103.258 295.03C103.397 294.971 103.519 294.879 103.614 294.762C103.709 294.645 103.773 294.506 103.801 294.358C103.826 294.273 103.829 294.182 103.807 294.096C103.786 294.01 103.742 293.931 103.68 293.867C103.121 293.298 100.787 293.867 100.52 293.867C100.491 293.873 100.465 293.888 100.445 293.91C100.425 293.931 100.412 293.958 100.408 293.987C100.405 294.018 100.41 294.049 100.424 294.076C100.438 294.104 100.459 294.126 100.485 294.142C100.957 294.468 101.466 294.737 102.001 294.944ZM103.293 293.987C103.359 293.999 103.42 294.032 103.465 294.082C103.483 294.112 103.493 294.146 103.493 294.181C103.493 294.216 103.483 294.25 103.465 294.28C103.447 294.381 103.405 294.477 103.342 294.558C103.279 294.639 103.197 294.703 103.103 294.745C102.322 294.825 101.539 294.603 100.916 294.125C101.69 293.915 102.5 293.868 103.293 293.987Z" fill="#5694E3"/>
<path d="M100.511 294.203H100.588C101.321 294.065 102.948 293.143 103.034 292.411C103.047 292.297 103.02 292.183 102.959 292.086C102.898 291.989 102.807 291.915 102.699 291.877C102.592 291.832 102.478 291.809 102.363 291.809C102.247 291.809 102.133 291.832 102.027 291.877C101.165 292.222 100.451 293.936 100.416 294.005C100.403 294.028 100.397 294.055 100.397 294.082C100.397 294.109 100.403 294.136 100.416 294.16C100.441 294.186 100.475 294.201 100.511 294.203ZM102.509 292.136H102.569C102.75 292.222 102.742 292.317 102.733 292.36C102.733 292.782 101.596 293.54 100.83 293.798C101.062 293.307 101.57 292.351 102.139 292.127C102.259 292.087 102.39 292.09 102.509 292.136Z" fill="#5694E3"/>
<path d="M149.845 304.013C150.388 304.062 150.932 303.925 151.387 303.625C151.487 303.532 151.563 303.416 151.61 303.287C151.656 303.158 151.671 303.02 151.654 302.884C151.647 302.801 151.62 302.72 151.575 302.649C151.53 302.579 151.468 302.52 151.395 302.48C150.603 302.049 148.062 303.341 147.778 303.504C147.75 303.519 147.728 303.541 147.714 303.569C147.7 303.597 147.695 303.629 147.7 303.659C147.705 303.691 147.719 303.72 147.741 303.743C147.762 303.766 147.79 303.782 147.821 303.789C148.488 303.923 149.165 303.998 149.845 304.013ZM150.965 302.695C151.062 302.69 151.159 302.708 151.249 302.746C151.279 302.763 151.304 302.786 151.322 302.815C151.34 302.843 151.351 302.876 151.352 302.91C151.365 303 151.357 303.091 151.327 303.177C151.297 303.262 151.246 303.339 151.18 303.401C150.792 303.746 149.742 303.806 148.321 303.573C149.146 303.132 150.04 302.835 150.965 302.695Z" fill="#5694E3"/>
<path d="M147.855 303.789H147.959C148.725 303.435 150.215 302.066 150.086 301.334C150.086 301.162 149.923 300.946 149.509 300.912C149.355 300.888 149.198 300.899 149.049 300.943C148.9 300.988 148.763 301.066 148.648 301.17C147.847 301.833 147.718 303.556 147.718 303.633C147.714 303.66 147.718 303.686 147.729 303.711C147.739 303.735 147.756 303.756 147.778 303.771C147.802 303.782 147.829 303.788 147.855 303.789ZM149.354 301.205H149.44C149.716 301.205 149.733 301.334 149.742 301.368C149.819 301.808 148.812 302.893 148.019 303.367C148.069 302.642 148.346 301.952 148.812 301.394C148.961 301.263 149.155 301.192 149.354 301.196V301.205Z" fill="#5694E3"/>
<path d="M118.675 146.691L124.704 147.312L120.51 153.392C120.51 153.392 115.222 152.677 114.972 148.491L118.675 146.691Z" fill="#FFC3BD"/>
<path d="M128.184 149.663L124.119 154.977L120.57 153.392L124.765 147.312L128.184 149.663Z" fill="#FFC3BD"/>
<path d="M345.356 146.355L351.385 216.188C351.867 221.872 348.396 226.859 343.633 227.264L211.117 238.633C206.38 239.046 202.099 234.723 201.642 229.047L195.613 159.206C195.494 157.894 195.596 156.573 195.915 155.295C196.862 151.394 199.739 148.405 203.339 148.138L335.856 136.761C339.447 136.451 342.746 138.871 344.391 142.54C344.921 143.75 345.247 145.039 345.356 146.355Z" fill="#5694E3"/>
<path opacity="0.1" d="M345.356 146.355L351.385 216.188C351.867 221.872 348.396 226.859 343.633 227.264L211.117 238.633C206.38 239.046 202.099 234.723 201.642 229.047L195.613 159.206C195.494 157.894 195.596 156.573 195.915 155.295C196.862 151.394 199.739 148.405 203.339 148.138L335.856 136.761C339.447 136.451 342.746 138.871 344.391 142.54C344.921 143.75 345.247 145.039 345.356 146.355Z" fill="black"/>
<path d="M361.088 187.522L360.147 187.635L360.527 190.782L361.468 190.668L361.088 187.522Z" fill="#5694E3"/>
<path d="M359.254 172.33L358.314 172.443L359.73 184.166L360.671 184.053L359.254 172.33Z" fill="#5694E3"/>
<path d="M351.29 133.867L359.954 205.491C360.652 211.313 357.259 216.567 352.401 217.153L216.5 233.595C211.642 234.18 207.086 229.891 206.38 224.06L197.715 152.445C197.55 151.098 197.608 149.733 197.887 148.405C198.749 144.366 201.574 141.222 205.268 140.775L341.17 124.341C344.865 123.893 348.379 126.262 350.162 129.983C350.749 131.206 351.13 132.519 351.29 133.867Z" fill="#5694E3"/>
<path opacity="0.1" d="M350.162 129.983L288.52 171.488C285.503 173.55 282.034 174.856 278.407 175.295C274.779 175.734 271.099 175.294 267.677 174.011L197.913 148.405C198.774 144.366 201.599 141.222 205.294 140.775L341.196 124.341C344.865 123.893 348.379 126.262 350.162 129.983Z" fill="black"/>
<path d="M327.165 145.46L309.458 157.38L303.661 161.29L288.52 171.488C285.581 173.504 282.208 174.8 278.676 175.27C275.143 175.739 271.549 175.37 268.185 174.192L267.642 174.011L259.15 170.893L240.03 163.874L231.09 160.592L220.961 156.872L220.229 138.966L218.584 99.1746L296.383 96.0137L326.037 118.484L326.347 126.124L327.165 145.46Z" fill="#5694E3"/>
<path opacity="0.7" d="M327.165 145.46L309.458 157.38L303.661 161.29L288.52 171.488C285.581 173.504 282.208 174.8 278.676 175.27C275.143 175.739 271.549 175.37 268.185 174.192L267.642 174.011L259.15 170.893L240.03 163.874L231.09 160.592L220.961 156.872L220.229 138.966L218.584 99.1746L296.383 96.0137L326.037 118.484L326.347 126.124L327.165 145.46Z" fill="#FAFAFA"/>
<g opacity="0.9">
<path d="M316.201 126.399L230.073 129.896C229.593 129.915 229.124 129.746 228.767 129.424C228.41 129.102 228.192 128.653 228.161 128.174C228.145 127.695 228.315 127.228 228.637 126.873C228.958 126.517 229.406 126.301 229.884 126.27L316.012 122.773C316.492 122.754 316.961 122.924 317.318 123.246C317.675 123.568 317.893 124.016 317.924 124.496C317.943 124.976 317.773 125.443 317.451 125.799C317.129 126.155 316.68 126.37 316.201 126.399Z" fill="white"/>
<path d="M316.658 137.846L230.53 141.342C230.049 141.361 229.581 141.192 229.223 140.87C228.866 140.548 228.649 140.1 228.618 139.62C228.601 139.14 228.771 138.672 229.093 138.316C229.414 137.959 229.861 137.741 230.34 137.708L316.468 134.211C316.948 134.194 317.416 134.365 317.773 134.686C318.129 135.007 318.347 135.455 318.38 135.934C318.395 136.413 318.224 136.879 317.903 137.236C317.582 137.592 317.136 137.81 316.658 137.846Z" fill="white"/>
<path d="M317.123 149.284L230.995 152.78C230.514 152.799 230.046 152.63 229.688 152.308C229.331 151.986 229.114 151.538 229.083 151.058C229.064 150.578 229.234 150.111 229.556 149.755C229.878 149.399 230.326 149.183 230.805 149.154L316.933 145.658C317.413 145.639 317.881 145.809 318.237 146.131C318.592 146.453 318.808 146.901 318.837 147.38C318.856 147.858 318.687 148.325 318.367 148.681C318.047 149.036 317.6 149.253 317.123 149.284Z" fill="white"/>
<path d="M309.458 157.38L303.661 161.29L240.03 163.874L231.09 160.592C231.164 160.584 231.239 160.584 231.314 160.592L309.458 157.38Z" fill="white"/>
<path d="M285.884 171.634V171.703C285.885 172.171 285.708 172.623 285.388 172.965C285.068 173.307 284.629 173.515 284.162 173.546L268.219 174.192L267.677 174.011L259.185 170.893L284.015 169.877C284.494 169.869 284.957 170.049 285.306 170.377C285.654 170.705 285.862 171.155 285.884 171.634Z" fill="white"/>
</g>
<path opacity="0.1" d="M326.072 118.484L305.47 117.597L296.418 96.0137L326.072 118.484Z" fill="#263238"/>
<path d="M326.072 118.484L306.081 115.065L296.418 96.0137L326.072 118.484Z" fill="#5694E3"/>
<path d="M365.699 34.9574C365.699 52.4758 346.501 69.6928 343.625 69.6928C340.748 69.6928 321.55 52.4672 321.55 34.9574C321.55 23.2181 331.429 13.6924 343.625 13.6924C355.82 13.6924 365.699 23.2181 365.699 34.9574Z" fill="#5694E3"/>
<path opacity="0.1" d="M339.525 30.5909C335.529 34.9748 330.102 36.5424 327.407 34.036C324.711 31.5297 325.762 26.0347 329.749 21.6508C333.737 17.2669 339.172 15.6994 341.876 18.154C344.581 20.6087 343.521 26.207 339.525 30.5909Z" fill="white"/>
<path opacity="0.1" d="M327.751 48.2385C327.226 46.9293 327.364 45.6546 328.061 45.3618C328.759 45.069 329.784 45.913 330.275 47.2222C330.766 48.5313 330.662 49.806 329.965 50.0902C329.267 50.3745 328.277 49.539 327.751 48.2385Z" fill="white"/>
<path d="M342.677 124.815C342.584 124.813 342.496 124.775 342.43 124.709C342.364 124.643 342.326 124.555 342.324 124.462C342.298 123.3 342.649 122.161 343.323 121.215C343.901 120.367 344.21 119.364 344.21 118.338C344.21 117.312 343.901 116.309 343.323 115.461C342.672 114.503 342.325 113.372 342.325 112.214C342.325 111.056 342.672 109.925 343.323 108.967C343.901 108.121 344.211 107.12 344.211 106.095C344.211 105.07 343.901 104.069 343.323 103.222C342.672 102.266 342.324 101.136 342.324 99.9798C342.324 98.8231 342.672 97.6932 343.323 96.7371C343.901 95.8908 344.211 94.8897 344.211 93.8647C344.211 92.8397 343.901 91.8385 343.323 90.9923C342.672 90.0362 342.324 88.9063 342.324 87.7496C342.324 86.5929 342.672 85.463 343.323 84.5069C343.901 83.6607 344.211 82.6595 344.211 81.6345C344.211 80.6095 343.901 79.6083 343.323 78.7621C342.672 77.806 342.324 76.6761 342.324 75.5194C342.324 74.3627 342.672 73.2328 343.323 72.2767C343.913 71.4389 344.215 70.4326 344.184 69.4086C344.198 69.3234 344.241 69.2456 344.306 69.1895C344.372 69.1334 344.455 69.1025 344.542 69.1025C344.628 69.1025 344.712 69.1334 344.777 69.1895C344.843 69.2456 344.886 69.3234 344.899 69.4086C344.924 70.5675 344.573 71.7033 343.9 72.647C343.312 73.4888 343.01 74.4973 343.039 75.5237C343.008 76.5477 343.31 77.554 343.9 78.3918C344.551 79.3479 344.899 80.4778 344.899 81.6345C344.899 82.7912 344.551 83.9211 343.9 84.8772C343.317 85.7216 343.005 86.7235 343.005 87.7496C343.005 88.7757 343.317 89.7775 343.9 90.622C344.551 91.5781 344.899 92.708 344.899 93.8647C344.899 95.0214 344.551 96.1513 343.9 97.1074C343.317 97.9518 343.005 98.9537 343.005 99.9798C343.005 101.006 343.317 102.008 343.9 102.852C344.551 103.808 344.899 104.938 344.899 106.095C344.899 107.252 344.551 108.381 343.9 109.338C343.316 110.183 343.004 111.187 343.004 112.214C343.004 113.242 343.316 114.245 343.9 115.091C344.551 116.049 344.899 117.18 344.899 118.338C344.899 119.496 344.551 120.627 343.9 121.585C343.309 122.425 343.007 123.435 343.039 124.462C343.039 124.509 343.029 124.555 343.011 124.599C342.993 124.642 342.966 124.682 342.932 124.714C342.899 124.747 342.859 124.773 342.815 124.79C342.771 124.808 342.724 124.816 342.677 124.815Z" fill="#263238"/>
<path d="M343.625 68.8662C342.944 68.8662 338.457 72.9142 338.457 77.0311H348.809C348.809 72.9142 344.331 68.8662 343.625 68.8662Z" fill="#5694E3"/>
<path d="M344.641 69.0039H342.608C342.442 69.0039 342.307 69.1389 342.307 69.3053V69.5207C342.307 69.6872 342.442 69.8221 342.608 69.8221H344.641C344.807 69.8221 344.942 69.6872 344.942 69.5207V69.3053C344.942 69.1389 344.807 69.0039 344.641 69.0039Z" fill="#263238"/>
<path d="M227.197 51.3303C227.197 68.8401 207.999 86.0571 205.122 86.0571C202.245 86.0571 183.047 68.8315 183.047 51.3303C183.047 39.5824 192.926 30.0566 205.122 30.0566C217.318 30.0566 227.197 39.5824 227.197 51.3303Z" fill="#263238"/>
<path opacity="0.1" d="M201.543 47.6728C205.538 43.2877 206.589 37.7412 203.892 35.2844C201.195 32.8275 195.77 34.3907 191.776 38.7759C187.782 43.161 186.73 48.7075 189.427 51.1643C192.125 53.6211 197.549 52.058 201.543 47.6728Z" fill="white"/>
<path opacity="0.1" d="M189.765 65.3176C189.24 64.0084 189.378 62.7337 190.075 62.4409C190.773 62.1481 191.798 62.9921 192.289 64.3013C192.78 65.6104 192.677 66.8851 191.979 67.1779C191.281 67.4708 190.291 66.6267 189.765 65.3176Z" fill="white"/>
<path d="M204.14 141.179C204.047 141.179 203.957 141.142 203.89 141.076C203.824 141.01 203.787 140.92 203.787 140.826C203.761 139.664 204.112 138.525 204.786 137.579C205.364 136.731 205.673 135.729 205.673 134.702C205.673 133.676 205.364 132.674 204.786 131.826C204.136 130.868 203.788 129.737 203.788 128.579C203.788 127.421 204.136 126.29 204.786 125.332C205.376 124.494 205.678 123.488 205.647 122.464C205.676 121.437 205.374 120.429 204.786 119.587C204.135 118.631 203.787 117.501 203.787 116.344C203.787 115.188 204.135 114.058 204.786 113.101C205.376 112.264 205.678 111.257 205.647 110.233C205.676 109.207 205.374 108.198 204.786 107.357C204.135 106.401 203.787 105.271 203.787 104.114C203.787 102.957 204.135 101.827 204.786 100.871C205.364 100.026 205.673 99.0267 205.673 98.0032C205.673 96.9797 205.364 95.9801 204.786 95.1352C204.135 94.179 203.787 93.0491 203.787 91.8924C203.787 90.7358 204.135 89.6058 204.786 88.6497C205.374 87.808 205.676 86.7995 205.647 85.773C205.65 85.6801 205.688 85.5915 205.753 85.5258C205.819 85.46 205.908 85.4221 206.001 85.4199C206.094 85.4199 206.184 85.4571 206.25 85.5234C206.316 85.5896 206.354 85.6794 206.354 85.773C206.381 86.9336 206.033 88.0721 205.363 89.0201C204.78 89.8627 204.467 90.8632 204.467 91.8881C204.467 92.913 204.78 93.9136 205.363 94.7562C206.009 95.7145 206.353 96.8436 206.353 97.9989C206.353 99.1543 206.009 100.283 205.363 101.242C204.775 102.083 204.473 103.092 204.502 104.118C204.471 105.142 204.774 106.149 205.363 106.986C206.009 107.945 206.353 109.074 206.353 110.229C206.353 111.384 206.009 112.514 205.363 113.472C204.775 114.314 204.473 115.322 204.502 116.348C204.471 117.372 204.774 118.379 205.363 119.217C206.009 120.175 206.353 121.304 206.353 122.459C206.353 123.615 206.009 124.744 205.363 125.702C204.779 126.548 204.467 127.551 204.467 128.579C204.467 129.606 204.779 130.61 205.363 131.455C206.009 132.415 206.354 133.546 206.354 134.702C206.354 135.859 206.009 136.99 205.363 137.949C204.774 138.791 204.472 139.799 204.502 140.826C204.502 140.873 204.493 140.92 204.474 140.963C204.456 141.007 204.429 141.046 204.395 141.079C204.362 141.112 204.322 141.138 204.278 141.155C204.234 141.172 204.187 141.18 204.14 141.179Z" fill="#5694E3"/>
<path d="M205.088 85.2388C204.407 85.2388 199.92 89.2782 199.92 93.3951H210.255C210.272 89.2782 205.759 85.2388 205.088 85.2388Z" fill="#263238"/>
<path d="M206.104 85.3682H204.071C203.905 85.3682 203.77 85.5031 203.77 85.6696V85.8849C203.77 86.0514 203.905 86.1864 204.071 86.1864H206.104C206.27 86.1864 206.405 86.0514 206.405 85.8849V85.6696C206.405 85.5031 206.27 85.3682 206.104 85.3682Z" fill="#5694E3"/>
<path d="M355.576 140.805C360.793 136.015 361.138 127.902 356.348 122.685C351.557 117.468 343.445 117.122 338.228 121.913C333.011 126.703 332.665 134.816 337.456 140.033C342.246 145.25 350.359 145.596 355.576 140.805Z" fill="#DE5753"/>
<path d="M349.447 125.168V138.087H345.881V129.629C345.355 130.035 344.792 130.393 344.202 130.697C343.546 131.009 342.866 131.268 342.169 131.473V128.587C343.18 128.298 344.129 127.825 344.968 127.192C345.63 126.647 346.163 125.962 346.527 125.185L349.447 125.168Z" fill="white"/>
</svg>
