<svg width="17" height="18" viewBox="0 0 17 18" fill="none" xmlns="http://www.w3.org/2000/svg">
<g id="Group">
<path id="Vector" d="M10 16.3125H7C4.17175 16.3125 2.75725 16.3125 1.879 15.4335C1 14.5552 1 13.1407 1 10.3125V8.8125C1 5.98425 1 4.56975 1.879 3.6915C2.75725 2.8125 4.17175 2.8125 7 2.8125H10C12.8282 2.8125 14.2427 2.8125 15.121 3.6915C16 4.56975 16 5.98425 16 8.8125V10.3125C16 13.1407 16 14.5552 15.121 15.4335C14.6312 15.924 13.975 16.1408 13 16.236M4.75 2.8125V1.6875M12.25 2.8125V1.6875M15.625 6.5625H7.5625M1 6.5625H3.90625" stroke="#929292" stroke-width="1.5" stroke-linecap="round"/>
<path id="Vector_2" d="M12.5 12.5625C12.5 12.6288 12.4737 12.6924 12.4268 12.7393C12.3799 12.7862 12.3163 12.8125 12.25 12.8125C12.1837 12.8125 12.1201 12.7862 12.0732 12.7393C12.0263 12.6924 12 12.6288 12 12.5625C12 12.4962 12.0263 12.4326 12.0732 12.3857C12.1201 12.3388 12.1837 12.3125 12.25 12.3125C12.3163 12.3125 12.3799 12.3388 12.4268 12.3857C12.4737 12.4326 12.5 12.4962 12.5 12.5625ZM12.5 9.5625C12.5 9.62881 12.4737 9.69239 12.4268 9.73928C12.3799 9.78616 12.3163 9.8125 12.25 9.8125C12.1837 9.8125 12.1201 9.78616 12.0732 9.73928C12.0263 9.69239 12 9.6288 12 9.5625C12 9.4962 12.0263 9.43261 12.0732 9.38572C12.1201 9.33884 12.1837 9.3125 12.25 9.3125C12.3163 9.3125 12.3799 9.33884 12.4268 9.38572C12.4737 9.43261 12.5 9.49619 12.5 9.5625ZM8.67678 9.73928L9.03033 10.0928L8.67678 9.73928C8.62989 9.78616 8.5663 9.8125 8.5 9.8125C8.4337 9.8125 8.37011 9.78616 8.32322 9.73928C8.27634 9.69239 8.25 9.6288 8.25 9.5625C8.25 9.4962 8.27634 9.43261 8.32322 9.38572C8.37011 9.33884 8.4337 9.3125 8.5 9.3125C8.5663 9.3125 8.62989 9.33884 8.67678 9.38572C8.72366 9.43261 8.75 9.4962 8.75 9.5625C8.75 9.6288 8.72366 9.69239 8.67678 9.73928ZM8.75 12.5625C8.75 12.6288 8.72366 12.6924 8.67678 12.7393C8.62989 12.7862 8.5663 12.8125 8.5 12.8125C8.4337 12.8125 8.37011 12.7862 8.32322 12.7393C8.27634 12.6924 8.25 12.6288 8.25 12.5625C8.25 12.4962 8.27634 12.4326 8.32322 12.3857C8.37011 12.3388 8.4337 12.3125 8.5 12.3125C8.5663 12.3125 8.62989 12.3388 8.67678 12.3857C8.72366 12.4326 8.75 12.4962 8.75 12.5625ZM5 12.5625C5 12.6288 4.97366 12.6924 4.92678 12.7393C4.87989 12.7862 4.8163 12.8125 4.75 12.8125C4.6837 12.8125 4.62011 12.7862 4.57322 12.7393C4.52634 12.6924 4.5 12.6288 4.5 12.5625C4.5 12.4962 4.52634 12.4326 4.57322 12.3857C4.62011 12.3388 4.6837 12.3125 4.75 12.3125C4.8163 12.3125 4.87989 12.3388 4.92678 12.3857C4.97366 12.4326 5 12.4962 5 12.5625ZM5 9.5625C5 9.6288 4.97366 9.69239 4.92678 9.73928C4.87989 9.78616 4.8163 9.8125 4.75 9.8125C4.6837 9.8125 4.62011 9.78616 4.57322 9.73928C4.52634 9.69239 4.5 9.6288 4.5 9.5625C4.5 9.4962 4.52634 9.43261 4.57322 9.38572C4.62011 9.33884 4.6837 9.3125 4.75 9.3125C4.8163 9.3125 4.87989 9.33884 4.92678 9.38572C4.97366 9.43261 5 9.4962 5 9.5625Z" fill="black" stroke="#929292"/>
</g>
</svg>
