<svg width="15" height="20" viewBox="0 0 15 20" fill="none" xmlns="http://www.w3.org/2000/svg">
<path id="Vector" d="M7.5 1.99169V6.86669C7.5 7.21147 7.36304 7.54213 7.11924 7.78593C6.87544 8.02972 6.54478 8.16669 6.2 8.16669H1.325M1 8.70497V16.6167C1 17.1339 1.20545 17.6298 1.57114 17.9955C1.93684 18.3612 2.43283 18.5667 2.95 18.5667H12.05C12.5672 18.5667 13.0632 18.3612 13.4289 17.9955C13.7946 17.6298 14 17.1339 14 16.6167V3.61669C14 3.09951 13.7946 2.60352 13.4289 2.23783C13.0632 1.87213 12.5672 1.66669 12.05 1.66669H8.03828C7.69362 1.66674 7.36308 1.80366 7.11934 2.04734L1.38066 7.78603C1.13697 8.02977 1.00005 8.36031 1 8.70497Z" stroke="#929292" stroke-width="1.5" stroke-linecap="round" stroke-linejoin="round"/>
</svg>
