<svg width="17" height="19" viewBox="0 0 17 19" fill="none" xmlns="http://www.w3.org/2000/svg">
<path id="Vector" d="M1 11V7.66667C1 4.52417 1 2.9525 1.97667 1.97667C2.9525 1 4.52417 1 7.66667 1H9.33333C12.4758 1 14.0475 1 15.0233 1.97667C15.5683 2.52083 15.8092 3.25 15.915 4.33333M16 7.66667V11C16 14.1425 16 15.7142 15.0233 16.69C14.0475 17.6667 12.4758 17.6667 9.33333 17.6667H7.66667C4.52417 17.6667 2.9525 17.6667 1.97667 16.69C1.43167 16.1458 1.19083 15.4167 1.085 14.3333M5.16667 11H9.33333M5.16667 7.66667H6M11.8333 7.66667H8.5" stroke="#929292" stroke-width="1.5" stroke-linecap="round"/>
</svg>
