<svg width="15" height="15" viewBox="0 0 15 15" fill="none" xmlns="http://www.w3.org/2000/svg">
<path id="Vector" d="M1.875 0.69165C0.846875 0.69165 0 1.53853 0 2.56665V6.94165C0 11.0773 3.36437 14.4417 7.5 14.4417C11.6356 14.4417 15 11.0773 15 6.94165V2.56665C15 1.53853 14.1531 0.69165 13.125 0.69165H1.875ZM1.875 1.94165H13.125C13.4788 1.94165 13.75 2.2129 13.75 2.56665V6.94165C13.75 10.401 10.9594 13.1917 7.5 13.1917C4.04063 13.1917 1.25 10.401 1.25 6.94165V2.56665C1.25 2.2129 1.52125 1.94165 1.875 1.94165ZM4.16 4.6954C3.92063 4.6954 3.67875 4.8054 3.49625 4.98853C3.40928 5.07388 3.3402 5.17571 3.29305 5.28806C3.24589 5.40042 3.2216 5.52105 3.2216 5.6429C3.2216 5.76475 3.24589 5.88538 3.29305 5.99774C3.3402 6.11009 3.40928 6.21192 3.49625 6.29728L6.875 9.67603C7.05123 9.85193 7.29006 9.95073 7.53906 9.95073C7.78806 9.95073 8.02689 9.85193 8.20312 9.67603L11.5037 6.39478C11.6797 6.21854 11.7785 5.97971 11.7785 5.73071C11.7785 5.48171 11.6797 5.24288 11.5037 5.06665C11.3275 4.89074 11.0887 4.79195 10.8397 4.79195C10.5907 4.79195 10.3519 4.89074 10.1756 5.06665L7.53937 7.70353L4.82438 4.98853C4.64125 4.8054 4.39937 4.6954 4.16 4.6954Z" fill="#929292"/>
</svg>
