<svg width="16" height="20" viewBox="0 0 16 20" fill="none" xmlns="http://www.w3.org/2000/svg">
<path id="lab_profile" d="M5 9.75C4.78717 9.75 4.609 9.67817 4.4655 9.5345C4.32183 9.391 4.25 9.21283 4.25 9C4.25 8.78717 4.32183 8.609 4.4655 8.4655C4.609 8.32183 4.78717 8.25 5 8.25H11C11.2128 8.25 11.391 8.32183 11.5345 8.4655C11.6782 8.609 11.75 8.78717 11.75 9C11.75 9.21283 11.6782 9.391 11.5345 9.5345C11.391 9.67817 11.2128 9.75 11 9.75H5ZM5 5.75C4.78717 5.75 4.609 5.67817 4.4655 5.5345C4.32183 5.391 4.25 5.21283 4.25 5C4.25 4.78717 4.32183 4.609 4.4655 4.4655C4.609 4.32183 4.78717 4.25 5 4.25H11C11.2128 4.25 11.391 4.32183 11.5345 4.4655C11.6782 4.609 11.75 4.78717 11.75 5C11.75 5.21283 11.6782 5.391 11.5345 5.5345C11.391 5.67817 11.2128 5.75 11 5.75H5ZM2 12.25H9.5C9.94483 12.25 10.3563 12.3462 10.7345 12.5385C11.1128 12.7308 11.434 13.0026 11.698 13.3538L14 16.354V2.30775C14 2.21792 13.9712 2.14417 13.9135 2.0865C13.8558 2.02883 13.7821 2 13.6923 2H2.30775C2.21792 2 2.14417 2.02883 2.0865 2.0865C2.02883 2.14417 2 2.21792 2 2.30775V12.25ZM2.30775 18H13.3673L10.5173 14.2712C10.3916 14.1058 10.2419 13.9775 10.0682 13.8865C9.89458 13.7955 9.70517 13.75 9.5 13.75H2V17.6923C2 17.7821 2.02883 17.8558 2.0865 17.9135C2.14417 17.9712 2.21792 18 2.30775 18ZM13.6923 19.5H2.30775C1.80258 19.5 1.375 19.325 1.025 18.975C0.675 18.625 0.5 18.1974 0.5 17.6923V2.30775C0.5 1.80258 0.675 1.375 1.025 1.025C1.375 0.675 1.80258 0.5 2.30775 0.5H13.6923C14.1974 0.5 14.625 0.675 14.975 1.025C15.325 1.375 15.5 1.80258 15.5 2.30775V17.6923C15.5 18.1974 15.325 18.625 14.975 18.975C14.625 19.325 14.1974 19.5 13.6923 19.5Z" fill="#61646A"/>
</svg>
