<svg width="16" height="20" viewBox="0 0 16 20" fill="none" xmlns="http://www.w3.org/2000/svg">
<path d="M15.5 2.3V17.7C15.5 18.004 15.4431 18.1422 15.3 18.5C15.3 18.6 15 19 15 19C14.6 19.4 14.2 19.5 13.7 19.5H2.3C1.8 19.5 1.4 19.3 1 19C0.7 18.6 0.5 18.2 0.5 17.7V2.3C0.5 1.8 0.7 1.4 1 1C1.4 0.6 1.8 0.5 2.3 0.5H13.7C14.2 0.5 14.6 0.7 15 1C15.3 1.4 15.5 1.8 15.5 2.3Z" fill="#00A3FF"/>
<path d="M4.4998 9.4998C4.5998 9.5998 4.7998 9.6998 4.9998 9.6998H10.9998C11.1998 9.6998 11.3998 9.5998 11.4998 9.4998C11.5998 9.3998 11.6998 9.1998 11.6998 8.9998C11.6998 8.7998 11.5998 8.5998 11.4998 8.4998C11.3998 8.3998 11.1998 8.2998 10.9998 8.2998H4.9998C4.7998 8.2998 4.5998 8.3998 4.4998 8.4998C4.3998 8.5998 4.2998 8.7998 4.2998 8.9998C4.2998 9.1998 4.2998 9.3998 4.4998 9.4998Z" fill="white"/>
<path d="M4.49997 5.4998C4.59997 5.5998 4.79997 5.6998 4.99997 5.6998H11C11.2 5.6998 11.4 5.5998 11.5 5.4998C11.6 5.3998 11.7 5.1998 11.7 4.9998C11.7 4.7998 11.6 4.5998 11.5 4.4998C11.4 4.3998 11.2 4.2998 11 4.2998H4.99997C4.79997 4.2998 4.59997 4.3998 4.49997 4.4998C4.39997 4.5998 4.29997 4.7998 4.29997 4.9998C4.19997 5.1998 4.29997 5.3998 4.49997 5.4998Z" fill="white"/>
<path d="M15.5 16.1002V17.7002C15.5 18.0002 15.418 18.2188 15.3203 18.4297L12 14.7002C11.8 14.5002 11.7 14.4002 11.5 14.3002C11.3 14.2002 11.1 14.2002 10.8 14.2002H0.5V12.7002H10.9C11.4 12.7002 11.9 12.8002 12.3 13.0002C12.7 13.2002 13.1 13.5002 13.4 13.8002L15.5 16.1002Z" fill="white"/>
</svg>
