<svg width="24" height="24" viewBox="0 0 24 24" fill="none" xmlns="http://www.w3.org/2000/svg">
<g clip-path="url(#clip0_1_179)">
<mask id="mask0_1_179" style="mask-type:luminance" maskUnits="userSpaceOnUse" x="0" y="0" width="24" height="24">
<path d="M24 0H0V24H24V0Z" fill="white"/>
</mask>
<g mask="url(#mask0_1_179)">
<path d="M14.7492 8.00006H22.2492C23.2141 8.00006 23.9991 7.21509 23.9991 6.24994V1.74994C23.9991 0.784973 23.2141 0 22.2492 0H14.7492C13.784 0 12.999 0.784973 12.999 1.74994V6.24994C12.999 7.21509 13.784 8.00006 14.7492 8.00006ZM22.2492 1.5C22.387 1.5 22.4991 1.61206 22.4991 1.74994V6.24994C22.4991 6.388 22.387 6.50006 22.2492 6.50006H14.7492C14.6111 6.50006 14.499 6.388 14.499 6.24994V1.74994C14.499 1.61206 14.6111 1.5 14.7492 1.5H22.2492Z" fill="#00A398"/>
<path d="M14.7492 24.0001H22.2492C23.2141 24.0001 23.9991 23.2151 23.9991 22.2501V11.7501C23.9991 10.785 23.2141 10 22.2492 10H14.7492C13.784 10 12.999 10.785 12.999 11.7501V22.2501C12.999 23.2151 13.784 24.0001 14.7492 24.0001ZM22.2492 11.5C22.387 11.5 22.4991 11.6121 22.4991 11.7501V22.2501C22.4991 22.388 22.387 22.5001 22.2492 22.5001H14.7492C14.6111 22.5001 14.499 22.388 14.499 22.2501V11.7501C14.499 11.6121 14.6111 11.5 14.7492 11.5H22.2492Z" fill="#00A398"/>
<path d="M1.74993 24.0001H9.24994C10.2151 24.0001 11.0001 23.2151 11.0001 22.2501V17.7501C11.0001 16.785 10.2151 16 9.24994 16H1.74993C0.784973 16 0 16.785 0 17.7501V22.2501C0 23.2151 0.784973 24.0001 1.74993 24.0001ZM9.24994 17.5C9.388 17.5 9.50006 17.6121 9.50006 17.7501V22.2501C9.50006 22.388 9.388 22.5001 9.24994 22.5001H1.74993C1.61206 22.5001 1.5 22.388 1.5 22.2501V17.7501C1.5 17.6121 1.61206 17.5 1.74993 17.5H9.24994Z" fill="#00A398"/>
<path d="M1.74993 14.0001H9.24994C10.2151 14.0001 11.0001 13.2151 11.0001 12.2499V1.74994C11.0001 0.784973 10.2151 0 9.24994 0H1.74993C0.784973 0 0 0.784973 0 1.74994V12.2499C0 13.2151 0.784973 14.0001 1.74993 14.0001ZM9.24994 1.5C9.388 1.5 9.50006 1.61206 9.50006 1.74994V12.2499C9.50006 12.388 9.388 12.5001 9.24994 12.5001H1.74993C1.61206 12.5001 1.5 12.388 1.5 12.2499V1.74994C1.5 1.61206 1.61206 1.5 1.74993 1.5H9.24994Z" fill="#00A398"/>
</g>
</g>
<defs>
<clipPath id="clip0_1_179">
<rect width="24" height="24" fill="white"/>
</clipPath>
</defs>
</svg>
