<svg width="18" height="20" viewBox="0 0 18 20" fill="none" xmlns="http://www.w3.org/2000/svg">
<path id="local_mall" d="M2.30775 19.75C1.80908 19.75 1.38308 19.5734 1.02975 19.2203C0.676583 18.8669 0.5 18.4409 0.5 17.9423V6.55775C0.5 6.05908 0.676583 5.63308 1.02975 5.27975C1.38308 4.92658 1.80908 4.75 2.30775 4.75H4.5C4.5 3.50133 4.93783 2.43917 5.8135 1.5635C6.68917 0.687833 7.75133 0.25 9 0.25C10.2487 0.25 11.3108 0.687833 12.1865 1.5635C13.0622 2.43917 13.5 3.50133 13.5 4.75H15.6923C16.1909 4.75 16.6169 4.92658 16.9703 5.27975C17.3234 5.63308 17.5 6.05908 17.5 6.55775V17.9423C17.5 18.4409 17.3234 18.8669 16.9703 19.2203C16.6169 19.5734 16.1909 19.75 15.6923 19.75H2.30775ZM2.30775 18.25H15.6923C15.7692 18.25 15.8398 18.2179 15.9038 18.1538C15.9679 18.0898 16 18.0193 16 17.9423V6.55775C16 6.48075 15.9679 6.41025 15.9038 6.34625C15.8398 6.28208 15.7692 6.25 15.6923 6.25H2.30775C2.23075 6.25 2.16025 6.28208 2.09625 6.34625C2.03208 6.41025 2 6.48075 2 6.55775V17.9423C2 18.0193 2.03208 18.0898 2.09625 18.1538C2.16025 18.2179 2.23075 18.25 2.30775 18.25ZM9 11.75C10.2487 11.75 11.3108 11.3122 12.1865 10.4365C13.0622 9.56083 13.5 8.49867 13.5 7.25H12C12 8.08333 11.7083 8.79167 11.125 9.375C10.5417 9.95833 9.83333 10.25 9 10.25C8.16667 10.25 7.45833 9.95833 6.875 9.375C6.29167 8.79167 6 8.08333 6 7.25H4.5C4.5 8.49867 4.93783 9.56083 5.8135 10.4365C6.68917 11.3122 7.75133 11.75 9 11.75ZM6 4.75H12C12 3.91667 11.7083 3.20833 11.125 2.625C10.5417 2.04167 9.83333 1.75 9 1.75C8.16667 1.75 7.45833 2.04167 6.875 2.625C6.29167 3.20833 6 3.91667 6 4.75Z" fill="#61646A"/>
</svg>
