<svg width="15" height="16" viewBox="0 0 15 16" fill="none" xmlns="http://www.w3.org/2000/svg">
<path id="Vector" d="M1.50012 0.6C1.11482 0.600468 0.787106 0.736783 0.51165 1.01177C0.236291 1.28666 0.1 1.61426 0.1 2L0.0999999 12.4999C0.100468 12.8862 0.236829 13.2142 0.511711 13.489C0.786588 13.7639 1.11421 13.9 1.5 13.9H5.25H5.25047C5.43747 13.9009 5.58933 13.8389 5.71304 13.7143C5.83717 13.5893 5.89956 13.4366 5.9 13.2498C5.90044 13.0631 5.83838 12.9111 5.71404 12.7867C5.58968 12.6624 5.43726 12.6 5.25 12.6H1.5H1.4V12.5V11.75V6.55625V6.5V2M1.50012 0.6L12 0.5C12.4125 0.5 12.7657 0.647 13.0597 0.941C13.3537 1.235 13.5005 1.588 13.5 2V5.75C13.5 5.9625 13.428 6.14075 13.284 6.28475C13.14 6.42875 12.962 6.5005 12.75 6.5C12.538 6.4995 12.36 6.4275 12.216 6.284C12.072 6.1405 12 5.9625 12 5.75V2.1V2H11.9H1.6H1.5H1.4M1.50012 0.6L12 0.6C12.3857 0.6 12.7136 0.736297 12.989 1.01171C13.2644 1.28712 13.4005 1.61471 13.4 1.99988V2V5.75C13.4 5.93726 13.3376 6.08968 13.2133 6.21404C13.0889 6.33838 12.9368 6.40044 12.7502 6.4C12.5634 6.39956 12.411 6.33717 12.2866 6.21316C12.1623 6.08935 12.1 5.93726 12.1 5.75V2V1.9H12H1.5H1.4V2M1.50012 0.6L1.4 2M3.75 10.9L3.74976 10.9C3.56315 10.9004 3.41105 10.8384 3.28671 10.714C3.16238 10.5897 3.10003 10.4373 3.1 10.2501C3.10046 10.0633 3.16285 9.911 3.28683 9.78658C3.41064 9.66234 3.56274 9.6 3.75 9.6H5.30625C5.49465 9.6 5.64687 9.66243 5.77004 9.78646C5.8936 9.91088 5.95581 10.0632 5.95625 10.2502C5.95669 10.4368 5.89463 10.5889 5.77029 10.7133C5.64593 10.8376 5.49351 10.9 5.30625 10.9H3.75ZM3.75 7.9L3.74976 7.9C3.56315 7.90044 3.41105 7.83838 3.28671 7.71404C3.16238 7.58971 3.10003 7.43733 3.1 7.25013C3.10046 7.0633 3.16285 6.911 3.28683 6.78659C3.41064 6.66234 3.56274 6.6 3.75 6.6H7.5C7.68726 6.6 7.83935 6.66234 7.96316 6.78659C8.08717 6.91103 8.14956 7.06336 8.15 7.25023C8.15044 7.43685 8.08838 7.58894 7.96404 7.71329C7.83968 7.83764 7.68726 7.9 7.5 7.9L3.75 7.9ZM3.75 4.9L3.74976 4.9C3.56315 4.90044 3.41105 4.83838 3.28671 4.71404C3.16238 4.58971 3.10003 4.43733 3.1 4.25013C3.10046 4.0633 3.16285 3.91101 3.28683 3.78659C3.41064 3.66235 3.56274 3.6 3.75 3.6H9.75C9.93726 3.6 10.0894 3.66235 10.2132 3.78659C10.3372 3.91103 10.3996 4.06336 10.4 4.25023C10.4004 4.43685 10.3384 4.58894 10.214 4.71329C10.0897 4.83764 9.93726 4.9 9.75 4.9L3.75 4.9ZM11.2501 15.4H11.25C10.2389 15.4 9.38016 15.0447 8.66798 14.3321C7.95577 13.6194 7.60048 12.7605 7.6 11.7499C7.59951 10.7394 7.95476 9.88067 8.66793 9.16798C9.38115 8.45526 10.24 8.1 11.25 8.1C12.26 8.1 13.1191 8.45526 13.8328 9.16801C14.5465 9.88068 14.9015 10.7394 14.9 11.7499C14.8985 12.7605 14.5432 13.6197 13.8319 14.3329C13.1208 15.0459 12.2621 15.401 11.2501 15.4ZM11.725 11.5586V9.875C11.725 9.74674 11.6757 9.63428 11.5832 9.54179C11.4907 9.44929 11.3783 9.4 11.25 9.4C11.1217 9.4 11.0093 9.44929 10.9168 9.54179C10.8243 9.63428 10.775 9.74674 10.775 9.875V11.6C10.775 11.7128 10.7962 11.8201 10.8393 11.9206C10.8824 12.0211 10.9463 12.1127 11.0293 12.1957L12.173 13.3395C12.2655 13.4319 12.378 13.4812 12.5062 13.4812C12.6345 13.4812 12.747 13.4319 12.8395 13.3395C12.9319 13.247 12.9812 13.1345 12.9812 13.0062C12.9812 12.878 12.9319 12.7655 12.8395 12.673L11.725 11.5586Z" fill="#929292" stroke="white" stroke-width="0.2"/>
</svg>
