<svg width="16" height="16" viewBox="0 0 16 16" fill="none" xmlns="http://www.w3.org/2000/svg">
<path id="Vector" d="M9.59812 8L6.39875 4.80063V7.20016H0V8.79984H6.39875V11.1994M15.9969 8C15.9972 9.91124 15.3132 11.7594 14.0687 13.2099C12.8241 14.6604 11.1013 15.6173 9.21222 15.9073C7.32312 16.1974 5.39261 15.8014 3.77025 14.791C2.14788 13.7807 0.940929 12.2228 0.367928 10.3995H2.07159C2.62845 11.7761 3.64674 12.9162 4.95196 13.6243C6.25718 14.3324 7.76806 14.5646 9.22566 14.2809C10.6833 13.9973 11.9968 13.2155 12.9413 12.0696C13.8857 10.9237 14.4021 9.48494 14.4021 8C14.4021 6.51506 13.8857 5.07634 12.9413 3.93042C11.9968 2.7845 10.6833 2.00272 9.22566 1.71907C7.76806 1.43542 6.25718 1.66756 4.95196 2.3757C3.64674 3.08384 2.62845 4.22389 2.07159 5.60047H0.367928C0.940929 3.77715 2.14788 2.21928 3.77025 1.20895C5.39261 0.198617 7.32312 -0.197383 9.21222 0.0926528C11.1013 0.382689 12.8241 1.33959 14.0687 2.79008C15.3132 4.24057 15.9972 6.08876 15.9969 8Z" fill="#929292"/>
</svg>
