<svg width="19" height="15" viewBox="0 0 19 15" fill="none" xmlns="http://www.w3.org/2000/svg">
<g id="Group 1000010504">
<g id="Group 1000010502">
<path id="Vector" d="M17.5193 10.056C17.5193 12.4032 15.6165 14.306 13.2693 14.306C10.9221 14.306 9.01934 12.4032 9.01934 10.056C9.01934 7.70875 10.9221 5.80596 13.2693 5.80596C15.6165 5.80596 17.5193 7.70875 17.5193 10.056Z" fill="#00A3FF" stroke="#00A3FF" stroke-width="1.4"/>
<g id="Vector_2">
<mask id="path-2-inside-1_1333_1132" fill="white">
<path d="M10.6149 6.27607L7.19842 1.2602C6.61689 0.387876 5.45382 0.387876 4.87228 1.2602L0.510772 7.72995C-0.216147 8.67497 0.510771 10.0562 1.67384 10.0562H8.94303"/>
</mask>
<path d="M10.6149 6.27607L7.19842 1.2602C6.61689 0.387876 5.45382 0.387876 4.87228 1.2602L0.510772 7.72995C-0.216147 8.67497 0.510771 10.0562 1.67384 10.0562H8.94303" fill="#00A3FF" stroke="#00A3FF" stroke-width="2.8" mask="url(#path-2-inside-1_1333_1132)"/>
</g>
</g>
<circle id="Ellipse 53" cx="13.2695" cy="10.0562" r="1.25" fill="white"/>
</g>
</svg>
