<svg width="19" height="15" viewBox="0 0 19 15" fill="none" xmlns="http://www.w3.org/2000/svg">
<g id="Group 1000010503">
<g id="Group 1000010502">
<path id="Vector" d="M17.5652 10.056C17.5652 12.4032 15.6624 14.306 13.3152 14.306C10.968 14.306 9.06523 12.4032 9.06523 10.056C9.06523 7.70875 10.968 5.80596 13.3152 5.80596C15.6624 5.80596 17.5652 7.70875 17.5652 10.056Z" stroke="#61646A" stroke-width="1.4"/>
<g id="Vector_2">
<mask id="path-2-inside-1_1333_1131" fill="white">
<path d="M10.6608 6.27607L7.24432 1.2602C6.66279 0.387876 5.49972 0.387876 4.91818 1.2602L0.55667 7.72995C-0.170249 8.67497 0.55667 10.0562 1.71974 10.0562H8.98893"/>
</mask>
<path d="M10.6608 6.27607L7.24432 1.2602C6.66279 0.387876 5.49972 0.387876 4.91818 1.2602L0.55667 7.72995C-0.170249 8.67497 0.55667 10.0562 1.71974 10.0562H8.98893" stroke="#61646A" stroke-width="2.8" mask="url(#path-2-inside-1_1333_1131)"/>
</g>
</g>
<circle id="Ellipse 53" cx="13.3154" cy="10.0562" r="1.25" fill="#61646A"/>
</g>
</svg>
