<svg width="13" height="17" viewBox="0 0 13 17" fill="none" xmlns="http://www.w3.org/2000/svg">
<g id="Vector">
<path d="M9.4359 9.38722C9.4359 9.22401 9.37106 9.06749 9.25566 8.95208C9.14025 8.83667 8.98372 8.77184 8.82051 8.77184H3.89744C3.73423 8.77184 3.5777 8.83667 3.46229 8.95208C3.34689 9.06749 3.28205 9.22401 3.28205 9.38722C3.28205 9.55043 3.34689 9.70696 3.46229 9.82237C3.5777 9.93777 3.73423 10.0026 3.89744 10.0026H8.82051C8.98372 10.0026 9.14025 9.93777 9.25566 9.82237C9.37106 9.70696 9.4359 9.55043 9.4359 9.38722ZM9.4359 12.6693C9.4359 12.5061 9.37106 12.3495 9.25566 12.2341C9.14025 12.1187 8.98372 12.0539 8.82051 12.0539H3.89744C3.73423 12.0539 3.5777 12.1187 3.46229 12.2341C3.34689 12.3495 3.28205 12.5061 3.28205 12.6693C3.28205 12.8325 3.34689 12.989 3.46229 13.1044C3.5777 13.2198 3.73423 13.2847 3.89744 13.2847H8.82051C8.98372 13.2847 9.14025 13.2198 9.25566 13.1044C9.37106 12.989 9.4359 12.8325 9.4359 12.6693Z" fill="#929292"/>
<path fill-rule="evenodd" clip-rule="evenodd" d="M2.25641 0.566711C1.65797 0.566711 1.08405 0.80444 0.660887 1.2276C0.237728 1.65076 0 2.22468 0 2.82312V14.3103C0 14.9087 0.237728 15.4827 0.660887 15.9058C1.08405 16.329 1.65797 16.5667 2.25641 16.5667H10.4615C11.06 16.5667 11.6339 16.329 12.0571 15.9058C12.4802 15.4827 12.7179 14.9087 12.7179 14.3103V5.2584C12.7179 4.94579 12.6162 4.6422 12.4275 4.39276L9.96759 1.13697C9.83375 0.959833 9.66065 0.816147 9.4619 0.7172C9.26315 0.618253 9.04417 0.566741 8.82215 0.566711H2.25641ZM1.23077 2.82312C1.23077 2.25697 1.69026 1.79748 2.25641 1.79748H8.20513V5.40528C8.20513 5.74497 8.48082 6.02066 8.82051 6.02066H11.4872V14.3103C11.4872 14.8765 11.0277 15.3359 10.4615 15.3359H2.25641C1.69026 15.3359 1.23077 14.8765 1.23077 14.3103V2.82312Z" fill="#929292"/>
</g>
</svg>
