<svg width="17" height="18" viewBox="0 0 17 18" fill="none" xmlns="http://www.w3.org/2000/svg">
<path id="Vector" d="M2.875 5.48438V12.9844M2.875 5.48438C3.91053 5.48438 4.75 4.64491 4.75 3.60938C4.75 2.57384 3.91053 1.73438 2.875 1.73438C1.83947 1.73438 1 2.57384 1 3.60938C1 4.64491 1.83947 5.48438 2.875 5.48438ZM2.875 12.9844C1.83947 12.9844 1 13.8238 1 14.8594C1 15.8949 1.83947 16.7344 2.875 16.7344C3.91053 16.7344 4.75 15.8949 4.75 14.8594C4.75 13.8238 3.91053 12.9844 2.875 12.9844ZM14.125 12.9844V9.23438C14.125 6.58312 14.125 5.25656 13.3009 4.43344C12.4778 3.60938 11.1513 3.60938 8.5 3.60938H7.5625M14.125 12.9844C13.0895 12.9844 12.25 13.8238 12.25 14.8594C12.25 15.8949 13.0895 16.7344 14.125 16.7344C15.1605 16.7344 16 15.8949 16 14.8594C16 13.8238 15.1605 12.9844 14.125 12.9844ZM7.5625 3.60938C7.5625 2.95313 9.43188 1.72688 9.90625 1.26562M7.5625 3.60938C7.5625 4.26562 9.43188 5.49187 9.90625 5.95312" stroke="#929292" stroke-width="1.5" stroke-linecap="round" stroke-linejoin="round"/>
</svg>
