<svg width="24" height="24" viewBox="0 0 24 24" fill="none" xmlns="http://www.w3.org/2000/svg">
<path d="M1.80957 17.1466H0.928432C0.701103 17.1466 0.483086 17.0563 0.32234 16.8956C0.161595 16.7348 0.0712891 16.5168 0.0712891 16.2895V3.43234C0.0712891 3.20501 0.161595 2.98699 0.32234 2.82625C0.483086 2.6655 0.701103 2.5752 0.928432 2.5752H16.357C16.5843 2.5752 16.8024 2.6655 16.9631 2.82625C17.1238 2.98699 17.2141 3.20501 17.2141 3.43234V6.00377H21.6216C21.8263 6.00384 22.0242 6.07717 22.1795 6.21049C22.3348 6.34381 22.4373 6.52831 22.4684 6.73062L23.9187 16.1592C23.9375 16.2813 23.9297 16.406 23.8957 16.5248C23.8618 16.6436 23.8026 16.7537 23.7222 16.8475C23.6417 16.9413 23.542 17.0166 23.4297 17.0682C23.3175 17.1198 23.1954 17.1466 23.0719 17.1466H20.6204C20.6797 17.6855 20.6248 18.2308 20.4591 18.747C20.2935 19.2632 20.0209 19.7387 19.6591 20.1425C19.2974 20.5462 18.8546 20.8692 18.3596 21.0903C17.8646 21.3114 17.3286 21.4257 16.7864 21.4257C16.2443 21.4257 15.7083 21.3114 15.2133 21.0903C14.7183 20.8692 14.2755 20.5462 13.9137 20.1425C13.552 19.7387 13.2794 19.2632 13.1137 18.747C12.9481 18.2308 12.8931 17.6855 12.9524 17.1466H9.47586C9.53516 17.6855 9.4802 18.2308 9.31456 18.747C9.14892 19.2632 8.87633 19.7387 8.51457 20.1425C8.1528 20.5462 7.70998 20.8692 7.215 21.0903C6.72002 21.3114 6.18398 21.4257 5.64186 21.4257C5.09974 21.4257 4.56371 21.3114 4.06872 21.0903C3.57374 20.8692 3.13092 20.5462 2.76916 20.1425C2.40739 19.7387 2.1348 19.2632 1.96916 18.747C1.80353 18.2308 1.74856 17.6855 1.80786 17.1466H1.80957ZM2.43529 15.4323C2.78713 14.9041 3.26401 14.4709 3.82356 14.1713C4.38311 13.8716 5.008 13.7149 5.64272 13.7149C6.27744 13.7149 6.90233 13.8716 7.46187 14.1713C8.02142 14.4709 8.4983 14.9041 8.85015 15.4323H13.5799C14.0376 14.7466 14.7113 14.2169 15.5016 13.9375V4.28948H1.78557V15.4323H2.43529ZM19.993 15.4323H22.0724L21.5461 12.0038H17.2141V13.7421C17.7725 13.8044 18.3105 13.988 18.7905 14.28C19.2704 14.5719 19.6809 14.9652 19.993 15.4323ZM21.2821 10.2895L20.8879 7.71805H17.2141V10.2895H21.2821ZM16.7856 19.7181C17.3539 19.7181 17.8989 19.4923 18.3008 19.0904C18.7027 18.6886 18.9284 18.1435 18.9284 17.5752C18.9284 17.0069 18.7027 16.4618 18.3008 16.06C17.8989 15.6581 17.3539 15.4323 16.7856 15.4323C16.2173 15.4323 15.6722 15.6581 15.2703 16.06C14.8685 16.4618 14.6427 17.0069 14.6427 17.5752C14.6427 18.1435 14.8685 18.6886 15.2703 19.0904C15.6722 19.4923 16.2173 19.7181 16.7856 19.7181ZM5.64272 19.7181C6.21104 19.7181 6.75608 19.4923 7.15795 19.0904C7.55981 18.6886 7.78557 18.1435 7.78557 17.5752C7.78557 17.0069 7.55981 16.4618 7.15795 16.06C6.75608 15.6581 6.21104 15.4323 5.64272 15.4323C5.0744 15.4323 4.52935 15.6581 4.12749 16.06C3.72563 16.4618 3.49986 17.0069 3.49986 17.5752C3.49986 18.1435 3.72563 18.6886 4.12749 19.0904C4.52935 19.4923 5.0744 19.7181 5.64272 19.7181Z" fill="#214080"/>
</svg>
